G04*
G04 #@! TF.GenerationSoftware,Altium Limited,Altium Designer,20.2.6 (244)*
G04*
G04 Layer_Color=16711935*
%FSLAX44Y44*%
%MOMM*%
G71*
G04*
G04 #@! TF.SameCoordinates,9645A69E-1417-4B4D-8682-0EA00A473316*
G04*
G04*
G04 #@! TF.FilePolarity,Positive*
G04*
G01*
G75*
%ADD11C,0.1524*%
%ADD35C,0.2540*%
D11*
X910074Y1960858D02*
X915152D01*
X912613D01*
Y1976093D01*
X910074Y1973554D01*
X922770Y1963398D02*
X925309Y1960858D01*
X930387D01*
X932927Y1963398D01*
Y1973554D01*
X930387Y1976093D01*
X925309D01*
X922770Y1973554D01*
Y1971015D01*
X925309Y1968476D01*
X932927D01*
X945622Y1960858D02*
Y1976093D01*
X938005Y1968476D01*
X948162D01*
X953240Y1960858D02*
Y1963398D01*
X955779D01*
Y1960858D01*
X953240D01*
X965936Y1973554D02*
X968475Y1976093D01*
X973553D01*
X976093Y1973554D01*
Y1963398D01*
X973553Y1960858D01*
X968475D01*
X965936Y1963398D01*
Y1973554D01*
X981171D02*
X983710Y1976093D01*
X988789D01*
X991328Y1973554D01*
Y1963398D01*
X988789Y1960858D01*
X983710D01*
X981171Y1963398D01*
Y1973554D01*
X996406Y1960858D02*
Y1971015D01*
X998945D01*
X1001485Y1968476D01*
Y1960858D01*
Y1968476D01*
X1004024Y1971015D01*
X1006563Y1968476D01*
Y1960858D01*
X1011641D02*
Y1971015D01*
X1014180D01*
X1016720Y1968476D01*
Y1960858D01*
Y1968476D01*
X1019259Y1971015D01*
X1021798Y1968476D01*
Y1960858D01*
X-184858Y722924D02*
Y728002D01*
Y725463D01*
X-200093D01*
X-197554Y722924D01*
X-200093Y745777D02*
Y735620D01*
X-192476D01*
X-195015Y740698D01*
Y743238D01*
X-192476Y745777D01*
X-187398D01*
X-184858Y743238D01*
Y738159D01*
X-187398Y735620D01*
X-200093Y761012D02*
X-197554Y755933D01*
X-192476Y750855D01*
X-187398D01*
X-184858Y753394D01*
Y758473D01*
X-187398Y761012D01*
X-189937D01*
X-192476Y758473D01*
Y750855D01*
X-184858Y766090D02*
X-187398D01*
Y768629D01*
X-184858D01*
Y766090D01*
X-200093Y788943D02*
Y778786D01*
X-192476D01*
X-195015Y783864D01*
Y786404D01*
X-192476Y788943D01*
X-187398D01*
X-184858Y786404D01*
Y781325D01*
X-187398Y778786D01*
X-200093Y794021D02*
Y804178D01*
X-197554D01*
X-187398Y794021D01*
X-184858D01*
Y809256D02*
X-195015D01*
Y811795D01*
X-192476Y814334D01*
X-184858D01*
X-192476D01*
X-195015Y816874D01*
X-192476Y819413D01*
X-184858D01*
Y824491D02*
X-195015D01*
Y827030D01*
X-192476Y829569D01*
X-184858D01*
X-192476D01*
X-195015Y832109D01*
X-192476Y834648D01*
X-184858D01*
D35*
X1940000Y1568875D02*
Y1972540D01*
X0Y1568875D02*
Y1972540D01*
X1025862Y1970000D02*
X1940000D01*
X0D02*
X906010D01*
X1924760Y1975080D02*
X1940000Y1970000D01*
X1924760Y1964920D02*
X1940000Y1970000D01*
X0D02*
X15240Y1964920D01*
X0Y1970000D02*
X15240Y1975080D01*
X-196540Y0D02*
X-3175D01*
X-196540Y1565700D02*
X-3175D01*
X-194000Y0D02*
Y718860D01*
Y838712D02*
Y1565700D01*
Y0D02*
X-188920Y15240D01*
X-199080D02*
X-194000Y0D01*
X-199080Y1550460D02*
X-194000Y1565700D01*
X-188920Y1550460D01*
M02*
