G04*
G04 #@! TF.GenerationSoftware,Altium Limited,Altium Designer,20.2.6 (244)*
G04*
G04 Layer_Color=16711935*
%FSLAX44Y44*%
%MOMM*%
G71*
G04*
G04 #@! TF.SameCoordinates,9645A69E-1417-4B4D-8682-0EA00A473316*
G04*
G04*
G04 #@! TF.FilePolarity,Negative*
G04*
G01*
G75*
%ADD61C,5.0800*%
%ADD67R,0.7032X0.7032*%
%ADD69R,0.7032X0.7032*%
%ADD79R,0.9652X0.9652*%
%ADD84R,1.1032X1.0132*%
%ADD85C,0.7532*%
%ADD86C,1.4032*%
%ADD87R,1.4032X1.4032*%
%ADD88C,1.7032*%
%ADD89R,1.7032X1.7032*%
%ADD90C,3.7032*%
%ADD91C,0.6602*%
%ADD92R,0.8032X1.7532*%
G04:AMPARAMS|DCode=93|XSize=1.4732mm|YSize=1.4732mm|CornerRadius=0.4191mm|HoleSize=0mm|Usage=FLASHONLY|Rotation=180.000|XOffset=0mm|YOffset=0mm|HoleType=Round|Shape=RoundedRectangle|*
%AMROUNDEDRECTD93*
21,1,1.4732,0.6350,0,0,180.0*
21,1,0.6350,1.4732,0,0,180.0*
1,1,0.8382,-0.3175,0.3175*
1,1,0.8382,0.3175,0.3175*
1,1,0.8382,0.3175,-0.3175*
1,1,0.8382,-0.3175,-0.3175*
%
%ADD93ROUNDEDRECTD93*%
%ADD94R,0.9652X0.9652*%
%ADD95R,0.8032X1.3032*%
%ADD96R,1.8032X4.7032*%
%ADD97R,0.6532X1.5532*%
D61*
X30000Y1380000D02*
D03*
Y200000D02*
D03*
X1910000D02*
D03*
Y1380000D02*
D03*
D67*
X328144Y254174D02*
D03*
X318144D02*
D03*
X781644D02*
D03*
X771644D02*
D03*
X1235144D02*
D03*
X1225144D02*
D03*
X1688644D02*
D03*
X1678644D02*
D03*
X328144Y645974D02*
D03*
X318144D02*
D03*
X781644D02*
D03*
X771644D02*
D03*
X1235144D02*
D03*
X1225144D02*
D03*
X1688644D02*
D03*
X1678644D02*
D03*
X328144Y1037774D02*
D03*
X318144D02*
D03*
X781644D02*
D03*
X771644D02*
D03*
X1235144D02*
D03*
X1225144D02*
D03*
X1688644D02*
D03*
X1678644D02*
D03*
X328144Y1429574D02*
D03*
X318144D02*
D03*
X781644D02*
D03*
X771644D02*
D03*
X1235144D02*
D03*
X1225144D02*
D03*
X1688644D02*
D03*
X1678644D02*
D03*
D69*
X217226Y149526D02*
D03*
Y139526D02*
D03*
X271750Y311500D02*
D03*
Y301500D02*
D03*
X299750Y311500D02*
D03*
Y301500D02*
D03*
X275900Y244174D02*
D03*
Y254174D02*
D03*
X297998Y244174D02*
D03*
Y254174D02*
D03*
X308158Y244174D02*
D03*
Y254174D02*
D03*
X670726Y149526D02*
D03*
Y139526D02*
D03*
X725250Y311500D02*
D03*
Y301500D02*
D03*
X753250Y311500D02*
D03*
Y301500D02*
D03*
X729400Y244174D02*
D03*
Y254174D02*
D03*
X751498Y244174D02*
D03*
Y254174D02*
D03*
X761658Y244174D02*
D03*
Y254174D02*
D03*
X1124226Y149526D02*
D03*
Y139526D02*
D03*
X1178750Y311500D02*
D03*
Y301500D02*
D03*
X1206750Y311500D02*
D03*
Y301500D02*
D03*
X1182900Y244174D02*
D03*
Y254174D02*
D03*
X1204998Y244174D02*
D03*
Y254174D02*
D03*
X1215158Y244174D02*
D03*
Y254174D02*
D03*
X1577726Y149526D02*
D03*
Y139526D02*
D03*
X1632250Y311500D02*
D03*
Y301500D02*
D03*
X1660250Y311500D02*
D03*
Y301500D02*
D03*
X1636400Y244174D02*
D03*
Y254174D02*
D03*
X1658498Y244174D02*
D03*
Y254174D02*
D03*
X1668658Y244174D02*
D03*
Y254174D02*
D03*
X217226Y541326D02*
D03*
Y531326D02*
D03*
X271750Y703300D02*
D03*
Y693300D02*
D03*
X299750Y703300D02*
D03*
Y693300D02*
D03*
X275900Y635974D02*
D03*
Y645974D02*
D03*
X297998Y635974D02*
D03*
Y645974D02*
D03*
X308158Y635974D02*
D03*
Y645974D02*
D03*
X670726Y541326D02*
D03*
Y531326D02*
D03*
X725250Y703300D02*
D03*
Y693300D02*
D03*
X753250Y703300D02*
D03*
Y693300D02*
D03*
X729400Y635974D02*
D03*
Y645974D02*
D03*
X751498Y635974D02*
D03*
Y645974D02*
D03*
X761658Y635974D02*
D03*
Y645974D02*
D03*
X1124226Y541326D02*
D03*
Y531326D02*
D03*
X1178750Y703300D02*
D03*
Y693300D02*
D03*
X1206750Y703300D02*
D03*
Y693300D02*
D03*
X1182900Y635974D02*
D03*
Y645974D02*
D03*
X1204998Y635974D02*
D03*
Y645974D02*
D03*
X1215158Y635974D02*
D03*
Y645974D02*
D03*
X1577726Y541326D02*
D03*
Y531326D02*
D03*
X1632250Y703300D02*
D03*
Y693300D02*
D03*
X1660250Y703300D02*
D03*
Y693300D02*
D03*
X1636400Y635974D02*
D03*
Y645974D02*
D03*
X1658498Y635974D02*
D03*
Y645974D02*
D03*
X1668658Y635974D02*
D03*
Y645974D02*
D03*
X217226Y933126D02*
D03*
Y923126D02*
D03*
X271750Y1095100D02*
D03*
Y1085100D02*
D03*
X299750Y1095100D02*
D03*
Y1085100D02*
D03*
X275900Y1027774D02*
D03*
Y1037774D02*
D03*
X297998Y1027774D02*
D03*
Y1037774D02*
D03*
X308158Y1027774D02*
D03*
Y1037774D02*
D03*
X670726Y933126D02*
D03*
Y923126D02*
D03*
X725250Y1095100D02*
D03*
Y1085100D02*
D03*
X753250Y1095100D02*
D03*
Y1085100D02*
D03*
X729400Y1027774D02*
D03*
Y1037774D02*
D03*
X751498Y1027774D02*
D03*
Y1037774D02*
D03*
X761658Y1027774D02*
D03*
Y1037774D02*
D03*
X1124226Y933126D02*
D03*
Y923126D02*
D03*
X1178750Y1095100D02*
D03*
Y1085100D02*
D03*
X1206750Y1095100D02*
D03*
Y1085100D02*
D03*
X1182900Y1027774D02*
D03*
Y1037774D02*
D03*
X1204998Y1027774D02*
D03*
Y1037774D02*
D03*
X1215158Y1027774D02*
D03*
Y1037774D02*
D03*
X1577726Y933126D02*
D03*
Y923126D02*
D03*
X1632250Y1095100D02*
D03*
Y1085100D02*
D03*
X1660250Y1095100D02*
D03*
Y1085100D02*
D03*
X1636400Y1027774D02*
D03*
Y1037774D02*
D03*
X1658498Y1027774D02*
D03*
Y1037774D02*
D03*
X1668658Y1027774D02*
D03*
Y1037774D02*
D03*
X217226Y1324926D02*
D03*
Y1314926D02*
D03*
X271750Y1486900D02*
D03*
Y1476900D02*
D03*
X299750Y1486900D02*
D03*
Y1476900D02*
D03*
X275900Y1419574D02*
D03*
Y1429574D02*
D03*
X297998Y1419574D02*
D03*
Y1429574D02*
D03*
X308158Y1419574D02*
D03*
Y1429574D02*
D03*
X670726Y1324926D02*
D03*
Y1314926D02*
D03*
X725250Y1486900D02*
D03*
Y1476900D02*
D03*
X753250Y1486900D02*
D03*
Y1476900D02*
D03*
X729400Y1419574D02*
D03*
Y1429574D02*
D03*
X751498Y1419574D02*
D03*
Y1429574D02*
D03*
X761658Y1419574D02*
D03*
Y1429574D02*
D03*
X1124226Y1324926D02*
D03*
Y1314926D02*
D03*
X1178750Y1486900D02*
D03*
Y1476900D02*
D03*
X1206750Y1486900D02*
D03*
Y1476900D02*
D03*
X1182900Y1419574D02*
D03*
Y1429574D02*
D03*
X1204998Y1419574D02*
D03*
Y1429574D02*
D03*
X1215158Y1419574D02*
D03*
Y1429574D02*
D03*
X1577726Y1324926D02*
D03*
Y1314926D02*
D03*
X1632250Y1486900D02*
D03*
Y1476900D02*
D03*
X1660250Y1486900D02*
D03*
Y1476900D02*
D03*
X1636400Y1419574D02*
D03*
Y1429574D02*
D03*
X1658498Y1419574D02*
D03*
Y1429574D02*
D03*
X1668658Y1419574D02*
D03*
Y1429574D02*
D03*
D79*
X161026Y351536D02*
D03*
X174366D02*
D03*
Y336296D02*
D03*
X161026D02*
D03*
X135626Y207518D02*
D03*
X148966D02*
D03*
X614526Y351536D02*
D03*
X627866D02*
D03*
Y336296D02*
D03*
X614526D02*
D03*
X589126Y207518D02*
D03*
X602466D02*
D03*
X1068026Y351536D02*
D03*
X1081366D02*
D03*
Y336296D02*
D03*
X1068026D02*
D03*
X1042626Y207518D02*
D03*
X1055966D02*
D03*
X1521526Y351536D02*
D03*
X1534866D02*
D03*
Y336296D02*
D03*
X1521526D02*
D03*
X1496126Y207518D02*
D03*
X1509466D02*
D03*
X161026Y743336D02*
D03*
X174366D02*
D03*
Y728096D02*
D03*
X161026D02*
D03*
X135626Y599318D02*
D03*
X148966D02*
D03*
X614526Y743336D02*
D03*
X627866D02*
D03*
Y728096D02*
D03*
X614526D02*
D03*
X589126Y599318D02*
D03*
X602466D02*
D03*
X1068026Y743336D02*
D03*
X1081366D02*
D03*
Y728096D02*
D03*
X1068026D02*
D03*
X1042626Y599318D02*
D03*
X1055966D02*
D03*
X1521526Y743336D02*
D03*
X1534866D02*
D03*
Y728096D02*
D03*
X1521526D02*
D03*
X1496126Y599318D02*
D03*
X1509466D02*
D03*
X161026Y1135136D02*
D03*
X174366D02*
D03*
Y1119896D02*
D03*
X161026D02*
D03*
X135626Y991118D02*
D03*
X148966D02*
D03*
X614526Y1135136D02*
D03*
X627866D02*
D03*
Y1119896D02*
D03*
X614526D02*
D03*
X589126Y991118D02*
D03*
X602466D02*
D03*
X1068026Y1135136D02*
D03*
X1081366D02*
D03*
Y1119896D02*
D03*
X1068026D02*
D03*
X1042626Y991118D02*
D03*
X1055966D02*
D03*
X1521526Y1135136D02*
D03*
X1534866D02*
D03*
Y1119896D02*
D03*
X1521526D02*
D03*
X1496126Y991118D02*
D03*
X1509466D02*
D03*
X161026Y1526936D02*
D03*
X174366D02*
D03*
Y1511696D02*
D03*
X161026D02*
D03*
X135626Y1382918D02*
D03*
X148966D02*
D03*
X614526Y1526936D02*
D03*
X627866D02*
D03*
Y1511696D02*
D03*
X614526D02*
D03*
X589126Y1382918D02*
D03*
X602466D02*
D03*
X1068026Y1526936D02*
D03*
X1081366D02*
D03*
Y1511696D02*
D03*
X1068026D02*
D03*
X1042626Y1382918D02*
D03*
X1055966D02*
D03*
X1521526Y1526936D02*
D03*
X1534866D02*
D03*
Y1511696D02*
D03*
X1521526D02*
D03*
X1496126Y1382918D02*
D03*
X1509466D02*
D03*
D84*
X302064Y149006D02*
D03*
Y162906D02*
D03*
X353116Y285934D02*
D03*
Y272034D02*
D03*
Y316414D02*
D03*
Y302514D02*
D03*
X134674Y305978D02*
D03*
Y319878D02*
D03*
X134678Y350885D02*
D03*
Y336985D02*
D03*
X755564Y149006D02*
D03*
Y162906D02*
D03*
X806616Y285934D02*
D03*
Y272034D02*
D03*
Y316414D02*
D03*
Y302514D02*
D03*
X588174Y305978D02*
D03*
Y319878D02*
D03*
X588178Y350885D02*
D03*
Y336985D02*
D03*
X1209064Y149006D02*
D03*
Y162906D02*
D03*
X1260116Y285934D02*
D03*
Y272034D02*
D03*
Y316414D02*
D03*
Y302514D02*
D03*
X1041674Y305978D02*
D03*
Y319878D02*
D03*
X1041678Y350885D02*
D03*
Y336985D02*
D03*
X1662564Y149006D02*
D03*
Y162906D02*
D03*
X1713616Y285934D02*
D03*
Y272034D02*
D03*
Y316414D02*
D03*
Y302514D02*
D03*
X1495174Y305978D02*
D03*
Y319878D02*
D03*
X1495178Y350885D02*
D03*
Y336985D02*
D03*
X302064Y540806D02*
D03*
Y554706D02*
D03*
X353116Y677734D02*
D03*
Y663834D02*
D03*
Y708214D02*
D03*
Y694314D02*
D03*
X134674Y697778D02*
D03*
Y711678D02*
D03*
X134678Y742685D02*
D03*
Y728785D02*
D03*
X755564Y540806D02*
D03*
Y554706D02*
D03*
X806616Y677734D02*
D03*
Y663834D02*
D03*
Y708214D02*
D03*
Y694314D02*
D03*
X588174Y697778D02*
D03*
Y711678D02*
D03*
X588178Y742685D02*
D03*
Y728785D02*
D03*
X1209064Y540806D02*
D03*
Y554706D02*
D03*
X1260116Y677734D02*
D03*
Y663834D02*
D03*
Y708214D02*
D03*
Y694314D02*
D03*
X1041674Y697778D02*
D03*
Y711678D02*
D03*
X1041678Y742685D02*
D03*
Y728785D02*
D03*
X1662564Y540806D02*
D03*
Y554706D02*
D03*
X1713616Y677734D02*
D03*
Y663834D02*
D03*
Y708214D02*
D03*
Y694314D02*
D03*
X1495174Y697778D02*
D03*
Y711678D02*
D03*
X1495178Y742685D02*
D03*
Y728785D02*
D03*
X302064Y932606D02*
D03*
Y946506D02*
D03*
X353116Y1069534D02*
D03*
Y1055634D02*
D03*
Y1100014D02*
D03*
Y1086114D02*
D03*
X134674Y1089578D02*
D03*
Y1103478D02*
D03*
X134678Y1134485D02*
D03*
Y1120585D02*
D03*
X755564Y932606D02*
D03*
Y946506D02*
D03*
X806616Y1069534D02*
D03*
Y1055634D02*
D03*
Y1100014D02*
D03*
Y1086114D02*
D03*
X588174Y1089578D02*
D03*
Y1103478D02*
D03*
X588178Y1134485D02*
D03*
Y1120585D02*
D03*
X1209064Y932606D02*
D03*
Y946506D02*
D03*
X1260116Y1069534D02*
D03*
Y1055634D02*
D03*
Y1100014D02*
D03*
Y1086114D02*
D03*
X1041674Y1089578D02*
D03*
Y1103478D02*
D03*
X1041678Y1134485D02*
D03*
Y1120585D02*
D03*
X1662564Y932606D02*
D03*
Y946506D02*
D03*
X1713616Y1069534D02*
D03*
Y1055634D02*
D03*
Y1100014D02*
D03*
Y1086114D02*
D03*
X1495174Y1089578D02*
D03*
Y1103478D02*
D03*
X1495178Y1134485D02*
D03*
Y1120585D02*
D03*
X302064Y1324406D02*
D03*
Y1338306D02*
D03*
X353116Y1461334D02*
D03*
Y1447434D02*
D03*
Y1491814D02*
D03*
Y1477914D02*
D03*
X134674Y1481378D02*
D03*
Y1495278D02*
D03*
X134678Y1526285D02*
D03*
Y1512385D02*
D03*
X755564Y1324406D02*
D03*
Y1338306D02*
D03*
X806616Y1461334D02*
D03*
Y1447434D02*
D03*
Y1491814D02*
D03*
Y1477914D02*
D03*
X588174Y1481378D02*
D03*
Y1495278D02*
D03*
X588178Y1526285D02*
D03*
Y1512385D02*
D03*
X1209064Y1324406D02*
D03*
Y1338306D02*
D03*
X1260116Y1461334D02*
D03*
Y1447434D02*
D03*
Y1491814D02*
D03*
Y1477914D02*
D03*
X1041674Y1481378D02*
D03*
Y1495278D02*
D03*
X1041678Y1526285D02*
D03*
Y1512385D02*
D03*
X1662564Y1324406D02*
D03*
Y1338306D02*
D03*
X1713616Y1461334D02*
D03*
Y1447434D02*
D03*
Y1491814D02*
D03*
Y1477914D02*
D03*
X1495174Y1481378D02*
D03*
Y1495278D02*
D03*
X1495178Y1526285D02*
D03*
Y1512385D02*
D03*
D85*
X288750Y348500D02*
D03*
Y356500D02*
D03*
X191572Y93916D02*
D03*
Y85916D02*
D03*
X742250Y348500D02*
D03*
Y356500D02*
D03*
X645072Y93916D02*
D03*
Y85916D02*
D03*
X1195750Y348500D02*
D03*
Y356500D02*
D03*
X1098572Y93916D02*
D03*
Y85916D02*
D03*
X1649250Y348500D02*
D03*
Y356500D02*
D03*
X1552072Y93916D02*
D03*
Y85916D02*
D03*
X288750Y740300D02*
D03*
Y748300D02*
D03*
X191572Y485716D02*
D03*
Y477716D02*
D03*
X742250Y740300D02*
D03*
Y748300D02*
D03*
X645072Y485716D02*
D03*
Y477716D02*
D03*
X1195750Y740300D02*
D03*
Y748300D02*
D03*
X1098572Y485716D02*
D03*
Y477716D02*
D03*
X1649250Y740300D02*
D03*
Y748300D02*
D03*
X1552072Y485716D02*
D03*
Y477716D02*
D03*
X288750Y1132100D02*
D03*
Y1140100D02*
D03*
X191572Y877516D02*
D03*
Y869516D02*
D03*
X742250Y1132100D02*
D03*
Y1140100D02*
D03*
X645072Y877516D02*
D03*
Y869516D02*
D03*
X1195750Y1132100D02*
D03*
Y1140100D02*
D03*
X1098572Y877516D02*
D03*
Y869516D02*
D03*
X1649250Y1132100D02*
D03*
Y1140100D02*
D03*
X1552072Y877516D02*
D03*
Y869516D02*
D03*
X288750Y1523900D02*
D03*
Y1531900D02*
D03*
X191572Y1269316D02*
D03*
Y1261316D02*
D03*
X742250Y1523900D02*
D03*
Y1531900D02*
D03*
X645072Y1269316D02*
D03*
Y1261316D02*
D03*
X1195750Y1523900D02*
D03*
Y1531900D02*
D03*
X1098572Y1269316D02*
D03*
Y1261316D02*
D03*
X1649250Y1523900D02*
D03*
Y1531900D02*
D03*
X1552072Y1269316D02*
D03*
Y1261316D02*
D03*
D86*
X160000Y25000D02*
D03*
X85000D02*
D03*
X613500D02*
D03*
X538500D02*
D03*
X1067000D02*
D03*
X992000D02*
D03*
X1520500D02*
D03*
X1445500D02*
D03*
X160000Y416800D02*
D03*
X85000D02*
D03*
X613500D02*
D03*
X538500D02*
D03*
X1067000D02*
D03*
X992000D02*
D03*
X1520500D02*
D03*
X1445500D02*
D03*
X160000Y808600D02*
D03*
X85000D02*
D03*
X613500D02*
D03*
X538500D02*
D03*
X1067000D02*
D03*
X992000D02*
D03*
X1520500D02*
D03*
X1445500D02*
D03*
X160000Y1200400D02*
D03*
X85000D02*
D03*
X613500D02*
D03*
X538500D02*
D03*
X1067000D02*
D03*
X992000D02*
D03*
X1520500D02*
D03*
X1445500D02*
D03*
D87*
X185000Y25000D02*
D03*
X110000D02*
D03*
X638500D02*
D03*
X563500D02*
D03*
X1092000D02*
D03*
X1017000D02*
D03*
X1545500D02*
D03*
X1470500D02*
D03*
X185000Y416800D02*
D03*
X110000D02*
D03*
X638500D02*
D03*
X563500D02*
D03*
X1092000D02*
D03*
X1017000D02*
D03*
X1545500D02*
D03*
X1470500D02*
D03*
X185000Y808600D02*
D03*
X110000D02*
D03*
X638500D02*
D03*
X563500D02*
D03*
X1092000D02*
D03*
X1017000D02*
D03*
X1545500D02*
D03*
X1470500D02*
D03*
X185000Y1200400D02*
D03*
X110000D02*
D03*
X638500D02*
D03*
X563500D02*
D03*
X1092000D02*
D03*
X1017000D02*
D03*
X1545500D02*
D03*
X1470500D02*
D03*
D88*
X295500Y24502D02*
D03*
X397100D02*
D03*
X371700D02*
D03*
X346300D02*
D03*
X320900D02*
D03*
X749000D02*
D03*
X850600D02*
D03*
X825200D02*
D03*
X799800D02*
D03*
X774400D02*
D03*
X1202500D02*
D03*
X1304100D02*
D03*
X1278700D02*
D03*
X1253300D02*
D03*
X1227900D02*
D03*
X1656000D02*
D03*
X1757600D02*
D03*
X1732200D02*
D03*
X1706800D02*
D03*
X1681400D02*
D03*
X295500Y416302D02*
D03*
X397100D02*
D03*
X371700D02*
D03*
X346300D02*
D03*
X320900D02*
D03*
X749000D02*
D03*
X850600D02*
D03*
X825200D02*
D03*
X799800D02*
D03*
X774400D02*
D03*
X1202500D02*
D03*
X1304100D02*
D03*
X1278700D02*
D03*
X1253300D02*
D03*
X1227900D02*
D03*
X1656000D02*
D03*
X1757600D02*
D03*
X1732200D02*
D03*
X1706800D02*
D03*
X1681400D02*
D03*
X295500Y808102D02*
D03*
X397100D02*
D03*
X371700D02*
D03*
X346300D02*
D03*
X320900D02*
D03*
X749000D02*
D03*
X850600D02*
D03*
X825200D02*
D03*
X799800D02*
D03*
X774400D02*
D03*
X1202500D02*
D03*
X1304100D02*
D03*
X1278700D02*
D03*
X1253300D02*
D03*
X1227900D02*
D03*
X1656000D02*
D03*
X1757600D02*
D03*
X1732200D02*
D03*
X1706800D02*
D03*
X1681400D02*
D03*
X295500Y1199902D02*
D03*
X397100D02*
D03*
X371700D02*
D03*
X346300D02*
D03*
X320900D02*
D03*
X749000D02*
D03*
X850600D02*
D03*
X825200D02*
D03*
X799800D02*
D03*
X774400D02*
D03*
X1202500D02*
D03*
X1304100D02*
D03*
X1278700D02*
D03*
X1253300D02*
D03*
X1227900D02*
D03*
X1656000D02*
D03*
X1757600D02*
D03*
X1732200D02*
D03*
X1706800D02*
D03*
X1681400D02*
D03*
D89*
X422500Y24502D02*
D03*
X876000D02*
D03*
X1329500D02*
D03*
X1783000D02*
D03*
X422500Y416302D02*
D03*
X876000D02*
D03*
X1329500D02*
D03*
X1783000D02*
D03*
X422500Y808102D02*
D03*
X876000D02*
D03*
X1329500D02*
D03*
X1783000D02*
D03*
X422500Y1199902D02*
D03*
X876000D02*
D03*
X1329500D02*
D03*
X1783000D02*
D03*
D90*
X90400Y177700D02*
D03*
X89700Y345300D02*
D03*
X476700Y345200D02*
D03*
Y35200D02*
D03*
X543900Y177700D02*
D03*
X543200Y345300D02*
D03*
X930200Y345200D02*
D03*
Y35200D02*
D03*
X997400Y177700D02*
D03*
X996700Y345300D02*
D03*
X1383700Y345200D02*
D03*
Y35200D02*
D03*
X1450900Y177700D02*
D03*
X1450200Y345300D02*
D03*
X1837200Y345200D02*
D03*
Y35200D02*
D03*
X90400Y569500D02*
D03*
X89700Y737100D02*
D03*
X476700Y737000D02*
D03*
Y427000D02*
D03*
X543900Y569500D02*
D03*
X543200Y737100D02*
D03*
X930200Y737000D02*
D03*
Y427000D02*
D03*
X997400Y569500D02*
D03*
X996700Y737100D02*
D03*
X1383700Y737000D02*
D03*
Y427000D02*
D03*
X1450900Y569500D02*
D03*
X1450200Y737100D02*
D03*
X1837200Y737000D02*
D03*
Y427000D02*
D03*
X90400Y961300D02*
D03*
X89700Y1128900D02*
D03*
X476700Y1128800D02*
D03*
Y818800D02*
D03*
X543900Y961300D02*
D03*
X543200Y1128900D02*
D03*
X930200Y1128800D02*
D03*
Y818800D02*
D03*
X997400Y961300D02*
D03*
X996700Y1128900D02*
D03*
X1383700Y1128800D02*
D03*
Y818800D02*
D03*
X1450900Y961300D02*
D03*
X1450200Y1128900D02*
D03*
X1837200Y1128800D02*
D03*
Y818800D02*
D03*
X90400Y1353100D02*
D03*
X89700Y1520700D02*
D03*
X476700Y1520600D02*
D03*
Y1210600D02*
D03*
X543900Y1353100D02*
D03*
X543200Y1520700D02*
D03*
X930200Y1520600D02*
D03*
Y1210600D02*
D03*
X997400Y1353100D02*
D03*
X996700Y1520700D02*
D03*
X1383700Y1520600D02*
D03*
Y1210600D02*
D03*
X1450900Y1353100D02*
D03*
X1450200Y1520700D02*
D03*
X1837200Y1520600D02*
D03*
Y1210600D02*
D03*
D91*
X252552Y317302D02*
D03*
X311500Y141750D02*
D03*
X706052Y317302D02*
D03*
X765000Y141750D02*
D03*
X1159552Y317302D02*
D03*
X1218500Y141750D02*
D03*
X1613052Y317302D02*
D03*
X1672000Y141750D02*
D03*
X252552Y709102D02*
D03*
X311500Y533550D02*
D03*
X706052Y709102D02*
D03*
X765000Y533550D02*
D03*
X1159552Y709102D02*
D03*
X1218500Y533550D02*
D03*
X1613052Y709102D02*
D03*
X1672000Y533550D02*
D03*
X252552Y1100902D02*
D03*
X311500Y925350D02*
D03*
X706052Y1100902D02*
D03*
X765000Y925350D02*
D03*
X1159552Y1100902D02*
D03*
X1218500Y925350D02*
D03*
X1613052Y1100902D02*
D03*
X1672000Y925350D02*
D03*
X252552Y1492702D02*
D03*
X311500Y1317150D02*
D03*
X706052Y1492702D02*
D03*
X765000Y1317150D02*
D03*
X1159552Y1492702D02*
D03*
X1218500Y1317150D02*
D03*
X1613052Y1492702D02*
D03*
X1672000Y1317150D02*
D03*
D92*
X161600Y168478D02*
D03*
X174300D02*
D03*
X187000D02*
D03*
X199700D02*
D03*
X161600Y114478D02*
D03*
X174300D02*
D03*
X187000D02*
D03*
X199700D02*
D03*
X615100Y168478D02*
D03*
X627800D02*
D03*
X640500D02*
D03*
X653200D02*
D03*
X615100Y114478D02*
D03*
X627800D02*
D03*
X640500D02*
D03*
X653200D02*
D03*
X1068600Y168478D02*
D03*
X1081300D02*
D03*
X1094000D02*
D03*
X1106700D02*
D03*
X1068600Y114478D02*
D03*
X1081300D02*
D03*
X1094000D02*
D03*
X1106700D02*
D03*
X1522100Y168478D02*
D03*
X1534800D02*
D03*
X1547500D02*
D03*
X1560200D02*
D03*
X1522100Y114478D02*
D03*
X1534800D02*
D03*
X1547500D02*
D03*
X1560200D02*
D03*
X161600Y560278D02*
D03*
X174300D02*
D03*
X187000D02*
D03*
X199700D02*
D03*
X161600Y506278D02*
D03*
X174300D02*
D03*
X187000D02*
D03*
X199700D02*
D03*
X615100Y560278D02*
D03*
X627800D02*
D03*
X640500D02*
D03*
X653200D02*
D03*
X615100Y506278D02*
D03*
X627800D02*
D03*
X640500D02*
D03*
X653200D02*
D03*
X1068600Y560278D02*
D03*
X1081300D02*
D03*
X1094000D02*
D03*
X1106700D02*
D03*
X1068600Y506278D02*
D03*
X1081300D02*
D03*
X1094000D02*
D03*
X1106700D02*
D03*
X1522100Y560278D02*
D03*
X1534800D02*
D03*
X1547500D02*
D03*
X1560200D02*
D03*
X1522100Y506278D02*
D03*
X1534800D02*
D03*
X1547500D02*
D03*
X1560200D02*
D03*
X161600Y952078D02*
D03*
X174300D02*
D03*
X187000D02*
D03*
X199700D02*
D03*
X161600Y898078D02*
D03*
X174300D02*
D03*
X187000D02*
D03*
X199700D02*
D03*
X615100Y952078D02*
D03*
X627800D02*
D03*
X640500D02*
D03*
X653200D02*
D03*
X615100Y898078D02*
D03*
X627800D02*
D03*
X640500D02*
D03*
X653200D02*
D03*
X1068600Y952078D02*
D03*
X1081300D02*
D03*
X1094000D02*
D03*
X1106700D02*
D03*
X1068600Y898078D02*
D03*
X1081300D02*
D03*
X1094000D02*
D03*
X1106700D02*
D03*
X1522100Y952078D02*
D03*
X1534800D02*
D03*
X1547500D02*
D03*
X1560200D02*
D03*
X1522100Y898078D02*
D03*
X1534800D02*
D03*
X1547500D02*
D03*
X1560200D02*
D03*
X161600Y1343878D02*
D03*
X174300D02*
D03*
X187000D02*
D03*
X199700D02*
D03*
X161600Y1289878D02*
D03*
X174300D02*
D03*
X187000D02*
D03*
X199700D02*
D03*
X615100Y1343878D02*
D03*
X627800D02*
D03*
X640500D02*
D03*
X653200D02*
D03*
X615100Y1289878D02*
D03*
X627800D02*
D03*
X640500D02*
D03*
X653200D02*
D03*
X1068600Y1343878D02*
D03*
X1081300D02*
D03*
X1094000D02*
D03*
X1106700D02*
D03*
X1068600Y1289878D02*
D03*
X1081300D02*
D03*
X1094000D02*
D03*
X1106700D02*
D03*
X1522100Y1343878D02*
D03*
X1534800D02*
D03*
X1547500D02*
D03*
X1560200D02*
D03*
X1522100Y1289878D02*
D03*
X1534800D02*
D03*
X1547500D02*
D03*
X1560200D02*
D03*
D93*
X267772Y166878D02*
D03*
X234752D02*
D03*
X267772Y187452D02*
D03*
X234752D02*
D03*
X721272Y166878D02*
D03*
X688252D02*
D03*
X721272Y187452D02*
D03*
X688252D02*
D03*
X1174772Y166878D02*
D03*
X1141752D02*
D03*
X1174772Y187452D02*
D03*
X1141752D02*
D03*
X1628272Y166878D02*
D03*
X1595252D02*
D03*
X1628272Y187452D02*
D03*
X1595252D02*
D03*
X267772Y558678D02*
D03*
X234752D02*
D03*
X267772Y579252D02*
D03*
X234752D02*
D03*
X721272Y558678D02*
D03*
X688252D02*
D03*
X721272Y579252D02*
D03*
X688252D02*
D03*
X1174772Y558678D02*
D03*
X1141752D02*
D03*
X1174772Y579252D02*
D03*
X1141752D02*
D03*
X1628272Y558678D02*
D03*
X1595252D02*
D03*
X1628272Y579252D02*
D03*
X1595252D02*
D03*
X267772Y950478D02*
D03*
X234752D02*
D03*
X267772Y971052D02*
D03*
X234752D02*
D03*
X721272Y950478D02*
D03*
X688252D02*
D03*
X721272Y971052D02*
D03*
X688252D02*
D03*
X1174772Y950478D02*
D03*
X1141752D02*
D03*
X1174772Y971052D02*
D03*
X1141752D02*
D03*
X1628272Y950478D02*
D03*
X1595252D02*
D03*
X1628272Y971052D02*
D03*
X1595252D02*
D03*
X267772Y1342278D02*
D03*
X234752D02*
D03*
X267772Y1362852D02*
D03*
X234752D02*
D03*
X721272Y1342278D02*
D03*
X688252D02*
D03*
X721272Y1362852D02*
D03*
X688252D02*
D03*
X1174772Y1342278D02*
D03*
X1141752D02*
D03*
X1174772Y1362852D02*
D03*
X1141752D02*
D03*
X1628272Y1342278D02*
D03*
X1595252D02*
D03*
X1628272Y1362852D02*
D03*
X1595252D02*
D03*
D94*
X285552Y170622D02*
D03*
Y183962D02*
D03*
X217226Y176596D02*
D03*
Y163256D02*
D03*
X739052Y170622D02*
D03*
Y183962D02*
D03*
X670726Y176596D02*
D03*
Y163256D02*
D03*
X1192552Y170622D02*
D03*
Y183962D02*
D03*
X1124226Y176596D02*
D03*
Y163256D02*
D03*
X1646052Y170622D02*
D03*
Y183962D02*
D03*
X1577726Y176596D02*
D03*
Y163256D02*
D03*
X285552Y562422D02*
D03*
Y575762D02*
D03*
X217226Y568396D02*
D03*
Y555056D02*
D03*
X739052Y562422D02*
D03*
Y575762D02*
D03*
X670726Y568396D02*
D03*
Y555056D02*
D03*
X1192552Y562422D02*
D03*
Y575762D02*
D03*
X1124226Y568396D02*
D03*
Y555056D02*
D03*
X1646052Y562422D02*
D03*
Y575762D02*
D03*
X1577726Y568396D02*
D03*
Y555056D02*
D03*
X285552Y954222D02*
D03*
Y967562D02*
D03*
X217226Y960196D02*
D03*
Y946856D02*
D03*
X739052Y954222D02*
D03*
Y967562D02*
D03*
X670726Y960196D02*
D03*
Y946856D02*
D03*
X1192552Y954222D02*
D03*
Y967562D02*
D03*
X1124226Y960196D02*
D03*
Y946856D02*
D03*
X1646052Y954222D02*
D03*
Y967562D02*
D03*
X1577726Y960196D02*
D03*
Y946856D02*
D03*
X285552Y1346022D02*
D03*
Y1359362D02*
D03*
X217226Y1351996D02*
D03*
Y1338656D02*
D03*
X739052Y1346022D02*
D03*
Y1359362D02*
D03*
X670726Y1351996D02*
D03*
Y1338656D02*
D03*
X1192552Y1346022D02*
D03*
Y1359362D02*
D03*
X1124226Y1351996D02*
D03*
Y1338656D02*
D03*
X1646052Y1346022D02*
D03*
Y1359362D02*
D03*
X1577726Y1351996D02*
D03*
Y1338656D02*
D03*
D95*
X233380Y145726D02*
D03*
X252380D02*
D03*
X242880Y123726D02*
D03*
X267162Y145648D02*
D03*
X286162D02*
D03*
X276662Y123648D02*
D03*
X686880Y145726D02*
D03*
X705880D02*
D03*
X696380Y123726D02*
D03*
X720662Y145648D02*
D03*
X739662D02*
D03*
X730162Y123648D02*
D03*
X1140380Y145726D02*
D03*
X1159380D02*
D03*
X1149880Y123726D02*
D03*
X1174162Y145648D02*
D03*
X1193162D02*
D03*
X1183662Y123648D02*
D03*
X1593880Y145726D02*
D03*
X1612880D02*
D03*
X1603380Y123726D02*
D03*
X1627662Y145648D02*
D03*
X1646662D02*
D03*
X1637162Y123648D02*
D03*
X233380Y537526D02*
D03*
X252380D02*
D03*
X242880Y515526D02*
D03*
X267162Y537448D02*
D03*
X286162D02*
D03*
X276662Y515448D02*
D03*
X686880Y537526D02*
D03*
X705880D02*
D03*
X696380Y515526D02*
D03*
X720662Y537448D02*
D03*
X739662D02*
D03*
X730162Y515448D02*
D03*
X1140380Y537526D02*
D03*
X1159380D02*
D03*
X1149880Y515526D02*
D03*
X1174162Y537448D02*
D03*
X1193162D02*
D03*
X1183662Y515448D02*
D03*
X1593880Y537526D02*
D03*
X1612880D02*
D03*
X1603380Y515526D02*
D03*
X1627662Y537448D02*
D03*
X1646662D02*
D03*
X1637162Y515448D02*
D03*
X233380Y929326D02*
D03*
X252380D02*
D03*
X242880Y907326D02*
D03*
X267162Y929248D02*
D03*
X286162D02*
D03*
X276662Y907248D02*
D03*
X686880Y929326D02*
D03*
X705880D02*
D03*
X696380Y907326D02*
D03*
X720662Y929248D02*
D03*
X739662D02*
D03*
X730162Y907248D02*
D03*
X1140380Y929326D02*
D03*
X1159380D02*
D03*
X1149880Y907326D02*
D03*
X1174162Y929248D02*
D03*
X1193162D02*
D03*
X1183662Y907248D02*
D03*
X1593880Y929326D02*
D03*
X1612880D02*
D03*
X1603380Y907326D02*
D03*
X1627662Y929248D02*
D03*
X1646662D02*
D03*
X1637162Y907248D02*
D03*
X233380Y1321126D02*
D03*
X252380D02*
D03*
X242880Y1299126D02*
D03*
X267162Y1321048D02*
D03*
X286162D02*
D03*
X276662Y1299048D02*
D03*
X686880Y1321126D02*
D03*
X705880D02*
D03*
X696380Y1299126D02*
D03*
X720662Y1321048D02*
D03*
X739662D02*
D03*
X730162Y1299048D02*
D03*
X1140380Y1321126D02*
D03*
X1159380D02*
D03*
X1149880Y1299126D02*
D03*
X1174162Y1321048D02*
D03*
X1193162D02*
D03*
X1183662Y1299048D02*
D03*
X1593880Y1321126D02*
D03*
X1612880D02*
D03*
X1603380Y1299126D02*
D03*
X1627662Y1321048D02*
D03*
X1646662D02*
D03*
X1637162Y1299048D02*
D03*
D96*
X192022Y243332D02*
D03*
X153022D02*
D03*
X645522D02*
D03*
X606522D02*
D03*
X1099022D02*
D03*
X1060022D02*
D03*
X1552522D02*
D03*
X1513522D02*
D03*
X192022Y635132D02*
D03*
X153022D02*
D03*
X645522D02*
D03*
X606522D02*
D03*
X1099022D02*
D03*
X1060022D02*
D03*
X1552522D02*
D03*
X1513522D02*
D03*
X192022Y1026932D02*
D03*
X153022D02*
D03*
X645522D02*
D03*
X606522D02*
D03*
X1099022D02*
D03*
X1060022D02*
D03*
X1552522D02*
D03*
X1513522D02*
D03*
X192022Y1418732D02*
D03*
X153022D02*
D03*
X645522D02*
D03*
X606522D02*
D03*
X1099022D02*
D03*
X1060022D02*
D03*
X1552522D02*
D03*
X1513522D02*
D03*
D97*
X169826Y280224D02*
D03*
X163326D02*
D03*
X156826D02*
D03*
X150326D02*
D03*
X169826Y319724D02*
D03*
X163326D02*
D03*
X156826D02*
D03*
X150326D02*
D03*
X623326Y280224D02*
D03*
X616826D02*
D03*
X610326D02*
D03*
X603826D02*
D03*
X623326Y319724D02*
D03*
X616826D02*
D03*
X610326D02*
D03*
X603826D02*
D03*
X1076826Y280224D02*
D03*
X1070326D02*
D03*
X1063826D02*
D03*
X1057326D02*
D03*
X1076826Y319724D02*
D03*
X1070326D02*
D03*
X1063826D02*
D03*
X1057326D02*
D03*
X1530326Y280224D02*
D03*
X1523826D02*
D03*
X1517326D02*
D03*
X1510826D02*
D03*
X1530326Y319724D02*
D03*
X1523826D02*
D03*
X1517326D02*
D03*
X1510826D02*
D03*
X169826Y672024D02*
D03*
X163326D02*
D03*
X156826D02*
D03*
X150326D02*
D03*
X169826Y711524D02*
D03*
X163326D02*
D03*
X156826D02*
D03*
X150326D02*
D03*
X623326Y672024D02*
D03*
X616826D02*
D03*
X610326D02*
D03*
X603826D02*
D03*
X623326Y711524D02*
D03*
X616826D02*
D03*
X610326D02*
D03*
X603826D02*
D03*
X1076826Y672024D02*
D03*
X1070326D02*
D03*
X1063826D02*
D03*
X1057326D02*
D03*
X1076826Y711524D02*
D03*
X1070326D02*
D03*
X1063826D02*
D03*
X1057326D02*
D03*
X1530326Y672024D02*
D03*
X1523826D02*
D03*
X1517326D02*
D03*
X1510826D02*
D03*
X1530326Y711524D02*
D03*
X1523826D02*
D03*
X1517326D02*
D03*
X1510826D02*
D03*
X169826Y1063824D02*
D03*
X163326D02*
D03*
X156826D02*
D03*
X150326D02*
D03*
X169826Y1103324D02*
D03*
X163326D02*
D03*
X156826D02*
D03*
X150326D02*
D03*
X623326Y1063824D02*
D03*
X616826D02*
D03*
X610326D02*
D03*
X603826D02*
D03*
X623326Y1103324D02*
D03*
X616826D02*
D03*
X610326D02*
D03*
X603826D02*
D03*
X1076826Y1063824D02*
D03*
X1070326D02*
D03*
X1063826D02*
D03*
X1057326D02*
D03*
X1076826Y1103324D02*
D03*
X1070326D02*
D03*
X1063826D02*
D03*
X1057326D02*
D03*
X1530326Y1063824D02*
D03*
X1523826D02*
D03*
X1517326D02*
D03*
X1510826D02*
D03*
X1530326Y1103324D02*
D03*
X1523826D02*
D03*
X1517326D02*
D03*
X1510826D02*
D03*
X169826Y1455624D02*
D03*
X163326D02*
D03*
X156826D02*
D03*
X150326D02*
D03*
X169826Y1495124D02*
D03*
X163326D02*
D03*
X156826D02*
D03*
X150326D02*
D03*
X623326Y1455624D02*
D03*
X616826D02*
D03*
X610326D02*
D03*
X603826D02*
D03*
X623326Y1495124D02*
D03*
X616826D02*
D03*
X610326D02*
D03*
X603826D02*
D03*
X1076826Y1455624D02*
D03*
X1070326D02*
D03*
X1063826D02*
D03*
X1057326D02*
D03*
X1076826Y1495124D02*
D03*
X1070326D02*
D03*
X1063826D02*
D03*
X1057326D02*
D03*
X1530326Y1455624D02*
D03*
X1523826D02*
D03*
X1517326D02*
D03*
X1510826D02*
D03*
X1530326Y1495124D02*
D03*
X1523826D02*
D03*
X1517326D02*
D03*
X1510826D02*
D03*
M02*
