G04*
G04 #@! TF.GenerationSoftware,Altium Limited,Altium Designer,20.2.6 (244)*
G04*
G04 Layer_Color=8421504*
%FSLAX44Y44*%
%MOMM*%
G71*
G04*
G04 #@! TF.SameCoordinates,9645A69E-1417-4B4D-8682-0EA00A473316*
G04*
G04*
G04 #@! TF.FilePolarity,Positive*
G04*
G01*
G75*
%ADD10C,1.0160*%
%ADD12R,1.1000X0.9000*%
%ADD13R,1.1500X1.0500*%
G04:AMPARAMS|DCode=15|XSize=1.4mm|YSize=1.15mm|CornerRadius=0.2875mm|HoleSize=0mm|Usage=FLASHONLY|Rotation=180.000|XOffset=0mm|YOffset=0mm|HoleType=Round|Shape=RoundedRectangle|*
%AMROUNDEDRECTD15*
21,1,1.4000,0.5750,0,0,180.0*
21,1,0.8250,1.1500,0,0,180.0*
1,1,0.5750,-0.4125,0.2875*
1,1,0.5750,0.4125,0.2875*
1,1,0.5750,0.4125,-0.2875*
1,1,0.5750,-0.4125,-0.2875*
%
%ADD15ROUNDEDRECTD15*%
%ADD16R,1.4000X1.1500*%
%ADD17R,0.5000X0.5000*%
G04:AMPARAMS|DCode=18|XSize=0.53mm|YSize=0.55mm|CornerRadius=0.1325mm|HoleSize=0mm|Usage=FLASHONLY|Rotation=90.000|XOffset=0mm|YOffset=0mm|HoleType=Round|Shape=RoundedRectangle|*
%AMROUNDEDRECTD18*
21,1,0.5300,0.2850,0,0,90.0*
21,1,0.2650,0.5500,0,0,90.0*
1,1,0.2650,0.1425,0.1325*
1,1,0.2650,0.1425,-0.1325*
1,1,0.2650,-0.1425,-0.1325*
1,1,0.2650,-0.1425,0.1325*
%
%ADD18ROUNDEDRECTD18*%
%ADD19R,0.5000X0.5000*%
G04:AMPARAMS|DCode=20|XSize=0.5mm|YSize=0.5mm|CornerRadius=0.125mm|HoleSize=0mm|Usage=FLASHONLY|Rotation=270.000|XOffset=0mm|YOffset=0mm|HoleType=Round|Shape=RoundedRectangle|*
%AMROUNDEDRECTD20*
21,1,0.5000,0.2500,0,0,270.0*
21,1,0.2500,0.5000,0,0,270.0*
1,1,0.2500,-0.1250,-0.1250*
1,1,0.2500,-0.1250,0.1250*
1,1,0.2500,0.1250,0.1250*
1,1,0.2500,0.1250,-0.1250*
%
%ADD20ROUNDEDRECTD20*%
%ADD21R,0.5500X0.5300*%
G04:AMPARAMS|DCode=22|XSize=0.5mm|YSize=0.5mm|CornerRadius=0.125mm|HoleSize=0mm|Usage=FLASHONLY|Rotation=180.000|XOffset=0mm|YOffset=0mm|HoleType=Round|Shape=RoundedRectangle|*
%AMROUNDEDRECTD22*
21,1,0.5000,0.2500,0,0,180.0*
21,1,0.2500,0.5000,0,0,180.0*
1,1,0.2500,-0.1250,0.1250*
1,1,0.2500,0.1250,0.1250*
1,1,0.2500,0.1250,-0.1250*
1,1,0.2500,-0.1250,-0.1250*
%
%ADD22ROUNDEDRECTD22*%
G04:AMPARAMS|DCode=23|XSize=0.5mm|YSize=0.6mm|CornerRadius=0.125mm|HoleSize=0mm|Usage=FLASHONLY|Rotation=180.000|XOffset=0mm|YOffset=0mm|HoleType=Round|Shape=RoundedRectangle|*
%AMROUNDEDRECTD23*
21,1,0.5000,0.3500,0,0,180.0*
21,1,0.2500,0.6000,0,0,180.0*
1,1,0.2500,-0.1250,0.1750*
1,1,0.2500,0.1250,0.1750*
1,1,0.2500,0.1250,-0.1750*
1,1,0.2500,-0.1250,-0.1750*
%
%ADD23ROUNDEDRECTD23*%
%ADD24R,0.5000X0.6000*%
%ADD25R,0.6000X0.5000*%
%ADD26R,0.2500X0.7000*%
%ADD27R,0.7000X0.2500*%
%ADD28R,4.6000X4.6000*%
%ADD29R,0.7620X0.7620*%
%ADD30R,2.0000X2.0000*%
%ADD31R,2.0000X1.5000*%
%ADD32R,0.3000X0.6600*%
%ADD33R,1.4000X1.9000*%
%ADD34R,0.9000X0.8100*%
D10*
X30000Y1380000D02*
D03*
Y200000D02*
D03*
X1910000D02*
D03*
Y1380000D02*
D03*
D12*
X290810Y75819D02*
D03*
X249810D02*
D03*
X290810Y91819D02*
D03*
X249810D02*
D03*
X744310Y75819D02*
D03*
X703310D02*
D03*
X744310Y91819D02*
D03*
X703310D02*
D03*
X1197810Y75819D02*
D03*
X1156810D02*
D03*
X1197810Y91819D02*
D03*
X1156810D02*
D03*
X1651310Y75819D02*
D03*
X1610310D02*
D03*
X1651310Y91819D02*
D03*
X1610310D02*
D03*
X290810Y467619D02*
D03*
X249810D02*
D03*
X290810Y483619D02*
D03*
X249810D02*
D03*
X744310Y467619D02*
D03*
X703310D02*
D03*
X744310Y483619D02*
D03*
X703310D02*
D03*
X1197810Y467619D02*
D03*
X1156810D02*
D03*
X1197810Y483619D02*
D03*
X1156810D02*
D03*
X1651310Y467619D02*
D03*
X1610310D02*
D03*
X1651310Y483619D02*
D03*
X1610310D02*
D03*
X290810Y859419D02*
D03*
X249810D02*
D03*
X290810Y875419D02*
D03*
X249810D02*
D03*
X744310Y859419D02*
D03*
X703310D02*
D03*
X744310Y875419D02*
D03*
X703310D02*
D03*
X1197810Y859419D02*
D03*
X1156810D02*
D03*
X1197810Y875419D02*
D03*
X1156810D02*
D03*
X1651310Y859419D02*
D03*
X1610310D02*
D03*
X1651310Y875419D02*
D03*
X1610310D02*
D03*
X290810Y1251219D02*
D03*
X249810D02*
D03*
X290810Y1267219D02*
D03*
X249810D02*
D03*
X744310Y1251219D02*
D03*
X703310D02*
D03*
X744310Y1267219D02*
D03*
X703310D02*
D03*
X1197810Y1251219D02*
D03*
X1156810D02*
D03*
X1197810Y1267219D02*
D03*
X1156810D02*
D03*
X1651310Y1251219D02*
D03*
X1610310D02*
D03*
X1651310Y1267219D02*
D03*
X1610310D02*
D03*
D13*
X287060Y76570D02*
D03*
X253560D02*
D03*
Y91070D02*
D03*
X287060D02*
D03*
X740560Y76570D02*
D03*
X707060D02*
D03*
Y91070D02*
D03*
X740560D02*
D03*
X1194060Y76570D02*
D03*
X1160560D02*
D03*
Y91070D02*
D03*
X1194060D02*
D03*
X1647560Y76570D02*
D03*
X1614060D02*
D03*
Y91070D02*
D03*
X1647560D02*
D03*
X287060Y468370D02*
D03*
X253560D02*
D03*
Y482870D02*
D03*
X287060D02*
D03*
X740560Y468370D02*
D03*
X707060D02*
D03*
Y482870D02*
D03*
X740560D02*
D03*
X1194060Y468370D02*
D03*
X1160560D02*
D03*
Y482870D02*
D03*
X1194060D02*
D03*
X1647560Y468370D02*
D03*
X1614060D02*
D03*
Y482870D02*
D03*
X1647560D02*
D03*
X287060Y860170D02*
D03*
X253560D02*
D03*
Y874670D02*
D03*
X287060D02*
D03*
X740560Y860170D02*
D03*
X707060D02*
D03*
Y874670D02*
D03*
X740560D02*
D03*
X1194060Y860170D02*
D03*
X1160560D02*
D03*
Y874670D02*
D03*
X1194060D02*
D03*
X1647560Y860170D02*
D03*
X1614060D02*
D03*
Y874670D02*
D03*
X1647560D02*
D03*
X287060Y1251970D02*
D03*
X253560D02*
D03*
Y1266470D02*
D03*
X287060D02*
D03*
X740560Y1251970D02*
D03*
X707060D02*
D03*
Y1266470D02*
D03*
X740560D02*
D03*
X1194060Y1251970D02*
D03*
X1160560D02*
D03*
Y1266470D02*
D03*
X1194060D02*
D03*
X1647560Y1251970D02*
D03*
X1614060D02*
D03*
Y1266470D02*
D03*
X1647560D02*
D03*
D15*
X315000Y211000D02*
D03*
X293000Y195000D02*
D03*
X768500Y211000D02*
D03*
X746500Y195000D02*
D03*
X1222000Y211000D02*
D03*
X1200000Y195000D02*
D03*
X1675500Y211000D02*
D03*
X1653500Y195000D02*
D03*
X315000Y602800D02*
D03*
X293000Y586800D02*
D03*
X768500Y602800D02*
D03*
X746500Y586800D02*
D03*
X1222000Y602800D02*
D03*
X1200000Y586800D02*
D03*
X1675500Y602800D02*
D03*
X1653500Y586800D02*
D03*
X315000Y994600D02*
D03*
X293000Y978600D02*
D03*
X768500Y994600D02*
D03*
X746500Y978600D02*
D03*
X1222000Y994600D02*
D03*
X1200000Y978600D02*
D03*
X1675500Y994600D02*
D03*
X1653500Y978600D02*
D03*
X315000Y1386400D02*
D03*
X293000Y1370400D02*
D03*
X768500Y1386400D02*
D03*
X746500Y1370400D02*
D03*
X1222000Y1386400D02*
D03*
X1200000Y1370400D02*
D03*
X1675500Y1386400D02*
D03*
X1653500Y1370400D02*
D03*
D16*
X293000Y211000D02*
D03*
X315000Y195000D02*
D03*
X746500Y211000D02*
D03*
X768500Y195000D02*
D03*
X1200000Y211000D02*
D03*
X1222000Y195000D02*
D03*
X1653500Y211000D02*
D03*
X1675500Y195000D02*
D03*
X293000Y602800D02*
D03*
X315000Y586800D02*
D03*
X746500Y602800D02*
D03*
X768500Y586800D02*
D03*
X1200000Y602800D02*
D03*
X1222000Y586800D02*
D03*
X1653500Y602800D02*
D03*
X1675500Y586800D02*
D03*
X293000Y994600D02*
D03*
X315000Y978600D02*
D03*
X746500Y994600D02*
D03*
X768500Y978600D02*
D03*
X1200000Y994600D02*
D03*
X1222000Y978600D02*
D03*
X1653500Y994600D02*
D03*
X1675500Y978600D02*
D03*
X293000Y1386400D02*
D03*
X315000Y1370400D02*
D03*
X746500Y1386400D02*
D03*
X768500Y1370400D02*
D03*
X1200000Y1386400D02*
D03*
X1222000Y1370400D02*
D03*
X1653500Y1386400D02*
D03*
X1675500Y1370400D02*
D03*
D17*
X346189Y295084D02*
D03*
X356189D02*
D03*
X346189Y270192D02*
D03*
X356189D02*
D03*
X275250Y331750D02*
D03*
X305250Y331750D02*
D03*
X244000Y299000D02*
D03*
X234000D02*
D03*
X356189Y307530D02*
D03*
X346189D02*
D03*
X319250Y225750D02*
D03*
X289250Y225750D02*
D03*
X799689Y295084D02*
D03*
X809689D02*
D03*
X799689Y270192D02*
D03*
X809689D02*
D03*
X728750Y331750D02*
D03*
X758750Y331750D02*
D03*
X697500Y299000D02*
D03*
X687500D02*
D03*
X809689Y307530D02*
D03*
X799689D02*
D03*
X772750Y225750D02*
D03*
X742750Y225750D02*
D03*
X1253189Y295084D02*
D03*
X1263189D02*
D03*
X1253189Y270192D02*
D03*
X1263189D02*
D03*
X1182250Y331750D02*
D03*
X1212250Y331750D02*
D03*
X1151000Y299000D02*
D03*
X1141000D02*
D03*
X1263189Y307530D02*
D03*
X1253189D02*
D03*
X1226250Y225750D02*
D03*
X1196250Y225750D02*
D03*
X1706689Y295084D02*
D03*
X1716689D02*
D03*
X1706689Y270192D02*
D03*
X1716689D02*
D03*
X1635750Y331750D02*
D03*
X1665750Y331750D02*
D03*
X1604500Y299000D02*
D03*
X1594500D02*
D03*
X1716689Y307530D02*
D03*
X1706689D02*
D03*
X1679750Y225750D02*
D03*
X1649750Y225750D02*
D03*
X346189Y686884D02*
D03*
X356189D02*
D03*
X346189Y661992D02*
D03*
X356189D02*
D03*
X275250Y723550D02*
D03*
X305250Y723550D02*
D03*
X244000Y690800D02*
D03*
X234000D02*
D03*
X356189Y699330D02*
D03*
X346189D02*
D03*
X319250Y617550D02*
D03*
X289250Y617550D02*
D03*
X799689Y686884D02*
D03*
X809689D02*
D03*
X799689Y661992D02*
D03*
X809689D02*
D03*
X728750Y723550D02*
D03*
X758750Y723550D02*
D03*
X697500Y690800D02*
D03*
X687500D02*
D03*
X809689Y699330D02*
D03*
X799689D02*
D03*
X772750Y617550D02*
D03*
X742750Y617550D02*
D03*
X1253189Y686884D02*
D03*
X1263189D02*
D03*
X1253189Y661992D02*
D03*
X1263189D02*
D03*
X1182250Y723550D02*
D03*
X1212250Y723550D02*
D03*
X1151000Y690800D02*
D03*
X1141000D02*
D03*
X1263189Y699330D02*
D03*
X1253189D02*
D03*
X1226250Y617550D02*
D03*
X1196250Y617550D02*
D03*
X1706689Y686884D02*
D03*
X1716689D02*
D03*
X1706689Y661992D02*
D03*
X1716689D02*
D03*
X1635750Y723550D02*
D03*
X1665750Y723550D02*
D03*
X1604500Y690800D02*
D03*
X1594500D02*
D03*
X1716689Y699330D02*
D03*
X1706689D02*
D03*
X1679750Y617550D02*
D03*
X1649750Y617550D02*
D03*
X346189Y1078684D02*
D03*
X356189D02*
D03*
X346189Y1053792D02*
D03*
X356189D02*
D03*
X275250Y1115350D02*
D03*
X305250Y1115350D02*
D03*
X244000Y1082600D02*
D03*
X234000D02*
D03*
X356189Y1091130D02*
D03*
X346189D02*
D03*
X319250Y1009350D02*
D03*
X289250Y1009350D02*
D03*
X799689Y1078684D02*
D03*
X809689D02*
D03*
X799689Y1053792D02*
D03*
X809689D02*
D03*
X728750Y1115350D02*
D03*
X758750Y1115350D02*
D03*
X697500Y1082600D02*
D03*
X687500D02*
D03*
X809689Y1091130D02*
D03*
X799689D02*
D03*
X772750Y1009350D02*
D03*
X742750Y1009350D02*
D03*
X1253189Y1078684D02*
D03*
X1263189D02*
D03*
X1253189Y1053792D02*
D03*
X1263189D02*
D03*
X1182250Y1115350D02*
D03*
X1212250Y1115350D02*
D03*
X1151000Y1082600D02*
D03*
X1141000D02*
D03*
X1263189Y1091130D02*
D03*
X1253189D02*
D03*
X1226250Y1009350D02*
D03*
X1196250Y1009350D02*
D03*
X1706689Y1078684D02*
D03*
X1716689D02*
D03*
X1706689Y1053792D02*
D03*
X1716689D02*
D03*
X1635750Y1115350D02*
D03*
X1665750Y1115350D02*
D03*
X1604500Y1082600D02*
D03*
X1594500D02*
D03*
X1716689Y1091130D02*
D03*
X1706689D02*
D03*
X1679750Y1009350D02*
D03*
X1649750Y1009350D02*
D03*
X346189Y1470484D02*
D03*
X356189D02*
D03*
X346189Y1445592D02*
D03*
X356189D02*
D03*
X275250Y1507150D02*
D03*
X305250Y1507150D02*
D03*
X244000Y1474400D02*
D03*
X234000D02*
D03*
X356189Y1482930D02*
D03*
X346189D02*
D03*
X319250Y1401150D02*
D03*
X289250Y1401150D02*
D03*
X799689Y1470484D02*
D03*
X809689D02*
D03*
X799689Y1445592D02*
D03*
X809689D02*
D03*
X728750Y1507150D02*
D03*
X758750Y1507150D02*
D03*
X697500Y1474400D02*
D03*
X687500D02*
D03*
X809689Y1482930D02*
D03*
X799689D02*
D03*
X772750Y1401150D02*
D03*
X742750Y1401150D02*
D03*
X1253189Y1470484D02*
D03*
X1263189D02*
D03*
X1253189Y1445592D02*
D03*
X1263189D02*
D03*
X1182250Y1507150D02*
D03*
X1212250Y1507150D02*
D03*
X1151000Y1474400D02*
D03*
X1141000D02*
D03*
X1263189Y1482930D02*
D03*
X1253189D02*
D03*
X1226250Y1401150D02*
D03*
X1196250Y1401150D02*
D03*
X1706689Y1470484D02*
D03*
X1716689D02*
D03*
X1706689Y1445592D02*
D03*
X1716689D02*
D03*
X1635750Y1507150D02*
D03*
X1665750Y1507150D02*
D03*
X1604500Y1474400D02*
D03*
X1594500D02*
D03*
X1716689Y1482930D02*
D03*
X1706689D02*
D03*
X1679750Y1401150D02*
D03*
X1649750Y1401150D02*
D03*
D18*
X363440Y254748D02*
D03*
X355060D02*
D03*
X816940D02*
D03*
X808560D02*
D03*
X1270440D02*
D03*
X1262060D02*
D03*
X1723940D02*
D03*
X1715560D02*
D03*
X363440Y646548D02*
D03*
X355060D02*
D03*
X816940D02*
D03*
X808560D02*
D03*
X1270440D02*
D03*
X1262060D02*
D03*
X1723940D02*
D03*
X1715560D02*
D03*
X363440Y1038348D02*
D03*
X355060D02*
D03*
X816940D02*
D03*
X808560D02*
D03*
X1270440D02*
D03*
X1262060D02*
D03*
X1723940D02*
D03*
X1715560D02*
D03*
X363440Y1430148D02*
D03*
X355060D02*
D03*
X816940D02*
D03*
X808560D02*
D03*
X1270440D02*
D03*
X1262060D02*
D03*
X1723940D02*
D03*
X1715560D02*
D03*
D19*
X342750Y244750D02*
D03*
X375750D02*
D03*
X334258Y215992D02*
D03*
Y225992D02*
D03*
X204018Y128249D02*
D03*
Y138249D02*
D03*
X339654Y148162D02*
D03*
Y158162D02*
D03*
X796250Y244750D02*
D03*
X829250D02*
D03*
X787758Y215992D02*
D03*
Y225992D02*
D03*
X657518Y128249D02*
D03*
Y138249D02*
D03*
X793154Y148162D02*
D03*
Y158162D02*
D03*
X1249750Y244750D02*
D03*
X1282750D02*
D03*
X1241258Y215992D02*
D03*
Y225992D02*
D03*
X1111018Y128249D02*
D03*
Y138249D02*
D03*
X1246654Y148162D02*
D03*
Y158162D02*
D03*
X1703250Y244750D02*
D03*
X1736250D02*
D03*
X1694758Y215992D02*
D03*
Y225992D02*
D03*
X1564518Y128249D02*
D03*
Y138249D02*
D03*
X1700154Y148162D02*
D03*
Y158162D02*
D03*
X342750Y636550D02*
D03*
X375750D02*
D03*
X334258Y607792D02*
D03*
Y617792D02*
D03*
X204018Y520049D02*
D03*
Y530049D02*
D03*
X339654Y539962D02*
D03*
Y549962D02*
D03*
X796250Y636550D02*
D03*
X829250D02*
D03*
X787758Y607792D02*
D03*
Y617792D02*
D03*
X657518Y520049D02*
D03*
Y530049D02*
D03*
X793154Y539962D02*
D03*
Y549962D02*
D03*
X1249750Y636550D02*
D03*
X1282750D02*
D03*
X1241258Y607792D02*
D03*
Y617792D02*
D03*
X1111018Y520049D02*
D03*
Y530049D02*
D03*
X1246654Y539962D02*
D03*
Y549962D02*
D03*
X1703250Y636550D02*
D03*
X1736250D02*
D03*
X1694758Y607792D02*
D03*
Y617792D02*
D03*
X1564518Y520049D02*
D03*
Y530049D02*
D03*
X1700154Y539962D02*
D03*
Y549962D02*
D03*
X342750Y1028350D02*
D03*
X375750D02*
D03*
X334258Y999592D02*
D03*
Y1009592D02*
D03*
X204018Y911849D02*
D03*
Y921849D02*
D03*
X339654Y931762D02*
D03*
Y941762D02*
D03*
X796250Y1028350D02*
D03*
X829250D02*
D03*
X787758Y999592D02*
D03*
Y1009592D02*
D03*
X657518Y911849D02*
D03*
Y921849D02*
D03*
X793154Y931762D02*
D03*
Y941762D02*
D03*
X1249750Y1028350D02*
D03*
X1282750D02*
D03*
X1241258Y999592D02*
D03*
Y1009592D02*
D03*
X1111018Y911849D02*
D03*
Y921849D02*
D03*
X1246654Y931762D02*
D03*
Y941762D02*
D03*
X1703250Y1028350D02*
D03*
X1736250D02*
D03*
X1694758Y999592D02*
D03*
Y1009592D02*
D03*
X1564518Y911849D02*
D03*
Y921849D02*
D03*
X1700154Y931762D02*
D03*
Y941762D02*
D03*
X342750Y1420150D02*
D03*
X375750D02*
D03*
X334258Y1391392D02*
D03*
Y1401392D02*
D03*
X204018Y1303649D02*
D03*
Y1313649D02*
D03*
X339654Y1323562D02*
D03*
Y1333562D02*
D03*
X796250Y1420150D02*
D03*
X829250D02*
D03*
X787758Y1391392D02*
D03*
Y1401392D02*
D03*
X657518Y1303649D02*
D03*
Y1313649D02*
D03*
X793154Y1323562D02*
D03*
Y1333562D02*
D03*
X1249750Y1420150D02*
D03*
X1282750D02*
D03*
X1241258Y1391392D02*
D03*
Y1401392D02*
D03*
X1111018Y1303649D02*
D03*
Y1313649D02*
D03*
X1246654Y1323562D02*
D03*
Y1333562D02*
D03*
X1703250Y1420150D02*
D03*
X1736250D02*
D03*
X1694758Y1391392D02*
D03*
Y1401392D02*
D03*
X1564518Y1303649D02*
D03*
Y1313649D02*
D03*
X1700154Y1323562D02*
D03*
Y1333562D02*
D03*
D20*
X342750Y254750D02*
D03*
X375750D02*
D03*
X796250D02*
D03*
X829250D02*
D03*
X1249750D02*
D03*
X1282750D02*
D03*
X1703250D02*
D03*
X1736250D02*
D03*
X342750Y646550D02*
D03*
X375750D02*
D03*
X796250D02*
D03*
X829250D02*
D03*
X1249750D02*
D03*
X1282750D02*
D03*
X1703250D02*
D03*
X1736250D02*
D03*
X342750Y1038350D02*
D03*
X375750D02*
D03*
X796250D02*
D03*
X829250D02*
D03*
X1249750D02*
D03*
X1282750D02*
D03*
X1703250D02*
D03*
X1736250D02*
D03*
X342750Y1430150D02*
D03*
X375750D02*
D03*
X796250D02*
D03*
X829250D02*
D03*
X1249750D02*
D03*
X1282750D02*
D03*
X1703250D02*
D03*
X1736250D02*
D03*
D21*
X354629Y282638D02*
D03*
X346249D02*
D03*
X808129D02*
D03*
X799749D02*
D03*
X1261629D02*
D03*
X1253249D02*
D03*
X1715129D02*
D03*
X1706749D02*
D03*
X354629Y674438D02*
D03*
X346249D02*
D03*
X808129D02*
D03*
X799749D02*
D03*
X1261629D02*
D03*
X1253249D02*
D03*
X1715129D02*
D03*
X1706749D02*
D03*
X354629Y1066238D02*
D03*
X346249D02*
D03*
X808129D02*
D03*
X799749D02*
D03*
X1261629D02*
D03*
X1253249D02*
D03*
X1715129D02*
D03*
X1706749D02*
D03*
X354629Y1458038D02*
D03*
X346249D02*
D03*
X808129D02*
D03*
X799749D02*
D03*
X1261629D02*
D03*
X1253249D02*
D03*
X1715129D02*
D03*
X1706749D02*
D03*
D22*
X285250Y331750D02*
D03*
X295250Y331750D02*
D03*
X309250Y225750D02*
D03*
X299250Y225750D02*
D03*
X738750Y331750D02*
D03*
X748750Y331750D02*
D03*
X762750Y225750D02*
D03*
X752750Y225750D02*
D03*
X1192250Y331750D02*
D03*
X1202250Y331750D02*
D03*
X1216250Y225750D02*
D03*
X1206250Y225750D02*
D03*
X1645750Y331750D02*
D03*
X1655750Y331750D02*
D03*
X1669750Y225750D02*
D03*
X1659750Y225750D02*
D03*
X285250Y723550D02*
D03*
X295250Y723550D02*
D03*
X309250Y617550D02*
D03*
X299250Y617550D02*
D03*
X738750Y723550D02*
D03*
X748750Y723550D02*
D03*
X762750Y617550D02*
D03*
X752750Y617550D02*
D03*
X1192250Y723550D02*
D03*
X1202250Y723550D02*
D03*
X1216250Y617550D02*
D03*
X1206250Y617550D02*
D03*
X1645750Y723550D02*
D03*
X1655750Y723550D02*
D03*
X1669750Y617550D02*
D03*
X1659750Y617550D02*
D03*
X285250Y1115350D02*
D03*
X295250Y1115350D02*
D03*
X309250Y1009350D02*
D03*
X299250Y1009350D02*
D03*
X738750Y1115350D02*
D03*
X748750Y1115350D02*
D03*
X762750Y1009350D02*
D03*
X752750Y1009350D02*
D03*
X1192250Y1115350D02*
D03*
X1202250Y1115350D02*
D03*
X1216250Y1009350D02*
D03*
X1206250Y1009350D02*
D03*
X1645750Y1115350D02*
D03*
X1655750Y1115350D02*
D03*
X1669750Y1009350D02*
D03*
X1659750Y1009350D02*
D03*
X285250Y1507150D02*
D03*
X295250Y1507150D02*
D03*
X309250Y1401150D02*
D03*
X299250Y1401150D02*
D03*
X738750Y1507150D02*
D03*
X748750Y1507150D02*
D03*
X762750Y1401150D02*
D03*
X752750Y1401150D02*
D03*
X1192250Y1507150D02*
D03*
X1202250Y1507150D02*
D03*
X1216250Y1401150D02*
D03*
X1206250Y1401150D02*
D03*
X1645750Y1507150D02*
D03*
X1655750Y1507150D02*
D03*
X1669750Y1401150D02*
D03*
X1659750Y1401150D02*
D03*
D23*
X295250Y320750D02*
D03*
X285250D02*
D03*
X748750D02*
D03*
X738750D02*
D03*
X1202250D02*
D03*
X1192250D02*
D03*
X1655750D02*
D03*
X1645750D02*
D03*
X295250Y712550D02*
D03*
X285250D02*
D03*
X748750D02*
D03*
X738750D02*
D03*
X1202250D02*
D03*
X1192250D02*
D03*
X1655750D02*
D03*
X1645750D02*
D03*
X295250Y1104350D02*
D03*
X285250D02*
D03*
X748750D02*
D03*
X738750D02*
D03*
X1202250D02*
D03*
X1192250D02*
D03*
X1655750D02*
D03*
X1645750D02*
D03*
X295250Y1496150D02*
D03*
X285250D02*
D03*
X748750D02*
D03*
X738750D02*
D03*
X1202250D02*
D03*
X1192250D02*
D03*
X1655750D02*
D03*
X1645750D02*
D03*
D24*
X252750Y331500D02*
D03*
X262750D02*
D03*
X706250D02*
D03*
X716250D02*
D03*
X1159750D02*
D03*
X1169750D02*
D03*
X1613250D02*
D03*
X1623250D02*
D03*
X252750Y723300D02*
D03*
X262750D02*
D03*
X706250D02*
D03*
X716250D02*
D03*
X1159750D02*
D03*
X1169750D02*
D03*
X1613250D02*
D03*
X1623250D02*
D03*
X252750Y1115100D02*
D03*
X262750D02*
D03*
X706250D02*
D03*
X716250D02*
D03*
X1159750D02*
D03*
X1169750D02*
D03*
X1613250D02*
D03*
X1623250D02*
D03*
X252750Y1506900D02*
D03*
X262750D02*
D03*
X706250D02*
D03*
X716250D02*
D03*
X1159750D02*
D03*
X1169750D02*
D03*
X1613250D02*
D03*
X1623250D02*
D03*
D25*
X161500Y128250D02*
D03*
Y138250D02*
D03*
X176006Y128250D02*
D03*
Y138250D02*
D03*
X190511Y138250D02*
D03*
Y128250D02*
D03*
X236750Y78500D02*
D03*
Y88500D02*
D03*
X615000Y128250D02*
D03*
Y138250D02*
D03*
X629506Y128250D02*
D03*
Y138250D02*
D03*
X644011Y138250D02*
D03*
Y128250D02*
D03*
X690250Y78500D02*
D03*
Y88500D02*
D03*
X1068500Y128250D02*
D03*
Y138250D02*
D03*
X1083006Y128250D02*
D03*
Y138250D02*
D03*
X1097511Y138250D02*
D03*
Y128250D02*
D03*
X1143750Y78500D02*
D03*
Y88500D02*
D03*
X1522000Y128250D02*
D03*
Y138250D02*
D03*
X1536506Y128250D02*
D03*
Y138250D02*
D03*
X1551011Y138250D02*
D03*
Y128250D02*
D03*
X1597250Y78500D02*
D03*
Y88500D02*
D03*
X161500Y520050D02*
D03*
Y530050D02*
D03*
X176006Y520050D02*
D03*
Y530050D02*
D03*
X190511Y530050D02*
D03*
Y520050D02*
D03*
X236750Y470300D02*
D03*
Y480300D02*
D03*
X615000Y520050D02*
D03*
Y530050D02*
D03*
X629506Y520050D02*
D03*
Y530050D02*
D03*
X644011Y530050D02*
D03*
Y520050D02*
D03*
X690250Y470300D02*
D03*
Y480300D02*
D03*
X1068500Y520050D02*
D03*
Y530050D02*
D03*
X1083006Y520050D02*
D03*
Y530050D02*
D03*
X1097511Y530050D02*
D03*
Y520050D02*
D03*
X1143750Y470300D02*
D03*
Y480300D02*
D03*
X1522000Y520050D02*
D03*
Y530050D02*
D03*
X1536506Y520050D02*
D03*
Y530050D02*
D03*
X1551011Y530050D02*
D03*
Y520050D02*
D03*
X1597250Y470300D02*
D03*
Y480300D02*
D03*
X161500Y911850D02*
D03*
Y921850D02*
D03*
X176006Y911850D02*
D03*
Y921850D02*
D03*
X190511Y921850D02*
D03*
Y911850D02*
D03*
X236750Y862100D02*
D03*
Y872100D02*
D03*
X615000Y911850D02*
D03*
Y921850D02*
D03*
X629506Y911850D02*
D03*
Y921850D02*
D03*
X644011Y921850D02*
D03*
Y911850D02*
D03*
X690250Y862100D02*
D03*
Y872100D02*
D03*
X1068500Y911850D02*
D03*
Y921850D02*
D03*
X1083006Y911850D02*
D03*
Y921850D02*
D03*
X1097511Y921850D02*
D03*
Y911850D02*
D03*
X1143750Y862100D02*
D03*
Y872100D02*
D03*
X1522000Y911850D02*
D03*
Y921850D02*
D03*
X1536506Y911850D02*
D03*
Y921850D02*
D03*
X1551011Y921850D02*
D03*
Y911850D02*
D03*
X1597250Y862100D02*
D03*
Y872100D02*
D03*
X161500Y1303650D02*
D03*
Y1313650D02*
D03*
X176006Y1303650D02*
D03*
Y1313650D02*
D03*
X190511Y1313650D02*
D03*
Y1303650D02*
D03*
X236750Y1253900D02*
D03*
Y1263900D02*
D03*
X615000Y1303650D02*
D03*
Y1313650D02*
D03*
X629506Y1303650D02*
D03*
Y1313650D02*
D03*
X644011Y1313650D02*
D03*
Y1303650D02*
D03*
X690250Y1253900D02*
D03*
Y1263900D02*
D03*
X1068500Y1303650D02*
D03*
Y1313650D02*
D03*
X1083006Y1303650D02*
D03*
Y1313650D02*
D03*
X1097511Y1313650D02*
D03*
Y1303650D02*
D03*
X1143750Y1253900D02*
D03*
Y1263900D02*
D03*
X1522000Y1303650D02*
D03*
Y1313650D02*
D03*
X1536506Y1303650D02*
D03*
Y1313650D02*
D03*
X1551011Y1313650D02*
D03*
Y1303650D02*
D03*
X1597250Y1253900D02*
D03*
Y1263900D02*
D03*
D26*
X319680Y243106D02*
D03*
X315680D02*
D03*
X311680D02*
D03*
X307680D02*
D03*
X303680D02*
D03*
X299680D02*
D03*
X295680D02*
D03*
X291680D02*
D03*
X287680D02*
D03*
X283680D02*
D03*
X279680D02*
D03*
X275680D02*
D03*
X271680D02*
D03*
X267680D02*
D03*
Y310106D02*
D03*
X271680D02*
D03*
X275680D02*
D03*
X279680D02*
D03*
X283680D02*
D03*
X287680D02*
D03*
X291680D02*
D03*
X295680D02*
D03*
X299680D02*
D03*
X303680D02*
D03*
X307680D02*
D03*
X311680D02*
D03*
X315680D02*
D03*
X319680D02*
D03*
X773180Y243106D02*
D03*
X769180D02*
D03*
X765180D02*
D03*
X761180D02*
D03*
X757180D02*
D03*
X753180D02*
D03*
X749180D02*
D03*
X745180D02*
D03*
X741180D02*
D03*
X737180D02*
D03*
X733180D02*
D03*
X729180D02*
D03*
X725180D02*
D03*
X721180D02*
D03*
Y310106D02*
D03*
X725180D02*
D03*
X729180D02*
D03*
X733180D02*
D03*
X737180D02*
D03*
X741180D02*
D03*
X745180D02*
D03*
X749180D02*
D03*
X753180D02*
D03*
X757180D02*
D03*
X761180D02*
D03*
X765180D02*
D03*
X769180D02*
D03*
X773180D02*
D03*
X1226680Y243106D02*
D03*
X1222680D02*
D03*
X1218680D02*
D03*
X1214680D02*
D03*
X1210680D02*
D03*
X1206680D02*
D03*
X1202680D02*
D03*
X1198680D02*
D03*
X1194680D02*
D03*
X1190680D02*
D03*
X1186680D02*
D03*
X1182680D02*
D03*
X1178680D02*
D03*
X1174680D02*
D03*
Y310106D02*
D03*
X1178680D02*
D03*
X1182680D02*
D03*
X1186680D02*
D03*
X1190680D02*
D03*
X1194680D02*
D03*
X1198680D02*
D03*
X1202680D02*
D03*
X1206680D02*
D03*
X1210680D02*
D03*
X1214680D02*
D03*
X1218680D02*
D03*
X1222680D02*
D03*
X1226680D02*
D03*
X1680180Y243106D02*
D03*
X1676180D02*
D03*
X1672180D02*
D03*
X1668180D02*
D03*
X1664180D02*
D03*
X1660180D02*
D03*
X1656180D02*
D03*
X1652180D02*
D03*
X1648180D02*
D03*
X1644180D02*
D03*
X1640180D02*
D03*
X1636180D02*
D03*
X1632180D02*
D03*
X1628180D02*
D03*
Y310106D02*
D03*
X1632180D02*
D03*
X1636180D02*
D03*
X1640180D02*
D03*
X1644180D02*
D03*
X1648180D02*
D03*
X1652180D02*
D03*
X1656180D02*
D03*
X1660180D02*
D03*
X1664180D02*
D03*
X1668180D02*
D03*
X1672180D02*
D03*
X1676180D02*
D03*
X1680180D02*
D03*
X319680Y634906D02*
D03*
X315680D02*
D03*
X311680D02*
D03*
X307680D02*
D03*
X303680D02*
D03*
X299680D02*
D03*
X295680D02*
D03*
X291680D02*
D03*
X287680D02*
D03*
X283680D02*
D03*
X279680D02*
D03*
X275680D02*
D03*
X271680D02*
D03*
X267680D02*
D03*
Y701906D02*
D03*
X271680D02*
D03*
X275680D02*
D03*
X279680D02*
D03*
X283680D02*
D03*
X287680D02*
D03*
X291680D02*
D03*
X295680D02*
D03*
X299680D02*
D03*
X303680D02*
D03*
X307680D02*
D03*
X311680D02*
D03*
X315680D02*
D03*
X319680D02*
D03*
X773180Y634906D02*
D03*
X769180D02*
D03*
X765180D02*
D03*
X761180D02*
D03*
X757180D02*
D03*
X753180D02*
D03*
X749180D02*
D03*
X745180D02*
D03*
X741180D02*
D03*
X737180D02*
D03*
X733180D02*
D03*
X729180D02*
D03*
X725180D02*
D03*
X721180D02*
D03*
Y701906D02*
D03*
X725180D02*
D03*
X729180D02*
D03*
X733180D02*
D03*
X737180D02*
D03*
X741180D02*
D03*
X745180D02*
D03*
X749180D02*
D03*
X753180D02*
D03*
X757180D02*
D03*
X761180D02*
D03*
X765180D02*
D03*
X769180D02*
D03*
X773180D02*
D03*
X1226680Y634906D02*
D03*
X1222680D02*
D03*
X1218680D02*
D03*
X1214680D02*
D03*
X1210680D02*
D03*
X1206680D02*
D03*
X1202680D02*
D03*
X1198680D02*
D03*
X1194680D02*
D03*
X1190680D02*
D03*
X1186680D02*
D03*
X1182680D02*
D03*
X1178680D02*
D03*
X1174680D02*
D03*
Y701906D02*
D03*
X1178680D02*
D03*
X1182680D02*
D03*
X1186680D02*
D03*
X1190680D02*
D03*
X1194680D02*
D03*
X1198680D02*
D03*
X1202680D02*
D03*
X1206680D02*
D03*
X1210680D02*
D03*
X1214680D02*
D03*
X1218680D02*
D03*
X1222680D02*
D03*
X1226680D02*
D03*
X1680180Y634906D02*
D03*
X1676180D02*
D03*
X1672180D02*
D03*
X1668180D02*
D03*
X1664180D02*
D03*
X1660180D02*
D03*
X1656180D02*
D03*
X1652180D02*
D03*
X1648180D02*
D03*
X1644180D02*
D03*
X1640180D02*
D03*
X1636180D02*
D03*
X1632180D02*
D03*
X1628180D02*
D03*
Y701906D02*
D03*
X1632180D02*
D03*
X1636180D02*
D03*
X1640180D02*
D03*
X1644180D02*
D03*
X1648180D02*
D03*
X1652180D02*
D03*
X1656180D02*
D03*
X1660180D02*
D03*
X1664180D02*
D03*
X1668180D02*
D03*
X1672180D02*
D03*
X1676180D02*
D03*
X1680180D02*
D03*
X319680Y1026706D02*
D03*
X315680D02*
D03*
X311680D02*
D03*
X307680D02*
D03*
X303680D02*
D03*
X299680D02*
D03*
X295680D02*
D03*
X291680D02*
D03*
X287680D02*
D03*
X283680D02*
D03*
X279680D02*
D03*
X275680D02*
D03*
X271680D02*
D03*
X267680D02*
D03*
Y1093706D02*
D03*
X271680D02*
D03*
X275680D02*
D03*
X279680D02*
D03*
X283680D02*
D03*
X287680D02*
D03*
X291680D02*
D03*
X295680D02*
D03*
X299680D02*
D03*
X303680D02*
D03*
X307680D02*
D03*
X311680D02*
D03*
X315680D02*
D03*
X319680D02*
D03*
X773180Y1026706D02*
D03*
X769180D02*
D03*
X765180D02*
D03*
X761180D02*
D03*
X757180D02*
D03*
X753180D02*
D03*
X749180D02*
D03*
X745180D02*
D03*
X741180D02*
D03*
X737180D02*
D03*
X733180D02*
D03*
X729180D02*
D03*
X725180D02*
D03*
X721180D02*
D03*
Y1093706D02*
D03*
X725180D02*
D03*
X729180D02*
D03*
X733180D02*
D03*
X737180D02*
D03*
X741180D02*
D03*
X745180D02*
D03*
X749180D02*
D03*
X753180D02*
D03*
X757180D02*
D03*
X761180D02*
D03*
X765180D02*
D03*
X769180D02*
D03*
X773180D02*
D03*
X1226680Y1026706D02*
D03*
X1222680D02*
D03*
X1218680D02*
D03*
X1214680D02*
D03*
X1210680D02*
D03*
X1206680D02*
D03*
X1202680D02*
D03*
X1198680D02*
D03*
X1194680D02*
D03*
X1190680D02*
D03*
X1186680D02*
D03*
X1182680D02*
D03*
X1178680D02*
D03*
X1174680D02*
D03*
Y1093706D02*
D03*
X1178680D02*
D03*
X1182680D02*
D03*
X1186680D02*
D03*
X1190680D02*
D03*
X1194680D02*
D03*
X1198680D02*
D03*
X1202680D02*
D03*
X1206680D02*
D03*
X1210680D02*
D03*
X1214680D02*
D03*
X1218680D02*
D03*
X1222680D02*
D03*
X1226680D02*
D03*
X1680180Y1026706D02*
D03*
X1676180D02*
D03*
X1672180D02*
D03*
X1668180D02*
D03*
X1664180D02*
D03*
X1660180D02*
D03*
X1656180D02*
D03*
X1652180D02*
D03*
X1648180D02*
D03*
X1644180D02*
D03*
X1640180D02*
D03*
X1636180D02*
D03*
X1632180D02*
D03*
X1628180D02*
D03*
Y1093706D02*
D03*
X1632180D02*
D03*
X1636180D02*
D03*
X1640180D02*
D03*
X1644180D02*
D03*
X1648180D02*
D03*
X1652180D02*
D03*
X1656180D02*
D03*
X1660180D02*
D03*
X1664180D02*
D03*
X1668180D02*
D03*
X1672180D02*
D03*
X1676180D02*
D03*
X1680180D02*
D03*
X319680Y1418506D02*
D03*
X315680D02*
D03*
X311680D02*
D03*
X307680D02*
D03*
X303680D02*
D03*
X299680D02*
D03*
X295680D02*
D03*
X291680D02*
D03*
X287680D02*
D03*
X283680D02*
D03*
X279680D02*
D03*
X275680D02*
D03*
X271680D02*
D03*
X267680D02*
D03*
Y1485506D02*
D03*
X271680D02*
D03*
X275680D02*
D03*
X279680D02*
D03*
X283680D02*
D03*
X287680D02*
D03*
X291680D02*
D03*
X295680D02*
D03*
X299680D02*
D03*
X303680D02*
D03*
X307680D02*
D03*
X311680D02*
D03*
X315680D02*
D03*
X319680D02*
D03*
X773180Y1418506D02*
D03*
X769180D02*
D03*
X765180D02*
D03*
X761180D02*
D03*
X757180D02*
D03*
X753180D02*
D03*
X749180D02*
D03*
X745180D02*
D03*
X741180D02*
D03*
X737180D02*
D03*
X733180D02*
D03*
X729180D02*
D03*
X725180D02*
D03*
X721180D02*
D03*
Y1485506D02*
D03*
X725180D02*
D03*
X729180D02*
D03*
X733180D02*
D03*
X737180D02*
D03*
X741180D02*
D03*
X745180D02*
D03*
X749180D02*
D03*
X753180D02*
D03*
X757180D02*
D03*
X761180D02*
D03*
X765180D02*
D03*
X769180D02*
D03*
X773180D02*
D03*
X1226680Y1418506D02*
D03*
X1222680D02*
D03*
X1218680D02*
D03*
X1214680D02*
D03*
X1210680D02*
D03*
X1206680D02*
D03*
X1202680D02*
D03*
X1198680D02*
D03*
X1194680D02*
D03*
X1190680D02*
D03*
X1186680D02*
D03*
X1182680D02*
D03*
X1178680D02*
D03*
X1174680D02*
D03*
Y1485506D02*
D03*
X1178680D02*
D03*
X1182680D02*
D03*
X1186680D02*
D03*
X1190680D02*
D03*
X1194680D02*
D03*
X1198680D02*
D03*
X1202680D02*
D03*
X1206680D02*
D03*
X1210680D02*
D03*
X1214680D02*
D03*
X1218680D02*
D03*
X1222680D02*
D03*
X1226680D02*
D03*
X1680180Y1418506D02*
D03*
X1676180D02*
D03*
X1672180D02*
D03*
X1668180D02*
D03*
X1664180D02*
D03*
X1660180D02*
D03*
X1656180D02*
D03*
X1652180D02*
D03*
X1648180D02*
D03*
X1644180D02*
D03*
X1640180D02*
D03*
X1636180D02*
D03*
X1632180D02*
D03*
X1628180D02*
D03*
Y1485506D02*
D03*
X1632180D02*
D03*
X1636180D02*
D03*
X1640180D02*
D03*
X1644180D02*
D03*
X1648180D02*
D03*
X1652180D02*
D03*
X1656180D02*
D03*
X1660180D02*
D03*
X1664180D02*
D03*
X1668180D02*
D03*
X1672180D02*
D03*
X1676180D02*
D03*
X1680180D02*
D03*
D27*
X260180Y250606D02*
D03*
Y254606D02*
D03*
Y258606D02*
D03*
Y262606D02*
D03*
Y266606D02*
D03*
Y270606D02*
D03*
Y274606D02*
D03*
Y278606D02*
D03*
Y282606D02*
D03*
Y286606D02*
D03*
Y290606D02*
D03*
Y294606D02*
D03*
Y298606D02*
D03*
Y302606D02*
D03*
X327180D02*
D03*
Y298606D02*
D03*
Y294606D02*
D03*
Y290606D02*
D03*
Y286606D02*
D03*
Y282606D02*
D03*
Y278606D02*
D03*
Y274606D02*
D03*
Y270606D02*
D03*
Y266606D02*
D03*
Y262606D02*
D03*
Y258606D02*
D03*
Y254606D02*
D03*
Y250606D02*
D03*
X713680D02*
D03*
Y254606D02*
D03*
Y258606D02*
D03*
Y262606D02*
D03*
Y266606D02*
D03*
Y270606D02*
D03*
Y274606D02*
D03*
Y278606D02*
D03*
Y282606D02*
D03*
Y286606D02*
D03*
Y290606D02*
D03*
Y294606D02*
D03*
Y298606D02*
D03*
Y302606D02*
D03*
X780680D02*
D03*
Y298606D02*
D03*
Y294606D02*
D03*
Y290606D02*
D03*
Y286606D02*
D03*
Y282606D02*
D03*
Y278606D02*
D03*
Y274606D02*
D03*
Y270606D02*
D03*
Y266606D02*
D03*
Y262606D02*
D03*
Y258606D02*
D03*
Y254606D02*
D03*
Y250606D02*
D03*
X1167180D02*
D03*
Y254606D02*
D03*
Y258606D02*
D03*
Y262606D02*
D03*
Y266606D02*
D03*
Y270606D02*
D03*
Y274606D02*
D03*
Y278606D02*
D03*
Y282606D02*
D03*
Y286606D02*
D03*
Y290606D02*
D03*
Y294606D02*
D03*
Y298606D02*
D03*
Y302606D02*
D03*
X1234180D02*
D03*
Y298606D02*
D03*
Y294606D02*
D03*
Y290606D02*
D03*
Y286606D02*
D03*
Y282606D02*
D03*
Y278606D02*
D03*
Y274606D02*
D03*
Y270606D02*
D03*
Y266606D02*
D03*
Y262606D02*
D03*
Y258606D02*
D03*
Y254606D02*
D03*
Y250606D02*
D03*
X1620680D02*
D03*
Y254606D02*
D03*
Y258606D02*
D03*
Y262606D02*
D03*
Y266606D02*
D03*
Y270606D02*
D03*
Y274606D02*
D03*
Y278606D02*
D03*
Y282606D02*
D03*
Y286606D02*
D03*
Y290606D02*
D03*
Y294606D02*
D03*
Y298606D02*
D03*
Y302606D02*
D03*
X1687680D02*
D03*
Y298606D02*
D03*
Y294606D02*
D03*
Y290606D02*
D03*
Y286606D02*
D03*
Y282606D02*
D03*
Y278606D02*
D03*
Y274606D02*
D03*
Y270606D02*
D03*
Y266606D02*
D03*
Y262606D02*
D03*
Y258606D02*
D03*
Y254606D02*
D03*
Y250606D02*
D03*
X260180Y642406D02*
D03*
Y646406D02*
D03*
Y650406D02*
D03*
Y654406D02*
D03*
Y658406D02*
D03*
Y662406D02*
D03*
Y666406D02*
D03*
Y670406D02*
D03*
Y674406D02*
D03*
Y678406D02*
D03*
Y682406D02*
D03*
Y686406D02*
D03*
Y690406D02*
D03*
Y694406D02*
D03*
X327180D02*
D03*
Y690406D02*
D03*
Y686406D02*
D03*
Y682406D02*
D03*
Y678406D02*
D03*
Y674406D02*
D03*
Y670406D02*
D03*
Y666406D02*
D03*
Y662406D02*
D03*
Y658406D02*
D03*
Y654406D02*
D03*
Y650406D02*
D03*
Y646406D02*
D03*
Y642406D02*
D03*
X713680D02*
D03*
Y646406D02*
D03*
Y650406D02*
D03*
Y654406D02*
D03*
Y658406D02*
D03*
Y662406D02*
D03*
Y666406D02*
D03*
Y670406D02*
D03*
Y674406D02*
D03*
Y678406D02*
D03*
Y682406D02*
D03*
Y686406D02*
D03*
Y690406D02*
D03*
Y694406D02*
D03*
X780680D02*
D03*
Y690406D02*
D03*
Y686406D02*
D03*
Y682406D02*
D03*
Y678406D02*
D03*
Y674406D02*
D03*
Y670406D02*
D03*
Y666406D02*
D03*
Y662406D02*
D03*
Y658406D02*
D03*
Y654406D02*
D03*
Y650406D02*
D03*
Y646406D02*
D03*
Y642406D02*
D03*
X1167180D02*
D03*
Y646406D02*
D03*
Y650406D02*
D03*
Y654406D02*
D03*
Y658406D02*
D03*
Y662406D02*
D03*
Y666406D02*
D03*
Y670406D02*
D03*
Y674406D02*
D03*
Y678406D02*
D03*
Y682406D02*
D03*
Y686406D02*
D03*
Y690406D02*
D03*
Y694406D02*
D03*
X1234180D02*
D03*
Y690406D02*
D03*
Y686406D02*
D03*
Y682406D02*
D03*
Y678406D02*
D03*
Y674406D02*
D03*
Y670406D02*
D03*
Y666406D02*
D03*
Y662406D02*
D03*
Y658406D02*
D03*
Y654406D02*
D03*
Y650406D02*
D03*
Y646406D02*
D03*
Y642406D02*
D03*
X1620680D02*
D03*
Y646406D02*
D03*
Y650406D02*
D03*
Y654406D02*
D03*
Y658406D02*
D03*
Y662406D02*
D03*
Y666406D02*
D03*
Y670406D02*
D03*
Y674406D02*
D03*
Y678406D02*
D03*
Y682406D02*
D03*
Y686406D02*
D03*
Y690406D02*
D03*
Y694406D02*
D03*
X1687680D02*
D03*
Y690406D02*
D03*
Y686406D02*
D03*
Y682406D02*
D03*
Y678406D02*
D03*
Y674406D02*
D03*
Y670406D02*
D03*
Y666406D02*
D03*
Y662406D02*
D03*
Y658406D02*
D03*
Y654406D02*
D03*
Y650406D02*
D03*
Y646406D02*
D03*
Y642406D02*
D03*
X260180Y1034206D02*
D03*
Y1038206D02*
D03*
Y1042206D02*
D03*
Y1046206D02*
D03*
Y1050206D02*
D03*
Y1054206D02*
D03*
Y1058206D02*
D03*
Y1062206D02*
D03*
Y1066206D02*
D03*
Y1070206D02*
D03*
Y1074206D02*
D03*
Y1078206D02*
D03*
Y1082206D02*
D03*
Y1086206D02*
D03*
X327180D02*
D03*
Y1082206D02*
D03*
Y1078206D02*
D03*
Y1074206D02*
D03*
Y1070206D02*
D03*
Y1066206D02*
D03*
Y1062206D02*
D03*
Y1058206D02*
D03*
Y1054206D02*
D03*
Y1050206D02*
D03*
Y1046206D02*
D03*
Y1042206D02*
D03*
Y1038206D02*
D03*
Y1034206D02*
D03*
X713680D02*
D03*
Y1038206D02*
D03*
Y1042206D02*
D03*
Y1046206D02*
D03*
Y1050206D02*
D03*
Y1054206D02*
D03*
Y1058206D02*
D03*
Y1062206D02*
D03*
Y1066206D02*
D03*
Y1070206D02*
D03*
Y1074206D02*
D03*
Y1078206D02*
D03*
Y1082206D02*
D03*
Y1086206D02*
D03*
X780680D02*
D03*
Y1082206D02*
D03*
Y1078206D02*
D03*
Y1074206D02*
D03*
Y1070206D02*
D03*
Y1066206D02*
D03*
Y1062206D02*
D03*
Y1058206D02*
D03*
Y1054206D02*
D03*
Y1050206D02*
D03*
Y1046206D02*
D03*
Y1042206D02*
D03*
Y1038206D02*
D03*
Y1034206D02*
D03*
X1167180D02*
D03*
Y1038206D02*
D03*
Y1042206D02*
D03*
Y1046206D02*
D03*
Y1050206D02*
D03*
Y1054206D02*
D03*
Y1058206D02*
D03*
Y1062206D02*
D03*
Y1066206D02*
D03*
Y1070206D02*
D03*
Y1074206D02*
D03*
Y1078206D02*
D03*
Y1082206D02*
D03*
Y1086206D02*
D03*
X1234180D02*
D03*
Y1082206D02*
D03*
Y1078206D02*
D03*
Y1074206D02*
D03*
Y1070206D02*
D03*
Y1066206D02*
D03*
Y1062206D02*
D03*
Y1058206D02*
D03*
Y1054206D02*
D03*
Y1050206D02*
D03*
Y1046206D02*
D03*
Y1042206D02*
D03*
Y1038206D02*
D03*
Y1034206D02*
D03*
X1620680D02*
D03*
Y1038206D02*
D03*
Y1042206D02*
D03*
Y1046206D02*
D03*
Y1050206D02*
D03*
Y1054206D02*
D03*
Y1058206D02*
D03*
Y1062206D02*
D03*
Y1066206D02*
D03*
Y1070206D02*
D03*
Y1074206D02*
D03*
Y1078206D02*
D03*
Y1082206D02*
D03*
Y1086206D02*
D03*
X1687680D02*
D03*
Y1082206D02*
D03*
Y1078206D02*
D03*
Y1074206D02*
D03*
Y1070206D02*
D03*
Y1066206D02*
D03*
Y1062206D02*
D03*
Y1058206D02*
D03*
Y1054206D02*
D03*
Y1050206D02*
D03*
Y1046206D02*
D03*
Y1042206D02*
D03*
Y1038206D02*
D03*
Y1034206D02*
D03*
X260180Y1426006D02*
D03*
Y1430006D02*
D03*
Y1434006D02*
D03*
Y1438006D02*
D03*
Y1442006D02*
D03*
Y1446006D02*
D03*
Y1450006D02*
D03*
Y1454006D02*
D03*
Y1458006D02*
D03*
Y1462006D02*
D03*
Y1466006D02*
D03*
Y1470006D02*
D03*
Y1474006D02*
D03*
Y1478006D02*
D03*
X327180D02*
D03*
Y1474006D02*
D03*
Y1470006D02*
D03*
Y1466006D02*
D03*
Y1462006D02*
D03*
Y1458006D02*
D03*
Y1454006D02*
D03*
Y1450006D02*
D03*
Y1446006D02*
D03*
Y1442006D02*
D03*
Y1438006D02*
D03*
Y1434006D02*
D03*
Y1430006D02*
D03*
Y1426006D02*
D03*
X713680D02*
D03*
Y1430006D02*
D03*
Y1434006D02*
D03*
Y1438006D02*
D03*
Y1442006D02*
D03*
Y1446006D02*
D03*
Y1450006D02*
D03*
Y1454006D02*
D03*
Y1458006D02*
D03*
Y1462006D02*
D03*
Y1466006D02*
D03*
Y1470006D02*
D03*
Y1474006D02*
D03*
Y1478006D02*
D03*
X780680D02*
D03*
Y1474006D02*
D03*
Y1470006D02*
D03*
Y1466006D02*
D03*
Y1462006D02*
D03*
Y1458006D02*
D03*
Y1454006D02*
D03*
Y1450006D02*
D03*
Y1446006D02*
D03*
Y1442006D02*
D03*
Y1438006D02*
D03*
Y1434006D02*
D03*
Y1430006D02*
D03*
Y1426006D02*
D03*
X1167180D02*
D03*
Y1430006D02*
D03*
Y1434006D02*
D03*
Y1438006D02*
D03*
Y1442006D02*
D03*
Y1446006D02*
D03*
Y1450006D02*
D03*
Y1454006D02*
D03*
Y1458006D02*
D03*
Y1462006D02*
D03*
Y1466006D02*
D03*
Y1470006D02*
D03*
Y1474006D02*
D03*
Y1478006D02*
D03*
X1234180D02*
D03*
Y1474006D02*
D03*
Y1470006D02*
D03*
Y1466006D02*
D03*
Y1462006D02*
D03*
Y1458006D02*
D03*
Y1454006D02*
D03*
Y1450006D02*
D03*
Y1446006D02*
D03*
Y1442006D02*
D03*
Y1438006D02*
D03*
Y1434006D02*
D03*
Y1430006D02*
D03*
Y1426006D02*
D03*
X1620680D02*
D03*
Y1430006D02*
D03*
Y1434006D02*
D03*
Y1438006D02*
D03*
Y1442006D02*
D03*
Y1446006D02*
D03*
Y1450006D02*
D03*
Y1454006D02*
D03*
Y1458006D02*
D03*
Y1462006D02*
D03*
Y1466006D02*
D03*
Y1470006D02*
D03*
Y1474006D02*
D03*
Y1478006D02*
D03*
X1687680D02*
D03*
Y1474006D02*
D03*
Y1470006D02*
D03*
Y1466006D02*
D03*
Y1462006D02*
D03*
Y1458006D02*
D03*
Y1454006D02*
D03*
Y1450006D02*
D03*
Y1446006D02*
D03*
Y1442006D02*
D03*
Y1438006D02*
D03*
Y1434006D02*
D03*
Y1430006D02*
D03*
Y1426006D02*
D03*
D28*
X293682Y276608D02*
D03*
X747182D02*
D03*
X1200682D02*
D03*
X1654182D02*
D03*
X293682Y668408D02*
D03*
X747182D02*
D03*
X1200682D02*
D03*
X1654182D02*
D03*
X293682Y1060208D02*
D03*
X747182D02*
D03*
X1200682D02*
D03*
X1654182D02*
D03*
X293682Y1452008D02*
D03*
X747182D02*
D03*
X1200682D02*
D03*
X1654182D02*
D03*
D29*
X347330Y321500D02*
D03*
X360670D02*
D03*
X800830D02*
D03*
X814170D02*
D03*
X1254330D02*
D03*
X1267670D02*
D03*
X1707830D02*
D03*
X1721170D02*
D03*
X347330Y713300D02*
D03*
X360670D02*
D03*
X800830D02*
D03*
X814170D02*
D03*
X1254330D02*
D03*
X1267670D02*
D03*
X1707830D02*
D03*
X1721170D02*
D03*
X347330Y1105100D02*
D03*
X360670D02*
D03*
X800830D02*
D03*
X814170D02*
D03*
X1254330D02*
D03*
X1267670D02*
D03*
X1707830D02*
D03*
X1721170D02*
D03*
X347330Y1496900D02*
D03*
X360670D02*
D03*
X800830D02*
D03*
X814170D02*
D03*
X1254330D02*
D03*
X1267670D02*
D03*
X1707830D02*
D03*
X1721170D02*
D03*
D30*
X359720Y164666D02*
D03*
Y142166D02*
D03*
X813220Y164666D02*
D03*
Y142166D02*
D03*
X1266720Y164666D02*
D03*
Y142166D02*
D03*
X1720220Y164666D02*
D03*
Y142166D02*
D03*
X359720Y556466D02*
D03*
Y533966D02*
D03*
X813220Y556466D02*
D03*
Y533966D02*
D03*
X1266720Y556466D02*
D03*
Y533966D02*
D03*
X1720220Y556466D02*
D03*
Y533966D02*
D03*
X359720Y948266D02*
D03*
Y925766D02*
D03*
X813220Y948266D02*
D03*
Y925766D02*
D03*
X1266720Y948266D02*
D03*
Y925766D02*
D03*
X1720220Y948266D02*
D03*
Y925766D02*
D03*
X359720Y1340066D02*
D03*
Y1317566D02*
D03*
X813220Y1340066D02*
D03*
Y1317566D02*
D03*
X1266720Y1340066D02*
D03*
Y1317566D02*
D03*
X1720220Y1340066D02*
D03*
Y1317566D02*
D03*
D31*
X310312Y175916D02*
D03*
Y130916D02*
D03*
X230312D02*
D03*
Y175916D02*
D03*
X763812D02*
D03*
Y130916D02*
D03*
X683812D02*
D03*
Y175916D02*
D03*
X1217312D02*
D03*
Y130916D02*
D03*
X1137312D02*
D03*
Y175916D02*
D03*
X1670812D02*
D03*
Y130916D02*
D03*
X1590812D02*
D03*
Y175916D02*
D03*
X310312Y567716D02*
D03*
Y522716D02*
D03*
X230312D02*
D03*
Y567716D02*
D03*
X763812D02*
D03*
Y522716D02*
D03*
X683812D02*
D03*
Y567716D02*
D03*
X1217312D02*
D03*
Y522716D02*
D03*
X1137312D02*
D03*
Y567716D02*
D03*
X1670812D02*
D03*
Y522716D02*
D03*
X1590812D02*
D03*
Y567716D02*
D03*
X310312Y959516D02*
D03*
Y914516D02*
D03*
X230312D02*
D03*
Y959516D02*
D03*
X763812D02*
D03*
Y914516D02*
D03*
X683812D02*
D03*
Y959516D02*
D03*
X1217312D02*
D03*
Y914516D02*
D03*
X1137312D02*
D03*
Y959516D02*
D03*
X1670812D02*
D03*
Y914516D02*
D03*
X1590812D02*
D03*
Y959516D02*
D03*
X310312Y1351316D02*
D03*
Y1306316D02*
D03*
X230312D02*
D03*
Y1351316D02*
D03*
X763812D02*
D03*
Y1306316D02*
D03*
X683812D02*
D03*
Y1351316D02*
D03*
X1217312D02*
D03*
Y1306316D02*
D03*
X1137312D02*
D03*
Y1351316D02*
D03*
X1670812D02*
D03*
Y1306316D02*
D03*
X1590812D02*
D03*
Y1351316D02*
D03*
D32*
X81181Y94358D02*
D03*
X87681D02*
D03*
X94181D02*
D03*
Y112758D02*
D03*
X87681D02*
D03*
X81181D02*
D03*
X534681Y94358D02*
D03*
X541181D02*
D03*
X547681D02*
D03*
Y112758D02*
D03*
X541181D02*
D03*
X534681D02*
D03*
X988181Y94358D02*
D03*
X994681D02*
D03*
X1001181D02*
D03*
Y112758D02*
D03*
X994681D02*
D03*
X988181D02*
D03*
X1441681Y94358D02*
D03*
X1448181D02*
D03*
X1454681D02*
D03*
Y112758D02*
D03*
X1448181D02*
D03*
X1441681D02*
D03*
X81181Y486158D02*
D03*
X87681D02*
D03*
X94181D02*
D03*
Y504558D02*
D03*
X87681D02*
D03*
X81181D02*
D03*
X534681Y486158D02*
D03*
X541181D02*
D03*
X547681D02*
D03*
Y504558D02*
D03*
X541181D02*
D03*
X534681D02*
D03*
X988181Y486158D02*
D03*
X994681D02*
D03*
X1001181D02*
D03*
Y504558D02*
D03*
X994681D02*
D03*
X988181D02*
D03*
X1441681Y486158D02*
D03*
X1448181D02*
D03*
X1454681D02*
D03*
Y504558D02*
D03*
X1448181D02*
D03*
X1441681D02*
D03*
X81181Y877958D02*
D03*
X87681D02*
D03*
X94181D02*
D03*
Y896358D02*
D03*
X87681D02*
D03*
X81181D02*
D03*
X534681Y877958D02*
D03*
X541181D02*
D03*
X547681D02*
D03*
Y896358D02*
D03*
X541181D02*
D03*
X534681D02*
D03*
X988181Y877958D02*
D03*
X994681D02*
D03*
X1001181D02*
D03*
Y896358D02*
D03*
X994681D02*
D03*
X988181D02*
D03*
X1441681Y877958D02*
D03*
X1448181D02*
D03*
X1454681D02*
D03*
Y896358D02*
D03*
X1448181D02*
D03*
X1441681D02*
D03*
X81181Y1269758D02*
D03*
X87681D02*
D03*
X94181D02*
D03*
Y1288158D02*
D03*
X87681D02*
D03*
X81181D02*
D03*
X534681Y1269758D02*
D03*
X541181D02*
D03*
X547681D02*
D03*
Y1288158D02*
D03*
X541181D02*
D03*
X534681D02*
D03*
X988181Y1269758D02*
D03*
X994681D02*
D03*
X1001181D02*
D03*
Y1288158D02*
D03*
X994681D02*
D03*
X988181D02*
D03*
X1441681Y1269758D02*
D03*
X1448181D02*
D03*
X1454681D02*
D03*
Y1288158D02*
D03*
X1448181D02*
D03*
X1441681D02*
D03*
D33*
X86250Y74000D02*
D03*
X119250D02*
D03*
X539750D02*
D03*
X572750D02*
D03*
X993250D02*
D03*
X1026250D02*
D03*
X1446750D02*
D03*
X1479750D02*
D03*
X86250Y465800D02*
D03*
X119250D02*
D03*
X539750D02*
D03*
X572750D02*
D03*
X993250D02*
D03*
X1026250D02*
D03*
X1446750D02*
D03*
X1479750D02*
D03*
X86250Y857600D02*
D03*
X119250D02*
D03*
X539750D02*
D03*
X572750D02*
D03*
X993250D02*
D03*
X1026250D02*
D03*
X1446750D02*
D03*
X1479750D02*
D03*
X86250Y1249400D02*
D03*
X119250D02*
D03*
X539750D02*
D03*
X572750D02*
D03*
X993250D02*
D03*
X1026250D02*
D03*
X1446750D02*
D03*
X1479750D02*
D03*
D34*
X108895Y110568D02*
D03*
Y96668D02*
D03*
X125466Y110328D02*
D03*
Y96428D02*
D03*
X562395Y110568D02*
D03*
Y96668D02*
D03*
X578966Y110328D02*
D03*
Y96428D02*
D03*
X1015895Y110568D02*
D03*
Y96668D02*
D03*
X1032466Y110328D02*
D03*
Y96428D02*
D03*
X1469395Y110568D02*
D03*
Y96668D02*
D03*
X1485966Y110328D02*
D03*
Y96428D02*
D03*
X108895Y502368D02*
D03*
Y488468D02*
D03*
X125466Y502128D02*
D03*
Y488228D02*
D03*
X562395Y502368D02*
D03*
Y488468D02*
D03*
X578966Y502128D02*
D03*
Y488228D02*
D03*
X1015895Y502368D02*
D03*
Y488468D02*
D03*
X1032466Y502128D02*
D03*
Y488228D02*
D03*
X1469395Y502368D02*
D03*
Y488468D02*
D03*
X1485966Y502128D02*
D03*
Y488228D02*
D03*
X108895Y894168D02*
D03*
Y880268D02*
D03*
X125466Y893928D02*
D03*
Y880028D02*
D03*
X562395Y894168D02*
D03*
Y880268D02*
D03*
X578966Y893928D02*
D03*
Y880028D02*
D03*
X1015895Y894168D02*
D03*
Y880268D02*
D03*
X1032466Y893928D02*
D03*
Y880028D02*
D03*
X1469395Y894168D02*
D03*
Y880268D02*
D03*
X1485966Y893928D02*
D03*
Y880028D02*
D03*
X108895Y1285968D02*
D03*
Y1272068D02*
D03*
X125466Y1285728D02*
D03*
Y1271828D02*
D03*
X562395Y1285968D02*
D03*
Y1272068D02*
D03*
X578966Y1285728D02*
D03*
Y1271828D02*
D03*
X1015895Y1285968D02*
D03*
Y1272068D02*
D03*
X1032466Y1285728D02*
D03*
Y1271828D02*
D03*
X1469395Y1285968D02*
D03*
Y1272068D02*
D03*
X1485966Y1285728D02*
D03*
Y1271828D02*
D03*
M02*
