G04*
G04 #@! TF.GenerationSoftware,Altium Limited,Altium Designer,20.2.6 (244)*
G04*
G04 Layer_Color=8388736*
%FSLAX44Y44*%
%MOMM*%
G71*
G04*
G04 #@! TF.SameCoordinates,9645A69E-1417-4B4D-8682-0EA00A473316*
G04*
G04*
G04 #@! TF.FilePolarity,Positive*
G04*
G01*
G75*
%ADD35C,0.2540*%
%ADD99C,0.1500*%
D35*
X71832Y-228581D02*
X81988D01*
X87067Y-223502D01*
X81988Y-218424D01*
X71832D01*
X79449Y-213346D02*
Y-203189D01*
X74371Y-187954D02*
X71832Y-190493D01*
Y-195571D01*
X74371Y-198111D01*
X84528D01*
X87067Y-195571D01*
Y-190493D01*
X84528Y-187954D01*
X79449D01*
Y-193032D01*
X76910Y-182876D02*
X87067D01*
X81988D01*
X79449Y-180336D01*
X76910Y-177797D01*
Y-175258D01*
X87067Y-165101D02*
Y-160023D01*
X84528Y-157484D01*
X79449D01*
X76910Y-160023D01*
Y-165101D01*
X79449Y-167640D01*
X84528D01*
X87067Y-165101D01*
Y-149866D02*
Y-144788D01*
X84528Y-142249D01*
X79449D01*
X76910Y-144788D01*
Y-149866D01*
X79449Y-152405D01*
X84528D01*
X87067Y-149866D01*
X76910Y-137170D02*
X87067Y-132092D01*
X76910Y-127014D01*
X87067Y-114318D02*
Y-119396D01*
X84528Y-121935D01*
X79449D01*
X76910Y-119396D01*
Y-114318D01*
X79449Y-111778D01*
X81988D01*
Y-121935D01*
X1881832Y-238581D02*
X1891988D01*
X1897067Y-233502D01*
X1891988Y-228424D01*
X1881832D01*
X1889449Y-223346D02*
Y-213189D01*
X1884371Y-197954D02*
X1881832Y-200493D01*
Y-205571D01*
X1884371Y-208111D01*
X1894527D01*
X1897067Y-205571D01*
Y-200493D01*
X1894527Y-197954D01*
X1889449D01*
Y-203032D01*
X1886910Y-192876D02*
X1897067D01*
X1891988D01*
X1889449Y-190336D01*
X1886910Y-187797D01*
Y-185258D01*
X1897067Y-175101D02*
Y-170023D01*
X1894527Y-167484D01*
X1889449D01*
X1886910Y-170023D01*
Y-175101D01*
X1889449Y-177640D01*
X1894527D01*
X1897067Y-175101D01*
Y-159866D02*
Y-154788D01*
X1894527Y-152249D01*
X1889449D01*
X1886910Y-154788D01*
Y-159866D01*
X1889449Y-162405D01*
X1894527D01*
X1897067Y-159866D01*
X1886910Y-147170D02*
X1897067Y-142092D01*
X1886910Y-137014D01*
X1897067Y-124318D02*
Y-129396D01*
X1894527Y-131935D01*
X1889449D01*
X1886910Y-129396D01*
Y-124318D01*
X1889449Y-121778D01*
X1891988D01*
Y-131935D01*
X1424718Y-237293D02*
X1434875D01*
X1439953Y-232215D01*
X1434875Y-227136D01*
X1424718D01*
X1432335Y-222058D02*
Y-211901D01*
X1427257Y-196666D02*
X1424718Y-199205D01*
Y-204284D01*
X1427257Y-206823D01*
X1437414D01*
X1439953Y-204284D01*
Y-199205D01*
X1437414Y-196666D01*
X1432335D01*
Y-201745D01*
X1429796Y-191588D02*
X1439953D01*
X1434875D01*
X1432335Y-189049D01*
X1429796Y-186509D01*
Y-183970D01*
X1439953Y-173814D02*
Y-168735D01*
X1437414Y-166196D01*
X1432335D01*
X1429796Y-168735D01*
Y-173814D01*
X1432335Y-176353D01*
X1437414D01*
X1439953Y-173814D01*
Y-158579D02*
Y-153500D01*
X1437414Y-150961D01*
X1432335D01*
X1429796Y-153500D01*
Y-158579D01*
X1432335Y-161118D01*
X1437414D01*
X1439953Y-158579D01*
X1429796Y-145883D02*
X1439953Y-140804D01*
X1429796Y-135726D01*
X1439953Y-123030D02*
Y-128108D01*
X1437414Y-130647D01*
X1432335D01*
X1429796Y-128108D01*
Y-123030D01*
X1432335Y-120491D01*
X1434875D01*
Y-130647D01*
X972598Y-236023D02*
X982755D01*
X987833Y-230945D01*
X982755Y-225866D01*
X972598D01*
X980215Y-220788D02*
Y-210631D01*
X975137Y-195396D02*
X972598Y-197935D01*
Y-203014D01*
X975137Y-205553D01*
X985294D01*
X987833Y-203014D01*
Y-197935D01*
X985294Y-195396D01*
X980215D01*
Y-200475D01*
X977676Y-190318D02*
X987833D01*
X982755D01*
X980215Y-187779D01*
X977676Y-185240D01*
Y-182700D01*
X987833Y-172544D02*
Y-167465D01*
X985294Y-164926D01*
X980215D01*
X977676Y-167465D01*
Y-172544D01*
X980215Y-175083D01*
X985294D01*
X987833Y-172544D01*
Y-157309D02*
Y-152230D01*
X985294Y-149691D01*
X980215D01*
X977676Y-152230D01*
Y-157309D01*
X980215Y-159848D01*
X985294D01*
X987833Y-157309D01*
X977676Y-144613D02*
X987833Y-139534D01*
X977676Y-134456D01*
X987833Y-121760D02*
Y-126838D01*
X985294Y-129377D01*
X980215D01*
X977676Y-126838D01*
Y-121760D01*
X980215Y-119221D01*
X982755D01*
Y-129377D01*
X2137917Y1180362D02*
Y1170205D01*
X2142995Y1165127D01*
X2148074Y1170205D01*
Y1180362D01*
X2153152Y1172745D02*
X2163309D01*
X2178544Y1177823D02*
X2176005Y1180362D01*
X2170926D01*
X2168387Y1177823D01*
Y1167666D01*
X2170926Y1165127D01*
X2176005D01*
X2178544Y1167666D01*
Y1172745D01*
X2173466D01*
X2183622Y1175284D02*
Y1165127D01*
Y1170205D01*
X2186161Y1172745D01*
X2188701Y1175284D01*
X2191240D01*
X2201396Y1165127D02*
X2206475D01*
X2209014Y1167666D01*
Y1172745D01*
X2206475Y1175284D01*
X2201396D01*
X2198857Y1172745D01*
Y1167666D01*
X2201396Y1165127D01*
X2216631D02*
X2221710D01*
X2224249Y1167666D01*
Y1172745D01*
X2221710Y1175284D01*
X2216631D01*
X2214092Y1172745D01*
Y1167666D01*
X2216631Y1165127D01*
X2229327Y1175284D02*
X2234406Y1165127D01*
X2239484Y1175284D01*
X2252180Y1165127D02*
X2247102D01*
X2244563Y1167666D01*
Y1172745D01*
X2247102Y1175284D01*
X2252180D01*
X2254719Y1172745D01*
Y1170205D01*
X2244563D01*
X2146889Y790503D02*
Y780346D01*
X2151967Y775268D01*
X2157046Y780346D01*
Y790503D01*
X2162124Y782886D02*
X2172281D01*
X2187516Y787964D02*
X2184977Y790503D01*
X2179898D01*
X2177359Y787964D01*
Y777807D01*
X2179898Y775268D01*
X2184977D01*
X2187516Y777807D01*
Y782886D01*
X2182437D01*
X2192594Y785425D02*
Y775268D01*
Y780346D01*
X2195133Y782886D01*
X2197672Y785425D01*
X2200212D01*
X2210368Y775268D02*
X2215447D01*
X2217986Y777807D01*
Y782886D01*
X2215447Y785425D01*
X2210368D01*
X2207829Y782886D01*
Y777807D01*
X2210368Y775268D01*
X2225603D02*
X2230682D01*
X2233221Y777807D01*
Y782886D01*
X2230682Y785425D01*
X2225603D01*
X2223064Y782886D01*
Y777807D01*
X2225603Y775268D01*
X2238299Y785425D02*
X2243378Y775268D01*
X2248456Y785425D01*
X2261152Y775268D02*
X2256073D01*
X2253534Y777807D01*
Y782886D01*
X2256073Y785425D01*
X2261152D01*
X2263691Y782886D01*
Y780346D01*
X2253534D01*
X2130379Y398073D02*
Y387916D01*
X2135457Y382838D01*
X2140536Y387916D01*
Y398073D01*
X2145614Y390456D02*
X2155771D01*
X2171006Y395534D02*
X2168466Y398073D01*
X2163388D01*
X2160849Y395534D01*
Y385377D01*
X2163388Y382838D01*
X2168466D01*
X2171006Y385377D01*
Y390456D01*
X2165927D01*
X2176084Y392995D02*
Y382838D01*
Y387916D01*
X2178623Y390456D01*
X2181162Y392995D01*
X2183702D01*
X2193858Y382838D02*
X2198937D01*
X2201476Y385377D01*
Y390456D01*
X2198937Y392995D01*
X2193858D01*
X2191319Y390456D01*
Y385377D01*
X2193858Y382838D01*
X2209093D02*
X2214172D01*
X2216711Y385377D01*
Y390456D01*
X2214172Y392995D01*
X2209093D01*
X2206554Y390456D01*
Y385377D01*
X2209093Y382838D01*
X2221789Y392995D02*
X2226868Y382838D01*
X2231946Y392995D01*
X2244642Y382838D02*
X2239563D01*
X2237024Y385377D01*
Y390456D01*
X2239563Y392995D01*
X2244642D01*
X2247181Y390456D01*
Y387916D01*
X2237024D01*
X519177Y-238481D02*
X529334D01*
X534412Y-233403D01*
X529334Y-228324D01*
X519177D01*
X526795Y-223246D02*
Y-213089D01*
X521716Y-197854D02*
X519177Y-200394D01*
Y-205472D01*
X521716Y-208011D01*
X531873D01*
X534412Y-205472D01*
Y-200394D01*
X531873Y-197854D01*
X526795D01*
Y-202933D01*
X524255Y-192776D02*
X534412D01*
X529334D01*
X526795Y-190237D01*
X524255Y-187698D01*
Y-185158D01*
X534412Y-175002D02*
Y-169923D01*
X531873Y-167384D01*
X526795D01*
X524255Y-169923D01*
Y-175002D01*
X526795Y-177541D01*
X531873D01*
X534412Y-175002D01*
Y-159767D02*
Y-154688D01*
X531873Y-152149D01*
X526795D01*
X524255Y-154688D01*
Y-159767D01*
X526795Y-162306D01*
X531873D01*
X534412Y-159767D01*
X524255Y-147071D02*
X534412Y-141992D01*
X524255Y-136914D01*
X534412Y-124218D02*
Y-129297D01*
X531873Y-131836D01*
X526795D01*
X524255Y-129297D01*
Y-124218D01*
X526795Y-121679D01*
X529334D01*
Y-131836D01*
D99*
X1873250Y-241300D02*
X1873250Y1802130D01*
X59250Y1800860D02*
X59250Y-236220D01*
X1419750Y-240030D02*
X1419750Y1803400D01*
X966250Y-238760D02*
X966250Y1804670D01*
X-120485Y782850D02*
X2125020Y782850D01*
X-120159Y1174650D02*
X2131370Y1174650D01*
X-120812Y391050D02*
X2126290Y391050D01*
X512750Y1799590D02*
X512750Y-237490D01*
M02*
