M48
;Layer_Color=9474304
;FILE_FORMAT=4:4
METRIC,LZ
;TYPE=PLATED
T1F00S00C0.2000
T2F00S00C0.3500
T3F00S00C0.5000
T4F00S00C0.9000
T5F00S00C1.0000
T6F00S00C2.0000
%
T01
X00231Y0000625
X00246
X00261
X00276
X00291
X00306
X00321
X00336
X00351
X00366
X00381
Y00019125
Y00032
Y00044875
X00381Y0005775
X00366Y0005775
X00351
X00336
X0032Y00058
X0031945Y0007022
Y0008522
Y0010022
Y0011522
Y0013022
Y0014522
Y0016022
Y0017522
X0029975Y00177
X00265725Y0017575
X0023525Y0018475
X00235Y00163
X002515Y0014175
X0024445Y0011522
Y0010022
Y0008522
Y0007022
Y0005522
X0022945
X0028945
Y0007022
X00289Y0009075
X0028945Y0010022
Y0011522
X00286689Y00148162
X0022945Y0011522
X0027445Y0004022
X0034945
Y0002522
X0021445
Y0004022
Y0005522
Y0007022
Y0008522
Y0010022
X0019866Y00115
X001885
X0017834
X0016818
X0015445Y0011522
Y0010022
X0016945
Y0008522
Y0007022
X0017675Y000735
X0016945Y0005522
X0018445
X0019945
Y0004022
Y0002522
X0018445
Y0004022
X0016945
Y0002522
X0015445
Y0004022
Y0005522
Y0007022
Y0008522
X0013945Y0007022
X0012445Y0008522
X00108753Y0012825
X0009445Y0011522
Y0014522
Y0016022
X001015Y00158
X001145Y0015825
X00130432Y00143108
X00144Y0014325
X00152432Y00139358
X0018225Y001455
X0018725
X001885Y0012516
X0019866
X002155Y001455
X0022075
X001845Y00101
X00186Y0000625
X00201
X00216
X00171
X00156
X00141
X00126
X00111
X00096
X00081
X00066
X00051
X00036
X00021
X0000675Y0000675
X000065Y0002375
Y0003875
Y0005375
Y0006875
Y0008375
Y0009875
Y0011375
Y0012875
X0001945Y0013022
X0003445
Y0014522
X0001945
X000065Y0014375
Y0015875
Y0017375
Y0018875
X000955Y00181
X0006266Y0005791
X000525
X0004234
Y0004775
Y0003759
X000525
X0006266
Y0004775
X000525
X0007945Y0002522
X00069432Y00207358
X0006445Y0022022
X0007945
Y0023522
Y0025022
Y0026522
Y0028022
Y0029522
X0009445
X0012445
X0013945
X0015445
Y0031022
X0016945
X00169Y00299
X00168Y0027975
X0018025Y00278
Y0028816
X0019041
Y00278
Y0025416
X0018025
Y00244
X0019041
X0018445Y0022022
X0016945
Y0023522
X00168Y002605
X0015425Y00261
X0015445Y0025022
Y0028022
Y0032522
X0016945
X0018445
X00188Y003315
X00192552Y00317302
X0021168Y00316597
X002155Y0033675
X0021445Y0035522
Y0037022
X0021425Y0038375
X0019925
X0019945Y0037022
Y0035522
X0018445
Y0037022
X0018425Y0038375
X0016925
X0016945Y0037022
Y0035522
X0015445
Y0037022
X0015425Y0038375
X0013925
X0013945Y0037022
Y0035522
Y0034022
X0012445
Y0035522
X0012573Y003675
X0011557
X0010541
Y0035734
X0009525
Y0034718
X0008509
Y0035734
Y003675
X0007493
X0006477
X0006445Y0035522
Y0034022
Y0032522
Y0031022
Y0029522
Y0028022
Y0026522
Y0025022
Y0023522
X0004945
Y0025022
Y0026522
Y0028022
Y0029522
Y0031022
Y0032522
Y0035522
Y0037022
X0004925Y0038375
X0006425
X0007925
X0009425
X0010925
X0012425
X0009525Y003675
X0003445Y0037022
X0003425Y0038375
X000215
X000065
Y0036875
X0001945Y0037022
X000065Y0035375
Y0033875
Y0032375
X0001945Y0032522
Y0031022
X000065Y0030875
Y0029375
X0001945Y0029522
X0003445
Y0031022
Y0028022
Y0026522
Y0025022
Y0023522
Y0022022
X0004945
Y0020522
Y0019022
X0003445Y0020522
X0001945
X000065Y0020375
Y0021875
X0001945Y0022022
Y0023522
X000065Y0023375
Y0024875
X0001945Y0025022
Y0026522
X000065Y0026375
Y0027875
X0001945Y0028022
X0013945Y0031022
X0012445Y0032522
Y0020522
X0013945
Y0019022
X0013175Y00192
X0015652Y0019641
Y0020657
X0016668
Y0019641
X0017684
X00187
Y0020657
X0017684
X0015445Y0022022
X0021445
Y0020522
X0022225Y0020025
X002235Y00211
X002225Y002335
X0021201Y00235511
X002305Y0023325
X002375Y0023425
X0025325Y002345
X0026425Y0022575
X00274203Y00234973
X00282787Y00240037
X00287313Y002475
X00295375
X00303438
X003115
X0031575Y0023975
X0031945Y0023522
Y0022022
Y0020522
Y0019022
X0030445
Y0020522
Y0022022
Y0023522
X00303Y0026175
X00294937
X00286875
X00274743Y00270989
X002755Y0028675
X0028125Y00295
Y003075
X0027445Y0031022
X0028025Y003195
X002905Y0032875
X0029825Y0032775
X0030841
Y0033791
X0029825
Y0034807
Y0035823
X0030841
Y0034807
X0031945Y0035522
Y0034022
Y0032522
Y0031022
Y0029522
Y0028022
X0031925Y0027
X00319125Y0026175
X00311063
X00301Y0027
X00278611Y0024825
X0026775Y00245
X00267287Y00207893
Y00200037
X0027425Y00211
X00229662Y00220412
X00243669Y00317669
X0024525Y0033675
X0025945Y0034022
X0027445
X0028945
Y0035522
Y0037022
X0028925Y0038375
X0030425
X0030445Y0037022
X0031945
X0031925Y0038375
X0027425
X0027445Y0037022
Y0035522
X0025945
Y0037022
X0025925Y0038375
X0024425
X0024445Y0037022
Y0035522
X0022945Y0037022
X0022925Y0038375
T02
X00131572Y00085916
Y00093916
X0022875Y003485
Y003565
T03
X00219712Y00262638
Y00276608
Y00290578
X00233682
X00247652
Y00276608
Y00262638
X00233682
Y00276608
T04
X00025Y00025
X0005
X001
X00125
T05
X002355Y00024502
X002609
X002863
X003117
X003371
X003625
T06
X004167Y000352
X000304Y001777
X000297Y003453
X004167Y003452
M30
