G04*
G04 #@! TF.GenerationSoftware,Altium Limited,Altium Designer,20.2.6 (244)*
G04*
G04 Layer_Color=3886870*
%FSLAX44Y44*%
%MOMM*%
G71*
G04*
G04 #@! TF.SameCoordinates,7CDA323B-E038-41B1-B74F-359B52FF9F59*
G04*
G04*
G04 #@! TF.FilePolarity,Positive*
G04*
G01*
G75*
%ADD10C,0.2540*%
%ADD70C,0.1524*%
D10*
X-122330Y15240D02*
X-117250Y0D01*
X-112170Y15240D01*
X-117250Y390300D02*
X-112170Y375060D01*
X-122330D02*
X-117250Y390300D01*
Y0D02*
Y152743D01*
Y229429D02*
Y390300D01*
X-119790Y0D02*
X-3175D01*
X-119790Y390300D02*
X-3175D01*
X0Y473500D02*
X15240Y478580D01*
X0Y473500D02*
X15240Y468420D01*
X436760D02*
X452000Y473500D01*
X436760Y478580D02*
X452000Y473500D01*
X0D02*
X183593D01*
X260279D02*
X452000D01*
X0Y393475D02*
Y476040D01*
X452000Y393475D02*
Y476040D01*
D70*
X-120804Y156807D02*
X-123343Y159346D01*
Y164425D01*
X-120804Y166964D01*
X-118265D01*
X-115726Y164425D01*
Y161885D01*
Y164425D01*
X-113187Y166964D01*
X-110648D01*
X-108109Y164425D01*
Y159346D01*
X-110648Y156807D01*
Y172042D02*
X-108109Y174581D01*
Y179660D01*
X-110648Y182199D01*
X-120804D01*
X-123343Y179660D01*
Y174581D01*
X-120804Y172042D01*
X-118265D01*
X-115726Y174581D01*
Y182199D01*
X-108109Y187277D02*
X-110648D01*
Y189816D01*
X-108109D01*
Y187277D01*
X-120804Y199973D02*
X-123343Y202512D01*
Y207591D01*
X-120804Y210130D01*
X-110648D01*
X-108109Y207591D01*
Y202512D01*
X-110648Y199973D01*
X-120804D01*
Y215208D02*
X-123343Y217747D01*
Y222826D01*
X-120804Y225365D01*
X-118265D01*
X-115726Y222826D01*
Y220287D01*
Y222826D01*
X-113187Y225365D01*
X-110648D01*
X-108109Y222826D01*
Y217747D01*
X-110648Y215208D01*
X195275Y464358D02*
Y479594D01*
X187657Y471976D01*
X197814D01*
X213049Y479594D02*
X202892D01*
Y471976D01*
X207971Y474515D01*
X210510D01*
X213049Y471976D01*
Y466898D01*
X210510Y464358D01*
X205431D01*
X202892Y466898D01*
X218127Y464358D02*
Y466898D01*
X220666D01*
Y464358D01*
X218127D01*
X240980D02*
X230823D01*
X240980Y474515D01*
Y477054D01*
X238441Y479594D01*
X233362D01*
X230823Y477054D01*
X246058D02*
X248597Y479594D01*
X253676D01*
X256215Y477054D01*
Y466898D01*
X253676Y464358D01*
X248597D01*
X246058Y466898D01*
Y477054D01*
M02*
