G04*
G04 #@! TF.GenerationSoftware,Altium Limited,Altium Designer,20.2.6 (244)*
G04*
G04 Layer_Physical_Order=4*
G04 Layer_Color=16711680*
%FSLAX44Y44*%
%MOMM*%
G71*
G04*
G04 #@! TF.SameCoordinates,7CDA323B-E038-41B1-B74F-359B52FF9F59*
G04*
G04*
G04 #@! TF.FilePolarity,Positive*
G04*
G01*
G75*
%ADD10C,0.2540*%
%ADD22R,0.5000X0.5000*%
%ADD24R,0.5000X0.5000*%
%ADD34R,0.7620X0.7620*%
%ADD39R,0.9000X0.8100*%
%ADD70C,0.1524*%
%ADD72C,0.5080*%
%ADD74C,0.5500*%
%ADD75C,1.2000*%
%ADD76R,1.2000X1.2000*%
%ADD77C,1.5000*%
%ADD78R,1.5000X1.5000*%
%ADD79C,3.5000*%
%ADD80C,0.4570*%
%ADD81C,0.7000*%
%ADD82R,0.6000X1.5500*%
G04:AMPARAMS|DCode=83|XSize=1.27mm|YSize=1.27mm|CornerRadius=0.3175mm|HoleSize=0mm|Usage=FLASHONLY|Rotation=180.000|XOffset=0mm|YOffset=0mm|HoleType=Round|Shape=RoundedRectangle|*
%AMROUNDEDRECTD83*
21,1,1.2700,0.6350,0,0,180.0*
21,1,0.6350,1.2700,0,0,180.0*
1,1,0.6350,-0.3175,0.3175*
1,1,0.6350,0.3175,0.3175*
1,1,0.6350,0.3175,-0.3175*
1,1,0.6350,-0.3175,-0.3175*
%
%ADD83ROUNDEDRECTD83*%
%ADD84R,0.7620X0.7620*%
%ADD85R,0.6000X1.1000*%
%ADD86R,1.6000X4.5000*%
%ADD87R,0.4500X1.3500*%
%ADD88C,0.7620*%
%ADD89C,0.6350*%
G36*
X322432Y61608D02*
X385500D01*
Y2590D01*
X2590D01*
Y387710D01*
X322432D01*
Y61608D01*
D02*
G37*
%LPC*%
G36*
X308410Y362114D02*
X306924Y361818D01*
X305664Y360976D01*
X304822Y359716D01*
X304526Y358230D01*
X304822Y356744D01*
X305664Y355484D01*
X306924Y354642D01*
X308410Y354346D01*
X309896Y354642D01*
X311156Y355484D01*
X311998Y356744D01*
X312294Y358230D01*
X311998Y359716D01*
X311156Y360976D01*
X309896Y361818D01*
X308410Y362114D01*
D02*
G37*
G36*
X298250D02*
X296764Y361818D01*
X295504Y360976D01*
X294662Y359716D01*
X294366Y358230D01*
X294662Y356744D01*
X295504Y355484D01*
X296764Y354642D01*
X298250Y354346D01*
X299736Y354642D01*
X300996Y355484D01*
X301838Y356744D01*
X302134Y358230D01*
X301838Y359716D01*
X300996Y360976D01*
X299736Y361818D01*
X298250Y362114D01*
D02*
G37*
G36*
X308410Y351954D02*
X306924Y351658D01*
X305664Y350816D01*
X304822Y349556D01*
X304526Y348070D01*
X304822Y346584D01*
X305664Y345324D01*
X306924Y344482D01*
X308410Y344186D01*
X309896Y344482D01*
X311156Y345324D01*
X311998Y346584D01*
X312294Y348070D01*
X311998Y349556D01*
X311156Y350816D01*
X309896Y351658D01*
X308410Y351954D01*
D02*
G37*
G36*
X298250D02*
X296764Y351658D01*
X295504Y350816D01*
X294662Y349556D01*
X294366Y348070D01*
X294662Y346584D01*
X295504Y345324D01*
X296764Y344482D01*
X298250Y344186D01*
X299736Y344482D01*
X300996Y345324D01*
X301838Y346584D01*
X302134Y348070D01*
X301838Y349556D01*
X300996Y350816D01*
X299736Y351658D01*
X298250Y351954D01*
D02*
G37*
G36*
X228750Y361117D02*
X226983Y360765D01*
X225485Y359765D01*
X224485Y358267D01*
X224133Y356500D01*
X224485Y354733D01*
X225485Y353236D01*
Y351764D01*
X224485Y350267D01*
X224133Y348500D01*
X224485Y346733D01*
X225485Y345235D01*
X226983Y344235D01*
X228750Y343883D01*
X230517Y344235D01*
X232015Y345235D01*
X233015Y346733D01*
X233367Y348500D01*
X233015Y350267D01*
X232015Y351764D01*
Y353236D01*
X233015Y354733D01*
X233367Y356500D01*
X233015Y358267D01*
X232015Y359765D01*
X230517Y360765D01*
X228750Y361117D01*
D02*
G37*
G36*
X308410Y341794D02*
X306924Y341498D01*
X305664Y340656D01*
X304822Y339396D01*
X304526Y337910D01*
X304822Y336424D01*
X305664Y335164D01*
X306924Y334322D01*
X308410Y334026D01*
X309896Y334322D01*
X311156Y335164D01*
X311998Y336424D01*
X312294Y337910D01*
X311998Y339396D01*
X311156Y340656D01*
X309896Y341498D01*
X308410Y341794D01*
D02*
G37*
G36*
X298250D02*
X296764Y341498D01*
X295504Y340656D01*
X294662Y339396D01*
X294366Y337910D01*
X294662Y336424D01*
X295504Y335164D01*
X296764Y334322D01*
X298250Y334026D01*
X299736Y334322D01*
X300996Y335164D01*
X301838Y336424D01*
X302134Y337910D01*
X301838Y339396D01*
X300996Y340656D01*
X299736Y341498D01*
X298250Y341794D01*
D02*
G37*
G36*
X188000Y335384D02*
X186514Y335088D01*
X185254Y334246D01*
X184412Y332986D01*
X184116Y331500D01*
X184412Y330014D01*
X185254Y328754D01*
X186514Y327912D01*
X188000Y327616D01*
X189486Y327912D01*
X190746Y328754D01*
X191588Y330014D01*
X191884Y331500D01*
X191588Y332986D01*
X190746Y334246D01*
X189486Y335088D01*
X188000Y335384D01*
D02*
G37*
G36*
X29700Y364671D02*
X25921Y364299D01*
X22287Y363197D01*
X18938Y361407D01*
X16002Y358998D01*
X13593Y356062D01*
X11803Y352713D01*
X10701Y349079D01*
X10329Y345300D01*
X10701Y341521D01*
X11803Y337887D01*
X13593Y334538D01*
X16002Y331602D01*
X18938Y329193D01*
X22287Y327403D01*
X25921Y326301D01*
X29700Y325929D01*
X33479Y326301D01*
X37113Y327403D01*
X40462Y329193D01*
X43398Y331602D01*
X45807Y334538D01*
X47597Y337887D01*
X48699Y341521D01*
X49071Y345300D01*
X48699Y349079D01*
X47597Y352713D01*
X45807Y356062D01*
X43398Y358998D01*
X40462Y361407D01*
X37113Y363197D01*
X33479Y364299D01*
X29700Y364671D01*
D02*
G37*
G36*
X308410Y331634D02*
X306924Y331338D01*
X305664Y330496D01*
X304822Y329236D01*
X304526Y327750D01*
X304822Y326264D01*
X305664Y325004D01*
X306924Y324162D01*
X308410Y323866D01*
X309896Y324162D01*
X311156Y325004D01*
X311998Y326264D01*
X312294Y327750D01*
X311998Y329236D01*
X311156Y330496D01*
X309896Y331338D01*
X308410Y331634D01*
D02*
G37*
G36*
X248250Y323813D02*
X247556Y323675D01*
X247389Y323563D01*
X203750D01*
X203056Y323425D01*
X202468Y323032D01*
X198187Y318750D01*
X197547Y318762D01*
X195842Y319234D01*
X195298Y320048D01*
X194038Y320890D01*
X192552Y321186D01*
X191066Y320890D01*
X189806Y320048D01*
X188964Y318788D01*
X188676Y317338D01*
X172314Y300977D01*
X171753Y300137D01*
X171556Y299146D01*
Y242371D01*
X171753Y241380D01*
X172314Y240540D01*
X204297Y208558D01*
X205137Y207996D01*
X206128Y207799D01*
X215031D01*
X218487Y204344D01*
X219327Y203782D01*
X220318Y203585D01*
X222076D01*
X248910Y176751D01*
Y170499D01*
X246910Y168737D01*
X240250Y168750D01*
X231140D01*
Y176210D01*
X231140D01*
X231110Y176374D01*
X231140Y178374D01*
X231286Y178848D01*
X231425Y179056D01*
X231563Y179750D01*
X231563Y179750D01*
X231563Y180199D01*
X231563Y187750D01*
X231425Y188444D01*
X231140Y188870D01*
Y189550D01*
X230514D01*
X223782Y196282D01*
X223194Y196675D01*
X222500Y196813D01*
X201250Y196813D01*
X200556Y196675D01*
X199968Y196282D01*
X196313Y192626D01*
X194313Y193455D01*
X194313Y207000D01*
X194175Y207694D01*
X193782Y208282D01*
X190282Y211782D01*
X190282Y211782D01*
X189694Y212175D01*
X189000Y212313D01*
X155500Y212313D01*
X154806Y212175D01*
X154218Y211782D01*
X154218Y211782D01*
X150718Y208282D01*
X150718Y208282D01*
X150325Y207694D01*
X150187Y207000D01*
Y193000D01*
X150325Y192306D01*
X150718Y191718D01*
X164218Y178218D01*
X164806Y177825D01*
X164912Y177804D01*
X165583Y176334D01*
X165623Y175687D01*
X161749Y171813D01*
X152751Y171813D01*
X145032Y179532D01*
X144444Y179925D01*
X143750Y180063D01*
X136250Y180063D01*
X135556Y179925D01*
X134968Y179532D01*
X133680Y178243D01*
X131813Y178010D01*
X131480Y178006D01*
X131229Y178006D01*
X122222D01*
Y158950D01*
X131258D01*
X131778Y158950D01*
X133693Y158744D01*
X136468Y155968D01*
X137056Y155575D01*
X137750Y155437D01*
X145749D01*
X149937Y151249D01*
Y146500D01*
X150075Y145806D01*
X150468Y145218D01*
X151968Y143718D01*
X152556Y143325D01*
X153250Y143187D01*
X161250D01*
X161944Y143325D01*
X162532Y143718D01*
X164032Y145218D01*
X164425Y145806D01*
X164563Y146500D01*
X164563Y147499D01*
X166754Y149691D01*
X168602Y148925D01*
Y138448D01*
X175513D01*
X180398Y133563D01*
X179570Y131563D01*
X169500D01*
X168806Y131425D01*
X168218Y131032D01*
X163968Y126782D01*
X163575Y126194D01*
X163437Y125500D01*
X163437Y113750D01*
X163575Y113056D01*
X163968Y112468D01*
X166218Y110218D01*
X166806Y109825D01*
X167500Y109687D01*
X199750Y109687D01*
X200444Y109825D01*
X201032Y110218D01*
X203782Y112968D01*
X204175Y113556D01*
X204313Y114250D01*
Y126500D01*
X204175Y127194D01*
X203782Y127782D01*
X200532Y131032D01*
X200469Y131074D01*
X200054Y132907D01*
X200093Y133434D01*
X205029Y138370D01*
X207545D01*
X214112Y131803D01*
X215121Y131129D01*
X216310Y130892D01*
X232616D01*
X233805Y131129D01*
X234813Y131803D01*
X241261Y138250D01*
X243414D01*
X245799Y140635D01*
X247556Y140326D01*
X248050Y140058D01*
X248754Y139004D01*
X250014Y138162D01*
X251500Y137866D01*
X252986Y138162D01*
X254246Y139004D01*
X255088Y140264D01*
X255384Y141750D01*
X255088Y143236D01*
X254246Y144496D01*
X254090Y144601D01*
Y177824D01*
X253893Y178815D01*
X253331Y179655D01*
X224980Y208006D01*
X224140Y208568D01*
X223149Y208765D01*
X221390D01*
X217935Y212220D01*
X217095Y212782D01*
X216104Y212979D01*
X207201D01*
X184590Y235589D01*
X185355Y237437D01*
X206960D01*
Y235511D01*
X207345Y233579D01*
X208439Y231941D01*
X210078Y230846D01*
X212010Y230462D01*
X212148Y230489D01*
X214000Y230846D01*
X214846Y230000D01*
X219910D01*
Y220750D01*
X220107Y219759D01*
X220669Y218919D01*
X258310Y181277D01*
Y33472D01*
X256221Y32606D01*
X254283Y31119D01*
X252796Y29181D01*
X251861Y26924D01*
X251542Y24502D01*
X251861Y22080D01*
X252796Y19823D01*
X254283Y17885D01*
X256221Y16398D01*
X258478Y15463D01*
X260900Y15144D01*
X263322Y15463D01*
X265579Y16398D01*
X267517Y17885D01*
X269004Y19823D01*
X269939Y22080D01*
X270258Y24502D01*
X269939Y26924D01*
X269004Y29181D01*
X267517Y31119D01*
X265579Y32606D01*
X263490Y33472D01*
Y182350D01*
X263293Y183341D01*
X262731Y184181D01*
X225090Y221823D01*
Y230000D01*
X227993D01*
Y229917D01*
X228191Y228926D01*
X228752Y228086D01*
X273910Y182927D01*
Y50908D01*
X274107Y49917D01*
X274669Y49076D01*
X283710Y40035D01*
Y33472D01*
X281621Y32606D01*
X279683Y31119D01*
X278196Y29181D01*
X277261Y26924D01*
X276942Y24502D01*
X277261Y22080D01*
X278196Y19823D01*
X279683Y17885D01*
X281621Y16398D01*
X283878Y15463D01*
X286300Y15144D01*
X288722Y15463D01*
X290979Y16398D01*
X292917Y17885D01*
X294404Y19823D01*
X295339Y22080D01*
X295658Y24502D01*
X295339Y26924D01*
X294404Y29181D01*
X292917Y31119D01*
X290979Y32606D01*
X288890Y33472D01*
Y41108D01*
X288693Y42099D01*
X288131Y42939D01*
X279090Y51980D01*
Y184000D01*
X278893Y184991D01*
X278331Y185831D01*
X236010Y228152D01*
X236776Y230000D01*
X255250D01*
X257500Y232250D01*
Y237437D01*
X268250D01*
X268944Y237575D01*
X269532Y237968D01*
X270538Y238974D01*
X273363Y238974D01*
X284160Y228177D01*
Y151053D01*
X283943Y150908D01*
X283101Y149648D01*
X282805Y148162D01*
X283101Y146676D01*
X283943Y145416D01*
X285203Y144574D01*
X286689Y144278D01*
X288175Y144574D01*
X289435Y145416D01*
X290277Y146676D01*
X290573Y148162D01*
X290277Y149648D01*
X289435Y150908D01*
X289340Y150972D01*
Y229250D01*
X289143Y230241D01*
X288581Y231081D01*
X276376Y243287D01*
Y267499D01*
X277489Y268243D01*
X278331Y269503D01*
X278627Y270989D01*
X278331Y272475D01*
X277489Y273735D01*
X276229Y274577D01*
X274743Y274872D01*
X273257Y274577D01*
X271997Y273735D01*
X271155Y272475D01*
X270859Y270989D01*
X271155Y269503D01*
X271329Y269242D01*
X271196Y268573D01*
Y261811D01*
X270000Y260063D01*
X265500D01*
X264806Y259925D01*
X264218Y259532D01*
X263218Y258532D01*
X262825Y257944D01*
X262687Y257250D01*
Y250251D01*
X261999Y249563D01*
X214251D01*
X207313Y256501D01*
Y304749D01*
X208501Y305937D01*
X248000D01*
X248694Y306075D01*
X249282Y306468D01*
X252782Y309968D01*
X253175Y310556D01*
X253313Y311250D01*
Y318750D01*
X253175Y319444D01*
X252782Y320032D01*
X249532Y323282D01*
X248944Y323675D01*
X248250Y323813D01*
D02*
G37*
G36*
X128750Y377313D02*
X61000D01*
X60306Y377175D01*
X59718Y376782D01*
X55968Y373032D01*
X55575Y372444D01*
X55437Y371750D01*
X55437Y366500D01*
X55575Y365806D01*
X55968Y365218D01*
X59218Y361968D01*
X59806Y361575D01*
X60500Y361437D01*
X75249D01*
X80187Y356499D01*
Y346500D01*
X80325Y345806D01*
X80718Y345218D01*
X81242Y344694D01*
X80295Y342813D01*
X79229Y342813D01*
X68400D01*
Y331157D01*
Y325706D01*
X68396D01*
Y314050D01*
X68400D01*
Y311806D01*
X68396D01*
Y300150D01*
X94958D01*
X98588Y303780D01*
X104544Y309736D01*
X105217Y310744D01*
X105255Y310937D01*
X105752Y310937D01*
X106099Y311007D01*
X106444Y311075D01*
X106445Y311076D01*
X106445Y311076D01*
X106625Y311196D01*
X107354D01*
Y311950D01*
X107425Y312056D01*
X107425Y312057D01*
X107425Y312058D01*
X107494Y312404D01*
X107563Y312750D01*
Y326749D01*
X109782Y328968D01*
X110175Y329556D01*
X110313Y330250D01*
X110313Y355999D01*
X113001Y358687D01*
X129000Y358687D01*
X129694Y358825D01*
X130282Y359218D01*
X133282Y362218D01*
X133675Y362806D01*
X133813Y363500D01*
Y372250D01*
X133675Y372944D01*
X133282Y373532D01*
X130032Y376782D01*
X129444Y377175D01*
X128750Y377313D01*
D02*
G37*
G36*
X197000Y346608D02*
X160510D01*
X159321Y346371D01*
X158312Y345698D01*
X102108Y289494D01*
X101837Y289087D01*
X94742Y289087D01*
X94048Y288949D01*
X93754Y288752D01*
X92798D01*
Y287638D01*
X92675Y287020D01*
Y270499D01*
X92213Y270037D01*
X86913D01*
X86219Y269899D01*
X85631Y269506D01*
X83735Y267610D01*
X83244D01*
Y267119D01*
X82361Y266236D01*
X81968Y265648D01*
X81830Y264954D01*
X81830Y205991D01*
X58418Y182924D01*
X58414Y182919D01*
X58408Y182915D01*
X58215Y182626D01*
X58020Y182339D01*
X58019Y182333D01*
X58015Y182327D01*
X57947Y181985D01*
X57877Y181647D01*
X57878Y181640D01*
X57877Y181633D01*
Y170169D01*
X37580Y149872D01*
X37187Y149284D01*
X37049Y148590D01*
Y19638D01*
X37187Y18944D01*
X37580Y18356D01*
X39968Y15968D01*
X39968Y15968D01*
X40556Y15575D01*
X41250Y15437D01*
X63250Y15437D01*
X63944Y15575D01*
X64532Y15968D01*
X64532Y15968D01*
X67576Y19012D01*
X67969Y19600D01*
X68107Y20294D01*
X68107Y28205D01*
X81777Y41875D01*
X99833Y41875D01*
X110201Y31507D01*
X110201Y18486D01*
X110339Y17792D01*
X110732Y17204D01*
X112718Y15218D01*
X113307Y14825D01*
X114000Y14687D01*
X142750Y14687D01*
X143444Y14825D01*
X144032Y15218D01*
X144032Y15218D01*
X146316Y17502D01*
X146709Y18090D01*
X146847Y18784D01*
X146847Y50292D01*
X146709Y50986D01*
X146316Y51574D01*
X115099Y82791D01*
X118329Y86021D01*
X119564Y87870D01*
X119998Y90050D01*
Y114478D01*
X119564Y116658D01*
X119078Y117385D01*
Y124006D01*
X112720D01*
X112467Y124317D01*
X111834Y126006D01*
X112341Y126764D01*
X112636Y128250D01*
X112341Y129736D01*
X111499Y130996D01*
X110239Y131838D01*
X108753Y132134D01*
X107267Y131838D01*
X106007Y130996D01*
X105165Y129736D01*
X104869Y128250D01*
X105165Y126764D01*
X106007Y125504D01*
X107267Y124662D01*
X107754Y124565D01*
X108808Y124232D01*
X109522Y122480D01*
Y117385D01*
X109036Y116658D01*
X108603Y114478D01*
Y92410D01*
X107041Y90849D01*
X91475Y106415D01*
X91475Y176842D01*
X93475Y177772D01*
X94014Y177412D01*
X95500Y177116D01*
X96822Y176031D01*
Y158950D01*
X96837D01*
X97616Y158000D01*
X97912Y156514D01*
X98754Y155254D01*
X100014Y154412D01*
X101500Y154116D01*
X102986Y154412D01*
X104246Y155254D01*
X105088Y156514D01*
X105384Y158000D01*
X106163Y158950D01*
X106378D01*
Y178006D01*
X100486D01*
X100026Y178503D01*
X99186Y180006D01*
X99384Y181000D01*
X99375Y181041D01*
X107744Y189410D01*
X128899D01*
X129004Y189254D01*
X130264Y188412D01*
X131750Y188116D01*
X133236Y188412D01*
X134496Y189254D01*
X135338Y190514D01*
X135634Y192000D01*
X135338Y193486D01*
X134496Y194746D01*
X133236Y195588D01*
X131750Y195884D01*
X130264Y195588D01*
X129004Y194746D01*
X128899Y194590D01*
X108158D01*
X108028Y194704D01*
X107110Y196418D01*
X107109Y196590D01*
X107223Y197160D01*
Y216850D01*
X109071Y217616D01*
X112718Y213968D01*
X113306Y213575D01*
X114000Y213437D01*
X136500Y213437D01*
X137194Y213575D01*
X137782Y213968D01*
X145532Y221718D01*
X145925Y222306D01*
X146063Y223000D01*
X146063Y273250D01*
X145925Y273944D01*
X145532Y274532D01*
X132032Y288032D01*
X131444Y288425D01*
X130750Y288563D01*
X113854D01*
Y288752D01*
X112770D01*
X112005Y290600D01*
X161797Y340392D01*
X195713D01*
X208302Y327803D01*
X209311Y327129D01*
X210500Y326892D01*
X277793D01*
X286838Y317847D01*
Y310586D01*
Y296686D01*
Y289858D01*
X277705D01*
X276986Y290338D01*
X275500Y290634D01*
X274014Y290338D01*
X272754Y289496D01*
X271912Y288236D01*
X271616Y286750D01*
X271912Y285264D01*
X272754Y284004D01*
X274014Y283162D01*
X275500Y282866D01*
X276986Y283162D01*
X277705Y283642D01*
X286838D01*
Y280106D01*
X299394D01*
Y296686D01*
Y308342D01*
Y322055D01*
X299394Y322242D01*
X299636Y324142D01*
X299736Y324162D01*
X300996Y325004D01*
X301838Y326264D01*
X302134Y327750D01*
X301838Y329236D01*
X300996Y330496D01*
X299736Y331338D01*
X298250Y331634D01*
X296764Y331338D01*
X295504Y330496D01*
X294662Y329236D01*
X294366Y327750D01*
X294662Y326264D01*
X295504Y325004D01*
X296644Y324242D01*
X296666Y324095D01*
X295640Y322242D01*
X291233D01*
X281278Y332197D01*
X280269Y332871D01*
X279080Y333108D01*
X211787D01*
X199198Y345698D01*
X198189Y346371D01*
X197000Y346608D01*
D02*
G37*
G36*
X30400Y197071D02*
X26621Y196699D01*
X22987Y195597D01*
X19638Y193807D01*
X16702Y191398D01*
X14293Y188462D01*
X12503Y185113D01*
X11401Y181479D01*
X11029Y177700D01*
X11401Y173921D01*
X12503Y170287D01*
X14293Y166938D01*
X16702Y164002D01*
X19638Y161593D01*
X22987Y159803D01*
X26621Y158701D01*
X30400Y158329D01*
X34179Y158701D01*
X37813Y159803D01*
X41162Y161593D01*
X44097Y164002D01*
X46507Y166938D01*
X48297Y170287D01*
X49399Y173921D01*
X49771Y177700D01*
X49399Y181479D01*
X48297Y185113D01*
X46507Y188462D01*
X44097Y191398D01*
X41162Y193807D01*
X37813Y195597D01*
X34179Y196699D01*
X30400Y197071D01*
D02*
G37*
G36*
X119078Y178006D02*
X109522D01*
Y158950D01*
X110042D01*
X110616Y158250D01*
X110912Y156764D01*
X111754Y155504D01*
X113014Y154662D01*
X114500Y154366D01*
X115986Y154662D01*
X117246Y155504D01*
X118088Y156764D01*
X118384Y158250D01*
X118958Y158950D01*
X119078D01*
Y178006D01*
D02*
G37*
G36*
X130432Y146992D02*
X128945Y146696D01*
X127685Y145855D01*
X126844Y144595D01*
X126548Y143108D01*
X126844Y141622D01*
X127685Y140362D01*
X128945Y139520D01*
X130432Y139225D01*
X131918Y139520D01*
X133178Y140362D01*
X134020Y141622D01*
X134315Y143108D01*
X134020Y144595D01*
X133178Y145855D01*
X131918Y146696D01*
X130432Y146992D01*
D02*
G37*
G36*
X144478Y124006D02*
X122222D01*
Y104950D01*
X124410D01*
Y98488D01*
X124399D01*
X124643Y96631D01*
X125360Y94901D01*
X126500Y93416D01*
X127155Y92913D01*
X127307Y92149D01*
X128308Y90652D01*
Y89180D01*
X127307Y87683D01*
X126955Y85916D01*
X127307Y84149D01*
X128308Y82652D01*
X129805Y81651D01*
X131572Y81299D01*
X133339Y81651D01*
X134837Y82652D01*
X135837Y84149D01*
X135862Y84274D01*
X136952Y84726D01*
X139180Y86435D01*
X140891Y88664D01*
X141965Y91259D01*
X142332Y94044D01*
X142290D01*
Y104950D01*
X144478D01*
Y124006D01*
D02*
G37*
G36*
X176750Y77384D02*
X175264Y77088D01*
X174004Y76246D01*
X173162Y74986D01*
X172866Y73500D01*
X173162Y72014D01*
X174004Y70754D01*
X175264Y69912D01*
X176750Y69616D01*
X178236Y69912D01*
X179496Y70754D01*
X180338Y72014D01*
X180634Y73500D01*
X180338Y74986D01*
X179496Y76246D01*
X178236Y77088D01*
X176750Y77384D01*
D02*
G37*
G36*
X25000Y32845D02*
X22970Y32578D01*
X21077Y31794D01*
X19453Y30547D01*
X18206Y28923D01*
X17422Y27030D01*
X17155Y25000D01*
X17422Y22970D01*
X18206Y21077D01*
X19453Y19453D01*
X21077Y18206D01*
X22970Y17422D01*
X25000Y17155D01*
X27030Y17422D01*
X28923Y18206D01*
X30547Y19453D01*
X31794Y21077D01*
X32578Y22970D01*
X32845Y25000D01*
X32578Y27030D01*
X31794Y28923D01*
X30547Y30547D01*
X28923Y31794D01*
X27030Y32578D01*
X25000Y32845D01*
D02*
G37*
G36*
X289000Y94634D02*
X287514Y94338D01*
X286254Y93496D01*
X285412Y92236D01*
X285116Y90750D01*
X285412Y89264D01*
X286254Y88004D01*
X287514Y87162D01*
X289000Y86866D01*
X289184Y86903D01*
X296660Y79427D01*
Y62352D01*
X296857Y61361D01*
X297419Y60521D01*
X328926Y29013D01*
X328061Y26924D01*
X327742Y24502D01*
X328061Y22080D01*
X328996Y19823D01*
X330483Y17885D01*
X332421Y16398D01*
X334678Y15463D01*
X337100Y15144D01*
X339522Y15463D01*
X341779Y16398D01*
X343717Y17885D01*
X345204Y19823D01*
X346139Y22080D01*
X346458Y24502D01*
X346139Y26924D01*
X345204Y29181D01*
X343717Y31119D01*
X341779Y32606D01*
X339522Y33541D01*
X337100Y33860D01*
X334678Y33541D01*
X332589Y32676D01*
X301840Y63425D01*
Y80500D01*
X301643Y81491D01*
X301081Y82331D01*
X292847Y90566D01*
X292884Y90750D01*
X292588Y92236D01*
X291746Y93496D01*
X290486Y94338D01*
X289000Y94634D01*
D02*
G37*
G36*
X311700Y33860D02*
X309278Y33541D01*
X307021Y32606D01*
X305083Y31119D01*
X303596Y29181D01*
X302661Y26924D01*
X302342Y24502D01*
X302661Y22080D01*
X303596Y19823D01*
X305083Y17885D01*
X307021Y16398D01*
X309278Y15463D01*
X311700Y15144D01*
X314122Y15463D01*
X316379Y16398D01*
X318317Y17885D01*
X319804Y19823D01*
X320739Y22080D01*
X321058Y24502D01*
X320739Y26924D01*
X319804Y29181D01*
X318317Y31119D01*
X316379Y32606D01*
X314122Y33541D01*
X311700Y33860D01*
D02*
G37*
G36*
X235500D02*
X233078Y33541D01*
X230821Y32606D01*
X228883Y31119D01*
X227396Y29181D01*
X226461Y26924D01*
X226142Y24502D01*
X226461Y22080D01*
X227396Y19823D01*
X228883Y17885D01*
X230821Y16398D01*
X233078Y15463D01*
X235500Y15144D01*
X237922Y15463D01*
X240179Y16398D01*
X242117Y17885D01*
X243604Y19823D01*
X244539Y22080D01*
X244858Y24502D01*
X244539Y26924D01*
X243604Y29181D01*
X242117Y31119D01*
X240179Y32606D01*
X237922Y33541D01*
X235500Y33860D01*
D02*
G37*
%LPD*%
G36*
X251500Y318750D02*
Y311250D01*
X248000Y307750D01*
X207750D01*
X205500Y305500D01*
Y255750D01*
X213500Y247750D01*
X262750D01*
X264500Y249500D01*
Y257250D01*
X265500Y258250D01*
X270000D01*
X271500Y256750D01*
Y242500D01*
X268250Y239250D01*
X180500Y239250D01*
X176432Y243318D01*
X176432Y294432D01*
X203750Y321750D01*
X248000D01*
X248250Y322000D01*
X251500Y318750D01*
D02*
G37*
G36*
X189000Y210500D02*
X192500Y207000D01*
X192500Y186250D01*
X185750Y179500D01*
X165500Y179500D01*
X152000Y193000D01*
Y207000D01*
X155500Y210500D01*
X189000Y210500D01*
D02*
G37*
G36*
X229750Y187750D02*
X229750Y179750D01*
X228250Y178250D01*
X220500Y178250D01*
X216250Y174000D01*
X216250Y163750D01*
X212500Y160000D01*
X200500D01*
X196000Y164500D01*
X196000Y189750D01*
X201250Y195000D01*
X222500Y195000D01*
X229750Y187750D01*
D02*
G37*
G36*
X145250Y176750D02*
X152000Y170000D01*
X162500Y170000D01*
X168750Y176250D01*
X179750Y176250D01*
X183750Y172250D01*
X183750Y160750D01*
X180250Y157250D01*
X171750Y157250D01*
X162750Y148250D01*
X162750Y146500D01*
X161250Y145000D01*
X153250D01*
X151750Y146500D01*
Y152000D01*
X146500Y157250D01*
X137750D01*
X134750Y160250D01*
Y176750D01*
X136250Y178250D01*
X143750Y178250D01*
X145250Y176750D01*
D02*
G37*
G36*
X199250Y129750D02*
X202500Y126500D01*
Y114250D01*
X199750Y111500D01*
X167500Y111500D01*
X165250Y113750D01*
X165250Y125500D01*
X169500Y129750D01*
X199250Y129750D01*
D02*
G37*
G36*
X132000Y372250D02*
Y363500D01*
X129000Y360500D01*
X112250Y360500D01*
X108500Y356750D01*
X108500Y330250D01*
X105750Y327500D01*
Y312750D01*
X101000Y312745D01*
Y327500D01*
X82000Y346500D01*
Y357250D01*
X76000Y363250D01*
X60500D01*
X57250Y366500D01*
X57250Y371750D01*
X61000Y375500D01*
X128750D01*
X132000Y372250D01*
D02*
G37*
G36*
X144250Y273250D02*
X144250Y223000D01*
X136500Y215250D01*
X114000Y215250D01*
X107750Y221500D01*
X107750Y286750D01*
X130750D01*
X144250Y273250D01*
D02*
G37*
G36*
X105410Y287274D02*
X105410Y197160D01*
X89662Y181412D01*
X89662Y105664D01*
X145034Y50292D01*
X145034Y18784D01*
X142750Y16500D01*
X114000Y16500D01*
X112014Y18486D01*
X112014Y32258D01*
X100584Y43688D01*
X81026Y43688D01*
X66294Y28956D01*
X66294Y20294D01*
X63250Y17250D01*
X41250Y17250D01*
X38862Y19638D01*
Y148590D01*
X59690Y169418D01*
Y181633D01*
X83643Y205232D01*
X83643Y264954D01*
X86913Y268224D01*
X92964D01*
X94488Y269748D01*
Y287020D01*
X94742Y287274D01*
X105410Y287274D01*
D02*
G37*
D10*
X210500Y330000D02*
X279080D01*
X292666Y316414D01*
X293116D01*
X160510Y343500D02*
X197000D01*
X210500Y330000D01*
X104306Y287296D02*
X160510Y343500D01*
X292300Y286750D02*
X293116Y285934D01*
X275500Y286750D02*
X292300D01*
X104306Y281204D02*
Y287296D01*
X103326Y280224D02*
X104306Y281204D01*
X101550Y168428D02*
X101600Y168478D01*
X101550Y158050D02*
Y168428D01*
X101500Y158000D02*
X101550Y158050D01*
X114400Y158350D02*
Y168378D01*
Y158350D02*
X114500Y158250D01*
X114300Y168478D02*
X114400Y168378D01*
X208892Y141418D02*
X208892D01*
X216310Y134000D02*
X232616D01*
X208892Y141418D02*
X216310Y134000D01*
X207162Y143148D02*
X208892Y141418D01*
X206287Y144023D02*
X207162Y144898D01*
X197014Y134750D02*
X206287Y144023D01*
X232616Y134000D02*
X240104Y141488D01*
X207162Y143148D02*
Y144898D01*
X240104Y141488D02*
Y147046D01*
X242064Y149006D01*
X173380Y144976D02*
X183606Y134750D01*
X197014D01*
X74674Y305978D02*
X96390D01*
X102346Y311933D01*
Y318744D01*
X103326Y319724D01*
X74674Y319878D02*
X90172D01*
X90326Y319724D01*
X74678Y319881D02*
Y336985D01*
X74674Y319878D02*
X74678Y319881D01*
D22*
X268144Y254174D02*
D03*
X258144D02*
D03*
D24*
X157226Y149526D02*
D03*
Y139526D02*
D03*
X211750Y311500D02*
D03*
Y301500D02*
D03*
X239750Y311500D02*
D03*
Y301500D02*
D03*
X215900Y244174D02*
D03*
Y254174D02*
D03*
X237998Y244174D02*
D03*
Y254174D02*
D03*
X248158Y244174D02*
D03*
Y254174D02*
D03*
D34*
X101026Y351536D02*
D03*
X114366D02*
D03*
Y336296D02*
D03*
X101026D02*
D03*
X75626Y207518D02*
D03*
X88966D02*
D03*
D39*
X242064Y149006D02*
D03*
Y162906D02*
D03*
X293116Y285934D02*
D03*
Y272034D02*
D03*
Y316414D02*
D03*
Y302514D02*
D03*
X74674Y305978D02*
D03*
Y319878D02*
D03*
X74678Y350885D02*
D03*
Y336985D02*
D03*
D70*
X127000Y98488D02*
G03*
X131572Y93916I4572J0D01*
G01*
Y85916D02*
G03*
X139700Y94044I0J8128D01*
G01*
X174146Y242371D02*
Y299146D01*
X192302Y317302D02*
X192552D01*
X174146Y299146D02*
X192302Y317302D01*
X206128Y210389D02*
X216104D01*
X220318Y206175D01*
X223149D01*
X251500Y177824D01*
X174146Y242371D02*
X206128Y210389D01*
X251500Y141750D02*
Y177824D01*
X222500Y220750D02*
X260900Y182350D01*
Y24502D02*
Y182350D01*
X230583Y229917D02*
Y233167D01*
X276500Y50908D02*
Y184000D01*
X230500Y233250D02*
X230583Y233167D01*
Y229917D02*
X276500Y184000D01*
X222500Y220750D02*
Y233500D01*
X286750Y148223D02*
Y229250D01*
X273786Y242214D02*
Y268573D01*
Y242214D02*
X286750Y229250D01*
X274160Y268947D02*
Y270406D01*
X274743Y270989D01*
X273786Y268573D02*
X274160Y268947D01*
X95500Y181000D02*
X95672D01*
X106671Y192000D01*
X131750D01*
X131750Y192000D01*
X299250Y62352D02*
X337100Y24502D01*
X289000Y90750D02*
X299250Y80500D01*
Y62352D02*
Y80500D01*
X286300Y24502D02*
Y41108D01*
X276500Y50908D02*
X286300Y41108D01*
X237500Y234250D02*
Y243676D01*
X248158Y239592D02*
X253250Y234500D01*
X248158Y239592D02*
Y244174D01*
X337100Y24502D02*
Y24502D01*
X237500Y243676D02*
X237998Y244174D01*
X235000Y163000D02*
X240658D01*
X241408Y163750D01*
X242158Y163000D01*
X242064Y162906D02*
X242158Y163000D01*
X127000Y98488D02*
Y114478D01*
X139700Y94044D02*
Y114478D01*
X286689Y148162D02*
X286750Y148223D01*
D72*
X293116Y285934D02*
Y302514D01*
X220750Y145500D02*
X226014D01*
X215500D02*
X220750D01*
X187250D02*
X192154D01*
X182250D02*
X187250D01*
X226014D02*
X226162Y145648D01*
X192154Y145500D02*
X192380Y145726D01*
X218628Y155682D02*
X225552Y148758D01*
X192840Y146186D02*
Y148686D01*
X192380Y145726D02*
X192840Y146186D01*
Y148686D02*
X199836Y155682D01*
X218628D01*
X225552Y148758D02*
Y170622D01*
Y148758D02*
X226162Y148148D01*
Y145648D02*
Y148148D01*
D74*
X228750Y348500D02*
D03*
Y356500D02*
D03*
X131572Y93916D02*
D03*
Y85916D02*
D03*
D75*
X100000Y25000D02*
D03*
X25000D02*
D03*
D76*
X125000D02*
D03*
X50000D02*
D03*
D77*
X235500Y24502D02*
D03*
X337100D02*
D03*
X311700D02*
D03*
X286300D02*
D03*
X260900D02*
D03*
D78*
X362500D02*
D03*
D79*
X30400Y177700D02*
D03*
X29700Y345300D02*
D03*
X416700Y345200D02*
D03*
Y35200D02*
D03*
D80*
X184500Y101000D02*
D03*
X154250Y261000D02*
D03*
X168000Y260500D02*
D03*
Y279750D02*
D03*
X265725Y175750D02*
D03*
X235250Y184750D02*
D03*
X222250Y200250D02*
D03*
X267287Y200037D02*
D03*
Y207893D02*
D03*
X223500Y211000D02*
D03*
X229662Y220412D02*
D03*
X282787Y240037D02*
D03*
X274203Y234973D02*
D03*
X315750Y239750D02*
D03*
X278611Y248250D02*
D03*
X311500Y247500D02*
D03*
X303438D02*
D03*
X295375D02*
D03*
X287313D02*
D03*
X290500Y328750D02*
D03*
X280250Y319500D02*
D03*
X286875Y261750D02*
D03*
X294937D02*
D03*
X303000D02*
D03*
X311063D02*
D03*
X319125D02*
D03*
X319250Y270000D02*
D03*
X301000D02*
D03*
X281250Y307500D02*
D03*
Y295000D02*
D03*
X319450Y340220D02*
D03*
Y325220D02*
D03*
Y310220D02*
D03*
Y295220D02*
D03*
Y280220D02*
D03*
Y355220D02*
D03*
X381000Y19125D02*
D03*
Y32000D02*
D03*
Y44875D02*
D03*
X381000Y57750D02*
D03*
X320000Y58000D02*
D03*
X336000Y57750D02*
D03*
X351000D02*
D03*
X366000D02*
D03*
X381000Y6250D02*
D03*
X366000D02*
D03*
X291000D02*
D03*
X276000D02*
D03*
X351000D02*
D03*
X336000D02*
D03*
X321000D02*
D03*
X306000D02*
D03*
X201000D02*
D03*
X186000D02*
D03*
X261000D02*
D03*
X246000D02*
D03*
X231000D02*
D03*
X216000D02*
D03*
X111000D02*
D03*
X96000D02*
D03*
X171000D02*
D03*
X156000D02*
D03*
X141000D02*
D03*
X126000D02*
D03*
X6750Y6750D02*
D03*
X21000Y6250D02*
D03*
X36000D02*
D03*
X51000D02*
D03*
X66000D02*
D03*
X81000D02*
D03*
X6500Y68750D02*
D03*
Y53750D02*
D03*
Y38750D02*
D03*
Y23750D02*
D03*
Y143750D02*
D03*
Y128750D02*
D03*
Y113750D02*
D03*
Y98750D02*
D03*
Y83750D02*
D03*
Y218750D02*
D03*
Y203750D02*
D03*
Y188750D02*
D03*
Y173750D02*
D03*
Y158750D02*
D03*
Y293750D02*
D03*
Y278750D02*
D03*
Y263750D02*
D03*
Y248750D02*
D03*
Y233750D02*
D03*
Y368750D02*
D03*
Y353750D02*
D03*
Y338750D02*
D03*
Y323750D02*
D03*
Y308750D02*
D03*
X21500Y383750D02*
D03*
X6500D02*
D03*
X94250D02*
D03*
X79250D02*
D03*
X64250D02*
D03*
X49250D02*
D03*
X34250D02*
D03*
X169250D02*
D03*
X154250D02*
D03*
X139250D02*
D03*
X124250D02*
D03*
X109250D02*
D03*
X244250D02*
D03*
X229250D02*
D03*
X214250D02*
D03*
X199250D02*
D03*
X184250D02*
D03*
X319250D02*
D03*
X304250D02*
D03*
X289250D02*
D03*
X274250D02*
D03*
X259250D02*
D03*
X349450Y40220D02*
D03*
Y25220D02*
D03*
X319450Y370220D02*
D03*
Y280220D02*
D03*
Y235220D02*
D03*
Y220220D02*
D03*
Y205220D02*
D03*
Y190220D02*
D03*
Y175220D02*
D03*
Y160220D02*
D03*
Y145220D02*
D03*
Y130220D02*
D03*
Y115220D02*
D03*
Y100220D02*
D03*
Y85220D02*
D03*
Y70220D02*
D03*
X304450Y370220D02*
D03*
Y235220D02*
D03*
Y220220D02*
D03*
Y205220D02*
D03*
Y190220D02*
D03*
X289450Y370220D02*
D03*
Y355220D02*
D03*
Y340220D02*
D03*
Y115220D02*
D03*
Y100220D02*
D03*
Y70220D02*
D03*
Y55220D02*
D03*
X274450Y370220D02*
D03*
Y355220D02*
D03*
Y340220D02*
D03*
Y310220D02*
D03*
Y40220D02*
D03*
X259450Y370220D02*
D03*
Y355220D02*
D03*
Y340220D02*
D03*
X244450Y370220D02*
D03*
Y355220D02*
D03*
Y115220D02*
D03*
Y100220D02*
D03*
Y85220D02*
D03*
Y70220D02*
D03*
Y55220D02*
D03*
X229450Y370220D02*
D03*
Y115220D02*
D03*
Y55220D02*
D03*
X214450Y370220D02*
D03*
Y355220D02*
D03*
Y220220D02*
D03*
Y205220D02*
D03*
Y100220D02*
D03*
Y85220D02*
D03*
Y70220D02*
D03*
Y55220D02*
D03*
Y40220D02*
D03*
Y25220D02*
D03*
X199450Y370220D02*
D03*
Y355220D02*
D03*
Y55220D02*
D03*
Y40220D02*
D03*
Y25220D02*
D03*
X184450Y370220D02*
D03*
Y355220D02*
D03*
Y325220D02*
D03*
Y220220D02*
D03*
Y55220D02*
D03*
Y40220D02*
D03*
Y25220D02*
D03*
X169450Y370220D02*
D03*
Y355220D02*
D03*
Y325220D02*
D03*
Y310220D02*
D03*
Y235220D02*
D03*
Y220220D02*
D03*
Y100220D02*
D03*
Y85220D02*
D03*
Y70220D02*
D03*
Y55220D02*
D03*
Y40220D02*
D03*
Y25220D02*
D03*
X154450Y370220D02*
D03*
Y355220D02*
D03*
Y325220D02*
D03*
Y310220D02*
D03*
Y295220D02*
D03*
Y280220D02*
D03*
Y250220D02*
D03*
Y220220D02*
D03*
Y115220D02*
D03*
Y100220D02*
D03*
Y85220D02*
D03*
Y70220D02*
D03*
Y55220D02*
D03*
Y40220D02*
D03*
Y25220D02*
D03*
X139450Y370220D02*
D03*
Y355220D02*
D03*
Y340220D02*
D03*
Y310220D02*
D03*
Y295220D02*
D03*
Y205220D02*
D03*
Y190220D02*
D03*
Y70220D02*
D03*
X124450Y355220D02*
D03*
Y340220D02*
D03*
Y325220D02*
D03*
Y295220D02*
D03*
Y205220D02*
D03*
Y85220D02*
D03*
X94450Y295220D02*
D03*
Y160220D02*
D03*
Y145220D02*
D03*
Y115220D02*
D03*
X79450Y295220D02*
D03*
Y280220D02*
D03*
Y265220D02*
D03*
Y250220D02*
D03*
Y235220D02*
D03*
Y220220D02*
D03*
Y25220D02*
D03*
X64450Y355220D02*
D03*
Y340220D02*
D03*
Y325220D02*
D03*
Y310220D02*
D03*
Y295220D02*
D03*
Y280220D02*
D03*
Y265220D02*
D03*
Y250220D02*
D03*
Y235220D02*
D03*
Y220220D02*
D03*
X49450Y370220D02*
D03*
Y355220D02*
D03*
Y325220D02*
D03*
Y310220D02*
D03*
Y295220D02*
D03*
Y280220D02*
D03*
Y265220D02*
D03*
Y250220D02*
D03*
Y235220D02*
D03*
Y220220D02*
D03*
Y205220D02*
D03*
Y190220D02*
D03*
X34450Y370220D02*
D03*
Y310220D02*
D03*
Y295220D02*
D03*
Y280220D02*
D03*
Y265220D02*
D03*
Y250220D02*
D03*
Y235220D02*
D03*
Y220220D02*
D03*
Y205220D02*
D03*
Y145220D02*
D03*
Y130220D02*
D03*
X19450Y370220D02*
D03*
Y325220D02*
D03*
Y310220D02*
D03*
Y295220D02*
D03*
Y280220D02*
D03*
Y265220D02*
D03*
Y250220D02*
D03*
Y235220D02*
D03*
Y220220D02*
D03*
Y205220D02*
D03*
Y145220D02*
D03*
Y130220D02*
D03*
X192552Y317302D02*
D03*
X251500Y141750D02*
D03*
X298250Y327750D02*
D03*
X308410D02*
D03*
X298250Y348070D02*
D03*
X308410Y358230D02*
D03*
X298250D02*
D03*
X308410Y337910D02*
D03*
X298250D02*
D03*
X308410Y348070D02*
D03*
X125730Y367500D02*
D03*
X115570D02*
D03*
X64770D02*
D03*
X74930D02*
D03*
X108753Y128250D02*
D03*
X131750Y192000D02*
D03*
X212010Y235511D02*
D03*
X237500Y234250D02*
D03*
X253250Y234500D02*
D03*
X289000Y90750D02*
D03*
X176750Y73500D02*
D03*
X152432Y139358D02*
D03*
X69432Y207358D02*
D03*
X130432Y143108D02*
D03*
X274250Y211000D02*
D03*
X299750Y177000D02*
D03*
X215500Y336750D02*
D03*
X245250D02*
D03*
X144000Y143250D02*
D03*
X190410Y254160D02*
D03*
X180250Y244000D02*
D03*
Y254160D02*
D03*
X190410Y244000D02*
D03*
Y288160D02*
D03*
X180250Y278000D02*
D03*
Y288160D02*
D03*
X190410Y278000D02*
D03*
X267750Y245000D02*
D03*
X230500Y233250D02*
D03*
X222500Y233500D02*
D03*
X235000Y163000D02*
D03*
X286689Y148162D02*
D03*
X274743Y270989D02*
D03*
X169000Y299000D02*
D03*
X275500Y286750D02*
D03*
X95500Y181000D02*
D03*
X101500Y158000D02*
D03*
X114500Y158250D02*
D03*
X188000Y331500D02*
D03*
X211680Y316597D02*
D03*
X243669Y317669D02*
D03*
X264250Y225750D02*
D03*
X215500Y145500D02*
D03*
X220750D02*
D03*
X182250D02*
D03*
X187250D02*
D03*
X168180Y115000D02*
D03*
X178340D02*
D03*
X188500D02*
D03*
X198660Y125160D02*
D03*
X188500D02*
D03*
X198660Y115000D02*
D03*
X166680Y206570D02*
D03*
X156520Y196410D02*
D03*
Y206570D02*
D03*
X166680Y196410D02*
D03*
X187000D02*
D03*
X176840Y206570D02*
D03*
X187000D02*
D03*
X176840Y196410D02*
D03*
X85090Y347180D02*
D03*
X95250D02*
D03*
X85090Y367500D02*
D03*
X105410D02*
D03*
Y357340D02*
D03*
X95250D02*
D03*
X85090D02*
D03*
X95250Y367500D02*
D03*
X42340Y47750D02*
D03*
X52500Y57910D02*
D03*
X42340D02*
D03*
X62660D02*
D03*
Y47750D02*
D03*
Y37590D02*
D03*
X52500D02*
D03*
X42340D02*
D03*
X52500Y47750D02*
D03*
D81*
X247652Y276608D02*
D03*
X219712Y290578D02*
D03*
X247652D02*
D03*
X219712Y276608D02*
D03*
X247652Y262638D02*
D03*
X219712D02*
D03*
X233682Y290578D02*
D03*
Y276608D02*
D03*
Y262638D02*
D03*
D82*
X101600Y168478D02*
D03*
X114300D02*
D03*
X127000D02*
D03*
X139700D02*
D03*
X101600Y114478D02*
D03*
X114300D02*
D03*
X127000D02*
D03*
X139700D02*
D03*
D83*
X207772Y166878D02*
D03*
X174752D02*
D03*
X207772Y187452D02*
D03*
X174752D02*
D03*
D84*
X225552Y170622D02*
D03*
Y183962D02*
D03*
X157226Y176596D02*
D03*
Y163256D02*
D03*
D85*
X173380Y145726D02*
D03*
X192380D02*
D03*
X182880Y123726D02*
D03*
X207162Y145648D02*
D03*
X226162D02*
D03*
X216662Y123648D02*
D03*
D86*
X132022Y243332D02*
D03*
X93022D02*
D03*
D87*
X109826Y280224D02*
D03*
X103326D02*
D03*
X96826D02*
D03*
X90326D02*
D03*
X109826Y319724D02*
D03*
X103326D02*
D03*
X96826D02*
D03*
X90326D02*
D03*
D88*
X114300Y90050D02*
Y114478D01*
X62660Y57910D02*
X82160D01*
X114300Y90050D01*
D89*
X212010Y240284D02*
X215900Y244174D01*
X212010Y235511D02*
Y240284D01*
M02*
