G04*
G04 #@! TF.GenerationSoftware,Altium Limited,Altium Designer,20.2.6 (244)*
G04*
G04 Layer_Color=2752767*
%FSLAX44Y44*%
%MOMM*%
G71*
G04*
G04 #@! TF.SameCoordinates,7CDA323B-E038-41B1-B74F-359B52FF9F59*
G04*
G04*
G04 #@! TF.FilePolarity,Positive*
G04*
G01*
G75*
%ADD98C,0.0508*%
%ADD99C,0.0677*%
D98*
X226718Y346468D02*
Y350532D01*
X230782D01*
Y346468D01*
X226718D01*
Y354468D02*
Y358532D01*
X230782D01*
Y354468D01*
X226718D01*
X129540Y91884D02*
Y95948D01*
X133604D01*
Y91884D01*
X129540D01*
Y83884D02*
Y87948D01*
X133604D01*
Y83884D01*
X129540D01*
X235500Y22470D02*
X233468Y26534D01*
X237532D01*
X235500Y22470D01*
X362500D02*
X360468Y26534D01*
X364532D01*
X362500Y22470D01*
X337100D02*
X335068Y26534D01*
X339132D01*
X337100Y22470D01*
X311700D02*
X309668Y26534D01*
X313732D01*
X311700Y22470D01*
X286300D02*
X284268Y26534D01*
X288332D01*
X286300Y22470D01*
X260900D02*
X258868Y26534D01*
X262932D01*
X260900Y22470D01*
X30400Y175668D02*
X31416Y176684D01*
X32432D01*
X31416Y177700D01*
X32432Y178716D01*
X31416D01*
X30400Y179732D01*
X29384Y178716D01*
X28368D01*
X29384Y177700D01*
X28368Y176684D01*
X29384D01*
X30400Y175668D01*
X29700Y343268D02*
X30716Y344284D01*
X31732D01*
X30716Y345300D01*
X31732Y346316D01*
X30716D01*
X29700Y347332D01*
X28684Y346316D01*
X27668D01*
X28684Y345300D01*
X27668Y344284D01*
X28684D01*
X29700Y343268D01*
X416700Y343168D02*
X417716Y344184D01*
X418732D01*
X417716Y345200D01*
X418732Y346216D01*
X417716D01*
X416700Y347232D01*
X415684Y346216D01*
X414668D01*
X415684Y345200D01*
X414668Y344184D01*
X415684D01*
X416700Y343168D01*
Y33168D02*
X417716Y34184D01*
X418732D01*
X417716Y35200D01*
X418732Y36216D01*
X417716D01*
X416700Y37232D01*
X415684Y36216D01*
X414668D01*
X415684Y35200D01*
X414668Y34184D01*
X415684D01*
X416700Y33168D01*
X182468Y98968D02*
X183484Y101000D01*
X182468Y103032D01*
X184500Y102016D01*
X186532Y103032D01*
X185516Y101000D01*
X186532Y98968D01*
X184500Y99984D01*
X182468Y98968D01*
X152218Y258968D02*
X153234Y261000D01*
X152218Y263032D01*
X154250Y262016D01*
X156282Y263032D01*
X155266Y261000D01*
X156282Y258968D01*
X154250Y259984D01*
X152218Y258968D01*
X165968Y258468D02*
X166984Y260500D01*
X165968Y262532D01*
X168000Y261516D01*
X170032Y262532D01*
X169016Y260500D01*
X170032Y258468D01*
X168000Y259484D01*
X165968Y258468D01*
Y277718D02*
X166984Y279750D01*
X165968Y281782D01*
X168000Y280766D01*
X170032Y281782D01*
X169016Y279750D01*
X170032Y277718D01*
X168000Y278734D01*
X165968Y277718D01*
X263693Y173718D02*
X264709Y175750D01*
X263693Y177782D01*
X265725Y176766D01*
X267757Y177782D01*
X266741Y175750D01*
X267757Y173718D01*
X265725Y174734D01*
X263693Y173718D01*
X233218Y182718D02*
X234234Y184750D01*
X233218Y186782D01*
X235250Y185766D01*
X237282Y186782D01*
X236266Y184750D01*
X237282Y182718D01*
X235250Y183734D01*
X233218Y182718D01*
X220218Y198218D02*
X221234Y200250D01*
X220218Y202282D01*
X222250Y201266D01*
X224282Y202282D01*
X223266Y200250D01*
X224282Y198218D01*
X222250Y199234D01*
X220218Y198218D01*
X265255Y198005D02*
X266271Y200037D01*
X265255Y202069D01*
X267287Y201053D01*
X269319Y202069D01*
X268303Y200037D01*
X269319Y198005D01*
X267287Y199021D01*
X265255Y198005D01*
Y205861D02*
X266271Y207893D01*
X265255Y209925D01*
X267287Y208909D01*
X269319Y209925D01*
X268303Y207893D01*
X269319Y205861D01*
X267287Y206877D01*
X265255Y205861D01*
X221468Y208968D02*
X222484Y211000D01*
X221468Y213032D01*
X223500Y212016D01*
X225532Y213032D01*
X224516Y211000D01*
X225532Y208968D01*
X223500Y209984D01*
X221468Y208968D01*
X227630Y218380D02*
X228646Y220412D01*
X227630Y222444D01*
X229662Y221428D01*
X231694Y222444D01*
X230678Y220412D01*
X231694Y218380D01*
X229662Y219396D01*
X227630Y218380D01*
X280755Y238005D02*
X281771Y240037D01*
X280755Y242069D01*
X282787Y241053D01*
X284819Y242069D01*
X283803Y240037D01*
X284819Y238005D01*
X282787Y239021D01*
X280755Y238005D01*
X272171Y232941D02*
X273187Y234973D01*
X272171Y237005D01*
X274203Y235989D01*
X276235Y237005D01*
X275219Y234973D01*
X276235Y232941D01*
X274203Y233957D01*
X272171Y232941D01*
X313718Y237718D02*
X314734Y239750D01*
X313718Y241782D01*
X315750Y240766D01*
X317782Y241782D01*
X316766Y239750D01*
X317782Y237718D01*
X315750Y238734D01*
X313718Y237718D01*
X276579Y246218D02*
X277595Y248250D01*
X276579Y250282D01*
X278611Y249266D01*
X280643Y250282D01*
X279627Y248250D01*
X280643Y246218D01*
X278611Y247234D01*
X276579Y246218D01*
X309468Y245468D02*
X310484Y247500D01*
X309468Y249532D01*
X311500Y248516D01*
X313532Y249532D01*
X312516Y247500D01*
X313532Y245468D01*
X311500Y246484D01*
X309468Y245468D01*
X301406D02*
X302421Y247500D01*
X301406Y249532D01*
X303438Y248516D01*
X305469Y249532D01*
X304454Y247500D01*
X305469Y245468D01*
X303438Y246484D01*
X301406Y245468D01*
X293343D02*
X294359Y247500D01*
X293343Y249532D01*
X295375Y248516D01*
X297407Y249532D01*
X296391Y247500D01*
X297407Y245468D01*
X295375Y246484D01*
X293343Y245468D01*
X285280D02*
X286297Y247500D01*
X285280Y249532D01*
X287313Y248516D01*
X289345Y249532D01*
X288328Y247500D01*
X289345Y245468D01*
X287313Y246484D01*
X285280Y245468D01*
X288468Y326718D02*
X289484Y328750D01*
X288468Y330782D01*
X290500Y329766D01*
X292532Y330782D01*
X291516Y328750D01*
X292532Y326718D01*
X290500Y327734D01*
X288468Y326718D01*
X278218Y317468D02*
X279234Y319500D01*
X278218Y321532D01*
X280250Y320516D01*
X282282Y321532D01*
X281266Y319500D01*
X282282Y317468D01*
X280250Y318484D01*
X278218Y317468D01*
X284843Y259718D02*
X285859Y261750D01*
X284843Y263782D01*
X286875Y262766D01*
X288907Y263782D01*
X287891Y261750D01*
X288907Y259718D01*
X286875Y260734D01*
X284843Y259718D01*
X292906D02*
X293922Y261750D01*
X292906Y263782D01*
X294937Y262766D01*
X296970Y263782D01*
X295954Y261750D01*
X296970Y259718D01*
X294937Y260734D01*
X292906Y259718D01*
X300968D02*
X301984Y261750D01*
X300968Y263782D01*
X303000Y262766D01*
X305032Y263782D01*
X304016Y261750D01*
X305032Y259718D01*
X303000Y260734D01*
X300968Y259718D01*
X309030D02*
X310047Y261750D01*
X309030Y263782D01*
X311063Y262766D01*
X313095Y263782D01*
X312078Y261750D01*
X313095Y259718D01*
X311063Y260734D01*
X309030Y259718D01*
X317093D02*
X318109Y261750D01*
X317093Y263782D01*
X319125Y262766D01*
X321157Y263782D01*
X320141Y261750D01*
X321157Y259718D01*
X319125Y260734D01*
X317093Y259718D01*
X317218Y267968D02*
X318234Y270000D01*
X317218Y272032D01*
X319250Y271016D01*
X321282Y272032D01*
X320266Y270000D01*
X321282Y267968D01*
X319250Y268984D01*
X317218Y267968D01*
X298968D02*
X299984Y270000D01*
X298968Y272032D01*
X301000Y271016D01*
X303032Y272032D01*
X302016Y270000D01*
X303032Y267968D01*
X301000Y268984D01*
X298968Y267968D01*
X279218Y305468D02*
X280234Y307500D01*
X279218Y309532D01*
X281250Y308516D01*
X283282Y309532D01*
X282266Y307500D01*
X283282Y305468D01*
X281250Y306484D01*
X279218Y305468D01*
Y292968D02*
X280234Y295000D01*
X279218Y297032D01*
X281250Y296016D01*
X283282Y297032D01*
X282266Y295000D01*
X283282Y292968D01*
X281250Y293984D01*
X279218Y292968D01*
X317418Y338188D02*
X318433Y340220D01*
X317418Y342252D01*
X319450Y341236D01*
X321482Y342252D01*
X320466Y340220D01*
X321482Y338188D01*
X319450Y339204D01*
X317418Y338188D01*
Y323188D02*
X318433Y325220D01*
X317418Y327252D01*
X319450Y326236D01*
X321482Y327252D01*
X320466Y325220D01*
X321482Y323188D01*
X319450Y324204D01*
X317418Y323188D01*
Y308188D02*
X318433Y310220D01*
X317418Y312252D01*
X319450Y311236D01*
X321482Y312252D01*
X320466Y310220D01*
X321482Y308188D01*
X319450Y309204D01*
X317418Y308188D01*
Y293188D02*
X318433Y295220D01*
X317418Y297252D01*
X319450Y296236D01*
X321482Y297252D01*
X320466Y295220D01*
X321482Y293188D01*
X319450Y294204D01*
X317418Y293188D01*
Y278188D02*
X318433Y280220D01*
X317418Y282252D01*
X319450Y281236D01*
X321482Y282252D01*
X320466Y280220D01*
X321482Y278188D01*
X319450Y279204D01*
X317418Y278188D01*
Y353188D02*
X318433Y355220D01*
X317418Y357252D01*
X319450Y356236D01*
X321482Y357252D01*
X320466Y355220D01*
X321482Y353188D01*
X319450Y354204D01*
X317418Y353188D01*
X378968Y17093D02*
X379984Y19125D01*
X378968Y21157D01*
X381000Y20141D01*
X383032Y21157D01*
X382016Y19125D01*
X383032Y17093D01*
X381000Y18109D01*
X378968Y17093D01*
Y29968D02*
X379984Y32000D01*
X378968Y34032D01*
X381000Y33016D01*
X383032Y34032D01*
X382016Y32000D01*
X383032Y29968D01*
X381000Y30984D01*
X378968Y29968D01*
Y42843D02*
X379984Y44875D01*
X378968Y46907D01*
X381000Y45891D01*
X383032Y46907D01*
X382016Y44875D01*
X383032Y42843D01*
X381000Y43859D01*
X378968Y42843D01*
X378968Y55718D02*
X379984Y57750D01*
X378968Y59782D01*
X381000Y58766D01*
X383032Y59782D01*
X382016Y57750D01*
X383032Y55718D01*
X381000Y56734D01*
X378968Y55718D01*
X317968Y55968D02*
X318984Y58000D01*
X317968Y60032D01*
X320000Y59016D01*
X322032Y60032D01*
X321016Y58000D01*
X322032Y55968D01*
X320000Y56984D01*
X317968Y55968D01*
X333968Y55718D02*
X334984Y57750D01*
X333968Y59782D01*
X336000Y58766D01*
X338032Y59782D01*
X337016Y57750D01*
X338032Y55718D01*
X336000Y56734D01*
X333968Y55718D01*
X348968D02*
X349984Y57750D01*
X348968Y59782D01*
X351000Y58766D01*
X353032Y59782D01*
X352016Y57750D01*
X353032Y55718D01*
X351000Y56734D01*
X348968Y55718D01*
X363968D02*
X364984Y57750D01*
X363968Y59782D01*
X366000Y58766D01*
X368032Y59782D01*
X367016Y57750D01*
X368032Y55718D01*
X366000Y56734D01*
X363968Y55718D01*
X378968Y4218D02*
X379984Y6250D01*
X378968Y8282D01*
X381000Y7266D01*
X383032Y8282D01*
X382016Y6250D01*
X383032Y4218D01*
X381000Y5234D01*
X378968Y4218D01*
X363968D02*
X364984Y6250D01*
X363968Y8282D01*
X366000Y7266D01*
X368032Y8282D01*
X367016Y6250D01*
X368032Y4218D01*
X366000Y5234D01*
X363968Y4218D01*
X288968D02*
X289984Y6250D01*
X288968Y8282D01*
X291000Y7266D01*
X293032Y8282D01*
X292016Y6250D01*
X293032Y4218D01*
X291000Y5234D01*
X288968Y4218D01*
X273968D02*
X274984Y6250D01*
X273968Y8282D01*
X276000Y7266D01*
X278032Y8282D01*
X277016Y6250D01*
X278032Y4218D01*
X276000Y5234D01*
X273968Y4218D01*
X348968D02*
X349984Y6250D01*
X348968Y8282D01*
X351000Y7266D01*
X353032Y8282D01*
X352016Y6250D01*
X353032Y4218D01*
X351000Y5234D01*
X348968Y4218D01*
X333968D02*
X334984Y6250D01*
X333968Y8282D01*
X336000Y7266D01*
X338032Y8282D01*
X337016Y6250D01*
X338032Y4218D01*
X336000Y5234D01*
X333968Y4218D01*
X318968D02*
X319984Y6250D01*
X318968Y8282D01*
X321000Y7266D01*
X323032Y8282D01*
X322016Y6250D01*
X323032Y4218D01*
X321000Y5234D01*
X318968Y4218D01*
X303968D02*
X304984Y6250D01*
X303968Y8282D01*
X306000Y7266D01*
X308032Y8282D01*
X307016Y6250D01*
X308032Y4218D01*
X306000Y5234D01*
X303968Y4218D01*
X198968D02*
X199984Y6250D01*
X198968Y8282D01*
X201000Y7266D01*
X203032Y8282D01*
X202016Y6250D01*
X203032Y4218D01*
X201000Y5234D01*
X198968Y4218D01*
X183968D02*
X184984Y6250D01*
X183968Y8282D01*
X186000Y7266D01*
X188032Y8282D01*
X187016Y6250D01*
X188032Y4218D01*
X186000Y5234D01*
X183968Y4218D01*
X258968D02*
X259984Y6250D01*
X258968Y8282D01*
X261000Y7266D01*
X263032Y8282D01*
X262016Y6250D01*
X263032Y4218D01*
X261000Y5234D01*
X258968Y4218D01*
X243968D02*
X244984Y6250D01*
X243968Y8282D01*
X246000Y7266D01*
X248032Y8282D01*
X247016Y6250D01*
X248032Y4218D01*
X246000Y5234D01*
X243968Y4218D01*
X228968D02*
X229984Y6250D01*
X228968Y8282D01*
X231000Y7266D01*
X233032Y8282D01*
X232016Y6250D01*
X233032Y4218D01*
X231000Y5234D01*
X228968Y4218D01*
X213968D02*
X214984Y6250D01*
X213968Y8282D01*
X216000Y7266D01*
X218032Y8282D01*
X217016Y6250D01*
X218032Y4218D01*
X216000Y5234D01*
X213968Y4218D01*
X108968D02*
X109984Y6250D01*
X108968Y8282D01*
X111000Y7266D01*
X113032Y8282D01*
X112016Y6250D01*
X113032Y4218D01*
X111000Y5234D01*
X108968Y4218D01*
X93968D02*
X94984Y6250D01*
X93968Y8282D01*
X96000Y7266D01*
X98032Y8282D01*
X97016Y6250D01*
X98032Y4218D01*
X96000Y5234D01*
X93968Y4218D01*
X168968D02*
X169984Y6250D01*
X168968Y8282D01*
X171000Y7266D01*
X173032Y8282D01*
X172016Y6250D01*
X173032Y4218D01*
X171000Y5234D01*
X168968Y4218D01*
X153968D02*
X154984Y6250D01*
X153968Y8282D01*
X156000Y7266D01*
X158032Y8282D01*
X157016Y6250D01*
X158032Y4218D01*
X156000Y5234D01*
X153968Y4218D01*
X138968D02*
X139984Y6250D01*
X138968Y8282D01*
X141000Y7266D01*
X143032Y8282D01*
X142016Y6250D01*
X143032Y4218D01*
X141000Y5234D01*
X138968Y4218D01*
X123968D02*
X124984Y6250D01*
X123968Y8282D01*
X126000Y7266D01*
X128032Y8282D01*
X127016Y6250D01*
X128032Y4218D01*
X126000Y5234D01*
X123968Y4218D01*
X4718Y4718D02*
X5734Y6750D01*
X4718Y8782D01*
X6750Y7766D01*
X8782Y8782D01*
X7766Y6750D01*
X8782Y4718D01*
X6750Y5734D01*
X4718Y4718D01*
X18968Y4218D02*
X19984Y6250D01*
X18968Y8282D01*
X21000Y7266D01*
X23032Y8282D01*
X22016Y6250D01*
X23032Y4218D01*
X21000Y5234D01*
X18968Y4218D01*
X33968D02*
X34984Y6250D01*
X33968Y8282D01*
X36000Y7266D01*
X38032Y8282D01*
X37016Y6250D01*
X38032Y4218D01*
X36000Y5234D01*
X33968Y4218D01*
X48968D02*
X49984Y6250D01*
X48968Y8282D01*
X51000Y7266D01*
X53032Y8282D01*
X52016Y6250D01*
X53032Y4218D01*
X51000Y5234D01*
X48968Y4218D01*
X63968D02*
X64984Y6250D01*
X63968Y8282D01*
X66000Y7266D01*
X68032Y8282D01*
X67016Y6250D01*
X68032Y4218D01*
X66000Y5234D01*
X63968Y4218D01*
X78968D02*
X79984Y6250D01*
X78968Y8282D01*
X81000Y7266D01*
X83032Y8282D01*
X82016Y6250D01*
X83032Y4218D01*
X81000Y5234D01*
X78968Y4218D01*
X4468Y66718D02*
X5484Y68750D01*
X4468Y70782D01*
X6500Y69766D01*
X8532Y70782D01*
X7516Y68750D01*
X8532Y66718D01*
X6500Y67734D01*
X4468Y66718D01*
Y51718D02*
X5484Y53750D01*
X4468Y55782D01*
X6500Y54766D01*
X8532Y55782D01*
X7516Y53750D01*
X8532Y51718D01*
X6500Y52734D01*
X4468Y51718D01*
Y36718D02*
X5484Y38750D01*
X4468Y40782D01*
X6500Y39766D01*
X8532Y40782D01*
X7516Y38750D01*
X8532Y36718D01*
X6500Y37734D01*
X4468Y36718D01*
Y21718D02*
X5484Y23750D01*
X4468Y25782D01*
X6500Y24766D01*
X8532Y25782D01*
X7516Y23750D01*
X8532Y21718D01*
X6500Y22734D01*
X4468Y21718D01*
Y141718D02*
X5484Y143750D01*
X4468Y145782D01*
X6500Y144766D01*
X8532Y145782D01*
X7516Y143750D01*
X8532Y141718D01*
X6500Y142734D01*
X4468Y141718D01*
Y126718D02*
X5484Y128750D01*
X4468Y130782D01*
X6500Y129766D01*
X8532Y130782D01*
X7516Y128750D01*
X8532Y126718D01*
X6500Y127734D01*
X4468Y126718D01*
Y111718D02*
X5484Y113750D01*
X4468Y115782D01*
X6500Y114766D01*
X8532Y115782D01*
X7516Y113750D01*
X8532Y111718D01*
X6500Y112734D01*
X4468Y111718D01*
Y96718D02*
X5484Y98750D01*
X4468Y100782D01*
X6500Y99766D01*
X8532Y100782D01*
X7516Y98750D01*
X8532Y96718D01*
X6500Y97734D01*
X4468Y96718D01*
Y81718D02*
X5484Y83750D01*
X4468Y85782D01*
X6500Y84766D01*
X8532Y85782D01*
X7516Y83750D01*
X8532Y81718D01*
X6500Y82734D01*
X4468Y81718D01*
Y216718D02*
X5484Y218750D01*
X4468Y220782D01*
X6500Y219766D01*
X8532Y220782D01*
X7516Y218750D01*
X8532Y216718D01*
X6500Y217734D01*
X4468Y216718D01*
Y201718D02*
X5484Y203750D01*
X4468Y205782D01*
X6500Y204766D01*
X8532Y205782D01*
X7516Y203750D01*
X8532Y201718D01*
X6500Y202734D01*
X4468Y201718D01*
Y186718D02*
X5484Y188750D01*
X4468Y190782D01*
X6500Y189766D01*
X8532Y190782D01*
X7516Y188750D01*
X8532Y186718D01*
X6500Y187734D01*
X4468Y186718D01*
Y171718D02*
X5484Y173750D01*
X4468Y175782D01*
X6500Y174766D01*
X8532Y175782D01*
X7516Y173750D01*
X8532Y171718D01*
X6500Y172734D01*
X4468Y171718D01*
Y156718D02*
X5484Y158750D01*
X4468Y160782D01*
X6500Y159766D01*
X8532Y160782D01*
X7516Y158750D01*
X8532Y156718D01*
X6500Y157734D01*
X4468Y156718D01*
Y291718D02*
X5484Y293750D01*
X4468Y295782D01*
X6500Y294766D01*
X8532Y295782D01*
X7516Y293750D01*
X8532Y291718D01*
X6500Y292734D01*
X4468Y291718D01*
Y276718D02*
X5484Y278750D01*
X4468Y280782D01*
X6500Y279766D01*
X8532Y280782D01*
X7516Y278750D01*
X8532Y276718D01*
X6500Y277734D01*
X4468Y276718D01*
Y261718D02*
X5484Y263750D01*
X4468Y265782D01*
X6500Y264766D01*
X8532Y265782D01*
X7516Y263750D01*
X8532Y261718D01*
X6500Y262734D01*
X4468Y261718D01*
Y246718D02*
X5484Y248750D01*
X4468Y250782D01*
X6500Y249766D01*
X8532Y250782D01*
X7516Y248750D01*
X8532Y246718D01*
X6500Y247734D01*
X4468Y246718D01*
Y231718D02*
X5484Y233750D01*
X4468Y235782D01*
X6500Y234766D01*
X8532Y235782D01*
X7516Y233750D01*
X8532Y231718D01*
X6500Y232734D01*
X4468Y231718D01*
Y366718D02*
X5484Y368750D01*
X4468Y370782D01*
X6500Y369766D01*
X8532Y370782D01*
X7516Y368750D01*
X8532Y366718D01*
X6500Y367734D01*
X4468Y366718D01*
Y351718D02*
X5484Y353750D01*
X4468Y355782D01*
X6500Y354766D01*
X8532Y355782D01*
X7516Y353750D01*
X8532Y351718D01*
X6500Y352734D01*
X4468Y351718D01*
Y336718D02*
X5484Y338750D01*
X4468Y340782D01*
X6500Y339766D01*
X8532Y340782D01*
X7516Y338750D01*
X8532Y336718D01*
X6500Y337734D01*
X4468Y336718D01*
Y321718D02*
X5484Y323750D01*
X4468Y325782D01*
X6500Y324766D01*
X8532Y325782D01*
X7516Y323750D01*
X8532Y321718D01*
X6500Y322734D01*
X4468Y321718D01*
Y306718D02*
X5484Y308750D01*
X4468Y310782D01*
X6500Y309766D01*
X8532Y310782D01*
X7516Y308750D01*
X8532Y306718D01*
X6500Y307734D01*
X4468Y306718D01*
X19468Y381718D02*
X20484Y383750D01*
X19468Y385782D01*
X21500Y384766D01*
X23532Y385782D01*
X22516Y383750D01*
X23532Y381718D01*
X21500Y382734D01*
X19468Y381718D01*
X4468D02*
X5484Y383750D01*
X4468Y385782D01*
X6500Y384766D01*
X8532Y385782D01*
X7516Y383750D01*
X8532Y381718D01*
X6500Y382734D01*
X4468Y381718D01*
X92218D02*
X93234Y383750D01*
X92218Y385782D01*
X94250Y384766D01*
X96282Y385782D01*
X95266Y383750D01*
X96282Y381718D01*
X94250Y382734D01*
X92218Y381718D01*
X77218D02*
X78234Y383750D01*
X77218Y385782D01*
X79250Y384766D01*
X81282Y385782D01*
X80266Y383750D01*
X81282Y381718D01*
X79250Y382734D01*
X77218Y381718D01*
X62218D02*
X63234Y383750D01*
X62218Y385782D01*
X64250Y384766D01*
X66282Y385782D01*
X65266Y383750D01*
X66282Y381718D01*
X64250Y382734D01*
X62218Y381718D01*
X47218D02*
X48234Y383750D01*
X47218Y385782D01*
X49250Y384766D01*
X51282Y385782D01*
X50266Y383750D01*
X51282Y381718D01*
X49250Y382734D01*
X47218Y381718D01*
X32218D02*
X33234Y383750D01*
X32218Y385782D01*
X34250Y384766D01*
X36282Y385782D01*
X35266Y383750D01*
X36282Y381718D01*
X34250Y382734D01*
X32218Y381718D01*
X167218D02*
X168234Y383750D01*
X167218Y385782D01*
X169250Y384766D01*
X171282Y385782D01*
X170266Y383750D01*
X171282Y381718D01*
X169250Y382734D01*
X167218Y381718D01*
X152218D02*
X153234Y383750D01*
X152218Y385782D01*
X154250Y384766D01*
X156282Y385782D01*
X155266Y383750D01*
X156282Y381718D01*
X154250Y382734D01*
X152218Y381718D01*
X137218D02*
X138234Y383750D01*
X137218Y385782D01*
X139250Y384766D01*
X141282Y385782D01*
X140266Y383750D01*
X141282Y381718D01*
X139250Y382734D01*
X137218Y381718D01*
X122218D02*
X123234Y383750D01*
X122218Y385782D01*
X124250Y384766D01*
X126282Y385782D01*
X125266Y383750D01*
X126282Y381718D01*
X124250Y382734D01*
X122218Y381718D01*
X107218D02*
X108234Y383750D01*
X107218Y385782D01*
X109250Y384766D01*
X111282Y385782D01*
X110266Y383750D01*
X111282Y381718D01*
X109250Y382734D01*
X107218Y381718D01*
X242218D02*
X243234Y383750D01*
X242218Y385782D01*
X244250Y384766D01*
X246282Y385782D01*
X245266Y383750D01*
X246282Y381718D01*
X244250Y382734D01*
X242218Y381718D01*
X227218D02*
X228234Y383750D01*
X227218Y385782D01*
X229250Y384766D01*
X231282Y385782D01*
X230266Y383750D01*
X231282Y381718D01*
X229250Y382734D01*
X227218Y381718D01*
X212218D02*
X213234Y383750D01*
X212218Y385782D01*
X214250Y384766D01*
X216282Y385782D01*
X215266Y383750D01*
X216282Y381718D01*
X214250Y382734D01*
X212218Y381718D01*
X197218D02*
X198234Y383750D01*
X197218Y385782D01*
X199250Y384766D01*
X201282Y385782D01*
X200266Y383750D01*
X201282Y381718D01*
X199250Y382734D01*
X197218Y381718D01*
X182218D02*
X183234Y383750D01*
X182218Y385782D01*
X184250Y384766D01*
X186282Y385782D01*
X185266Y383750D01*
X186282Y381718D01*
X184250Y382734D01*
X182218Y381718D01*
X317218D02*
X318234Y383750D01*
X317218Y385782D01*
X319250Y384766D01*
X321282Y385782D01*
X320266Y383750D01*
X321282Y381718D01*
X319250Y382734D01*
X317218Y381718D01*
X302218D02*
X303234Y383750D01*
X302218Y385782D01*
X304250Y384766D01*
X306282Y385782D01*
X305266Y383750D01*
X306282Y381718D01*
X304250Y382734D01*
X302218Y381718D01*
X287218D02*
X288234Y383750D01*
X287218Y385782D01*
X289250Y384766D01*
X291282Y385782D01*
X290266Y383750D01*
X291282Y381718D01*
X289250Y382734D01*
X287218Y381718D01*
X272218D02*
X273234Y383750D01*
X272218Y385782D01*
X274250Y384766D01*
X276282Y385782D01*
X275266Y383750D01*
X276282Y381718D01*
X274250Y382734D01*
X272218Y381718D01*
X257218D02*
X258234Y383750D01*
X257218Y385782D01*
X259250Y384766D01*
X261282Y385782D01*
X260266Y383750D01*
X261282Y381718D01*
X259250Y382734D01*
X257218Y381718D01*
X347417Y38188D02*
X348433Y40220D01*
X347417Y42252D01*
X349450Y41236D01*
X351482Y42252D01*
X350466Y40220D01*
X351482Y38188D01*
X349450Y39204D01*
X347417Y38188D01*
Y23188D02*
X348433Y25220D01*
X347417Y27252D01*
X349450Y26236D01*
X351482Y27252D01*
X350466Y25220D01*
X351482Y23188D01*
X349450Y24204D01*
X347417Y23188D01*
X317418Y368188D02*
X318433Y370220D01*
X317418Y372252D01*
X319450Y371236D01*
X321482Y372252D01*
X320466Y370220D01*
X321482Y368188D01*
X319450Y369204D01*
X317418Y368188D01*
Y278188D02*
X318433Y280220D01*
X317418Y282252D01*
X319450Y281236D01*
X321482Y282252D01*
X320466Y280220D01*
X321482Y278188D01*
X319450Y279204D01*
X317418Y278188D01*
Y233188D02*
X318433Y235220D01*
X317418Y237252D01*
X319450Y236236D01*
X321482Y237252D01*
X320466Y235220D01*
X321482Y233188D01*
X319450Y234204D01*
X317418Y233188D01*
Y218188D02*
X318433Y220220D01*
X317418Y222252D01*
X319450Y221236D01*
X321482Y222252D01*
X320466Y220220D01*
X321482Y218188D01*
X319450Y219204D01*
X317418Y218188D01*
Y203188D02*
X318433Y205220D01*
X317418Y207252D01*
X319450Y206236D01*
X321482Y207252D01*
X320466Y205220D01*
X321482Y203188D01*
X319450Y204204D01*
X317418Y203188D01*
Y188188D02*
X318433Y190220D01*
X317418Y192252D01*
X319450Y191236D01*
X321482Y192252D01*
X320466Y190220D01*
X321482Y188188D01*
X319450Y189204D01*
X317418Y188188D01*
Y173188D02*
X318433Y175220D01*
X317418Y177252D01*
X319450Y176236D01*
X321482Y177252D01*
X320466Y175220D01*
X321482Y173188D01*
X319450Y174204D01*
X317418Y173188D01*
Y158188D02*
X318433Y160220D01*
X317418Y162252D01*
X319450Y161236D01*
X321482Y162252D01*
X320466Y160220D01*
X321482Y158188D01*
X319450Y159204D01*
X317418Y158188D01*
Y143188D02*
X318433Y145220D01*
X317418Y147252D01*
X319450Y146236D01*
X321482Y147252D01*
X320466Y145220D01*
X321482Y143188D01*
X319450Y144204D01*
X317418Y143188D01*
Y128188D02*
X318433Y130220D01*
X317418Y132252D01*
X319450Y131236D01*
X321482Y132252D01*
X320466Y130220D01*
X321482Y128188D01*
X319450Y129204D01*
X317418Y128188D01*
Y113188D02*
X318433Y115220D01*
X317418Y117252D01*
X319450Y116236D01*
X321482Y117252D01*
X320466Y115220D01*
X321482Y113188D01*
X319450Y114204D01*
X317418Y113188D01*
Y98188D02*
X318433Y100220D01*
X317418Y102252D01*
X319450Y101236D01*
X321482Y102252D01*
X320466Y100220D01*
X321482Y98188D01*
X319450Y99204D01*
X317418Y98188D01*
Y83188D02*
X318433Y85220D01*
X317418Y87252D01*
X319450Y86236D01*
X321482Y87252D01*
X320466Y85220D01*
X321482Y83188D01*
X319450Y84204D01*
X317418Y83188D01*
Y68188D02*
X318433Y70220D01*
X317418Y72252D01*
X319450Y71236D01*
X321482Y72252D01*
X320466Y70220D01*
X321482Y68188D01*
X319450Y69204D01*
X317418Y68188D01*
X302418Y368188D02*
X303433Y370220D01*
X302418Y372252D01*
X304450Y371236D01*
X306481Y372252D01*
X305466Y370220D01*
X306481Y368188D01*
X304450Y369204D01*
X302418Y368188D01*
Y233188D02*
X303433Y235220D01*
X302418Y237252D01*
X304450Y236236D01*
X306481Y237252D01*
X305466Y235220D01*
X306481Y233188D01*
X304450Y234204D01*
X302418Y233188D01*
Y218188D02*
X303433Y220220D01*
X302418Y222252D01*
X304450Y221236D01*
X306481Y222252D01*
X305466Y220220D01*
X306481Y218188D01*
X304450Y219204D01*
X302418Y218188D01*
Y203188D02*
X303433Y205220D01*
X302418Y207252D01*
X304450Y206236D01*
X306481Y207252D01*
X305466Y205220D01*
X306481Y203188D01*
X304450Y204204D01*
X302418Y203188D01*
Y188188D02*
X303433Y190220D01*
X302418Y192252D01*
X304450Y191236D01*
X306481Y192252D01*
X305466Y190220D01*
X306481Y188188D01*
X304450Y189204D01*
X302418Y188188D01*
X287418Y368188D02*
X288433Y370220D01*
X287418Y372252D01*
X289450Y371236D01*
X291481Y372252D01*
X290466Y370220D01*
X291481Y368188D01*
X289450Y369204D01*
X287418Y368188D01*
Y353188D02*
X288433Y355220D01*
X287418Y357252D01*
X289450Y356236D01*
X291481Y357252D01*
X290466Y355220D01*
X291481Y353188D01*
X289450Y354204D01*
X287418Y353188D01*
Y338188D02*
X288433Y340220D01*
X287418Y342252D01*
X289450Y341236D01*
X291481Y342252D01*
X290466Y340220D01*
X291481Y338188D01*
X289450Y339204D01*
X287418Y338188D01*
Y113188D02*
X288433Y115220D01*
X287418Y117252D01*
X289450Y116236D01*
X291481Y117252D01*
X290466Y115220D01*
X291481Y113188D01*
X289450Y114204D01*
X287418Y113188D01*
Y98188D02*
X288433Y100220D01*
X287418Y102252D01*
X289450Y101236D01*
X291481Y102252D01*
X290466Y100220D01*
X291481Y98188D01*
X289450Y99204D01*
X287418Y98188D01*
Y68188D02*
X288433Y70220D01*
X287418Y72252D01*
X289450Y71236D01*
X291481Y72252D01*
X290466Y70220D01*
X291481Y68188D01*
X289450Y69204D01*
X287418Y68188D01*
Y53188D02*
X288433Y55220D01*
X287418Y57252D01*
X289450Y56236D01*
X291481Y57252D01*
X290466Y55220D01*
X291481Y53188D01*
X289450Y54204D01*
X287418Y53188D01*
X272418Y368188D02*
X273433Y370220D01*
X272418Y372252D01*
X274450Y371236D01*
X276481Y372252D01*
X275466Y370220D01*
X276481Y368188D01*
X274450Y369204D01*
X272418Y368188D01*
Y353188D02*
X273433Y355220D01*
X272418Y357252D01*
X274450Y356236D01*
X276481Y357252D01*
X275466Y355220D01*
X276481Y353188D01*
X274450Y354204D01*
X272418Y353188D01*
Y338188D02*
X273433Y340220D01*
X272418Y342252D01*
X274450Y341236D01*
X276481Y342252D01*
X275466Y340220D01*
X276481Y338188D01*
X274450Y339204D01*
X272418Y338188D01*
Y308188D02*
X273433Y310220D01*
X272418Y312252D01*
X274450Y311236D01*
X276481Y312252D01*
X275466Y310220D01*
X276481Y308188D01*
X274450Y309204D01*
X272418Y308188D01*
Y38188D02*
X273433Y40220D01*
X272418Y42252D01*
X274450Y41236D01*
X276481Y42252D01*
X275466Y40220D01*
X276481Y38188D01*
X274450Y39204D01*
X272418Y38188D01*
X257418Y368188D02*
X258433Y370220D01*
X257418Y372252D01*
X259450Y371236D01*
X261481Y372252D01*
X260466Y370220D01*
X261481Y368188D01*
X259450Y369204D01*
X257418Y368188D01*
Y353188D02*
X258433Y355220D01*
X257418Y357252D01*
X259450Y356236D01*
X261481Y357252D01*
X260466Y355220D01*
X261481Y353188D01*
X259450Y354204D01*
X257418Y353188D01*
Y338188D02*
X258433Y340220D01*
X257418Y342252D01*
X259450Y341236D01*
X261481Y342252D01*
X260466Y340220D01*
X261481Y338188D01*
X259450Y339204D01*
X257418Y338188D01*
X242418Y368188D02*
X243433Y370220D01*
X242418Y372252D01*
X244450Y371236D01*
X246481Y372252D01*
X245466Y370220D01*
X246481Y368188D01*
X244450Y369204D01*
X242418Y368188D01*
Y353188D02*
X243433Y355220D01*
X242418Y357252D01*
X244450Y356236D01*
X246481Y357252D01*
X245466Y355220D01*
X246481Y353188D01*
X244450Y354204D01*
X242418Y353188D01*
Y113188D02*
X243433Y115220D01*
X242418Y117252D01*
X244450Y116236D01*
X246481Y117252D01*
X245466Y115220D01*
X246481Y113188D01*
X244450Y114204D01*
X242418Y113188D01*
Y98188D02*
X243433Y100220D01*
X242418Y102252D01*
X244450Y101236D01*
X246481Y102252D01*
X245466Y100220D01*
X246481Y98188D01*
X244450Y99204D01*
X242418Y98188D01*
Y83188D02*
X243433Y85220D01*
X242418Y87252D01*
X244450Y86236D01*
X246481Y87252D01*
X245466Y85220D01*
X246481Y83188D01*
X244450Y84204D01*
X242418Y83188D01*
Y68188D02*
X243433Y70220D01*
X242418Y72252D01*
X244450Y71236D01*
X246481Y72252D01*
X245466Y70220D01*
X246481Y68188D01*
X244450Y69204D01*
X242418Y68188D01*
Y53188D02*
X243433Y55220D01*
X242418Y57252D01*
X244450Y56236D01*
X246481Y57252D01*
X245466Y55220D01*
X246481Y53188D01*
X244450Y54204D01*
X242418Y53188D01*
X227418Y368188D02*
X228433Y370220D01*
X227418Y372252D01*
X229450Y371236D01*
X231481Y372252D01*
X230466Y370220D01*
X231481Y368188D01*
X229450Y369204D01*
X227418Y368188D01*
Y113188D02*
X228433Y115220D01*
X227418Y117252D01*
X229450Y116236D01*
X231481Y117252D01*
X230466Y115220D01*
X231481Y113188D01*
X229450Y114204D01*
X227418Y113188D01*
Y53188D02*
X228433Y55220D01*
X227418Y57252D01*
X229450Y56236D01*
X231481Y57252D01*
X230466Y55220D01*
X231481Y53188D01*
X229450Y54204D01*
X227418Y53188D01*
X212418Y368188D02*
X213433Y370220D01*
X212418Y372252D01*
X214450Y371236D01*
X216481Y372252D01*
X215466Y370220D01*
X216481Y368188D01*
X214450Y369204D01*
X212418Y368188D01*
Y353188D02*
X213433Y355220D01*
X212418Y357252D01*
X214450Y356236D01*
X216481Y357252D01*
X215466Y355220D01*
X216481Y353188D01*
X214450Y354204D01*
X212418Y353188D01*
Y218188D02*
X213433Y220220D01*
X212418Y222252D01*
X214450Y221236D01*
X216481Y222252D01*
X215466Y220220D01*
X216481Y218188D01*
X214450Y219204D01*
X212418Y218188D01*
Y203188D02*
X213433Y205220D01*
X212418Y207252D01*
X214450Y206236D01*
X216481Y207252D01*
X215466Y205220D01*
X216481Y203188D01*
X214450Y204204D01*
X212418Y203188D01*
Y98188D02*
X213433Y100220D01*
X212418Y102252D01*
X214450Y101236D01*
X216481Y102252D01*
X215466Y100220D01*
X216481Y98188D01*
X214450Y99204D01*
X212418Y98188D01*
Y83188D02*
X213433Y85220D01*
X212418Y87252D01*
X214450Y86236D01*
X216481Y87252D01*
X215466Y85220D01*
X216481Y83188D01*
X214450Y84204D01*
X212418Y83188D01*
Y68188D02*
X213433Y70220D01*
X212418Y72252D01*
X214450Y71236D01*
X216481Y72252D01*
X215466Y70220D01*
X216481Y68188D01*
X214450Y69204D01*
X212418Y68188D01*
Y53188D02*
X213433Y55220D01*
X212418Y57252D01*
X214450Y56236D01*
X216481Y57252D01*
X215466Y55220D01*
X216481Y53188D01*
X214450Y54204D01*
X212418Y53188D01*
Y38188D02*
X213433Y40220D01*
X212418Y42252D01*
X214450Y41236D01*
X216481Y42252D01*
X215466Y40220D01*
X216481Y38188D01*
X214450Y39204D01*
X212418Y38188D01*
Y23188D02*
X213433Y25220D01*
X212418Y27252D01*
X214450Y26236D01*
X216481Y27252D01*
X215466Y25220D01*
X216481Y23188D01*
X214450Y24204D01*
X212418Y23188D01*
X197418Y368188D02*
X198433Y370220D01*
X197418Y372252D01*
X199450Y371236D01*
X201481Y372252D01*
X200466Y370220D01*
X201481Y368188D01*
X199450Y369204D01*
X197418Y368188D01*
Y353188D02*
X198433Y355220D01*
X197418Y357252D01*
X199450Y356236D01*
X201481Y357252D01*
X200466Y355220D01*
X201481Y353188D01*
X199450Y354204D01*
X197418Y353188D01*
Y53188D02*
X198433Y55220D01*
X197418Y57252D01*
X199450Y56236D01*
X201481Y57252D01*
X200466Y55220D01*
X201481Y53188D01*
X199450Y54204D01*
X197418Y53188D01*
Y38188D02*
X198433Y40220D01*
X197418Y42252D01*
X199450Y41236D01*
X201481Y42252D01*
X200466Y40220D01*
X201481Y38188D01*
X199450Y39204D01*
X197418Y38188D01*
Y23188D02*
X198433Y25220D01*
X197418Y27252D01*
X199450Y26236D01*
X201481Y27252D01*
X200466Y25220D01*
X201481Y23188D01*
X199450Y24204D01*
X197418Y23188D01*
X182418Y368188D02*
X183433Y370220D01*
X182418Y372252D01*
X184450Y371236D01*
X186481Y372252D01*
X185466Y370220D01*
X186481Y368188D01*
X184450Y369204D01*
X182418Y368188D01*
Y353188D02*
X183433Y355220D01*
X182418Y357252D01*
X184450Y356236D01*
X186481Y357252D01*
X185466Y355220D01*
X186481Y353188D01*
X184450Y354204D01*
X182418Y353188D01*
Y323188D02*
X183433Y325220D01*
X182418Y327252D01*
X184450Y326236D01*
X186481Y327252D01*
X185466Y325220D01*
X186481Y323188D01*
X184450Y324204D01*
X182418Y323188D01*
Y218188D02*
X183433Y220220D01*
X182418Y222252D01*
X184450Y221236D01*
X186481Y222252D01*
X185466Y220220D01*
X186481Y218188D01*
X184450Y219204D01*
X182418Y218188D01*
Y53188D02*
X183433Y55220D01*
X182418Y57252D01*
X184450Y56236D01*
X186481Y57252D01*
X185466Y55220D01*
X186481Y53188D01*
X184450Y54204D01*
X182418Y53188D01*
Y38188D02*
X183433Y40220D01*
X182418Y42252D01*
X184450Y41236D01*
X186481Y42252D01*
X185466Y40220D01*
X186481Y38188D01*
X184450Y39204D01*
X182418Y38188D01*
Y23188D02*
X183433Y25220D01*
X182418Y27252D01*
X184450Y26236D01*
X186481Y27252D01*
X185466Y25220D01*
X186481Y23188D01*
X184450Y24204D01*
X182418Y23188D01*
X167418Y368188D02*
X168433Y370220D01*
X167418Y372252D01*
X169450Y371236D01*
X171481Y372252D01*
X170466Y370220D01*
X171481Y368188D01*
X169450Y369204D01*
X167418Y368188D01*
Y353188D02*
X168433Y355220D01*
X167418Y357252D01*
X169450Y356236D01*
X171481Y357252D01*
X170466Y355220D01*
X171481Y353188D01*
X169450Y354204D01*
X167418Y353188D01*
Y323188D02*
X168433Y325220D01*
X167418Y327252D01*
X169450Y326236D01*
X171481Y327252D01*
X170466Y325220D01*
X171481Y323188D01*
X169450Y324204D01*
X167418Y323188D01*
Y308188D02*
X168433Y310220D01*
X167418Y312252D01*
X169450Y311236D01*
X171481Y312252D01*
X170466Y310220D01*
X171481Y308188D01*
X169450Y309204D01*
X167418Y308188D01*
Y233188D02*
X168433Y235220D01*
X167418Y237252D01*
X169450Y236236D01*
X171481Y237252D01*
X170466Y235220D01*
X171481Y233188D01*
X169450Y234204D01*
X167418Y233188D01*
Y218188D02*
X168433Y220220D01*
X167418Y222252D01*
X169450Y221236D01*
X171481Y222252D01*
X170466Y220220D01*
X171481Y218188D01*
X169450Y219204D01*
X167418Y218188D01*
Y98188D02*
X168433Y100220D01*
X167418Y102252D01*
X169450Y101236D01*
X171481Y102252D01*
X170466Y100220D01*
X171481Y98188D01*
X169450Y99204D01*
X167418Y98188D01*
Y83188D02*
X168433Y85220D01*
X167418Y87252D01*
X169450Y86236D01*
X171481Y87252D01*
X170466Y85220D01*
X171481Y83188D01*
X169450Y84204D01*
X167418Y83188D01*
Y68188D02*
X168433Y70220D01*
X167418Y72252D01*
X169450Y71236D01*
X171481Y72252D01*
X170466Y70220D01*
X171481Y68188D01*
X169450Y69204D01*
X167418Y68188D01*
Y53188D02*
X168433Y55220D01*
X167418Y57252D01*
X169450Y56236D01*
X171481Y57252D01*
X170466Y55220D01*
X171481Y53188D01*
X169450Y54204D01*
X167418Y53188D01*
Y38188D02*
X168433Y40220D01*
X167418Y42252D01*
X169450Y41236D01*
X171481Y42252D01*
X170466Y40220D01*
X171481Y38188D01*
X169450Y39204D01*
X167418Y38188D01*
Y23188D02*
X168433Y25220D01*
X167418Y27252D01*
X169450Y26236D01*
X171481Y27252D01*
X170466Y25220D01*
X171481Y23188D01*
X169450Y24204D01*
X167418Y23188D01*
X152417Y368188D02*
X153434Y370220D01*
X152417Y372252D01*
X154450Y371236D01*
X156482Y372252D01*
X155465Y370220D01*
X156482Y368188D01*
X154450Y369204D01*
X152417Y368188D01*
Y353188D02*
X153434Y355220D01*
X152417Y357252D01*
X154450Y356236D01*
X156482Y357252D01*
X155465Y355220D01*
X156482Y353188D01*
X154450Y354204D01*
X152417Y353188D01*
Y323188D02*
X153434Y325220D01*
X152417Y327252D01*
X154450Y326236D01*
X156482Y327252D01*
X155465Y325220D01*
X156482Y323188D01*
X154450Y324204D01*
X152417Y323188D01*
Y308188D02*
X153434Y310220D01*
X152417Y312252D01*
X154450Y311236D01*
X156482Y312252D01*
X155465Y310220D01*
X156482Y308188D01*
X154450Y309204D01*
X152417Y308188D01*
Y293188D02*
X153434Y295220D01*
X152417Y297252D01*
X154450Y296236D01*
X156482Y297252D01*
X155465Y295220D01*
X156482Y293188D01*
X154450Y294204D01*
X152417Y293188D01*
Y278188D02*
X153434Y280220D01*
X152417Y282252D01*
X154450Y281236D01*
X156482Y282252D01*
X155465Y280220D01*
X156482Y278188D01*
X154450Y279204D01*
X152417Y278188D01*
Y248188D02*
X153434Y250220D01*
X152417Y252252D01*
X154450Y251236D01*
X156482Y252252D01*
X155465Y250220D01*
X156482Y248188D01*
X154450Y249204D01*
X152417Y248188D01*
Y218188D02*
X153434Y220220D01*
X152417Y222252D01*
X154450Y221236D01*
X156482Y222252D01*
X155465Y220220D01*
X156482Y218188D01*
X154450Y219204D01*
X152417Y218188D01*
Y113188D02*
X153434Y115220D01*
X152417Y117252D01*
X154450Y116236D01*
X156482Y117252D01*
X155465Y115220D01*
X156482Y113188D01*
X154450Y114204D01*
X152417Y113188D01*
Y98188D02*
X153434Y100220D01*
X152417Y102252D01*
X154450Y101236D01*
X156482Y102252D01*
X155465Y100220D01*
X156482Y98188D01*
X154450Y99204D01*
X152417Y98188D01*
Y83188D02*
X153434Y85220D01*
X152417Y87252D01*
X154450Y86236D01*
X156482Y87252D01*
X155465Y85220D01*
X156482Y83188D01*
X154450Y84204D01*
X152417Y83188D01*
Y68188D02*
X153434Y70220D01*
X152417Y72252D01*
X154450Y71236D01*
X156482Y72252D01*
X155465Y70220D01*
X156482Y68188D01*
X154450Y69204D01*
X152417Y68188D01*
Y53188D02*
X153434Y55220D01*
X152417Y57252D01*
X154450Y56236D01*
X156482Y57252D01*
X155465Y55220D01*
X156482Y53188D01*
X154450Y54204D01*
X152417Y53188D01*
Y38188D02*
X153434Y40220D01*
X152417Y42252D01*
X154450Y41236D01*
X156482Y42252D01*
X155465Y40220D01*
X156482Y38188D01*
X154450Y39204D01*
X152417Y38188D01*
Y23188D02*
X153434Y25220D01*
X152417Y27252D01*
X154450Y26236D01*
X156482Y27252D01*
X155465Y25220D01*
X156482Y23188D01*
X154450Y24204D01*
X152417Y23188D01*
X137417Y368188D02*
X138434Y370220D01*
X137417Y372252D01*
X139450Y371236D01*
X141482Y372252D01*
X140465Y370220D01*
X141482Y368188D01*
X139450Y369204D01*
X137417Y368188D01*
Y353188D02*
X138434Y355220D01*
X137417Y357252D01*
X139450Y356236D01*
X141482Y357252D01*
X140465Y355220D01*
X141482Y353188D01*
X139450Y354204D01*
X137417Y353188D01*
Y338188D02*
X138434Y340220D01*
X137417Y342252D01*
X139450Y341236D01*
X141482Y342252D01*
X140465Y340220D01*
X141482Y338188D01*
X139450Y339204D01*
X137417Y338188D01*
Y308188D02*
X138434Y310220D01*
X137417Y312252D01*
X139450Y311236D01*
X141482Y312252D01*
X140465Y310220D01*
X141482Y308188D01*
X139450Y309204D01*
X137417Y308188D01*
Y293188D02*
X138434Y295220D01*
X137417Y297252D01*
X139450Y296236D01*
X141482Y297252D01*
X140465Y295220D01*
X141482Y293188D01*
X139450Y294204D01*
X137417Y293188D01*
Y203188D02*
X138434Y205220D01*
X137417Y207252D01*
X139450Y206236D01*
X141482Y207252D01*
X140465Y205220D01*
X141482Y203188D01*
X139450Y204204D01*
X137417Y203188D01*
Y188188D02*
X138434Y190220D01*
X137417Y192252D01*
X139450Y191236D01*
X141482Y192252D01*
X140465Y190220D01*
X141482Y188188D01*
X139450Y189204D01*
X137417Y188188D01*
Y68188D02*
X138434Y70220D01*
X137417Y72252D01*
X139450Y71236D01*
X141482Y72252D01*
X140465Y70220D01*
X141482Y68188D01*
X139450Y69204D01*
X137417Y68188D01*
X122417Y353188D02*
X123434Y355220D01*
X122417Y357252D01*
X124450Y356236D01*
X126482Y357252D01*
X125465Y355220D01*
X126482Y353188D01*
X124450Y354204D01*
X122417Y353188D01*
Y338188D02*
X123434Y340220D01*
X122417Y342252D01*
X124450Y341236D01*
X126482Y342252D01*
X125465Y340220D01*
X126482Y338188D01*
X124450Y339204D01*
X122417Y338188D01*
Y323188D02*
X123434Y325220D01*
X122417Y327252D01*
X124450Y326236D01*
X126482Y327252D01*
X125465Y325220D01*
X126482Y323188D01*
X124450Y324204D01*
X122417Y323188D01*
Y293188D02*
X123434Y295220D01*
X122417Y297252D01*
X124450Y296236D01*
X126482Y297252D01*
X125465Y295220D01*
X126482Y293188D01*
X124450Y294204D01*
X122417Y293188D01*
Y203188D02*
X123434Y205220D01*
X122417Y207252D01*
X124450Y206236D01*
X126482Y207252D01*
X125465Y205220D01*
X126482Y203188D01*
X124450Y204204D01*
X122417Y203188D01*
Y83188D02*
X123434Y85220D01*
X122417Y87252D01*
X124450Y86236D01*
X126482Y87252D01*
X125465Y85220D01*
X126482Y83188D01*
X124450Y84204D01*
X122417Y83188D01*
X92417Y293188D02*
X93434Y295220D01*
X92417Y297252D01*
X94450Y296236D01*
X96482Y297252D01*
X95465Y295220D01*
X96482Y293188D01*
X94450Y294204D01*
X92417Y293188D01*
Y158188D02*
X93434Y160220D01*
X92417Y162252D01*
X94450Y161236D01*
X96482Y162252D01*
X95465Y160220D01*
X96482Y158188D01*
X94450Y159204D01*
X92417Y158188D01*
Y143188D02*
X93434Y145220D01*
X92417Y147252D01*
X94450Y146236D01*
X96482Y147252D01*
X95465Y145220D01*
X96482Y143188D01*
X94450Y144204D01*
X92417Y143188D01*
Y113188D02*
X93434Y115220D01*
X92417Y117252D01*
X94450Y116236D01*
X96482Y117252D01*
X95465Y115220D01*
X96482Y113188D01*
X94450Y114204D01*
X92417Y113188D01*
X77417Y293188D02*
X78433Y295220D01*
X77417Y297252D01*
X79450Y296236D01*
X81482Y297252D01*
X80465Y295220D01*
X81482Y293188D01*
X79450Y294204D01*
X77417Y293188D01*
Y278188D02*
X78433Y280220D01*
X77417Y282252D01*
X79450Y281236D01*
X81482Y282252D01*
X80465Y280220D01*
X81482Y278188D01*
X79450Y279204D01*
X77417Y278188D01*
Y263188D02*
X78433Y265220D01*
X77417Y267252D01*
X79450Y266236D01*
X81482Y267252D01*
X80465Y265220D01*
X81482Y263188D01*
X79450Y264204D01*
X77417Y263188D01*
Y248188D02*
X78433Y250220D01*
X77417Y252252D01*
X79450Y251236D01*
X81482Y252252D01*
X80465Y250220D01*
X81482Y248188D01*
X79450Y249204D01*
X77417Y248188D01*
Y233188D02*
X78433Y235220D01*
X77417Y237252D01*
X79450Y236236D01*
X81482Y237252D01*
X80465Y235220D01*
X81482Y233188D01*
X79450Y234204D01*
X77417Y233188D01*
Y218188D02*
X78433Y220220D01*
X77417Y222252D01*
X79450Y221236D01*
X81482Y222252D01*
X80465Y220220D01*
X81482Y218188D01*
X79450Y219204D01*
X77417Y218188D01*
Y23188D02*
X78433Y25220D01*
X77417Y27252D01*
X79450Y26236D01*
X81482Y27252D01*
X80465Y25220D01*
X81482Y23188D01*
X79450Y24204D01*
X77417Y23188D01*
X62418Y353188D02*
X63434Y355220D01*
X62418Y357252D01*
X64450Y356236D01*
X66482Y357252D01*
X65466Y355220D01*
X66482Y353188D01*
X64450Y354204D01*
X62418Y353188D01*
Y338188D02*
X63434Y340220D01*
X62418Y342252D01*
X64450Y341236D01*
X66482Y342252D01*
X65466Y340220D01*
X66482Y338188D01*
X64450Y339204D01*
X62418Y338188D01*
Y323188D02*
X63434Y325220D01*
X62418Y327252D01*
X64450Y326236D01*
X66482Y327252D01*
X65466Y325220D01*
X66482Y323188D01*
X64450Y324204D01*
X62418Y323188D01*
Y308188D02*
X63434Y310220D01*
X62418Y312252D01*
X64450Y311236D01*
X66482Y312252D01*
X65466Y310220D01*
X66482Y308188D01*
X64450Y309204D01*
X62418Y308188D01*
Y293188D02*
X63434Y295220D01*
X62418Y297252D01*
X64450Y296236D01*
X66482Y297252D01*
X65466Y295220D01*
X66482Y293188D01*
X64450Y294204D01*
X62418Y293188D01*
Y278188D02*
X63434Y280220D01*
X62418Y282252D01*
X64450Y281236D01*
X66482Y282252D01*
X65466Y280220D01*
X66482Y278188D01*
X64450Y279204D01*
X62418Y278188D01*
Y263188D02*
X63434Y265220D01*
X62418Y267252D01*
X64450Y266236D01*
X66482Y267252D01*
X65466Y265220D01*
X66482Y263188D01*
X64450Y264204D01*
X62418Y263188D01*
Y248188D02*
X63434Y250220D01*
X62418Y252252D01*
X64450Y251236D01*
X66482Y252252D01*
X65466Y250220D01*
X66482Y248188D01*
X64450Y249204D01*
X62418Y248188D01*
Y233188D02*
X63434Y235220D01*
X62418Y237252D01*
X64450Y236236D01*
X66482Y237252D01*
X65466Y235220D01*
X66482Y233188D01*
X64450Y234204D01*
X62418Y233188D01*
Y218188D02*
X63434Y220220D01*
X62418Y222252D01*
X64450Y221236D01*
X66482Y222252D01*
X65466Y220220D01*
X66482Y218188D01*
X64450Y219204D01*
X62418Y218188D01*
X47418Y368188D02*
X48434Y370220D01*
X47418Y372252D01*
X49450Y371236D01*
X51482Y372252D01*
X50466Y370220D01*
X51482Y368188D01*
X49450Y369204D01*
X47418Y368188D01*
Y353188D02*
X48434Y355220D01*
X47418Y357252D01*
X49450Y356236D01*
X51482Y357252D01*
X50466Y355220D01*
X51482Y353188D01*
X49450Y354204D01*
X47418Y353188D01*
Y323188D02*
X48434Y325220D01*
X47418Y327252D01*
X49450Y326236D01*
X51482Y327252D01*
X50466Y325220D01*
X51482Y323188D01*
X49450Y324204D01*
X47418Y323188D01*
Y308188D02*
X48434Y310220D01*
X47418Y312252D01*
X49450Y311236D01*
X51482Y312252D01*
X50466Y310220D01*
X51482Y308188D01*
X49450Y309204D01*
X47418Y308188D01*
Y293188D02*
X48434Y295220D01*
X47418Y297252D01*
X49450Y296236D01*
X51482Y297252D01*
X50466Y295220D01*
X51482Y293188D01*
X49450Y294204D01*
X47418Y293188D01*
Y278188D02*
X48434Y280220D01*
X47418Y282252D01*
X49450Y281236D01*
X51482Y282252D01*
X50466Y280220D01*
X51482Y278188D01*
X49450Y279204D01*
X47418Y278188D01*
Y263188D02*
X48434Y265220D01*
X47418Y267252D01*
X49450Y266236D01*
X51482Y267252D01*
X50466Y265220D01*
X51482Y263188D01*
X49450Y264204D01*
X47418Y263188D01*
Y248188D02*
X48434Y250220D01*
X47418Y252252D01*
X49450Y251236D01*
X51482Y252252D01*
X50466Y250220D01*
X51482Y248188D01*
X49450Y249204D01*
X47418Y248188D01*
Y233188D02*
X48434Y235220D01*
X47418Y237252D01*
X49450Y236236D01*
X51482Y237252D01*
X50466Y235220D01*
X51482Y233188D01*
X49450Y234204D01*
X47418Y233188D01*
Y218188D02*
X48434Y220220D01*
X47418Y222252D01*
X49450Y221236D01*
X51482Y222252D01*
X50466Y220220D01*
X51482Y218188D01*
X49450Y219204D01*
X47418Y218188D01*
Y203188D02*
X48434Y205220D01*
X47418Y207252D01*
X49450Y206236D01*
X51482Y207252D01*
X50466Y205220D01*
X51482Y203188D01*
X49450Y204204D01*
X47418Y203188D01*
Y188188D02*
X48434Y190220D01*
X47418Y192252D01*
X49450Y191236D01*
X51482Y192252D01*
X50466Y190220D01*
X51482Y188188D01*
X49450Y189204D01*
X47418Y188188D01*
X32418Y368188D02*
X33434Y370220D01*
X32418Y372252D01*
X34450Y371236D01*
X36482Y372252D01*
X35466Y370220D01*
X36482Y368188D01*
X34450Y369204D01*
X32418Y368188D01*
Y308188D02*
X33434Y310220D01*
X32418Y312252D01*
X34450Y311236D01*
X36482Y312252D01*
X35466Y310220D01*
X36482Y308188D01*
X34450Y309204D01*
X32418Y308188D01*
Y293188D02*
X33434Y295220D01*
X32418Y297252D01*
X34450Y296236D01*
X36482Y297252D01*
X35466Y295220D01*
X36482Y293188D01*
X34450Y294204D01*
X32418Y293188D01*
Y278188D02*
X33434Y280220D01*
X32418Y282252D01*
X34450Y281236D01*
X36482Y282252D01*
X35466Y280220D01*
X36482Y278188D01*
X34450Y279204D01*
X32418Y278188D01*
Y263188D02*
X33434Y265220D01*
X32418Y267252D01*
X34450Y266236D01*
X36482Y267252D01*
X35466Y265220D01*
X36482Y263188D01*
X34450Y264204D01*
X32418Y263188D01*
Y248188D02*
X33434Y250220D01*
X32418Y252252D01*
X34450Y251236D01*
X36482Y252252D01*
X35466Y250220D01*
X36482Y248188D01*
X34450Y249204D01*
X32418Y248188D01*
Y233188D02*
X33434Y235220D01*
X32418Y237252D01*
X34450Y236236D01*
X36482Y237252D01*
X35466Y235220D01*
X36482Y233188D01*
X34450Y234204D01*
X32418Y233188D01*
Y218188D02*
X33434Y220220D01*
X32418Y222252D01*
X34450Y221236D01*
X36482Y222252D01*
X35466Y220220D01*
X36482Y218188D01*
X34450Y219204D01*
X32418Y218188D01*
Y203188D02*
X33434Y205220D01*
X32418Y207252D01*
X34450Y206236D01*
X36482Y207252D01*
X35466Y205220D01*
X36482Y203188D01*
X34450Y204204D01*
X32418Y203188D01*
Y143188D02*
X33434Y145220D01*
X32418Y147252D01*
X34450Y146236D01*
X36482Y147252D01*
X35466Y145220D01*
X36482Y143188D01*
X34450Y144204D01*
X32418Y143188D01*
Y128188D02*
X33434Y130220D01*
X32418Y132252D01*
X34450Y131236D01*
X36482Y132252D01*
X35466Y130220D01*
X36482Y128188D01*
X34450Y129204D01*
X32418Y128188D01*
X17418Y368188D02*
X18434Y370220D01*
X17418Y372252D01*
X19450Y371236D01*
X21482Y372252D01*
X20466Y370220D01*
X21482Y368188D01*
X19450Y369204D01*
X17418Y368188D01*
Y323188D02*
X18434Y325220D01*
X17418Y327252D01*
X19450Y326236D01*
X21482Y327252D01*
X20466Y325220D01*
X21482Y323188D01*
X19450Y324204D01*
X17418Y323188D01*
Y308188D02*
X18434Y310220D01*
X17418Y312252D01*
X19450Y311236D01*
X21482Y312252D01*
X20466Y310220D01*
X21482Y308188D01*
X19450Y309204D01*
X17418Y308188D01*
Y293188D02*
X18434Y295220D01*
X17418Y297252D01*
X19450Y296236D01*
X21482Y297252D01*
X20466Y295220D01*
X21482Y293188D01*
X19450Y294204D01*
X17418Y293188D01*
Y278188D02*
X18434Y280220D01*
X17418Y282252D01*
X19450Y281236D01*
X21482Y282252D01*
X20466Y280220D01*
X21482Y278188D01*
X19450Y279204D01*
X17418Y278188D01*
Y263188D02*
X18434Y265220D01*
X17418Y267252D01*
X19450Y266236D01*
X21482Y267252D01*
X20466Y265220D01*
X21482Y263188D01*
X19450Y264204D01*
X17418Y263188D01*
Y248188D02*
X18434Y250220D01*
X17418Y252252D01*
X19450Y251236D01*
X21482Y252252D01*
X20466Y250220D01*
X21482Y248188D01*
X19450Y249204D01*
X17418Y248188D01*
Y233188D02*
X18434Y235220D01*
X17418Y237252D01*
X19450Y236236D01*
X21482Y237252D01*
X20466Y235220D01*
X21482Y233188D01*
X19450Y234204D01*
X17418Y233188D01*
Y218188D02*
X18434Y220220D01*
X17418Y222252D01*
X19450Y221236D01*
X21482Y222252D01*
X20466Y220220D01*
X21482Y218188D01*
X19450Y219204D01*
X17418Y218188D01*
Y203188D02*
X18434Y205220D01*
X17418Y207252D01*
X19450Y206236D01*
X21482Y207252D01*
X20466Y205220D01*
X21482Y203188D01*
X19450Y204204D01*
X17418Y203188D01*
Y143188D02*
X18434Y145220D01*
X17418Y147252D01*
X19450Y146236D01*
X21482Y147252D01*
X20466Y145220D01*
X21482Y143188D01*
X19450Y144204D01*
X17418Y143188D01*
Y128188D02*
X18434Y130220D01*
X17418Y132252D01*
X19450Y131236D01*
X21482Y132252D01*
X20466Y130220D01*
X21482Y128188D01*
X19450Y129204D01*
X17418Y128188D01*
X190520Y315270D02*
X191536Y317302D01*
X190520Y319334D01*
X192552Y318318D01*
X194584Y319334D01*
X193568Y317302D01*
X194584Y315270D01*
X192552Y316286D01*
X190520Y315270D01*
X249468Y139718D02*
X250484Y141750D01*
X249468Y143782D01*
X251500Y142766D01*
X253532Y143782D01*
X252516Y141750D01*
X253532Y139718D01*
X251500Y140734D01*
X249468Y139718D01*
X296218Y325718D02*
X297234Y327750D01*
X296218Y329782D01*
X298250Y328766D01*
X300282Y329782D01*
X299266Y327750D01*
X300282Y325718D01*
X298250Y326734D01*
X296218Y325718D01*
X306378D02*
X307394Y327750D01*
X306378Y329782D01*
X308410Y328766D01*
X310442Y329782D01*
X309426Y327750D01*
X310442Y325718D01*
X308410Y326734D01*
X306378Y325718D01*
X296218Y346038D02*
X297234Y348070D01*
X296218Y350102D01*
X298250Y349086D01*
X300282Y350102D01*
X299266Y348070D01*
X300282Y346038D01*
X298250Y347054D01*
X296218Y346038D01*
X306378Y356198D02*
X307394Y358230D01*
X306378Y360262D01*
X308410Y359246D01*
X310442Y360262D01*
X309426Y358230D01*
X310442Y356198D01*
X308410Y357214D01*
X306378Y356198D01*
X296218D02*
X297234Y358230D01*
X296218Y360262D01*
X298250Y359246D01*
X300282Y360262D01*
X299266Y358230D01*
X300282Y356198D01*
X298250Y357214D01*
X296218Y356198D01*
X306378Y335878D02*
X307394Y337910D01*
X306378Y339942D01*
X308410Y338926D01*
X310442Y339942D01*
X309426Y337910D01*
X310442Y335878D01*
X308410Y336894D01*
X306378Y335878D01*
X296218D02*
X297234Y337910D01*
X296218Y339942D01*
X298250Y338926D01*
X300282Y339942D01*
X299266Y337910D01*
X300282Y335878D01*
X298250Y336894D01*
X296218Y335878D01*
X306378Y346038D02*
X307394Y348070D01*
X306378Y350102D01*
X308410Y349086D01*
X310442Y350102D01*
X309426Y348070D01*
X310442Y346038D01*
X308410Y347054D01*
X306378Y346038D01*
X123698Y365468D02*
X124714Y367500D01*
X123698Y369532D01*
X125730Y368516D01*
X127762Y369532D01*
X126746Y367500D01*
X127762Y365468D01*
X125730Y366484D01*
X123698Y365468D01*
X113538D02*
X114554Y367500D01*
X113538Y369532D01*
X115570Y368516D01*
X117602Y369532D01*
X116586Y367500D01*
X117602Y365468D01*
X115570Y366484D01*
X113538Y365468D01*
X62738D02*
X63754Y367500D01*
X62738Y369532D01*
X64770Y368516D01*
X66802Y369532D01*
X65786Y367500D01*
X66802Y365468D01*
X64770Y366484D01*
X62738Y365468D01*
X72898D02*
X73914Y367500D01*
X72898Y369532D01*
X74930Y368516D01*
X76962Y369532D01*
X75946Y367500D01*
X76962Y365468D01*
X74930Y366484D01*
X72898Y365468D01*
X106721Y126218D02*
X107737Y128250D01*
X106721Y130282D01*
X108753Y129266D01*
X110785Y130282D01*
X109769Y128250D01*
X110785Y126218D01*
X108753Y127234D01*
X106721Y126218D01*
X129718Y189968D02*
X130734Y192000D01*
X129718Y194032D01*
X131750Y193016D01*
X133782Y194032D01*
X132766Y192000D01*
X133782Y189968D01*
X131750Y190984D01*
X129718Y189968D01*
X209978Y233479D02*
X210994Y235511D01*
X209978Y237544D01*
X212010Y236528D01*
X214042Y237544D01*
X213026Y235511D01*
X214042Y233479D01*
X212010Y234496D01*
X209978Y233479D01*
X235468Y232218D02*
X236484Y234250D01*
X235468Y236282D01*
X237500Y235266D01*
X239532Y236282D01*
X238516Y234250D01*
X239532Y232218D01*
X237500Y233234D01*
X235468Y232218D01*
X251218Y232468D02*
X252234Y234500D01*
X251218Y236532D01*
X253250Y235516D01*
X255282Y236532D01*
X254266Y234500D01*
X255282Y232468D01*
X253250Y233484D01*
X251218Y232468D01*
X286968Y88718D02*
X287984Y90750D01*
X286968Y92782D01*
X289000Y91766D01*
X291032Y92782D01*
X290016Y90750D01*
X291032Y88718D01*
X289000Y89734D01*
X286968Y88718D01*
X174718Y71468D02*
X175734Y73500D01*
X174718Y75532D01*
X176750Y74516D01*
X178782Y75532D01*
X177766Y73500D01*
X178782Y71468D01*
X176750Y72484D01*
X174718Y71468D01*
X150400Y137326D02*
X151416Y139358D01*
X150400Y141390D01*
X152432Y140374D01*
X154464Y141390D01*
X153448Y139358D01*
X154464Y137326D01*
X152432Y138342D01*
X150400Y137326D01*
X67400Y205326D02*
X68416Y207358D01*
X67400Y209390D01*
X69432Y208374D01*
X71464Y209390D01*
X70448Y207358D01*
X71464Y205326D01*
X69432Y206342D01*
X67400Y205326D01*
X128400Y141076D02*
X129416Y143108D01*
X128400Y145140D01*
X130432Y144124D01*
X132464Y145140D01*
X131448Y143108D01*
X132464Y141076D01*
X130432Y142092D01*
X128400Y141076D01*
X246636Y275592D02*
Y274576D01*
X248668D01*
Y275592D01*
X249684D01*
Y277624D01*
X248668D01*
Y278640D01*
X246636D01*
Y277624D01*
X245620D01*
Y275592D01*
X246636D01*
X218696Y289562D02*
Y288546D01*
X220728D01*
Y289562D01*
X221744D01*
Y291594D01*
X220728D01*
Y292610D01*
X218696D01*
Y291594D01*
X217680D01*
Y289562D01*
X218696D01*
X246636D02*
Y288546D01*
X248668D01*
Y289562D01*
X249684D01*
Y291594D01*
X248668D01*
Y292610D01*
X246636D01*
Y291594D01*
X245620D01*
Y289562D01*
X246636D01*
X218696Y275592D02*
Y274576D01*
X220728D01*
Y275592D01*
X221744D01*
Y277624D01*
X220728D01*
Y278640D01*
X218696D01*
Y277624D01*
X217680D01*
Y275592D01*
X218696D01*
X246636Y261622D02*
Y260606D01*
X248668D01*
Y261622D01*
X249684D01*
Y263654D01*
X248668D01*
Y264670D01*
X246636D01*
Y263654D01*
X245620D01*
Y261622D01*
X246636D01*
X218696D02*
Y260606D01*
X220728D01*
Y261622D01*
X221744D01*
Y263654D01*
X220728D01*
Y264670D01*
X218696D01*
Y263654D01*
X217680D01*
Y261622D01*
X218696D01*
X232666Y289562D02*
Y288546D01*
X234698D01*
Y289562D01*
X235714D01*
Y291594D01*
X234698D01*
Y292610D01*
X232666D01*
Y291594D01*
X231650D01*
Y289562D01*
X232666D01*
Y275592D02*
Y274576D01*
X234698D01*
Y275592D01*
X235714D01*
Y277624D01*
X234698D01*
Y278640D01*
X232666D01*
Y277624D01*
X231650D01*
Y275592D01*
X232666D01*
Y261622D02*
Y260606D01*
X234698D01*
Y261622D01*
X235714D01*
Y263654D01*
X234698D01*
Y264670D01*
X232666D01*
Y263654D01*
X231650D01*
Y261622D01*
X232666D01*
X272218Y208968D02*
X273234Y211000D01*
X272218Y213032D01*
X274250Y212016D01*
X276282Y213032D01*
X275266Y211000D01*
X276282Y208968D01*
X274250Y209984D01*
X272218Y208968D01*
X297718Y174968D02*
X298734Y177000D01*
X297718Y179032D01*
X299750Y178016D01*
X301782Y179032D01*
X300766Y177000D01*
X301782Y174968D01*
X299750Y175984D01*
X297718Y174968D01*
X213468Y334718D02*
X214484Y336750D01*
X213468Y338782D01*
X215500Y337766D01*
X217532Y338782D01*
X216516Y336750D01*
X217532Y334718D01*
X215500Y335734D01*
X213468Y334718D01*
X243218D02*
X244234Y336750D01*
X243218Y338782D01*
X245250Y337766D01*
X247282Y338782D01*
X246266Y336750D01*
X247282Y334718D01*
X245250Y335734D01*
X243218Y334718D01*
X141968Y141218D02*
X142984Y143250D01*
X141968Y145282D01*
X144000Y144266D01*
X146032Y145282D01*
X145016Y143250D01*
X146032Y141218D01*
X144000Y142234D01*
X141968Y141218D01*
X188378Y252128D02*
X189394Y254160D01*
X188378Y256192D01*
X190410Y255176D01*
X192442Y256192D01*
X191426Y254160D01*
X192442Y252128D01*
X190410Y253144D01*
X188378Y252128D01*
X178218Y241968D02*
X179234Y244000D01*
X178218Y246032D01*
X180250Y245016D01*
X182282Y246032D01*
X181266Y244000D01*
X182282Y241968D01*
X180250Y242984D01*
X178218Y241968D01*
Y252128D02*
X179234Y254160D01*
X178218Y256192D01*
X180250Y255176D01*
X182282Y256192D01*
X181266Y254160D01*
X182282Y252128D01*
X180250Y253144D01*
X178218Y252128D01*
X188378Y241968D02*
X189394Y244000D01*
X188378Y246032D01*
X190410Y245016D01*
X192442Y246032D01*
X191426Y244000D01*
X192442Y241968D01*
X190410Y242984D01*
X188378Y241968D01*
Y286128D02*
X189394Y288160D01*
X188378Y290192D01*
X190410Y289176D01*
X192442Y290192D01*
X191426Y288160D01*
X192442Y286128D01*
X190410Y287144D01*
X188378Y286128D01*
X178218Y275968D02*
X179234Y278000D01*
X178218Y280032D01*
X180250Y279016D01*
X182282Y280032D01*
X181266Y278000D01*
X182282Y275968D01*
X180250Y276984D01*
X178218Y275968D01*
Y286128D02*
X179234Y288160D01*
X178218Y290192D01*
X180250Y289176D01*
X182282Y290192D01*
X181266Y288160D01*
X182282Y286128D01*
X180250Y287144D01*
X178218Y286128D01*
X188378Y275968D02*
X189394Y278000D01*
X188378Y280032D01*
X190410Y279016D01*
X192442Y280032D01*
X191426Y278000D01*
X192442Y275968D01*
X190410Y276984D01*
X188378Y275968D01*
X265718Y242968D02*
X266734Y245000D01*
X265718Y247032D01*
X267750Y246016D01*
X269782Y247032D01*
X268766Y245000D01*
X269782Y242968D01*
X267750Y243984D01*
X265718Y242968D01*
X228468Y231218D02*
X229484Y233250D01*
X228468Y235282D01*
X230500Y234266D01*
X232532Y235282D01*
X231516Y233250D01*
X232532Y231218D01*
X230500Y232234D01*
X228468Y231218D01*
X220468Y231468D02*
X221484Y233500D01*
X220468Y235532D01*
X222500Y234516D01*
X224532Y235532D01*
X223516Y233500D01*
X224532Y231468D01*
X222500Y232484D01*
X220468Y231468D01*
X232968Y160968D02*
X233984Y163000D01*
X232968Y165032D01*
X235000Y164016D01*
X237032Y165032D01*
X236016Y163000D01*
X237032Y160968D01*
X235000Y161984D01*
X232968Y160968D01*
X284657Y146130D02*
X285673Y148162D01*
X284657Y150194D01*
X286689Y149178D01*
X288721Y150194D01*
X287705Y148162D01*
X288721Y146130D01*
X286689Y147146D01*
X284657Y146130D01*
X272711Y268957D02*
X273727Y270989D01*
X272711Y273021D01*
X274743Y272005D01*
X276775Y273021D01*
X275759Y270989D01*
X276775Y268957D01*
X274743Y269973D01*
X272711Y268957D01*
X166968Y296968D02*
X167984Y299000D01*
X166968Y301032D01*
X169000Y300016D01*
X171032Y301032D01*
X170016Y299000D01*
X171032Y296968D01*
X169000Y297984D01*
X166968Y296968D01*
X273468Y284718D02*
X274484Y286750D01*
X273468Y288782D01*
X275500Y287766D01*
X277532Y288782D01*
X276516Y286750D01*
X277532Y284718D01*
X275500Y285734D01*
X273468Y284718D01*
X93468Y178968D02*
X94484Y181000D01*
X93468Y183032D01*
X95500Y182016D01*
X97532Y183032D01*
X96516Y181000D01*
X97532Y178968D01*
X95500Y179984D01*
X93468Y178968D01*
X99468Y155968D02*
X100484Y158000D01*
X99468Y160032D01*
X101500Y159016D01*
X103532Y160032D01*
X102516Y158000D01*
X103532Y155968D01*
X101500Y156984D01*
X99468Y155968D01*
X112468Y156218D02*
X113484Y158250D01*
X112468Y160282D01*
X114500Y159266D01*
X116532Y160282D01*
X115516Y158250D01*
X116532Y156218D01*
X114500Y157234D01*
X112468Y156218D01*
X185968Y329468D02*
X186984Y331500D01*
X185968Y333532D01*
X188000Y332516D01*
X190032Y333532D01*
X189016Y331500D01*
X190032Y329468D01*
X188000Y330484D01*
X185968Y329468D01*
X209648Y314565D02*
X210664Y316597D01*
X209648Y318629D01*
X211680Y317613D01*
X213712Y318629D01*
X212696Y316597D01*
X213712Y314565D01*
X211680Y315581D01*
X209648Y314565D01*
X241637Y315637D02*
X242653Y317669D01*
X241637Y319701D01*
X243669Y318685D01*
X245701Y319701D01*
X244685Y317669D01*
X245701Y315637D01*
X243669Y316653D01*
X241637Y315637D01*
X262218Y223718D02*
X263234Y225750D01*
X262218Y227782D01*
X264250Y226766D01*
X266282Y227782D01*
X265266Y225750D01*
X266282Y223718D01*
X264250Y224734D01*
X262218Y223718D01*
X213468Y143468D02*
X214484Y145500D01*
X213468Y147532D01*
X215500Y146516D01*
X217532Y147532D01*
X216516Y145500D01*
X217532Y143468D01*
X215500Y144484D01*
X213468Y143468D01*
X218718D02*
X219734Y145500D01*
X218718Y147532D01*
X220750Y146516D01*
X222782Y147532D01*
X221766Y145500D01*
X222782Y143468D01*
X220750Y144484D01*
X218718Y143468D01*
X180218D02*
X181234Y145500D01*
X180218Y147532D01*
X182250Y146516D01*
X184282Y147532D01*
X183266Y145500D01*
X184282Y143468D01*
X182250Y144484D01*
X180218Y143468D01*
X185218D02*
X186234Y145500D01*
X185218Y147532D01*
X187250Y146516D01*
X189282Y147532D01*
X188266Y145500D01*
X189282Y143468D01*
X187250Y144484D01*
X185218Y143468D01*
X166148Y112968D02*
X167164Y115000D01*
X166148Y117032D01*
X168180Y116016D01*
X170212Y117032D01*
X169196Y115000D01*
X170212Y112968D01*
X168180Y113984D01*
X166148Y112968D01*
X176308D02*
X177324Y115000D01*
X176308Y117032D01*
X178340Y116016D01*
X180372Y117032D01*
X179356Y115000D01*
X180372Y112968D01*
X178340Y113984D01*
X176308Y112968D01*
X186468D02*
X187484Y115000D01*
X186468Y117032D01*
X188500Y116016D01*
X190532Y117032D01*
X189516Y115000D01*
X190532Y112968D01*
X188500Y113984D01*
X186468Y112968D01*
X196628Y123128D02*
X197644Y125160D01*
X196628Y127192D01*
X198660Y126176D01*
X200692Y127192D01*
X199676Y125160D01*
X200692Y123128D01*
X198660Y124144D01*
X196628Y123128D01*
X186468D02*
X187484Y125160D01*
X186468Y127192D01*
X188500Y126176D01*
X190532Y127192D01*
X189516Y125160D01*
X190532Y123128D01*
X188500Y124144D01*
X186468Y123128D01*
X196628Y112968D02*
X197644Y115000D01*
X196628Y117032D01*
X198660Y116016D01*
X200692Y117032D01*
X199676Y115000D01*
X200692Y112968D01*
X198660Y113984D01*
X196628Y112968D01*
X164648Y204538D02*
X165664Y206570D01*
X164648Y208602D01*
X166680Y207586D01*
X168712Y208602D01*
X167696Y206570D01*
X168712Y204538D01*
X166680Y205554D01*
X164648Y204538D01*
X154488Y194378D02*
X155504Y196410D01*
X154488Y198442D01*
X156520Y197426D01*
X158552Y198442D01*
X157536Y196410D01*
X158552Y194378D01*
X156520Y195394D01*
X154488Y194378D01*
Y204538D02*
X155504Y206570D01*
X154488Y208602D01*
X156520Y207586D01*
X158552Y208602D01*
X157536Y206570D01*
X158552Y204538D01*
X156520Y205554D01*
X154488Y204538D01*
X164648Y194378D02*
X165664Y196410D01*
X164648Y198442D01*
X166680Y197426D01*
X168712Y198442D01*
X167696Y196410D01*
X168712Y194378D01*
X166680Y195394D01*
X164648Y194378D01*
X184968D02*
X185984Y196410D01*
X184968Y198442D01*
X187000Y197426D01*
X189032Y198442D01*
X188016Y196410D01*
X189032Y194378D01*
X187000Y195394D01*
X184968Y194378D01*
X174808Y204538D02*
X175824Y206570D01*
X174808Y208602D01*
X176840Y207586D01*
X178872Y208602D01*
X177856Y206570D01*
X178872Y204538D01*
X176840Y205554D01*
X174808Y204538D01*
X184968D02*
X185984Y206570D01*
X184968Y208602D01*
X187000Y207586D01*
X189032Y208602D01*
X188016Y206570D01*
X189032Y204538D01*
X187000Y205554D01*
X184968Y204538D01*
X174808Y194378D02*
X175824Y196410D01*
X174808Y198442D01*
X176840Y197426D01*
X178872Y198442D01*
X177856Y196410D01*
X178872Y194378D01*
X176840Y195394D01*
X174808Y194378D01*
X83058Y345148D02*
X84074Y347180D01*
X83058Y349212D01*
X85090Y348196D01*
X87122Y349212D01*
X86106Y347180D01*
X87122Y345148D01*
X85090Y346164D01*
X83058Y345148D01*
X93218D02*
X94234Y347180D01*
X93218Y349212D01*
X95250Y348196D01*
X97282Y349212D01*
X96266Y347180D01*
X97282Y345148D01*
X95250Y346164D01*
X93218Y345148D01*
X83058Y365468D02*
X84074Y367500D01*
X83058Y369532D01*
X85090Y368516D01*
X87122Y369532D01*
X86106Y367500D01*
X87122Y365468D01*
X85090Y366484D01*
X83058Y365468D01*
X103378D02*
X104394Y367500D01*
X103378Y369532D01*
X105410Y368516D01*
X107442Y369532D01*
X106426Y367500D01*
X107442Y365468D01*
X105410Y366484D01*
X103378Y365468D01*
Y355308D02*
X104394Y357340D01*
X103378Y359372D01*
X105410Y358356D01*
X107442Y359372D01*
X106426Y357340D01*
X107442Y355308D01*
X105410Y356324D01*
X103378Y355308D01*
X93218D02*
X94234Y357340D01*
X93218Y359372D01*
X95250Y358356D01*
X97282Y359372D01*
X96266Y357340D01*
X97282Y355308D01*
X95250Y356324D01*
X93218Y355308D01*
X83058D02*
X84074Y357340D01*
X83058Y359372D01*
X85090Y358356D01*
X87122Y359372D01*
X86106Y357340D01*
X87122Y355308D01*
X85090Y356324D01*
X83058Y355308D01*
X93218Y365468D02*
X94234Y367500D01*
X93218Y369532D01*
X95250Y368516D01*
X97282Y369532D01*
X96266Y367500D01*
X97282Y365468D01*
X95250Y366484D01*
X93218Y365468D01*
X40308Y45718D02*
X41324Y47750D01*
X40308Y49782D01*
X42340Y48766D01*
X44372Y49782D01*
X43356Y47750D01*
X44372Y45718D01*
X42340Y46734D01*
X40308Y45718D01*
X50468Y55878D02*
X51484Y57910D01*
X50468Y59942D01*
X52500Y58926D01*
X54532Y59942D01*
X53516Y57910D01*
X54532Y55878D01*
X52500Y56894D01*
X50468Y55878D01*
X40308D02*
X41324Y57910D01*
X40308Y59942D01*
X42340Y58926D01*
X44372Y59942D01*
X43356Y57910D01*
X44372Y55878D01*
X42340Y56894D01*
X40308Y55878D01*
X60628D02*
X61644Y57910D01*
X60628Y59942D01*
X62660Y58926D01*
X64692Y59942D01*
X63676Y57910D01*
X64692Y55878D01*
X62660Y56894D01*
X60628Y55878D01*
Y45718D02*
X61644Y47750D01*
X60628Y49782D01*
X62660Y48766D01*
X64692Y49782D01*
X63676Y47750D01*
X64692Y45718D01*
X62660Y46734D01*
X60628Y45718D01*
Y35558D02*
X61644Y37590D01*
X60628Y39622D01*
X62660Y38606D01*
X64692Y39622D01*
X63676Y37590D01*
X64692Y35558D01*
X62660Y36574D01*
X60628Y35558D01*
X50468D02*
X51484Y37590D01*
X50468Y39622D01*
X52500Y38606D01*
X54532Y39622D01*
X53516Y37590D01*
X54532Y35558D01*
X52500Y36574D01*
X50468Y35558D01*
X40308D02*
X41324Y37590D01*
X40308Y39622D01*
X42340Y38606D01*
X44372Y39622D01*
X43356Y37590D01*
X44372Y35558D01*
X42340Y36574D01*
X40308Y35558D01*
X50468Y45718D02*
X51484Y47750D01*
X50468Y49782D01*
X52500Y48766D01*
X54532Y49782D01*
X53516Y47750D01*
X54532Y45718D01*
X52500Y46734D01*
X50468Y45718D01*
D99*
X102032Y25000D02*
G03*
X102032Y25000I-2032J0D01*
G01*
X127032D02*
G03*
X127032Y25000I-2032J0D01*
G01*
X27032D02*
G03*
X27032Y25000I-2032J0D01*
G01*
X52032D02*
G03*
X52032Y25000I-2032J0D01*
G01*
M02*
