G04*
G04 #@! TF.GenerationSoftware,Altium Limited,Altium Designer,20.2.6 (244)*
G04*
G04 Layer_Color=16777215*
%FSLAX44Y44*%
%MOMM*%
G71*
G04*
G04 #@! TF.SameCoordinates,7CDA323B-E038-41B1-B74F-359B52FF9F59*
G04*
G04*
G04 #@! TF.FilePolarity,Positive*
G04*
G01*
G75*
%ADD10C,0.2540*%
%ADD11C,0.2000*%
%ADD12C,0.1000*%
%ADD13C,0.3000*%
%ADD14C,0.2500*%
%ADD15C,0.0760*%
%ADD16C,0.1270*%
%ADD17C,0.1520*%
G36*
X436284Y68016D02*
X404250D01*
Y243250D01*
X436284D01*
Y68016D01*
D02*
G37*
G36*
X291293Y130631D02*
X291528Y130619D01*
X291764Y130606D01*
X291987Y130582D01*
X292185Y130557D01*
X292210D01*
X292272Y130545D01*
X292359Y130520D01*
X292470Y130483D01*
X292607Y130445D01*
X292756Y130383D01*
X292892Y130309D01*
X293041Y130222D01*
X293053Y130210D01*
X293103Y130173D01*
X293177Y130123D01*
X293264Y130036D01*
X293351Y129937D01*
X293462Y129826D01*
X293561Y129689D01*
X293660Y129541D01*
X293673Y129516D01*
X293698Y129466D01*
X293747Y129379D01*
X293797Y129268D01*
X293834Y129119D01*
X293883Y128958D01*
X293908Y128784D01*
X293921Y128586D01*
Y128561D01*
Y128487D01*
X293908Y128375D01*
X293883Y128239D01*
X293846Y128078D01*
X293784Y127904D01*
X293710Y127718D01*
X293611Y127533D01*
X293598Y127508D01*
X293549Y127458D01*
X293487Y127371D01*
X293388Y127272D01*
X293264Y127148D01*
X293127Y127037D01*
X292954Y126925D01*
X292768Y126826D01*
X292780D01*
X292805Y126813D01*
X292842Y126801D01*
X292892Y126789D01*
X293028Y126727D01*
X293189Y126652D01*
X293375Y126553D01*
X293561Y126429D01*
X293747Y126268D01*
X293908Y126082D01*
X293921Y126057D01*
X293970Y125996D01*
X294032Y125884D01*
X294119Y125735D01*
X294193Y125549D01*
X294255Y125351D01*
X294305Y125115D01*
X294317Y124855D01*
Y124830D01*
Y124756D01*
X294305Y124657D01*
X294280Y124508D01*
X294255Y124347D01*
X294206Y124161D01*
X294144Y123975D01*
X294057Y123777D01*
X294045Y123752D01*
X294007Y123690D01*
X293946Y123591D01*
X293871Y123479D01*
X293772Y123343D01*
X293648Y123207D01*
X293512Y123058D01*
X293351Y122934D01*
X293326Y122921D01*
X293276Y122884D01*
X293177Y122835D01*
X293041Y122773D01*
X292880Y122698D01*
X292694Y122636D01*
X292483Y122587D01*
X292247Y122550D01*
X292198D01*
X292161Y122537D01*
X292037D01*
X291950Y122525D01*
X291727D01*
X291578Y122512D01*
X291243D01*
X291033Y122500D01*
X287500D01*
Y130644D01*
X291082D01*
X291293Y130631D01*
D02*
G37*
G36*
X311212Y128400D02*
X312278D01*
Y127161D01*
X311212D01*
Y124756D01*
Y124743D01*
Y124731D01*
Y124694D01*
Y124644D01*
Y124520D01*
Y124384D01*
X311224Y124235D01*
Y124099D01*
Y123987D01*
X311237Y123938D01*
Y123913D01*
Y123888D01*
X311262Y123839D01*
X311311Y123777D01*
X311373Y123715D01*
X311398Y123702D01*
X311448Y123678D01*
X311534Y123653D01*
X311633Y123640D01*
X311671D01*
X311720Y123653D01*
X311795Y123665D01*
X311881Y123678D01*
X311993Y123702D01*
X312117Y123740D01*
X312266Y123789D01*
X312402Y122574D01*
X312377Y122562D01*
X312303Y122537D01*
X312191Y122500D01*
X312043Y122463D01*
X311857Y122426D01*
X311646Y122388D01*
X311410Y122364D01*
X311162Y122351D01*
X311088D01*
X311014Y122364D01*
X310914D01*
X310791Y122388D01*
X310667Y122413D01*
X310530Y122438D01*
X310406Y122488D01*
X310394Y122500D01*
X310357Y122512D01*
X310295Y122537D01*
X310220Y122587D01*
X310059Y122698D01*
X309972Y122773D01*
X309911Y122847D01*
X309898Y122859D01*
X309886Y122884D01*
X309861Y122946D01*
X309824Y123008D01*
X309787Y123107D01*
X309749Y123207D01*
X309725Y123330D01*
X309700Y123467D01*
Y123479D01*
X309687Y123529D01*
Y123603D01*
X309675Y123702D01*
X309663Y123851D01*
Y124049D01*
X309650Y124285D01*
Y124421D01*
Y124570D01*
Y127161D01*
X308931D01*
Y128400D01*
X309650D01*
Y129565D01*
X311212Y130483D01*
Y128400D01*
D02*
G37*
G36*
X305523Y128512D02*
X305634Y128499D01*
X305770Y128475D01*
X305907Y128450D01*
X306068Y128413D01*
X306242Y128363D01*
X306415Y128313D01*
X306601Y128239D01*
X306775Y128152D01*
X306961Y128053D01*
X307146Y127929D01*
X307320Y127805D01*
X307481Y127644D01*
X307493Y127632D01*
X307518Y127607D01*
X307555Y127557D01*
X307617Y127483D01*
X307679Y127409D01*
X307754Y127297D01*
X307828Y127185D01*
X307915Y127049D01*
X307989Y126888D01*
X308064Y126727D01*
X308138Y126541D01*
X308200Y126355D01*
X308262Y126144D01*
X308299Y125921D01*
X308324Y125698D01*
X308336Y125450D01*
Y125438D01*
Y125388D01*
Y125326D01*
X308324Y125227D01*
X308312Y125115D01*
X308287Y124979D01*
X308262Y124830D01*
X308225Y124669D01*
X308188Y124496D01*
X308126Y124322D01*
X308051Y124136D01*
X307977Y123950D01*
X307865Y123764D01*
X307754Y123578D01*
X307617Y123405D01*
X307469Y123231D01*
X307456Y123219D01*
X307432Y123194D01*
X307382Y123145D01*
X307320Y123095D01*
X307233Y123033D01*
X307134Y122959D01*
X307010Y122872D01*
X306874Y122797D01*
X306725Y122711D01*
X306564Y122624D01*
X306390Y122550D01*
X306192Y122488D01*
X305994Y122438D01*
X305770Y122388D01*
X305535Y122364D01*
X305299Y122351D01*
X305163D01*
X305089Y122364D01*
X305002Y122376D01*
X304804Y122401D01*
X304568Y122438D01*
X304308Y122500D01*
X304035Y122587D01*
X303762Y122711D01*
X303750D01*
X303725Y122723D01*
X303688Y122748D01*
X303639Y122785D01*
X303515Y122872D01*
X303354Y122983D01*
X303167Y123132D01*
X302982Y123318D01*
X302808Y123541D01*
X302647Y123789D01*
Y123801D01*
X302635Y123826D01*
X302610Y123863D01*
X302585Y123913D01*
X302560Y123987D01*
X302535Y124062D01*
X302498Y124161D01*
X302461Y124272D01*
X302399Y124520D01*
X302337Y124818D01*
X302288Y125153D01*
X302275Y125512D01*
Y125524D01*
Y125549D01*
Y125586D01*
X302288Y125648D01*
Y125710D01*
X302300Y125797D01*
X302325Y125996D01*
X302362Y126231D01*
X302436Y126479D01*
X302523Y126752D01*
X302647Y127024D01*
Y127037D01*
X302659Y127061D01*
X302684Y127099D01*
X302721Y127148D01*
X302808Y127272D01*
X302932Y127433D01*
X303081Y127619D01*
X303267Y127805D01*
X303477Y127979D01*
X303725Y128140D01*
X303738D01*
X303762Y128152D01*
X303800Y128177D01*
X303849Y128202D01*
X303911Y128227D01*
X303998Y128264D01*
X304184Y128338D01*
X304419Y128400D01*
X304692Y128462D01*
X304977Y128512D01*
X305299Y128524D01*
X305424D01*
X305523Y128512D01*
D02*
G37*
G36*
X298581D02*
X298693Y128499D01*
X298829Y128475D01*
X298966Y128450D01*
X299127Y128413D01*
X299300Y128363D01*
X299474Y128313D01*
X299660Y128239D01*
X299833Y128152D01*
X300019Y128053D01*
X300205Y127929D01*
X300379Y127805D01*
X300540Y127644D01*
X300552Y127632D01*
X300577Y127607D01*
X300614Y127557D01*
X300676Y127483D01*
X300738Y127409D01*
X300812Y127297D01*
X300887Y127185D01*
X300974Y127049D01*
X301048Y126888D01*
X301122Y126727D01*
X301197Y126541D01*
X301259Y126355D01*
X301321Y126144D01*
X301358Y125921D01*
X301383Y125698D01*
X301395Y125450D01*
Y125438D01*
Y125388D01*
Y125326D01*
X301383Y125227D01*
X301370Y125115D01*
X301345Y124979D01*
X301321Y124830D01*
X301283Y124669D01*
X301246Y124496D01*
X301184Y124322D01*
X301110Y124136D01*
X301036Y123950D01*
X300924Y123764D01*
X300812Y123578D01*
X300676Y123405D01*
X300527Y123231D01*
X300515Y123219D01*
X300490Y123194D01*
X300441Y123145D01*
X300379Y123095D01*
X300292Y123033D01*
X300193Y122959D01*
X300069Y122872D01*
X299932Y122797D01*
X299784Y122711D01*
X299622Y122624D01*
X299449Y122550D01*
X299251Y122488D01*
X299052Y122438D01*
X298829Y122388D01*
X298594Y122364D01*
X298358Y122351D01*
X298222D01*
X298148Y122364D01*
X298061Y122376D01*
X297862Y122401D01*
X297627Y122438D01*
X297367Y122500D01*
X297094Y122587D01*
X296821Y122711D01*
X296809D01*
X296784Y122723D01*
X296747Y122748D01*
X296697Y122785D01*
X296573Y122872D01*
X296412Y122983D01*
X296226Y123132D01*
X296040Y123318D01*
X295867Y123541D01*
X295706Y123789D01*
Y123801D01*
X295693Y123826D01*
X295668Y123863D01*
X295644Y123913D01*
X295619Y123987D01*
X295594Y124062D01*
X295557Y124161D01*
X295520Y124272D01*
X295458Y124520D01*
X295396Y124818D01*
X295346Y125153D01*
X295334Y125512D01*
Y125524D01*
Y125549D01*
Y125586D01*
X295346Y125648D01*
Y125710D01*
X295359Y125797D01*
X295383Y125996D01*
X295420Y126231D01*
X295495Y126479D01*
X295582Y126752D01*
X295706Y127024D01*
Y127037D01*
X295718Y127061D01*
X295743Y127099D01*
X295780Y127148D01*
X295867Y127272D01*
X295991Y127433D01*
X296140Y127619D01*
X296325Y127805D01*
X296536Y127979D01*
X296784Y128140D01*
X296796D01*
X296821Y128152D01*
X296858Y128177D01*
X296908Y128202D01*
X296970Y128227D01*
X297057Y128264D01*
X297243Y128338D01*
X297478Y128400D01*
X297751Y128462D01*
X298036Y128512D01*
X298358Y128524D01*
X298482D01*
X298581Y128512D01*
D02*
G37*
%LPC*%
G36*
X428298Y235598D02*
X412261D01*
Y222930D01*
D01*
Y227641D01*
X425588D01*
Y222930D01*
X428298D01*
Y235598D01*
D02*
G37*
G36*
Y220806D02*
X412261D01*
Y208626D01*
X414970D01*
Y217560D01*
X419315D01*
Y209553D01*
X422024D01*
Y217560D01*
X425588D01*
Y208943D01*
X428298D01*
Y220806D01*
D02*
G37*
G36*
Y205868D02*
X412261D01*
Y191515D01*
X415385Y193468D01*
X415727Y193687D01*
X416020Y193883D01*
X416313Y194053D01*
X416581Y194249D01*
X417020Y194542D01*
X417387Y194810D01*
X417655Y195030D01*
X417826Y195176D01*
X417948Y195274D01*
X417972Y195298D01*
X418241Y195567D01*
X418485Y195860D01*
X418729Y196153D01*
X418924Y196421D01*
X419095Y196665D01*
X419217Y196861D01*
X419291Y196982D01*
X419315Y197007D01*
Y197031D01*
X419388Y196641D01*
X419461Y196299D01*
X419559Y195957D01*
X419681Y195664D01*
X419803Y195371D01*
X419925Y195103D01*
X420047Y194883D01*
X420169Y194664D01*
X420291Y194493D01*
X420413Y194322D01*
X420535Y194200D01*
X420609Y194078D01*
X420706Y194005D01*
X420755Y193931D01*
X420779Y193883D01*
X420804D01*
X421024Y193687D01*
X421268Y193516D01*
X421756Y193272D01*
X422268Y193077D01*
X422732Y192931D01*
X423147Y192857D01*
X423318Y192833D01*
X423489D01*
X423611Y192808D01*
X423709D01*
X423757D01*
X423782D01*
X424295Y192833D01*
X424783Y192906D01*
X425198Y193028D01*
X425564Y193150D01*
X425881Y193297D01*
X426101Y193394D01*
X426247Y193492D01*
X426296Y193516D01*
X426687Y193809D01*
X427004Y194102D01*
X427272Y194420D01*
X427492Y194713D01*
X427663Y194981D01*
X427785Y195201D01*
X427834Y195347D01*
X427858Y195371D01*
Y195396D01*
X427932Y195616D01*
X428005Y195884D01*
X428102Y196470D01*
X428200Y197080D01*
X428249Y197690D01*
X428273Y197959D01*
Y198472D01*
X428298Y198691D01*
Y205868D01*
D02*
G37*
G36*
Y189708D02*
X412261D01*
Y186462D01*
X418949D01*
Y185437D01*
X418924Y185095D01*
X418900Y184827D01*
X418851Y184607D01*
X418827Y184436D01*
X418778Y184314D01*
X418754Y184241D01*
Y184216D01*
X418680Y184021D01*
X418583Y183850D01*
X418363Y183533D01*
X418265Y183411D01*
X418168Y183313D01*
X418119Y183265D01*
X418094Y183240D01*
X417997Y183142D01*
X417850Y183045D01*
X417509Y182776D01*
X417142Y182483D01*
X416727Y182215D01*
X416337Y181946D01*
X416190Y181824D01*
X416020Y181727D01*
X415898Y181653D01*
X415800Y181580D01*
X415751Y181556D01*
X415727Y181531D01*
X412261Y179237D01*
Y179457D01*
Y175356D01*
X415385Y177309D01*
X415727Y177528D01*
X416020Y177724D01*
X416313Y177894D01*
X416581Y178090D01*
X417020Y178383D01*
X417387Y178651D01*
X417655Y178871D01*
X417826Y179017D01*
X417948Y179115D01*
X417972Y179139D01*
X418241Y179408D01*
X418485Y179701D01*
X418729Y179994D01*
X418924Y180262D01*
X419095Y180506D01*
X419217Y180702D01*
X419291Y180823D01*
X419315Y180848D01*
Y180872D01*
X419388Y180482D01*
X419461Y180140D01*
X419559Y179798D01*
X419681Y179505D01*
X419803Y179212D01*
X419925Y178944D01*
X420047Y178724D01*
X420169Y178505D01*
X420291Y178334D01*
X420413Y178163D01*
X420535Y178041D01*
X420609Y177919D01*
X420706Y177846D01*
X420755Y177772D01*
X420779Y177724D01*
X420804D01*
X421024Y177528D01*
X421268Y177357D01*
X421756Y177113D01*
X422268Y176918D01*
X422732Y176772D01*
X423147Y176698D01*
X423318Y176674D01*
X423489D01*
X423611Y176649D01*
X423709D01*
X423757D01*
X423782D01*
X424295Y176674D01*
X424783Y176747D01*
X425198Y176869D01*
X425564Y176991D01*
X425881Y177138D01*
X426101Y177235D01*
X426247Y177333D01*
X426296Y177357D01*
X426687Y177650D01*
X427004Y177943D01*
X427272Y178260D01*
X427492Y178553D01*
X427663Y178822D01*
X427785Y179042D01*
X427834Y179188D01*
X427858Y179212D01*
Y179237D01*
X427932Y179457D01*
X428005Y179725D01*
X428102Y180311D01*
X428200Y180921D01*
X428249Y181531D01*
X428273Y181800D01*
Y182313D01*
X428298Y182532D01*
Y189708D01*
D02*
G37*
G36*
Y175185D02*
X412261D01*
Y159099D01*
D01*
X428298Y165543D01*
Y168960D01*
X412261Y175185D01*
X428298D01*
D01*
D02*
G37*
G36*
X428566Y152020D02*
X411968D01*
Y138986D01*
Y145406D01*
X411992Y144649D01*
X412065Y143990D01*
X412139Y143404D01*
X412261Y142891D01*
X412309Y142672D01*
X412358Y142476D01*
X412407Y142330D01*
X412431Y142183D01*
X412480Y142086D01*
X412505Y142013D01*
X412529Y141964D01*
Y141939D01*
X412773Y141427D01*
X413066Y141012D01*
X413359Y140621D01*
X413652Y140328D01*
X413896Y140084D01*
X414116Y139913D01*
X414262Y139791D01*
X414287Y139767D01*
X414311D01*
X414775Y139498D01*
X415239Y139303D01*
X415678Y139181D01*
X416068Y139083D01*
X416410Y139035D01*
X416679Y138986D01*
X416923D01*
X417460Y139010D01*
X417948Y139083D01*
X418387Y139206D01*
X418754Y139303D01*
X419046Y139425D01*
X419291Y139547D01*
X419413Y139620D01*
X419461Y139645D01*
X419827Y139913D01*
X420169Y140182D01*
X420438Y140475D01*
X420682Y140768D01*
X420853Y141012D01*
X420999Y141207D01*
X421072Y141354D01*
X421097Y141378D01*
Y141402D01*
X421219Y141622D01*
X421316Y141866D01*
X421536Y142428D01*
X421707Y142989D01*
X421902Y143575D01*
X422024Y144087D01*
X422098Y144307D01*
X422146Y144502D01*
X422195Y144673D01*
X422220Y144795D01*
X422244Y144868D01*
Y144893D01*
X422342Y145308D01*
X422464Y145698D01*
X422561Y146040D01*
X422659Y146333D01*
X422732Y146626D01*
X422830Y146846D01*
X422903Y147065D01*
X423001Y147236D01*
X423074Y147407D01*
X423123Y147529D01*
X423220Y147724D01*
X423294Y147822D01*
X423318Y147846D01*
X423489Y147993D01*
X423635Y148115D01*
X423806Y148188D01*
X423953Y148261D01*
X424099Y148286D01*
X424197Y148310D01*
X424270D01*
X424295D01*
X424514Y148286D01*
X424709Y148237D01*
X424880Y148164D01*
X425027Y148066D01*
X425149Y147969D01*
X425222Y147895D01*
X425271Y147846D01*
X425295Y147822D01*
X425490Y147505D01*
X425637Y147139D01*
X425735Y146772D01*
X425808Y146431D01*
X425857Y146113D01*
X425881Y145845D01*
Y145625D01*
X425857Y145137D01*
X425783Y144722D01*
X425710Y144380D01*
X425613Y144087D01*
X425490Y143868D01*
X425417Y143721D01*
X425344Y143624D01*
X425320Y143599D01*
X425100Y143355D01*
X424832Y143160D01*
X424538Y143013D01*
X424246Y142891D01*
X423977Y142794D01*
X423757Y142745D01*
X423611Y142696D01*
X423587D01*
X423562D01*
X423684Y139450D01*
X424075Y139474D01*
X424465Y139547D01*
X424832Y139645D01*
X425173Y139742D01*
X425759Y140011D01*
X426027Y140133D01*
X426272Y140280D01*
X426491Y140426D01*
X426687Y140572D01*
X426857Y140695D01*
X426979Y140816D01*
X427077Y140914D01*
X427150Y140987D01*
X427199Y141036D01*
X427224Y141061D01*
X427468Y141354D01*
X427663Y141695D01*
X427858Y142037D01*
X428005Y142403D01*
X428249Y143160D01*
X428395Y143892D01*
X428444Y144234D01*
X428493Y144551D01*
X428517Y144844D01*
X428542Y145113D01*
X428566Y145308D01*
Y145601D01*
X428542Y146260D01*
X428469Y146870D01*
X428395Y147407D01*
X428298Y147871D01*
X428176Y148237D01*
X428127Y148383D01*
X428102Y148505D01*
X428054Y148603D01*
X428029Y148701D01*
X428005Y148725D01*
Y148750D01*
X427785Y149213D01*
X427517Y149604D01*
X427248Y149946D01*
X426979Y150214D01*
X426735Y150434D01*
X426540Y150605D01*
X426418Y150702D01*
X426394Y150727D01*
X426369D01*
X425954Y150946D01*
X425564Y151117D01*
X425173Y151239D01*
X424832Y151313D01*
X424514Y151361D01*
X424295Y151410D01*
X424197D01*
X424124D01*
X424099D01*
X424075D01*
X423733Y151386D01*
X423391Y151337D01*
X423074Y151264D01*
X422781Y151191D01*
X422220Y150946D01*
X421756Y150678D01*
X421561Y150531D01*
X421365Y150409D01*
X421219Y150287D01*
X421097Y150165D01*
X420999Y150092D01*
X420926Y150019D01*
X420877Y149970D01*
X420853Y149946D01*
X420682Y149726D01*
X420511Y149482D01*
X420194Y148945D01*
X419925Y148335D01*
X419706Y147724D01*
X419510Y147187D01*
X419437Y146943D01*
X419388Y146724D01*
X419339Y146553D01*
X419291Y146431D01*
X419266Y146333D01*
Y146309D01*
X419169Y145942D01*
X419095Y145625D01*
X419022Y145332D01*
X418949Y145064D01*
X418876Y144820D01*
X418827Y144624D01*
X418778Y144429D01*
X418729Y144283D01*
X418656Y144038D01*
X418607Y143868D01*
X418558Y143770D01*
Y143746D01*
X418436Y143453D01*
X418314Y143209D01*
X418217Y143013D01*
X418094Y142843D01*
X417997Y142720D01*
X417924Y142647D01*
X417875Y142598D01*
X417850Y142574D01*
X417704Y142452D01*
X417533Y142379D01*
X417240Y142281D01*
X417094Y142257D01*
X416996Y142232D01*
X416923D01*
X416898D01*
X416581Y142257D01*
X416288Y142354D01*
X416020Y142476D01*
X415800Y142623D01*
X415605Y142794D01*
X415483Y142916D01*
X415385Y143013D01*
X415361Y143038D01*
X415141Y143355D01*
X414970Y143721D01*
X414872Y144112D01*
X414775Y144502D01*
X414726Y144844D01*
X414702Y145113D01*
Y145381D01*
X414726Y145918D01*
X414824Y146382D01*
X414946Y146772D01*
X415068Y147114D01*
X415214Y147383D01*
X415312Y147578D01*
X415409Y147700D01*
X415434Y147749D01*
X415751Y148042D01*
X416117Y148286D01*
X416508Y148481D01*
X416874Y148628D01*
X417240Y148750D01*
X417509Y148823D01*
X417631Y148847D01*
X417704D01*
X417753Y148872D01*
X417777D01*
X417460Y152020D01*
X428566D01*
D02*
G37*
G36*
X428298Y136228D02*
X412261D01*
Y123950D01*
D01*
Y132981D01*
X418314D01*
Y130101D01*
X418339Y129759D01*
Y129442D01*
X418363Y129124D01*
X418387Y128856D01*
X418412Y128612D01*
X418436Y128392D01*
Y128197D01*
X418461Y128026D01*
X418485Y127879D01*
X418509Y127758D01*
Y127660D01*
X418534Y127587D01*
Y127538D01*
X418632Y127220D01*
X418729Y126903D01*
X418851Y126635D01*
X418998Y126366D01*
X419095Y126171D01*
X419193Y126000D01*
X419266Y125878D01*
X419291Y125854D01*
X419535Y125561D01*
X419779Y125292D01*
X420047Y125048D01*
X420316Y124853D01*
X420535Y124706D01*
X420706Y124584D01*
X420828Y124511D01*
X420877Y124487D01*
X421268Y124316D01*
X421683Y124169D01*
X422098Y124072D01*
X422488Y124023D01*
X422830Y123974D01*
X423098Y123950D01*
X423343D01*
X424026Y123998D01*
X424636Y124096D01*
X425173Y124242D01*
X425637Y124413D01*
X425979Y124609D01*
X426125Y124682D01*
X426247Y124755D01*
X426345Y124804D01*
X426418Y124853D01*
X426442Y124902D01*
X426467D01*
X426882Y125268D01*
X427224Y125658D01*
X427517Y126024D01*
X427712Y126391D01*
X427883Y126708D01*
X427980Y126976D01*
X428005Y127074D01*
X428029Y127123D01*
X428054Y127172D01*
Y127196D01*
X428102Y127391D01*
X428127Y127611D01*
X428176Y127879D01*
X428200Y128172D01*
X428249Y128807D01*
X428273Y129466D01*
Y129783D01*
X428298Y130076D01*
Y136228D01*
D02*
G37*
G36*
Y121289D02*
X412261D01*
Y106936D01*
X415385Y108889D01*
X415727Y109109D01*
X416020Y109304D01*
X416313Y109475D01*
X416581Y109670D01*
X417020Y109963D01*
X417387Y110232D01*
X417655Y110451D01*
X417826Y110598D01*
X417948Y110695D01*
X417972Y110720D01*
X418241Y110988D01*
X418485Y111281D01*
X418729Y111574D01*
X418924Y111842D01*
X419095Y112087D01*
X419217Y112282D01*
X419291Y112404D01*
X419315Y112428D01*
Y112453D01*
X419388Y112062D01*
X419461Y111721D01*
X419559Y111379D01*
X419681Y111086D01*
X419803Y110793D01*
X419925Y110524D01*
X420047Y110305D01*
X420169Y110085D01*
X420291Y109914D01*
X420413Y109743D01*
X420535Y109621D01*
X420609Y109499D01*
X420706Y109426D01*
X420755Y109353D01*
X420779Y109304D01*
X420804D01*
X421024Y109109D01*
X421268Y108938D01*
X421756Y108694D01*
X422268Y108498D01*
X422732Y108352D01*
X423147Y108279D01*
X423318Y108254D01*
X423489D01*
X423611Y108230D01*
X423709D01*
X423757D01*
X423782D01*
X424295Y108254D01*
X424783Y108328D01*
X425198Y108450D01*
X425564Y108572D01*
X425881Y108718D01*
X426101Y108816D01*
X426247Y108913D01*
X426296Y108938D01*
X426687Y109231D01*
X427004Y109524D01*
X427272Y109841D01*
X427492Y110134D01*
X427663Y110402D01*
X427785Y110622D01*
X427834Y110768D01*
X427858Y110793D01*
Y110817D01*
X427932Y111037D01*
X428005Y111306D01*
X428102Y111891D01*
X428200Y112502D01*
X428249Y113112D01*
X428273Y113380D01*
Y113893D01*
X428298Y114113D01*
Y121289D01*
D02*
G37*
G36*
Y106765D02*
X412261D01*
Y90680D01*
D01*
X428298Y97124D01*
Y100541D01*
X412261Y106765D01*
X428298D01*
D01*
D02*
G37*
G36*
Y90631D02*
X412261D01*
Y75668D01*
D01*
Y81526D01*
X418973D01*
X428298Y75668D01*
Y79378D01*
X421927Y83088D01*
X428298Y86872D01*
Y90631D01*
X418998Y84773D01*
X412261D01*
Y90631D01*
X428298D01*
D01*
D02*
G37*
%LPD*%
G36*
X425588Y230887D02*
X412261D01*
Y235598D01*
X425588D01*
Y230887D01*
D02*
G37*
G36*
Y198935D02*
X425564Y198716D01*
Y198227D01*
X425539Y198008D01*
Y197886D01*
X425515Y197812D01*
Y197788D01*
X425442Y197519D01*
X425368Y197275D01*
X425271Y197080D01*
X425149Y196909D01*
X425051Y196763D01*
X424953Y196665D01*
X424905Y196616D01*
X424880Y196592D01*
X424685Y196446D01*
X424465Y196348D01*
X424246Y196250D01*
X424050Y196201D01*
X423880Y196177D01*
X423733Y196153D01*
X423611D01*
X423587D01*
X423318Y196177D01*
X423098Y196201D01*
X422879Y196250D01*
X422708Y196324D01*
X422561Y196397D01*
X422464Y196446D01*
X422391Y196470D01*
X422366Y196494D01*
X422195Y196616D01*
X422073Y196763D01*
X421853Y197056D01*
X421805Y197202D01*
X421756Y197300D01*
X421707Y197373D01*
Y197397D01*
X421683Y197519D01*
X421634Y197690D01*
X421609Y197861D01*
X421585Y198081D01*
X421561Y198545D01*
X421536Y199033D01*
X421512Y199497D01*
Y202621D01*
X425588D01*
Y198935D01*
D02*
G37*
G36*
X418949Y201596D02*
X418924Y201254D01*
X418900Y200986D01*
X418851Y200766D01*
X418827Y200595D01*
X418778Y200473D01*
X418754Y200400D01*
Y200375D01*
X418680Y200180D01*
X418583Y200009D01*
X418363Y199692D01*
X418265Y199570D01*
X418168Y199472D01*
X418119Y199424D01*
X418094Y199399D01*
X417997Y199301D01*
X417850Y199204D01*
X417509Y198935D01*
X417142Y198642D01*
X416727Y198374D01*
X416337Y198105D01*
X416190Y197983D01*
X416020Y197886D01*
X415898Y197812D01*
X415800Y197739D01*
X415751Y197715D01*
X415727Y197690D01*
X412261Y195396D01*
Y202621D01*
X418949D01*
Y201596D01*
D02*
G37*
G36*
X425588Y182776D02*
X425564Y182557D01*
Y182068D01*
X425539Y181849D01*
Y181727D01*
X425515Y181653D01*
Y181629D01*
X425442Y181360D01*
X425368Y181116D01*
X425271Y180921D01*
X425149Y180750D01*
X425051Y180604D01*
X424953Y180506D01*
X424905Y180457D01*
X424880Y180433D01*
X424685Y180287D01*
X424465Y180189D01*
X424246Y180091D01*
X424050Y180042D01*
X423880Y180018D01*
X423733Y179994D01*
X423611D01*
X423587D01*
X423318Y180018D01*
X423098Y180042D01*
X422879Y180091D01*
X422708Y180165D01*
X422561Y180238D01*
X422464Y180287D01*
X422391Y180311D01*
X422366Y180335D01*
X422195Y180457D01*
X422073Y180604D01*
X421853Y180897D01*
X421805Y181043D01*
X421756Y181141D01*
X421707Y181214D01*
Y181238D01*
X421683Y181360D01*
X421634Y181531D01*
X421609Y181702D01*
X421585Y181922D01*
X421561Y182386D01*
X421536Y182874D01*
X421512Y183338D01*
Y186462D01*
X425588D01*
Y182776D01*
D02*
G37*
G36*
X424563Y167276D02*
X418607Y165031D01*
Y169449D01*
X424563Y167276D01*
D02*
G37*
G36*
X415898Y170450D02*
Y163981D01*
X412261Y162614D01*
Y171768D01*
X415898Y170450D01*
D02*
G37*
G36*
X416972Y151947D02*
X416508Y151850D01*
X416068Y151728D01*
X415678Y151606D01*
X415312Y151435D01*
X414970Y151288D01*
X414677Y151117D01*
X414384Y150946D01*
X414165Y150775D01*
X413945Y150629D01*
X413774Y150483D01*
X413628Y150361D01*
X413506Y150239D01*
X413432Y150165D01*
X413383Y150117D01*
X413359Y150092D01*
X413115Y149775D01*
X412895Y149409D01*
X412724Y149043D01*
X412553Y148676D01*
X412431Y148286D01*
X412309Y147895D01*
X412139Y147139D01*
X412090Y146772D01*
X412041Y146455D01*
X412016Y146162D01*
X411992Y145918D01*
X411968Y145698D01*
Y152020D01*
X417460D01*
X416972Y151947D01*
D02*
G37*
G36*
X425588Y130565D02*
X425564Y130345D01*
X425539Y129930D01*
Y129613D01*
X425515Y129393D01*
X425490Y129247D01*
X425466Y129149D01*
Y129124D01*
X425393Y128832D01*
X425295Y128587D01*
X425173Y128343D01*
X425051Y128172D01*
X424929Y128002D01*
X424832Y127904D01*
X424758Y127831D01*
X424734Y127806D01*
X424514Y127635D01*
X424270Y127513D01*
X424026Y127416D01*
X423806Y127367D01*
X423611Y127318D01*
X423440Y127294D01*
X423343D01*
X423294D01*
X423050Y127318D01*
X422805Y127343D01*
X422586Y127416D01*
X422415Y127465D01*
X422268Y127538D01*
X422146Y127611D01*
X422073Y127635D01*
X422049Y127660D01*
X421853Y127806D01*
X421707Y127977D01*
X421561Y128148D01*
X421463Y128319D01*
X421365Y128465D01*
X421316Y128587D01*
X421292Y128661D01*
X421268Y128685D01*
X421219Y128807D01*
X421194Y128978D01*
X421121Y129344D01*
X421072Y129759D01*
X421048Y130198D01*
Y130589D01*
X421024Y130760D01*
Y132981D01*
X425588D01*
Y130565D01*
D02*
G37*
G36*
Y114357D02*
X425564Y114137D01*
Y113649D01*
X425539Y113429D01*
Y113307D01*
X425515Y113234D01*
Y113209D01*
X425442Y112941D01*
X425368Y112697D01*
X425271Y112502D01*
X425149Y112331D01*
X425051Y112184D01*
X424953Y112087D01*
X424905Y112038D01*
X424880Y112013D01*
X424685Y111867D01*
X424465Y111769D01*
X424246Y111672D01*
X424050Y111623D01*
X423880Y111599D01*
X423733Y111574D01*
X423611D01*
X423587D01*
X423318Y111599D01*
X423098Y111623D01*
X422879Y111672D01*
X422708Y111745D01*
X422561Y111818D01*
X422464Y111867D01*
X422391Y111891D01*
X422366Y111916D01*
X422195Y112038D01*
X422073Y112184D01*
X421853Y112477D01*
X421805Y112624D01*
X421756Y112721D01*
X421707Y112795D01*
Y112819D01*
X421683Y112941D01*
X421634Y113112D01*
X421609Y113283D01*
X421585Y113502D01*
X421561Y113966D01*
X421536Y114454D01*
X421512Y114918D01*
Y118042D01*
X425588D01*
Y114357D01*
D02*
G37*
G36*
X418949Y117017D02*
X418924Y116676D01*
X418900Y116407D01*
X418851Y116187D01*
X418827Y116017D01*
X418778Y115894D01*
X418754Y115821D01*
Y115797D01*
X418680Y115602D01*
X418583Y115431D01*
X418363Y115113D01*
X418265Y114991D01*
X418168Y114894D01*
X418119Y114845D01*
X418094Y114820D01*
X417997Y114723D01*
X417850Y114625D01*
X417509Y114357D01*
X417142Y114064D01*
X416727Y113795D01*
X416337Y113527D01*
X416190Y113405D01*
X416020Y113307D01*
X415898Y113234D01*
X415800Y113161D01*
X415751Y113136D01*
X415727Y113112D01*
X412261Y110817D01*
Y118042D01*
X418949D01*
Y117017D01*
D02*
G37*
G36*
X424563Y98857D02*
X418607Y96611D01*
Y101029D01*
X424563Y98857D01*
D02*
G37*
G36*
X415898Y102030D02*
Y95562D01*
X412261Y94195D01*
Y103348D01*
X415898Y102030D01*
D02*
G37*
%LPC*%
G36*
X290797Y129293D02*
X289149D01*
Y127409D01*
X290723D01*
X290933Y127421D01*
X291293D01*
X291367Y127433D01*
X291442D01*
X291491Y127446D01*
X291566Y127458D01*
X291652Y127483D01*
X291764Y127520D01*
X291875Y127570D01*
X291975Y127644D01*
X292074Y127718D01*
X292086Y127731D01*
X292111Y127768D01*
X292148Y127817D01*
X292198Y127892D01*
X292247Y127991D01*
X292285Y128090D01*
X292309Y128227D01*
X292322Y128363D01*
Y128375D01*
Y128425D01*
X292309Y128499D01*
X292297Y128574D01*
X292272Y128673D01*
X292235Y128772D01*
X292185Y128871D01*
X292111Y128970D01*
X292099Y128983D01*
X292074Y129008D01*
X292024Y129045D01*
X291950Y129094D01*
X291863Y129144D01*
X291764Y129193D01*
X291640Y129231D01*
X291491Y129255D01*
X291479D01*
X291429Y129268D01*
X291293D01*
X291219Y129280D01*
X290921D01*
X290797Y129293D01*
D02*
G37*
G36*
X290847Y126057D02*
X289149D01*
Y123876D01*
X290958D01*
X291132Y123888D01*
X291330D01*
X291516Y123901D01*
X291677Y123913D01*
X291739D01*
X291789Y123926D01*
X291801D01*
X291851Y123938D01*
X291913Y123963D01*
X291999Y123987D01*
X292086Y124037D01*
X292198Y124087D01*
X292297Y124161D01*
X292384Y124248D01*
X292396Y124260D01*
X292421Y124297D01*
X292458Y124359D01*
X292508Y124434D01*
X292545Y124533D01*
X292582Y124657D01*
X292607Y124793D01*
X292619Y124942D01*
Y124954D01*
Y125004D01*
X292607Y125066D01*
X292594Y125153D01*
X292570Y125252D01*
X292545Y125351D01*
X292495Y125463D01*
X292433Y125562D01*
X292421Y125574D01*
X292396Y125599D01*
X292359Y125648D01*
X292309Y125710D01*
X292235Y125772D01*
X292148Y125834D01*
X292049Y125884D01*
X291925Y125934D01*
X291913D01*
X291851Y125958D01*
X291764Y125971D01*
X291690Y125983D01*
X291615Y125996D01*
X291528Y126008D01*
X291417Y126020D01*
X291305Y126033D01*
X291169D01*
X291020Y126045D01*
X290847Y126057D01*
D02*
G37*
G36*
X305299Y127247D02*
X305275D01*
X305200Y127235D01*
X305089Y127223D01*
X304940Y127185D01*
X304779Y127136D01*
X304618Y127049D01*
X304444Y126938D01*
X304283Y126776D01*
X304271Y126752D01*
X304221Y126690D01*
X304159Y126578D01*
X304085Y126429D01*
X303998Y126243D01*
X303936Y126008D01*
X303887Y125748D01*
X303874Y125438D01*
Y125425D01*
Y125400D01*
Y125351D01*
X303887Y125289D01*
Y125215D01*
X303899Y125140D01*
X303924Y124942D01*
X303973Y124719D01*
X304048Y124496D01*
X304147Y124285D01*
X304283Y124087D01*
X304308Y124062D01*
X304357Y124012D01*
X304444Y123938D01*
X304568Y123863D01*
X304717Y123777D01*
X304890Y123702D01*
X305076Y123653D01*
X305299Y123628D01*
X305324D01*
X305399Y123640D01*
X305510Y123653D01*
X305659Y123690D01*
X305820Y123740D01*
X305981Y123826D01*
X306155Y123938D01*
X306316Y124087D01*
X306328Y124111D01*
X306378Y124173D01*
X306452Y124285D01*
X306527Y124434D01*
X306601Y124620D01*
X306675Y124855D01*
X306725Y125128D01*
X306737Y125438D01*
Y125450D01*
Y125475D01*
Y125524D01*
Y125586D01*
X306725Y125648D01*
X306713Y125735D01*
X306688Y125934D01*
X306638Y126144D01*
X306564Y126367D01*
X306452Y126578D01*
X306316Y126776D01*
X306304Y126801D01*
X306242Y126851D01*
X306155Y126925D01*
X306031Y127012D01*
X305895Y127099D01*
X305721Y127173D01*
X305523Y127223D01*
X305299Y127247D01*
D02*
G37*
G36*
X298358D02*
X298333D01*
X298259Y127235D01*
X298148Y127223D01*
X297999Y127185D01*
X297838Y127136D01*
X297677Y127049D01*
X297503Y126938D01*
X297342Y126776D01*
X297329Y126752D01*
X297280Y126690D01*
X297218Y126578D01*
X297143Y126429D01*
X297057Y126243D01*
X296995Y126008D01*
X296945Y125748D01*
X296933Y125438D01*
Y125425D01*
Y125400D01*
Y125351D01*
X296945Y125289D01*
Y125215D01*
X296957Y125140D01*
X296982Y124942D01*
X297032Y124719D01*
X297106Y124496D01*
X297206Y124285D01*
X297342Y124087D01*
X297367Y124062D01*
X297416Y124012D01*
X297503Y123938D01*
X297627Y123863D01*
X297776Y123777D01*
X297949Y123702D01*
X298135Y123653D01*
X298358Y123628D01*
X298383D01*
X298457Y123640D01*
X298569Y123653D01*
X298718Y123690D01*
X298879Y123740D01*
X299040Y123826D01*
X299214Y123938D01*
X299375Y124087D01*
X299387Y124111D01*
X299437Y124173D01*
X299511Y124285D01*
X299585Y124434D01*
X299660Y124620D01*
X299734Y124855D01*
X299784Y125128D01*
X299796Y125438D01*
Y125450D01*
Y125475D01*
Y125524D01*
Y125586D01*
X299784Y125648D01*
X299771Y125735D01*
X299746Y125934D01*
X299697Y126144D01*
X299622Y126367D01*
X299511Y126578D01*
X299375Y126776D01*
X299362Y126801D01*
X299300Y126851D01*
X299214Y126925D01*
X299090Y127012D01*
X298953Y127099D01*
X298780Y127173D01*
X298581Y127223D01*
X298358Y127247D01*
D02*
G37*
%LPD*%
D10*
X217930Y83820D02*
G03*
X217930Y83820I-7620J0D01*
G01*
X192530Y68579D02*
Y69008D01*
Y68579D02*
X228090D01*
X192530Y82631D02*
Y85008D01*
X228090Y98631D02*
Y99059D01*
X192530D02*
X228090D01*
X192530Y98631D02*
Y99059D01*
X228090Y82631D02*
Y85008D01*
Y68579D02*
Y69008D01*
X21040Y11290D02*
X29504D01*
X45790Y13022D02*
X54254D01*
X50022Y17254D02*
Y8790D01*
X121040Y42772D02*
X129504D01*
X125272Y47004D02*
Y38540D01*
X96290Y41040D02*
X104754D01*
X81790Y80986D02*
Y68290D01*
Y72522D01*
X90254Y80986D01*
X83906Y74638D01*
X90254Y68290D01*
X264540Y211290D02*
Y213829D01*
X267079D01*
Y211290D01*
X264540D01*
D11*
X269892Y212906D02*
G03*
X269892Y212906I-1000J0D01*
G01*
X223934Y218748D02*
X264066D01*
X223934Y187252D02*
Y218748D01*
Y187252D02*
X264066D01*
Y218748D01*
X281189Y300083D02*
X301189D01*
Y290083D02*
Y300083D01*
X281189Y290083D02*
X301189D01*
X281189D02*
Y300083D01*
X290000Y259749D02*
X308500D01*
Y249749D02*
Y259749D01*
X290000Y249749D02*
X308500D01*
X290000D02*
Y259749D01*
X277751Y239749D02*
Y259749D01*
X287751D01*
Y239749D02*
Y259749D01*
X277751Y239749D02*
X287751D01*
X310751D02*
Y259749D01*
X320751D01*
Y239749D02*
Y259749D01*
X310751Y239749D02*
X320751D01*
X281189Y275191D02*
X301189D01*
Y265191D02*
Y275191D01*
X281189Y265191D02*
X301189D01*
X281189D02*
Y275191D01*
Y287639D02*
X299689D01*
Y277639D02*
Y287639D01*
X281189Y277639D02*
X299689D01*
X281189D02*
Y287639D01*
X210249Y336749D02*
X230249D01*
Y326749D02*
Y336749D01*
X210249Y326749D02*
X230249D01*
X210249D02*
Y336749D01*
X220250Y326750D02*
X240250D01*
X220250Y314750D02*
Y326750D01*
Y314750D02*
X240250D01*
Y326750D01*
X230251Y326751D02*
X250251D01*
X230251D02*
Y336751D01*
X250251D01*
Y326751D02*
Y336751D01*
X187750Y325500D02*
X207750D01*
Y337500D01*
X187750D02*
X207750D01*
X187750Y325500D02*
Y337500D01*
X169001Y294001D02*
X189001D01*
X169001D02*
Y304001D01*
X189001D01*
Y294001D02*
Y304001D01*
X95500Y143250D02*
X107500D01*
Y123250D02*
Y143250D01*
X95500Y123250D02*
X107500D01*
X95500D02*
Y143250D01*
X110006D02*
X122006D01*
Y123250D02*
Y143250D01*
X110006Y123250D02*
X122006D01*
X110006D02*
Y143250D01*
X124511Y123250D02*
X136511D01*
X124511D02*
Y143250D01*
X136511D01*
Y123250D02*
Y143250D01*
X170750Y93500D02*
X182750D01*
Y73500D02*
Y93500D01*
X170750Y73500D02*
X182750D01*
X170750D02*
Y93500D01*
X269257Y230993D02*
X279257D01*
X269257Y210993D02*
Y230993D01*
Y210993D02*
X279257D01*
Y230993D01*
X281189Y302529D02*
Y312529D01*
Y302529D02*
X301189D01*
Y312529D01*
X281189D02*
X301189D01*
X281189Y327712D02*
X306973D01*
Y315050D02*
Y327712D01*
X281189Y315050D02*
X306973D01*
X281189D02*
Y327712D01*
X264251Y220751D02*
Y230751D01*
X244251D02*
X264251D01*
X244251Y220751D02*
Y230751D01*
Y220751D02*
X264251D01*
X16681Y100558D02*
Y106558D01*
X38681Y100558D02*
Y106558D01*
X16681Y100558D02*
X38681D01*
X16681Y106558D02*
X38681D01*
X139017Y143250D02*
X149017D01*
X139017Y123250D02*
Y143250D01*
Y123250D02*
X149017D01*
Y143250D01*
X224249Y220749D02*
Y230749D01*
Y220749D02*
X244249D01*
Y230749D01*
X224249D02*
X244249D01*
X274653Y163163D02*
X284653D01*
X274653Y143163D02*
Y163163D01*
Y143163D02*
X284653D01*
Y163163D01*
X41630Y89809D02*
Y117431D01*
X55958D01*
Y89809D02*
Y117431D01*
X41630Y89809D02*
X55958D01*
X58201Y89569D02*
Y117191D01*
X72529D01*
Y89569D02*
Y117191D01*
X58201Y89569D02*
X72529D01*
D12*
X244750Y352500D02*
G03*
X244750Y352500I-16000J0D01*
G01*
X67380Y60030D02*
G03*
X67380Y60030I-500J0D01*
G01*
X186180Y68580D02*
X234440D01*
X186180D02*
Y99060D01*
X234440D01*
Y68580D02*
Y99060D01*
D13*
X277717Y249669D02*
G03*
X277717Y249669I-1782J0D01*
G01*
D14*
X15431Y94358D02*
G03*
X15431Y94358I-1250J0D01*
G01*
D15*
X268676Y241600D02*
Y248255D01*
X262097Y241600D02*
X268676D01*
X268686Y304897D02*
Y311612D01*
X262067D02*
X268686D01*
X198692Y311610D02*
X205410D01*
X198692Y304881D02*
Y311610D01*
X198648Y241618D02*
X205415D01*
X198648D02*
Y248209D01*
D16*
X238506Y122936D02*
Y184150D01*
X182118Y122936D02*
Y184150D01*
X238506D01*
X182118Y122936D02*
X238506D01*
X210312Y178416D02*
X230312D01*
X190312D02*
X210312D01*
Y128416D02*
X230312D01*
X190312D02*
X210312D01*
Y168416D02*
Y178416D01*
Y128416D02*
Y138416D01*
X197812Y145916D02*
X210312Y168416D01*
X218270Y39694D02*
X222502D01*
X220386Y41810D02*
Y37578D01*
X224618Y41810D02*
X225676Y42868D01*
X227792D01*
X228850Y41810D01*
Y40752D01*
X227792Y39694D01*
X226734D01*
X227792D01*
X228850Y38636D01*
Y37578D01*
X227792Y36520D01*
X225676D01*
X224618Y37578D01*
X230966Y36520D02*
Y37578D01*
X232024D01*
Y36520D01*
X230966D01*
X236256Y41810D02*
X237314Y42868D01*
X239430D01*
X240488Y41810D01*
Y40752D01*
X239430Y39694D01*
X238372D01*
X239430D01*
X240488Y38636D01*
Y37578D01*
X239430Y36520D01*
X237314D01*
X236256Y37578D01*
X242604Y42868D02*
Y38636D01*
X244720Y36520D01*
X246836Y38636D01*
Y42868D01*
X329020Y35770D02*
Y42118D01*
X332194D01*
X333252Y41060D01*
Y38944D01*
X332194Y37886D01*
X329020D01*
X331136D02*
X333252Y35770D01*
X339600Y41060D02*
X338542Y42118D01*
X336426D01*
X335368Y41060D01*
Y40002D01*
X336426Y38944D01*
X338542D01*
X339600Y37886D01*
Y36828D01*
X338542Y35770D01*
X336426D01*
X335368Y36828D01*
X341716Y42118D02*
X345948D01*
X343832D01*
Y35770D01*
X360252Y40810D02*
X359194Y41868D01*
X357078D01*
X356020Y40810D01*
Y36578D01*
X357078Y35520D01*
X359194D01*
X360252Y36578D01*
Y38694D01*
X358136D01*
X362368Y35520D02*
Y41868D01*
X366600Y35520D01*
Y41868D01*
X368716D02*
Y35520D01*
X371890D01*
X372948Y36578D01*
Y40810D01*
X371890Y41868D01*
X368716D01*
X299520Y42368D02*
Y36020D01*
X302694D01*
X303752Y37078D01*
Y38136D01*
X302694Y39194D01*
X299520D01*
X302694D01*
X303752Y40252D01*
Y41310D01*
X302694Y42368D01*
X299520D01*
X309042D02*
X306926D01*
X305868Y41310D01*
Y37078D01*
X306926Y36020D01*
X309042D01*
X310100Y37078D01*
Y41310D01*
X309042Y42368D01*
X315390D02*
X313274D01*
X312216Y41310D01*
Y37078D01*
X313274Y36020D01*
X315390D01*
X316448Y37078D01*
Y41310D01*
X315390Y42368D01*
X318564D02*
X322796D01*
X320680D01*
Y36020D01*
X280270D02*
Y42368D01*
X283444D01*
X284502Y41310D01*
Y39194D01*
X283444Y38136D01*
X280270D01*
X282386D02*
X284502Y36020D01*
X286618Y42368D02*
X290850Y36020D01*
Y42368D02*
X286618Y36020D01*
X254020Y42618D02*
X258252D01*
X256136D01*
Y36270D01*
X260368Y42618D02*
X264600Y36270D01*
Y42618D02*
X260368Y36270D01*
X149565Y329076D02*
Y335424D01*
X152739D01*
X153797Y334366D01*
Y332250D01*
X152739Y331192D01*
X149565D01*
X151681D02*
X153797Y329076D01*
X155913D02*
X158029D01*
X156971D01*
Y335424D01*
X155913Y334366D01*
X161203D02*
X162261Y335424D01*
X164377D01*
X165435Y334366D01*
Y330134D01*
X164377Y329076D01*
X162261D01*
X161203Y330134D01*
Y334366D01*
X247065Y317326D02*
Y323674D01*
X250239D01*
X251297Y322616D01*
Y320500D01*
X250239Y319442D01*
X247065D01*
X249181D02*
X251297Y317326D01*
X253413D02*
X255529D01*
X254471D01*
Y323674D01*
X253413Y322616D01*
X258703D02*
X259761Y323674D01*
X261877D01*
X262935Y322616D01*
Y321558D01*
X261877Y320500D01*
X260819D01*
X261877D01*
X262935Y319442D01*
Y318384D01*
X261877Y317326D01*
X259761D01*
X258703Y318384D01*
X340326Y316732D02*
X344558D01*
X346674Y314616D01*
X344558Y312500D01*
X340326D01*
X343500D01*
Y316732D01*
X340326Y310384D02*
Y308268D01*
Y309326D01*
X346674D01*
X345616Y310384D01*
X273174Y195982D02*
X266826Y191750D01*
X273174D02*
X266826Y195982D01*
Y189634D02*
Y187518D01*
Y188576D01*
X273174D01*
X272116Y189634D01*
X294460Y244424D02*
Y238076D01*
X298692D01*
X300808Y243366D02*
X301866Y244424D01*
X303982D01*
X305040Y243366D01*
Y242308D01*
X303982Y241250D01*
X302924D01*
X303982D01*
X305040Y240192D01*
Y239134D01*
X303982Y238076D01*
X301866D01*
X300808Y239134D01*
X302460Y286174D02*
Y279826D01*
X306692D01*
X313040D02*
X308808D01*
X313040Y284058D01*
Y285116D01*
X311982Y286174D01*
X309866D01*
X308808Y285116D01*
X171768Y334616D02*
X170710Y335674D01*
X168594D01*
X167536Y334616D01*
Y330384D01*
X168594Y329326D01*
X170710D01*
X171768Y330384D01*
X178116Y329326D02*
X173884D01*
X178116Y333558D01*
Y334616D01*
X177058Y335674D01*
X174942D01*
X173884Y334616D01*
X180232D02*
X181290Y335674D01*
X183406D01*
X184464Y334616D01*
Y333558D01*
X183406Y332500D01*
X182348D01*
X183406D01*
X184464Y331442D01*
Y330384D01*
X183406Y329326D01*
X181290D01*
X180232Y330384D01*
X256768Y333366D02*
X255710Y334424D01*
X253594D01*
X252536Y333366D01*
Y329134D01*
X253594Y328076D01*
X255710D01*
X256768Y329134D01*
X263116Y328076D02*
X258884D01*
X263116Y332308D01*
Y333366D01*
X262058Y334424D01*
X259942D01*
X258884Y333366D01*
X269464Y328076D02*
X265232D01*
X269464Y332308D01*
Y333366D01*
X268406Y334424D01*
X266290D01*
X265232Y333366D01*
X155047Y303366D02*
X153989Y304424D01*
X151873D01*
X150815Y303366D01*
Y299134D01*
X151873Y298076D01*
X153989D01*
X155047Y299134D01*
X157163Y298076D02*
X159279D01*
X158221D01*
Y304424D01*
X157163Y303366D01*
X162453Y304424D02*
X166685D01*
Y303366D01*
X162453Y299134D01*
Y298076D01*
X282047Y236366D02*
X280989Y237424D01*
X278873D01*
X277815Y236366D01*
Y232134D01*
X278873Y231076D01*
X280989D01*
X282047Y232134D01*
X284163Y231076D02*
X286279D01*
X285221D01*
Y237424D01*
X284163Y236366D01*
X289453D02*
X290511Y237424D01*
X292627D01*
X293685Y236366D01*
Y235308D01*
X292627Y234250D01*
X291569D01*
X292627D01*
X293685Y233192D01*
Y232134D01*
X292627Y231076D01*
X290511D01*
X289453Y232134D01*
X315866Y232203D02*
X316924Y233261D01*
Y235377D01*
X315866Y236435D01*
X311634D01*
X310576Y235377D01*
Y233261D01*
X311634Y232203D01*
X310576Y230087D02*
Y227971D01*
Y229029D01*
X316924D01*
X315866Y230087D01*
X310576Y220565D02*
Y224797D01*
X314808Y220565D01*
X315866D01*
X316924Y221623D01*
Y223739D01*
X315866Y224797D01*
X308192Y272366D02*
X307134Y273424D01*
X305018D01*
X303960Y272366D01*
Y268134D01*
X305018Y267076D01*
X307134D01*
X308192Y268134D01*
X310308D02*
X311366Y267076D01*
X313482D01*
X314540Y268134D01*
Y272366D01*
X313482Y273424D01*
X311366D01*
X310308Y272366D01*
Y271308D01*
X311366Y270250D01*
X314540D01*
X307442Y298116D02*
X306384Y299174D01*
X304268D01*
X303210Y298116D01*
Y293884D01*
X304268Y292826D01*
X306384D01*
X307442Y293884D01*
X309558Y298116D02*
X310616Y299174D01*
X312732D01*
X313790Y298116D01*
Y297058D01*
X312732Y296000D01*
X313790Y294942D01*
Y293884D01*
X312732Y292826D01*
X310616D01*
X309558Y293884D01*
Y294942D01*
X310616Y296000D01*
X309558Y297058D01*
Y298116D01*
X310616Y296000D02*
X312732D01*
X201250Y366098D02*
Y365040D01*
X203366Y362924D01*
X205482Y365040D01*
Y366098D01*
X203366Y362924D02*
Y359750D01*
X211830D02*
X207598D01*
X211830Y363982D01*
Y365040D01*
X210772Y366098D01*
X208656D01*
X207598Y365040D01*
X178290Y158018D02*
X179348Y159076D01*
Y161192D01*
X178290Y162250D01*
X177232D01*
X176174Y161192D01*
Y159076D01*
X175116Y158018D01*
X174058D01*
X173000Y159076D01*
Y161192D01*
X174058Y162250D01*
X178290Y155902D02*
X179348Y154844D01*
Y152728D01*
X178290Y151670D01*
X177232D01*
X176174Y152728D01*
Y153786D01*
Y152728D01*
X175116Y151670D01*
X174058D01*
X173000Y152728D01*
Y154844D01*
X174058Y155902D01*
X128250Y119750D02*
X134598D01*
Y116576D01*
X133540Y115518D01*
X131424D01*
X130366Y116576D01*
Y119750D01*
Y117634D02*
X128250Y115518D01*
X134598Y113402D02*
Y109170D01*
X133540D01*
X129308Y113402D01*
X128250D01*
X307732Y310040D02*
X306674Y311098D01*
X304558D01*
X303500Y310040D01*
Y305808D01*
X304558Y304750D01*
X306674D01*
X307732Y305808D01*
X309848Y311098D02*
X314080D01*
Y310040D01*
X309848Y305808D01*
Y304750D01*
X313732Y321290D02*
X312674Y322348D01*
X310558D01*
X309500Y321290D01*
Y317058D01*
X310558Y316000D01*
X312674D01*
X313732Y317058D01*
X320080Y322348D02*
X317964Y321290D01*
X315848Y319174D01*
Y317058D01*
X316906Y316000D01*
X319022D01*
X320080Y317058D01*
Y318116D01*
X319022Y319174D01*
X315848D01*
X215732Y227790D02*
X214674Y228848D01*
X212558D01*
X211500Y227790D01*
Y223558D01*
X212558Y222500D01*
X214674D01*
X215732Y223558D01*
X222080Y228848D02*
X217848D01*
Y225674D01*
X219964Y226732D01*
X221022D01*
X222080Y225674D01*
Y223558D01*
X221022Y222500D01*
X218906D01*
X217848Y223558D01*
X146790Y115768D02*
X147848Y116826D01*
Y118942D01*
X146790Y120000D01*
X142558D01*
X141500Y118942D01*
Y116826D01*
X142558Y115768D01*
X141500Y113652D02*
Y111536D01*
Y112594D01*
X147848D01*
X146790Y113652D01*
X147848Y104130D02*
X146790Y106246D01*
X144674Y108362D01*
X142558D01*
X141500Y107304D01*
Y105188D01*
X142558Y104130D01*
X143616D01*
X144674Y105188D01*
Y108362D01*
X192750Y319848D02*
Y314558D01*
X193808Y313500D01*
X195924D01*
X196982Y314558D01*
Y319848D01*
X203330Y313500D02*
X199098D01*
X203330Y317732D01*
Y318790D01*
X202272Y319848D01*
X200156D01*
X199098Y318790D01*
X98500Y120250D02*
X104848D01*
Y117076D01*
X103790Y116018D01*
X101674D01*
X100616Y117076D01*
Y120250D01*
Y118134D02*
X98500Y116018D01*
X99558Y113902D02*
X98500Y112844D01*
Y110728D01*
X99558Y109670D01*
X103790D01*
X104848Y110728D01*
Y112844D01*
X103790Y113902D01*
X102732D01*
X101674Y112844D01*
Y109670D01*
X112250Y119500D02*
X118598D01*
Y116326D01*
X117540Y115268D01*
X115424D01*
X114366Y116326D01*
Y119500D01*
Y117384D02*
X112250Y115268D01*
X117540Y113152D02*
X118598Y112094D01*
Y109978D01*
X117540Y108920D01*
X116482D01*
X115424Y109978D01*
X114366Y108920D01*
X113308D01*
X112250Y109978D01*
Y112094D01*
X113308Y113152D01*
X114366D01*
X115424Y112094D01*
X116482Y113152D01*
X117540D01*
X115424Y112094D02*
Y109978D01*
X171750Y61000D02*
Y67348D01*
X174924D01*
X175982Y66290D01*
Y64174D01*
X174924Y63116D01*
X171750D01*
X173866D02*
X175982Y61000D01*
X182330Y67348D02*
X178098D01*
Y64174D01*
X180214Y65232D01*
X181272D01*
X182330Y64174D01*
Y62058D01*
X181272Y61000D01*
X179156D01*
X178098Y62058D01*
X60250Y119750D02*
Y126098D01*
X63424D01*
X64482Y125040D01*
Y122924D01*
X63424Y121866D01*
X60250D01*
X62366D02*
X64482Y119750D01*
X69772D02*
Y126098D01*
X66598Y122924D01*
X70830D01*
X43000Y120250D02*
Y126598D01*
X46174D01*
X47232Y125540D01*
Y123424D01*
X46174Y122366D01*
X43000D01*
X45116D02*
X47232Y120250D01*
X49348Y125540D02*
X50406Y126598D01*
X52522D01*
X53580Y125540D01*
Y124482D01*
X52522Y123424D01*
X51464D01*
X52522D01*
X53580Y122366D01*
Y121308D01*
X52522Y120250D01*
X50406D01*
X49348Y121308D01*
X12942Y104982D02*
X8710D01*
X7652Y103924D01*
Y101808D01*
X8710Y100750D01*
X12942D01*
X14000Y101808D01*
Y103924D01*
X11884Y102866D02*
X14000Y104982D01*
Y103924D02*
X12942Y104982D01*
X14000Y107098D02*
Y109214D01*
Y108156D01*
X7652D01*
X8710Y107098D01*
X7250Y79598D02*
Y73250D01*
X10424D01*
X11482Y74308D01*
Y78540D01*
X10424Y79598D01*
X7250D01*
X13598Y73250D02*
X15714D01*
X14656D01*
Y79598D01*
X13598Y78540D01*
X281290Y175268D02*
X282348Y176326D01*
Y178442D01*
X281290Y179500D01*
X277058D01*
X276000Y178442D01*
Y176326D01*
X277058Y175268D01*
X276000Y173152D02*
Y171036D01*
Y172094D01*
X282348D01*
X281290Y173152D01*
X276000Y167862D02*
Y165746D01*
Y166804D01*
X282348D01*
X281290Y167862D01*
X260982Y237290D02*
X259924Y238348D01*
X257808D01*
X256750Y237290D01*
Y233058D01*
X257808Y232000D01*
X259924D01*
X260982Y233058D01*
X266272Y232000D02*
Y238348D01*
X263098Y235174D01*
X267330D01*
X287040Y221518D02*
X288098Y222576D01*
Y224692D01*
X287040Y225750D01*
X282808D01*
X281750Y224692D01*
Y222576D01*
X282808Y221518D01*
X281750Y219402D02*
Y217286D01*
Y218344D01*
X288098D01*
X287040Y219402D01*
Y214112D02*
X288098Y213054D01*
Y210938D01*
X287040Y209880D01*
X282808D01*
X281750Y210938D01*
Y213054D01*
X282808Y214112D01*
X287040D01*
X227982Y65540D02*
X226924Y66598D01*
X224808D01*
X223750Y65540D01*
Y64482D01*
X224808Y63424D01*
X226924D01*
X227982Y62366D01*
Y61308D01*
X226924Y60250D01*
X224808D01*
X223750Y61308D01*
X234330Y60250D02*
X230098D01*
X234330Y64482D01*
Y65540D01*
X233272Y66598D01*
X231156D01*
X230098Y65540D01*
D17*
X71325Y62570D02*
Y85430D01*
X68150D02*
X71325D01*
X68150D02*
X74500D01*
Y62570D02*
Y85430D01*
X68150Y62570D02*
X74500D01*
X68150D02*
Y85430D01*
X17350D02*
X68150D01*
X17350Y62570D02*
Y85430D01*
Y62570D02*
X68150D01*
M02*
