G04*
G04 #@! TF.GenerationSoftware,Altium Limited,Altium Designer,20.2.6 (244)*
G04*
G04 Layer_Physical_Order=1*
G04 Layer_Color=255*
%FSLAX44Y44*%
%MOMM*%
G71*
G04*
G04 #@! TF.SameCoordinates,7CDA323B-E038-41B1-B74F-359B52FF9F59*
G04*
G04*
G04 #@! TF.FilePolarity,Positive*
G04*
G01*
G75*
%ADD10C,0.2540*%
%ADD18R,1.1000X0.9000*%
%ADD19R,1.1500X1.0500*%
G04:AMPARAMS|DCode=20|XSize=1.4mm|YSize=1.15mm|CornerRadius=0.2875mm|HoleSize=0mm|Usage=FLASHONLY|Rotation=180.000|XOffset=0mm|YOffset=0mm|HoleType=Round|Shape=RoundedRectangle|*
%AMROUNDEDRECTD20*
21,1,1.4000,0.5750,0,0,180.0*
21,1,0.8250,1.1500,0,0,180.0*
1,1,0.5750,-0.4125,0.2875*
1,1,0.5750,0.4125,0.2875*
1,1,0.5750,0.4125,-0.2875*
1,1,0.5750,-0.4125,-0.2875*
%
%ADD20ROUNDEDRECTD20*%
%ADD21R,1.4000X1.1500*%
%ADD22R,0.5000X0.5000*%
G04:AMPARAMS|DCode=23|XSize=0.53mm|YSize=0.55mm|CornerRadius=0.1325mm|HoleSize=0mm|Usage=FLASHONLY|Rotation=90.000|XOffset=0mm|YOffset=0mm|HoleType=Round|Shape=RoundedRectangle|*
%AMROUNDEDRECTD23*
21,1,0.5300,0.2850,0,0,90.0*
21,1,0.2650,0.5500,0,0,90.0*
1,1,0.2650,0.1425,0.1325*
1,1,0.2650,0.1425,-0.1325*
1,1,0.2650,-0.1425,-0.1325*
1,1,0.2650,-0.1425,0.1325*
%
%ADD23ROUNDEDRECTD23*%
%ADD24R,0.5000X0.5000*%
G04:AMPARAMS|DCode=25|XSize=0.5mm|YSize=0.5mm|CornerRadius=0.125mm|HoleSize=0mm|Usage=FLASHONLY|Rotation=270.000|XOffset=0mm|YOffset=0mm|HoleType=Round|Shape=RoundedRectangle|*
%AMROUNDEDRECTD25*
21,1,0.5000,0.2500,0,0,270.0*
21,1,0.2500,0.5000,0,0,270.0*
1,1,0.2500,-0.1250,-0.1250*
1,1,0.2500,-0.1250,0.1250*
1,1,0.2500,0.1250,0.1250*
1,1,0.2500,0.1250,-0.1250*
%
%ADD25ROUNDEDRECTD25*%
%ADD26R,0.5500X0.5300*%
G04:AMPARAMS|DCode=27|XSize=0.5mm|YSize=0.5mm|CornerRadius=0.125mm|HoleSize=0mm|Usage=FLASHONLY|Rotation=180.000|XOffset=0mm|YOffset=0mm|HoleType=Round|Shape=RoundedRectangle|*
%AMROUNDEDRECTD27*
21,1,0.5000,0.2500,0,0,180.0*
21,1,0.2500,0.5000,0,0,180.0*
1,1,0.2500,-0.1250,0.1250*
1,1,0.2500,0.1250,0.1250*
1,1,0.2500,0.1250,-0.1250*
1,1,0.2500,-0.1250,-0.1250*
%
%ADD27ROUNDEDRECTD27*%
G04:AMPARAMS|DCode=28|XSize=0.5mm|YSize=0.6mm|CornerRadius=0.125mm|HoleSize=0mm|Usage=FLASHONLY|Rotation=180.000|XOffset=0mm|YOffset=0mm|HoleType=Round|Shape=RoundedRectangle|*
%AMROUNDEDRECTD28*
21,1,0.5000,0.3500,0,0,180.0*
21,1,0.2500,0.6000,0,0,180.0*
1,1,0.2500,-0.1250,0.1750*
1,1,0.2500,0.1250,0.1750*
1,1,0.2500,0.1250,-0.1750*
1,1,0.2500,-0.1250,-0.1750*
%
%ADD28ROUNDEDRECTD28*%
%ADD29R,0.5000X0.6000*%
%ADD30R,0.6000X0.5000*%
%ADD31R,0.2500X0.7000*%
%ADD32R,0.7000X0.2500*%
%ADD33R,4.6000X4.6000*%
%ADD34R,0.7620X0.7620*%
%ADD35R,2.0000X2.0000*%
%ADD36R,2.0000X1.5000*%
%ADD37R,0.3000X0.6600*%
%ADD38R,1.4000X1.9000*%
%ADD39R,0.9000X0.8100*%
%ADD70C,0.1524*%
%ADD71C,0.4000*%
%ADD72C,0.5080*%
%ADD73C,0.2934*%
%ADD74C,0.5500*%
%ADD75C,1.2000*%
%ADD76R,1.2000X1.2000*%
%ADD77C,1.5000*%
%ADD78R,1.5000X1.5000*%
%ADD79C,3.5000*%
%ADD80C,0.4570*%
%ADD81C,0.7000*%
G36*
X311750Y359500D02*
X311750Y286250D01*
X304500Y279000D01*
X292867Y279000D01*
X291912Y279955D01*
X291911Y309245D01*
X295000Y312096D01*
X295000Y360250D01*
X296750Y362000D01*
X309250D01*
X311750Y359500D01*
D02*
G37*
G36*
X322432Y257858D02*
X319400D01*
X319183Y258183D01*
X318181Y258852D01*
X317000Y259087D01*
X314500D01*
X313319Y258852D01*
X312317Y258183D01*
X312099Y257857D01*
X307405D01*
X307102Y258310D01*
X306076Y258996D01*
X304865Y259237D01*
X302015D01*
X300804Y258996D01*
X299778Y258310D01*
X298722D01*
X297696Y258996D01*
X296485Y259237D01*
X293635D01*
X292424Y258996D01*
X291398Y258310D01*
X291229Y258057D01*
X286267D01*
X286183Y258183D01*
X285181Y258852D01*
X284000Y259087D01*
X282980D01*
X282151Y261087D01*
X286001Y264937D01*
X287747D01*
X288441Y265075D01*
X289029Y265468D01*
X289475Y265914D01*
X290467D01*
Y266906D01*
X290782Y267221D01*
X291175Y267809D01*
X291313Y268503D01*
X291313Y275612D01*
X291414Y275814D01*
X291630Y276104D01*
X292154Y276563D01*
X293313Y277187D01*
X304500Y277187D01*
X305194Y277325D01*
X305782Y277718D01*
X305782Y277718D01*
X313032Y284968D01*
X313425Y285556D01*
X313563Y286250D01*
X313563Y359500D01*
X313425Y360194D01*
X313032Y360782D01*
X310532Y363282D01*
X309944Y363675D01*
X309250Y363813D01*
X296750D01*
X296056Y363675D01*
X295468Y363282D01*
X293718Y361532D01*
X293325Y360944D01*
X293187Y360250D01*
X293187Y313323D01*
X291912Y311808D01*
X291911D01*
X291124Y311021D01*
X290630Y310527D01*
X290453Y310263D01*
X290266Y310005D01*
X290257Y309970D01*
X290237Y309939D01*
X290175Y309627D01*
X290100Y309318D01*
X290106Y309281D01*
X290099Y309245D01*
X290099Y289382D01*
X289992Y289178D01*
X289562Y288668D01*
X289189Y288363D01*
X288099Y287813D01*
X284211Y287813D01*
X283517Y287675D01*
X282929Y287282D01*
X282713Y287066D01*
X281721D01*
Y287059D01*
X281282Y286679D01*
X281171Y286683D01*
X279226Y287543D01*
X279088Y288236D01*
X278246Y289496D01*
X276986Y290338D01*
X275500Y290634D01*
X274458Y290426D01*
X272881Y291289D01*
X272458Y291704D01*
Y305634D01*
X264000D01*
Y306750D01*
X262708D01*
Y315384D01*
X248946D01*
X247496Y317384D01*
X247553Y317669D01*
X247257Y319155D01*
X246415Y320415D01*
X245156Y321257D01*
X243669Y321553D01*
X242183Y321257D01*
X241587Y320859D01*
X239593Y321739D01*
X239587Y321745D01*
Y322500D01*
X239352Y323681D01*
X238683Y324683D01*
X237840Y325247D01*
Y327753D01*
X238683Y328317D01*
X239352Y329319D01*
X239587Y330500D01*
Y333000D01*
X239352Y334182D01*
X238683Y335183D01*
X237840Y335746D01*
Y350000D01*
X237868D01*
X237557Y352360D01*
X236646Y354559D01*
X235197Y356447D01*
X233309Y357896D01*
X233069Y357996D01*
X233015Y358267D01*
X232015Y359765D01*
X230517Y360765D01*
X228750Y361117D01*
X226983Y360765D01*
X225485Y359765D01*
X224485Y358267D01*
X224133Y356500D01*
X224485Y354733D01*
X225485Y353236D01*
Y351764D01*
X224485Y350267D01*
X224230Y348985D01*
X223060Y347235D01*
X222592Y344878D01*
X222660D01*
Y335747D01*
X221817Y335183D01*
X221148Y334182D01*
X220913Y333000D01*
Y330500D01*
X221148Y329319D01*
X221817Y328317D01*
X222660Y327753D01*
Y325247D01*
X221817Y324683D01*
X221148Y323681D01*
X220994Y322907D01*
X219142Y321930D01*
X216741Y324331D01*
X215901Y324893D01*
X214910Y325090D01*
X212323D01*
X207028Y330384D01*
Y336278D01*
X188472D01*
Y335771D01*
X188000Y335384D01*
X186514Y335088D01*
X185254Y334246D01*
X184412Y332986D01*
X184116Y331500D01*
X184412Y330014D01*
X185254Y328754D01*
X186514Y327912D01*
X188000Y327616D01*
X188472Y327229D01*
Y326722D01*
X203365D01*
X208577Y321510D01*
X208934Y319343D01*
X208233Y318294D01*
X207708Y318017D01*
X205980Y317718D01*
X204565Y319133D01*
X203725Y319695D01*
X202734Y319892D01*
X195403D01*
X195298Y320048D01*
X194038Y320890D01*
X192552Y321186D01*
X191066Y320890D01*
X189806Y320048D01*
X188964Y318788D01*
X188668Y317302D01*
X188964Y315816D01*
X189806Y314556D01*
X191066Y313714D01*
X192552Y313418D01*
X194038Y313714D01*
X195298Y314556D01*
X195403Y314712D01*
X201661D01*
X204652Y311721D01*
Y306750D01*
X203500D01*
Y305634D01*
X194902D01*
Y301714D01*
X188278D01*
Y303278D01*
X179722D01*
Y294722D01*
X188278D01*
Y295498D01*
X194902D01*
Y291893D01*
X194099Y291376D01*
X192902Y291076D01*
X191896Y291748D01*
X190410Y292044D01*
X188924Y291748D01*
X187664Y290906D01*
X186822Y289646D01*
X186526Y288160D01*
X186822Y286674D01*
X187664Y285414D01*
X188924Y284572D01*
X190410Y284276D01*
X191896Y284572D01*
X192902Y285244D01*
X193969Y284954D01*
X194902Y284427D01*
Y281733D01*
X193969Y281206D01*
X192902Y280916D01*
X191896Y281588D01*
X190410Y281884D01*
X188924Y281588D01*
X187664Y280746D01*
X186822Y279486D01*
X186526Y278000D01*
X186822Y276514D01*
X187664Y275254D01*
X187048Y273260D01*
X183612D01*
X182996Y275254D01*
X183838Y276514D01*
X184134Y278000D01*
X183838Y279486D01*
X182996Y280746D01*
X181736Y281588D01*
X180250Y281884D01*
X178764Y281588D01*
X177504Y280746D01*
X176662Y279486D01*
X176366Y278000D01*
X176662Y276514D01*
X177504Y275254D01*
X176888Y273260D01*
X125420D01*
X124429Y273063D01*
X123589Y272501D01*
X102419Y251331D01*
X101857Y250491D01*
X101660Y249500D01*
Y163799D01*
X101500Y161884D01*
X100014Y161588D01*
X98754Y160746D01*
X97912Y159486D01*
X97616Y158000D01*
X97912Y156514D01*
X98392Y155795D01*
Y142528D01*
X96722D01*
Y142528D01*
X96722D01*
Y134528D01*
X96722Y133972D01*
X96722Y133972D01*
X96722Y132528D01*
X96722Y132528D01*
X96722Y131972D01*
Y123972D01*
X106278D01*
X106278Y123972D01*
X108278Y124461D01*
X108753Y124366D01*
X109222Y124460D01*
X111222Y123972D01*
X111228Y123972D01*
Y123972D01*
X113222Y123972D01*
X120784D01*
Y131972D01*
X120784Y132528D01*
X120784Y132528D01*
X120784Y133972D01*
X120784Y133972D01*
X120784Y134528D01*
Y142528D01*
X120722D01*
X120722Y142528D01*
X117608D01*
Y156045D01*
X118088Y156764D01*
X118384Y158250D01*
X118088Y159736D01*
X117246Y160996D01*
X115986Y161838D01*
X115840Y161867D01*
Y244927D01*
X134929Y264016D01*
X176792D01*
X177620Y262016D01*
X129919Y214315D01*
X129357Y213475D01*
X129160Y212484D01*
Y194851D01*
X129004Y194746D01*
X128162Y193486D01*
X127866Y192000D01*
X128162Y190514D01*
X129004Y189254D01*
X130264Y188412D01*
X131750Y188116D01*
X133236Y188412D01*
X134496Y189254D01*
X135338Y190514D01*
X135634Y192000D01*
X135338Y193486D01*
X134496Y194746D01*
X134340Y194851D01*
Y211411D01*
X174915Y251986D01*
X177371Y251613D01*
X177504Y251414D01*
X178764Y250572D01*
X180250Y250276D01*
X181736Y250572D01*
X182996Y251414D01*
X183838Y252674D01*
X184134Y254160D01*
X183838Y255646D01*
X182996Y256906D01*
X183758Y258732D01*
X184442Y259528D01*
X188262D01*
X188451Y259019D01*
X188595Y257528D01*
X187664Y256906D01*
X186822Y255646D01*
X186526Y254160D01*
X186822Y252674D01*
X187664Y251414D01*
X188924Y250572D01*
X190410Y250276D01*
X191896Y250572D01*
X192902Y251244D01*
X193969Y250954D01*
X194902Y250427D01*
X194902Y248724D01*
X194458Y247338D01*
X194440Y247322D01*
X193707Y246989D01*
X192452Y247216D01*
X191896Y247588D01*
X190410Y247884D01*
X188924Y247588D01*
X187664Y246746D01*
X186822Y245486D01*
X186526Y244000D01*
X186822Y242514D01*
X187664Y241254D01*
X188924Y240412D01*
X190410Y240116D01*
X191896Y240412D01*
X193156Y241254D01*
X193998Y242514D01*
X194294Y244000D01*
X194026Y245345D01*
X194160Y246127D01*
X194678Y247248D01*
X194742Y247313D01*
X196179Y247575D01*
X197590Y246164D01*
Y174070D01*
X197787Y173079D01*
X198349Y172239D01*
X209419Y161169D01*
X210259Y160607D01*
X211250Y160410D01*
X232149D01*
X232254Y160254D01*
X233514Y159412D01*
X235000Y159116D01*
X236486Y159412D01*
X237746Y160254D01*
X238588Y161514D01*
X238884Y163000D01*
X238588Y164486D01*
X237746Y165746D01*
X236486Y166588D01*
X235000Y166884D01*
X233514Y166588D01*
X232254Y165746D01*
X232149Y165590D01*
X212323D01*
X202770Y175143D01*
Y237544D01*
X204652Y237828D01*
Y237828D01*
X206703D01*
X206782Y237790D01*
X208190Y235828D01*
X208127Y235511D01*
X208422Y234025D01*
X208750Y233535D01*
Y228750D01*
X233750D01*
Y221500D01*
X233837Y221413D01*
X239925D01*
X241160Y220177D01*
Y205573D01*
X238027Y202440D01*
X237125Y202619D01*
X228875D01*
X227059Y202258D01*
X225520Y201230D01*
X224492Y199690D01*
X224131Y197875D01*
Y192125D01*
X224492Y190310D01*
X225520Y188770D01*
X227059Y187742D01*
X228875Y187381D01*
X237125D01*
X238941Y187742D01*
X240480Y188770D01*
X241508Y190310D01*
X241869Y192125D01*
Y197875D01*
X241690Y198777D01*
X245581Y202669D01*
X246124Y203481D01*
X246161Y203516D01*
X248270Y204270D01*
X249060Y203742D01*
X250875Y203381D01*
X259125D01*
X260940Y203742D01*
X262480Y204770D01*
X263508Y206310D01*
X263869Y208125D01*
Y213875D01*
X263508Y215690D01*
X262480Y217230D01*
X260940Y218258D01*
X259125Y218619D01*
X252358D01*
Y222099D01*
X252683Y222317D01*
X253352Y223319D01*
X253587Y224500D01*
Y226418D01*
X254531Y227762D01*
X255344Y228418D01*
X267966Y228418D01*
X268719Y227665D01*
X268719Y227665D01*
X269980Y226404D01*
Y221714D01*
X278536D01*
X278785Y219817D01*
Y179127D01*
X269419Y169760D01*
X268857Y168920D01*
X268660Y167929D01*
Y114573D01*
X247427Y93340D01*
X238088D01*
Y98097D01*
X234588D01*
Y98098D01*
X219532D01*
Y93660D01*
X201088D01*
Y98098D01*
X186032D01*
Y98097D01*
X182532D01*
Y94362D01*
X181528Y92778D01*
X171972D01*
Y84778D01*
X171972Y84222D01*
X171972Y84222D01*
X171972Y82778D01*
X171972Y82778D01*
X171972Y82222D01*
Y74222D01*
X171972Y74222D01*
X172866Y73500D01*
X173162Y72014D01*
X174004Y70754D01*
X175264Y69912D01*
X176750Y69616D01*
X178236Y69912D01*
X179496Y70754D01*
X180338Y72014D01*
X180634Y73500D01*
X181226Y74222D01*
X181528D01*
Y83957D01*
X182533Y85541D01*
X186032D01*
Y84042D01*
X201088D01*
Y88480D01*
X219532D01*
Y84042D01*
X234588D01*
Y85541D01*
X238088D01*
Y88160D01*
X286149D01*
X286254Y88004D01*
X287514Y87162D01*
X289000Y86866D01*
X290486Y87162D01*
X291746Y88004D01*
X292588Y89264D01*
X292884Y90750D01*
X292588Y92236D01*
X291746Y93496D01*
X290486Y94338D01*
X289000Y94634D01*
X287514Y94338D01*
X286254Y93496D01*
X286149Y93340D01*
X257365D01*
X256600Y95188D01*
X273081Y111669D01*
X273643Y112509D01*
X273840Y113500D01*
Y142764D01*
X275376Y143884D01*
X275840Y143884D01*
X283932D01*
X283932Y143884D01*
X285932Y144429D01*
X286689Y144278D01*
X287942Y143250D01*
Y130388D01*
X296612D01*
Y36482D01*
X296849Y35293D01*
X297523Y34285D01*
X303312Y28495D01*
X302661Y26924D01*
X302342Y24502D01*
X302661Y22080D01*
X303596Y19823D01*
X305083Y17885D01*
X307021Y16398D01*
X309278Y15463D01*
X311700Y15144D01*
X314122Y15463D01*
X316379Y16398D01*
X318317Y17885D01*
X319804Y19823D01*
X320739Y22080D01*
X321058Y24502D01*
X320739Y26924D01*
X319804Y29181D01*
X318317Y31119D01*
X316379Y32606D01*
X314122Y33541D01*
X311700Y33860D01*
X309278Y33541D01*
X307707Y32890D01*
X302828Y37769D01*
Y130388D01*
X311498D01*
Y153944D01*
X287942D01*
Y153074D01*
X286689Y152046D01*
X285932Y151895D01*
X283932Y152440D01*
Y152440D01*
X275840D01*
X275376Y152440D01*
X273840Y153560D01*
Y166856D01*
X283207Y176223D01*
X283768Y177063D01*
X283965Y178054D01*
Y223462D01*
X283768Y224453D01*
X283207Y225294D01*
X280685Y227815D01*
X279845Y228377D01*
X278854Y228574D01*
X278536D01*
Y230270D01*
X273438D01*
X272381Y231327D01*
X272381Y231327D01*
X269261Y234448D01*
Y238787D01*
X274591Y244118D01*
Y251311D01*
X279326D01*
X280319Y250648D01*
X281500Y250413D01*
X284000D01*
X285181Y250648D01*
X286183Y251317D01*
X286266Y251441D01*
X291228D01*
X291398Y251186D01*
X292424Y250500D01*
X293635Y250259D01*
X296485D01*
X297696Y250500D01*
X298722Y251186D01*
X299778D01*
X300804Y250500D01*
X302015Y250259D01*
X304865D01*
X306076Y250500D01*
X307102Y251186D01*
X307406Y251641D01*
X312100D01*
X312317Y251317D01*
X313319Y250648D01*
X314500Y250413D01*
X317000D01*
X318181Y250648D01*
X319183Y251317D01*
X319400Y251642D01*
X322432D01*
Y61608D01*
X385500D01*
Y2590D01*
X2590D01*
Y387710D01*
X322432D01*
Y257858D01*
D02*
G37*
G36*
X288517Y286000D02*
X289500Y285017D01*
X289500Y268503D01*
X287747Y266750D01*
X285250D01*
X276750Y258250D01*
X263750D01*
Y263750D01*
X273250Y263750D01*
X282750Y273250D01*
X282750Y284539D01*
X284211Y286000D01*
X288517Y286000D01*
D02*
G37*
G36*
X271750Y249500D02*
Y244250D01*
X269250Y241750D01*
X266000D01*
X263750Y244000D01*
Y250500D01*
X270750D01*
X271750Y249500D01*
D02*
G37*
G36*
X384397Y344822D02*
X357397D01*
Y327361D01*
X384397D01*
Y296822D01*
X357397D01*
Y279253D01*
X384397D01*
Y227980D01*
X327857D01*
Y236786D01*
X376857D01*
Y250979D01*
X327857D01*
Y258519D01*
X376857D01*
Y271713D01*
X349857D01*
Y304361D01*
X376857D01*
Y319822D01*
X349857D01*
Y352362D01*
X376857D01*
Y366822D01*
X335125D01*
Y374362D01*
X384397D01*
Y344822D01*
D02*
G37*
%LPC*%
G36*
X125730Y371384D02*
X124244Y371088D01*
X122984Y370246D01*
X122142Y368986D01*
X121846Y367500D01*
X122142Y366014D01*
X122984Y364754D01*
X124244Y363912D01*
X125730Y363616D01*
X127216Y363912D01*
X128476Y364754D01*
X129318Y366014D01*
X129614Y367500D01*
X129318Y368986D01*
X128476Y370246D01*
X127216Y371088D01*
X125730Y371384D01*
D02*
G37*
G36*
X115570D02*
X114084Y371088D01*
X112824Y370246D01*
X111982Y368986D01*
X111686Y367500D01*
X111982Y366014D01*
X112824Y364754D01*
X114084Y363912D01*
X115570Y363616D01*
X117056Y363912D01*
X118316Y364754D01*
X119158Y366014D01*
X119454Y367500D01*
X119158Y368986D01*
X118316Y370246D01*
X117056Y371088D01*
X115570Y371384D01*
D02*
G37*
G36*
X105410D02*
X103924Y371088D01*
X102664Y370246D01*
X101822Y368986D01*
X101526Y367500D01*
X101822Y366014D01*
X102664Y364754D01*
X103924Y363912D01*
X105410Y363616D01*
X106896Y363912D01*
X108156Y364754D01*
X108998Y366014D01*
X109294Y367500D01*
X108998Y368986D01*
X108156Y370246D01*
X106896Y371088D01*
X105410Y371384D01*
D02*
G37*
G36*
X95250D02*
X93764Y371088D01*
X92504Y370246D01*
X91662Y368986D01*
X91366Y367500D01*
X91662Y366014D01*
X92504Y364754D01*
X93764Y363912D01*
X95250Y363616D01*
X96736Y363912D01*
X97996Y364754D01*
X98838Y366014D01*
X99134Y367500D01*
X98838Y368986D01*
X97996Y370246D01*
X96736Y371088D01*
X95250Y371384D01*
D02*
G37*
G36*
X85090D02*
X83604Y371088D01*
X82344Y370246D01*
X81502Y368986D01*
X81206Y367500D01*
X81502Y366014D01*
X82344Y364754D01*
X83604Y363912D01*
X85090Y363616D01*
X86576Y363912D01*
X87836Y364754D01*
X88678Y366014D01*
X88974Y367500D01*
X88678Y368986D01*
X87836Y370246D01*
X86576Y371088D01*
X85090Y371384D01*
D02*
G37*
G36*
X74930D02*
X73444Y371088D01*
X72184Y370246D01*
X71342Y368986D01*
X71046Y367500D01*
X71342Y366014D01*
X72184Y364754D01*
X73444Y363912D01*
X74930Y363616D01*
X76416Y363912D01*
X77676Y364754D01*
X78518Y366014D01*
X78814Y367500D01*
X78518Y368986D01*
X77676Y370246D01*
X76416Y371088D01*
X74930Y371384D01*
D02*
G37*
G36*
X64770D02*
X63284Y371088D01*
X62024Y370246D01*
X61182Y368986D01*
X60886Y367500D01*
X61182Y366014D01*
X62024Y364754D01*
X63284Y363912D01*
X64770Y363616D01*
X66256Y363912D01*
X67516Y364754D01*
X68358Y366014D01*
X68654Y367500D01*
X68358Y368986D01*
X67516Y370246D01*
X66256Y371088D01*
X64770Y371384D01*
D02*
G37*
G36*
X105410Y361224D02*
X103924Y360928D01*
X102664Y360086D01*
X101822Y358826D01*
X101526Y357340D01*
X101822Y355854D01*
X102664Y354594D01*
X103924Y353752D01*
X105410Y353456D01*
X106896Y353752D01*
X108156Y354594D01*
X108998Y355854D01*
X109294Y357340D01*
X108998Y358826D01*
X108156Y360086D01*
X106896Y360928D01*
X105410Y361224D01*
D02*
G37*
G36*
X95250D02*
X93764Y360928D01*
X92504Y360086D01*
X91662Y358826D01*
X91366Y357340D01*
X91662Y355854D01*
X92504Y354594D01*
X93764Y353752D01*
X95250Y353456D01*
X96736Y353752D01*
X97996Y354594D01*
X98838Y355854D01*
X99134Y357340D01*
X98838Y358826D01*
X97996Y360086D01*
X96736Y360928D01*
X95250Y361224D01*
D02*
G37*
G36*
X85090D02*
X83604Y360928D01*
X82344Y360086D01*
X81502Y358826D01*
X81206Y357340D01*
X81502Y355854D01*
X82344Y354594D01*
X83604Y353752D01*
X85090Y353456D01*
X86576Y353752D01*
X87836Y354594D01*
X88678Y355854D01*
X88974Y357340D01*
X88678Y358826D01*
X87836Y360086D01*
X86576Y360928D01*
X85090Y361224D01*
D02*
G37*
G36*
X95250Y351064D02*
X93764Y350768D01*
X92504Y349926D01*
X91662Y348666D01*
X91366Y347180D01*
X91662Y345694D01*
X92504Y344434D01*
X93764Y343592D01*
X95250Y343296D01*
X96736Y343592D01*
X97996Y344434D01*
X98838Y345694D01*
X99134Y347180D01*
X98838Y348666D01*
X97996Y349926D01*
X96736Y350768D01*
X95250Y351064D01*
D02*
G37*
G36*
X85090D02*
X83604Y350768D01*
X82344Y349926D01*
X81502Y348666D01*
X81206Y347180D01*
X81502Y345694D01*
X82344Y344434D01*
X83604Y343592D01*
X85090Y343296D01*
X86576Y343592D01*
X87836Y344434D01*
X88678Y345694D01*
X88974Y347180D01*
X88678Y348666D01*
X87836Y349926D01*
X86576Y350768D01*
X85090Y351064D01*
D02*
G37*
G36*
X29700Y364671D02*
X25921Y364299D01*
X22287Y363197D01*
X18938Y361407D01*
X16002Y358998D01*
X13593Y356062D01*
X11803Y352713D01*
X10701Y349079D01*
X10329Y345300D01*
X10701Y341521D01*
X11803Y337887D01*
X13593Y334538D01*
X16002Y331602D01*
X18938Y329193D01*
X22287Y327403D01*
X25921Y326301D01*
X29700Y325929D01*
X33479Y326301D01*
X37113Y327403D01*
X40462Y329193D01*
X43398Y331602D01*
X45807Y334538D01*
X47597Y337887D01*
X48699Y341521D01*
X49071Y345300D01*
X48699Y349079D01*
X47597Y352713D01*
X45807Y356062D01*
X43398Y358998D01*
X40462Y361407D01*
X37113Y363197D01*
X33479Y364299D01*
X29700Y364671D01*
D02*
G37*
G36*
X180250Y292044D02*
X178764Y291748D01*
X177504Y290906D01*
X176662Y289646D01*
X176366Y288160D01*
X176662Y286674D01*
X177504Y285414D01*
X178764Y284572D01*
X180250Y284276D01*
X181736Y284572D01*
X182996Y285414D01*
X183838Y286674D01*
X184134Y288160D01*
X183838Y289646D01*
X182996Y290906D01*
X181736Y291748D01*
X180250Y292044D01*
D02*
G37*
G36*
Y247884D02*
X178764Y247588D01*
X177504Y246746D01*
X176662Y245486D01*
X176366Y244000D01*
X176662Y242514D01*
X177504Y241254D01*
X178764Y240412D01*
X180250Y240116D01*
X181736Y240412D01*
X182996Y241254D01*
X183838Y242514D01*
X184134Y244000D01*
X183838Y245486D01*
X182996Y246746D01*
X181736Y247588D01*
X180250Y247884D01*
D02*
G37*
G36*
X187000Y210454D02*
X185514Y210158D01*
X184254Y209316D01*
X183412Y208056D01*
X183116Y206570D01*
X183412Y205084D01*
X184254Y203824D01*
X185514Y202982D01*
X187000Y202686D01*
X188486Y202982D01*
X189746Y203824D01*
X190588Y205084D01*
X190884Y206570D01*
X190588Y208056D01*
X189746Y209316D01*
X188486Y210158D01*
X187000Y210454D01*
D02*
G37*
G36*
X176840D02*
X175354Y210158D01*
X174094Y209316D01*
X173252Y208056D01*
X172956Y206570D01*
X173252Y205084D01*
X174094Y203824D01*
X175354Y202982D01*
X176840Y202686D01*
X178326Y202982D01*
X179586Y203824D01*
X180428Y205084D01*
X180724Y206570D01*
X180428Y208056D01*
X179586Y209316D01*
X178326Y210158D01*
X176840Y210454D01*
D02*
G37*
G36*
X166680D02*
X165194Y210158D01*
X163934Y209316D01*
X163092Y208056D01*
X162796Y206570D01*
X163092Y205084D01*
X163934Y203824D01*
X165194Y202982D01*
X166680Y202686D01*
X168166Y202982D01*
X169426Y203824D01*
X170268Y205084D01*
X170564Y206570D01*
X170268Y208056D01*
X169426Y209316D01*
X168166Y210158D01*
X166680Y210454D01*
D02*
G37*
G36*
X156520D02*
X155034Y210158D01*
X153774Y209316D01*
X152932Y208056D01*
X152636Y206570D01*
X152932Y205084D01*
X153774Y203824D01*
X155034Y202982D01*
X156520Y202686D01*
X158006Y202982D01*
X159266Y203824D01*
X160108Y205084D01*
X160404Y206570D01*
X160108Y208056D01*
X159266Y209316D01*
X158006Y210158D01*
X156520Y210454D01*
D02*
G37*
G36*
X187000Y200294D02*
X185514Y199998D01*
X184254Y199156D01*
X183412Y197896D01*
X183116Y196410D01*
X183412Y194924D01*
X184254Y193664D01*
X185514Y192822D01*
X187000Y192526D01*
X188486Y192822D01*
X189746Y193664D01*
X190588Y194924D01*
X190884Y196410D01*
X190588Y197896D01*
X189746Y199156D01*
X188486Y199998D01*
X187000Y200294D01*
D02*
G37*
G36*
X176840D02*
X175354Y199998D01*
X174094Y199156D01*
X173252Y197896D01*
X172956Y196410D01*
X173252Y194924D01*
X174094Y193664D01*
X175354Y192822D01*
X176840Y192526D01*
X178326Y192822D01*
X179586Y193664D01*
X180428Y194924D01*
X180724Y196410D01*
X180428Y197896D01*
X179586Y199156D01*
X178326Y199998D01*
X176840Y200294D01*
D02*
G37*
G36*
X166680D02*
X165194Y199998D01*
X163934Y199156D01*
X163092Y197896D01*
X162796Y196410D01*
X163092Y194924D01*
X163934Y193664D01*
X165194Y192822D01*
X166680Y192526D01*
X168166Y192822D01*
X169426Y193664D01*
X170268Y194924D01*
X170564Y196410D01*
X170268Y197896D01*
X169426Y199156D01*
X168166Y199998D01*
X166680Y200294D01*
D02*
G37*
G36*
X156520D02*
X155034Y199998D01*
X153774Y199156D01*
X152932Y197896D01*
X152636Y196410D01*
X152932Y194924D01*
X153774Y193664D01*
X155034Y192822D01*
X156520Y192526D01*
X158006Y192822D01*
X159266Y193664D01*
X160108Y194924D01*
X160404Y196410D01*
X160108Y197896D01*
X159266Y199156D01*
X158006Y199998D01*
X156520Y200294D01*
D02*
G37*
G36*
X95500Y184884D02*
X94014Y184588D01*
X92754Y183746D01*
X91912Y182486D01*
X91616Y181000D01*
X91653Y180816D01*
X43064Y132227D01*
X42503Y131386D01*
X42306Y130395D01*
Y110568D01*
X42503Y109577D01*
X42617Y109405D01*
X42617Y104740D01*
X41017Y103775D01*
X34728D01*
X34034Y103637D01*
X33563Y103322D01*
X32678Y103512D01*
X31563Y103974D01*
X31563Y115500D01*
X31425Y116194D01*
X31032Y116782D01*
X30959Y116855D01*
Y117836D01*
X29978D01*
X28422Y119392D01*
X27834Y119785D01*
X27140Y119923D01*
X19610Y119923D01*
X18916Y119785D01*
X18328Y119392D01*
X14468Y115532D01*
X14468Y115532D01*
X14075Y114944D01*
X13937Y114250D01*
X13937Y22500D01*
X14075Y21806D01*
X14468Y21218D01*
X19468Y16218D01*
X20057Y15825D01*
X20750Y15687D01*
X32750Y15687D01*
X33444Y15825D01*
X34032Y16218D01*
X36002Y18188D01*
X36061Y18232D01*
X38630Y18262D01*
X38761Y18175D01*
X40718Y16219D01*
X41306Y15826D01*
X42000Y15688D01*
X63000Y15687D01*
X63693Y15825D01*
X64281Y16218D01*
X67576Y19512D01*
X67969Y20100D01*
X68107Y20794D01*
X68107Y85598D01*
X69880Y86758D01*
X70220Y86825D01*
X70808Y87218D01*
X73348Y89758D01*
X73741Y90346D01*
X73879Y91040D01*
X73879Y99422D01*
X73741Y100116D01*
X73348Y100704D01*
X70808Y103244D01*
X70808Y103244D01*
X70220Y103637D01*
X69526Y103775D01*
X56774D01*
X55173Y105775D01*
Y116396D01*
X47485D01*
Y129323D01*
X95316Y177153D01*
X95500Y177116D01*
X96986Y177412D01*
X98246Y178254D01*
X99088Y179514D01*
X99384Y181000D01*
X99088Y182486D01*
X98246Y183746D01*
X96986Y184588D01*
X95500Y184884D01*
D02*
G37*
G36*
X30400Y197071D02*
X26621Y196699D01*
X22987Y195597D01*
X19638Y193807D01*
X16702Y191398D01*
X14293Y188462D01*
X12503Y185113D01*
X11401Y181479D01*
X11029Y177700D01*
X11401Y173921D01*
X12503Y170287D01*
X14293Y166938D01*
X16702Y164002D01*
X19638Y161593D01*
X22987Y159803D01*
X26621Y158701D01*
X30400Y158329D01*
X34179Y158701D01*
X37813Y159803D01*
X41162Y161593D01*
X44097Y164002D01*
X46507Y166938D01*
X48297Y170287D01*
X49399Y173921D01*
X49771Y177700D01*
X49399Y181479D01*
X48297Y185113D01*
X46507Y188462D01*
X44097Y191398D01*
X41162Y193807D01*
X37813Y195597D01*
X34179Y196699D01*
X30400Y197071D01*
D02*
G37*
G36*
X220750Y149903D02*
X182250D01*
X180565Y149567D01*
X179137Y148613D01*
X178183Y147185D01*
X177847Y145500D01*
X178183Y143815D01*
X178965Y142644D01*
X179018Y142089D01*
X178985Y141735D01*
X178651Y140306D01*
X178484Y140194D01*
X158534D01*
Y133506D01*
X153879D01*
X152888Y133309D01*
X152048Y132747D01*
X151828Y132527D01*
X136631Y132528D01*
X135289Y133972D01*
Y142528D01*
X134792D01*
X134315Y143109D01*
X134020Y144595D01*
X133178Y145855D01*
X131918Y146696D01*
X130432Y146992D01*
X128945Y146696D01*
X127685Y145855D01*
X126844Y144595D01*
X126548Y143109D01*
X126072Y142528D01*
X125722D01*
Y123972D01*
X135289D01*
X146296Y123970D01*
X148287Y123970D01*
X148296Y123971D01*
Y123975D01*
X150862Y125659D01*
X151213D01*
X152204Y125857D01*
X153044Y126418D01*
X154952Y128326D01*
X158534D01*
Y121638D01*
X182090D01*
Y135660D01*
X238534D01*
Y121638D01*
X262090D01*
Y140194D01*
X257113D01*
X255384Y141750D01*
X255088Y143236D01*
X254246Y144496D01*
X252986Y145338D01*
X251500Y145634D01*
X250014Y145338D01*
X248754Y144496D01*
X247912Y143236D01*
X247616Y141750D01*
X245887Y140194D01*
X242141D01*
X241469Y140643D01*
X240478Y140840D01*
X225052D01*
X224721Y141270D01*
X224166Y142840D01*
X224818Y143815D01*
X225153Y145500D01*
X224818Y147185D01*
X223863Y148613D01*
X222435Y149567D01*
X220750Y149903D01*
D02*
G37*
G36*
X198660Y129044D02*
X197174Y128748D01*
X195914Y127906D01*
X195072Y126646D01*
X194776Y125160D01*
X195072Y123674D01*
X195914Y122414D01*
X197174Y121572D01*
X198660Y121276D01*
X200146Y121572D01*
X201406Y122414D01*
X202248Y123674D01*
X202544Y125160D01*
X202248Y126646D01*
X201406Y127906D01*
X200146Y128748D01*
X198660Y129044D01*
D02*
G37*
G36*
X188500D02*
X187014Y128748D01*
X185754Y127906D01*
X184912Y126646D01*
X184616Y125160D01*
X184912Y123674D01*
X185754Y122414D01*
X187014Y121572D01*
X188500Y121276D01*
X189986Y121572D01*
X191246Y122414D01*
X192088Y123674D01*
X192384Y125160D01*
X192088Y126646D01*
X191246Y127906D01*
X189986Y128748D01*
X188500Y129044D01*
D02*
G37*
G36*
X198660Y118884D02*
X197174Y118588D01*
X195914Y117746D01*
X195072Y116486D01*
X194776Y115000D01*
X195072Y113514D01*
X195914Y112254D01*
X197174Y111412D01*
X198660Y111116D01*
X200146Y111412D01*
X201406Y112254D01*
X202248Y113514D01*
X202544Y115000D01*
X202248Y116486D01*
X201406Y117746D01*
X200146Y118588D01*
X198660Y118884D01*
D02*
G37*
G36*
X188500D02*
X187014Y118588D01*
X185754Y117746D01*
X184912Y116486D01*
X184616Y115000D01*
X184912Y113514D01*
X185754Y112254D01*
X187014Y111412D01*
X188500Y111116D01*
X189986Y111412D01*
X191246Y112254D01*
X192088Y113514D01*
X192384Y115000D01*
X192088Y116486D01*
X191246Y117746D01*
X189986Y118588D01*
X188500Y118884D01*
D02*
G37*
G36*
X178340D02*
X176854Y118588D01*
X175594Y117746D01*
X174752Y116486D01*
X174456Y115000D01*
X174752Y113514D01*
X175594Y112254D01*
X176854Y111412D01*
X178340Y111116D01*
X179826Y111412D01*
X181086Y112254D01*
X181928Y113514D01*
X182224Y115000D01*
X181928Y116486D01*
X181086Y117746D01*
X179826Y118588D01*
X178340Y118884D01*
D02*
G37*
G36*
X168180D02*
X166694Y118588D01*
X165434Y117746D01*
X164592Y116486D01*
X164296Y115000D01*
X164592Y113514D01*
X165434Y112254D01*
X166694Y111412D01*
X168180Y111116D01*
X169666Y111412D01*
X170926Y112254D01*
X171768Y113514D01*
X172064Y115000D01*
X171768Y116486D01*
X170926Y117746D01*
X169666Y118588D01*
X168180Y118884D01*
D02*
G37*
G36*
X131572Y98533D02*
X129805Y98181D01*
X128308Y97181D01*
X127307Y95683D01*
X126955Y93916D01*
X127307Y92149D01*
X128308Y90652D01*
Y89180D01*
X127307Y87683D01*
X126955Y85916D01*
X127307Y84149D01*
X128308Y82652D01*
X129805Y81651D01*
X131572Y81299D01*
X133339Y81651D01*
X134837Y82652D01*
X135837Y84149D01*
X136189Y85916D01*
X135837Y87683D01*
X134837Y89180D01*
Y90652D01*
X135837Y92149D01*
X136189Y93916D01*
X135837Y95683D01*
X134837Y97181D01*
X133339Y98181D01*
X131572Y98533D01*
D02*
G37*
G36*
X132778Y32778D02*
X117222D01*
Y17222D01*
X132778D01*
Y32778D01*
D02*
G37*
G36*
X337100Y33860D02*
X334678Y33541D01*
X332421Y32606D01*
X330483Y31119D01*
X328996Y29181D01*
X328061Y26924D01*
X327742Y24502D01*
X328061Y22080D01*
X328996Y19823D01*
X330483Y17885D01*
X332421Y16398D01*
X334678Y15463D01*
X337100Y15144D01*
X339522Y15463D01*
X341779Y16398D01*
X343717Y17885D01*
X345204Y19823D01*
X346139Y22080D01*
X346458Y24502D01*
X346139Y26924D01*
X345204Y29181D01*
X343717Y31119D01*
X341779Y32606D01*
X339522Y33541D01*
X337100Y33860D01*
D02*
G37*
G36*
X286300D02*
X283878Y33541D01*
X281621Y32606D01*
X279683Y31119D01*
X278196Y29181D01*
X277261Y26924D01*
X276942Y24502D01*
X277261Y22080D01*
X278196Y19823D01*
X279683Y17885D01*
X281621Y16398D01*
X283878Y15463D01*
X286300Y15144D01*
X288722Y15463D01*
X290979Y16398D01*
X292917Y17885D01*
X294404Y19823D01*
X295339Y22080D01*
X295658Y24502D01*
X295339Y26924D01*
X294404Y29181D01*
X292917Y31119D01*
X290979Y32606D01*
X288722Y33541D01*
X286300Y33860D01*
D02*
G37*
G36*
X260900D02*
X258478Y33541D01*
X256221Y32606D01*
X254283Y31119D01*
X252796Y29181D01*
X251861Y26924D01*
X251542Y24502D01*
X251861Y22080D01*
X252796Y19823D01*
X254283Y17885D01*
X256221Y16398D01*
X258478Y15463D01*
X260900Y15144D01*
X263322Y15463D01*
X265579Y16398D01*
X267517Y17885D01*
X269004Y19823D01*
X269939Y22080D01*
X270258Y24502D01*
X269939Y26924D01*
X269004Y29181D01*
X267517Y31119D01*
X265579Y32606D01*
X263322Y33541D01*
X260900Y33860D01*
D02*
G37*
G36*
X235500D02*
X233078Y33541D01*
X230821Y32606D01*
X228883Y31119D01*
X227396Y29181D01*
X226461Y26924D01*
X226142Y24502D01*
X226461Y22080D01*
X227396Y19823D01*
X228883Y17885D01*
X230821Y16398D01*
X233078Y15463D01*
X235500Y15144D01*
X237922Y15463D01*
X240179Y16398D01*
X242117Y17885D01*
X243604Y19823D01*
X244539Y22080D01*
X244858Y24502D01*
X244539Y26924D01*
X243604Y29181D01*
X242117Y31119D01*
X240179Y32606D01*
X237922Y33541D01*
X235500Y33860D01*
D02*
G37*
%LPD*%
G36*
X72066Y99422D02*
X72066Y91040D01*
X69526Y88500D01*
X34474D01*
X32442Y90532D01*
X32442Y99676D01*
X34728Y101962D01*
X69526Y101962D01*
X72066Y99422D01*
D02*
G37*
G36*
X27140Y118110D02*
X29750Y115500D01*
X29750Y87000D01*
X35814Y80936D01*
X35814Y20564D01*
X32750Y17500D01*
X20750Y17500D01*
X15750Y22500D01*
X15750Y114250D01*
X19610Y118110D01*
X27140Y118110D01*
D02*
G37*
G36*
X66294Y85598D02*
X66294Y20794D01*
X63000Y17500D01*
X42000Y17500D01*
X38862Y20638D01*
Y81026D01*
X44450Y86614D01*
X65278D01*
X66294Y85598D01*
D02*
G37*
D10*
X320240Y235220D02*
X323077Y232383D01*
X329000D01*
X319450Y235220D02*
X320240D01*
X101294Y128250D02*
X101397Y128147D01*
X101294Y128250D02*
X108753D01*
X293724Y148162D02*
X299720Y142166D01*
X279654Y148162D02*
X293724D01*
X212598Y235511D02*
X215660Y238574D01*
X212010Y235511D02*
X212598D01*
X237500Y234250D02*
Y235074D01*
X253250Y234500D02*
Y235324D01*
X251744Y236830D02*
Y243042D01*
Y236830D02*
X253250Y235324D01*
X215660Y243086D02*
X215680Y243106D01*
X215660Y238574D02*
Y243086D01*
X101397Y128147D02*
X101500Y128250D01*
X116006D01*
X176750Y73500D02*
Y78500D01*
X176750Y78500D02*
X176750Y78500D01*
X130471Y138290D02*
X130511Y138250D01*
X130471Y138290D02*
Y143069D01*
X130432Y143108D02*
X130471Y143069D01*
X299720Y36482D02*
X311700Y24502D01*
X299720Y36482D02*
Y142166D01*
X239552Y237126D02*
Y242978D01*
X237500Y235074D02*
X239552Y237126D01*
X267180Y286606D02*
X267200Y286626D01*
X275376D01*
X275500Y286750D01*
X114500Y136975D02*
Y158250D01*
X101500Y138250D02*
X101500Y138250D01*
Y158000D01*
X188000Y331500D02*
X192750D01*
X188000Y331500D02*
X188000Y331500D01*
X211680Y310106D02*
Y316597D01*
X243120Y317669D02*
X243669D01*
X239700Y310126D02*
Y314468D01*
X241378Y316146D01*
X239680Y310106D02*
X239700Y310126D01*
X241378Y316146D02*
X241597D01*
X243120Y317669D01*
X253750Y211000D02*
X255000D01*
X249270Y215480D02*
X253750Y211000D01*
X249270Y215480D02*
Y216730D01*
X249250Y216750D02*
X249270Y216730D01*
X249250Y216750D02*
Y225750D01*
X303440Y254000D02*
X304189Y254749D01*
X316000Y254750D02*
X329000D01*
X304189Y254749D02*
X315999D01*
X316000Y254750D01*
X184000Y299000D02*
X184394Y298606D01*
X200180D01*
D18*
X230810Y75819D02*
D03*
X189810D02*
D03*
X230810Y91819D02*
D03*
X189810D02*
D03*
D19*
X227060Y76570D02*
D03*
X193560D02*
D03*
Y91070D02*
D03*
X227060D02*
D03*
D20*
X255000Y211000D02*
D03*
X233000Y195000D02*
D03*
D21*
Y211000D02*
D03*
X255000Y195000D02*
D03*
D22*
X286189Y295084D02*
D03*
X296189D02*
D03*
X286189Y270192D02*
D03*
X296189D02*
D03*
X215250Y331750D02*
D03*
X245250Y331750D02*
D03*
X184000Y299000D02*
D03*
X174000D02*
D03*
X296189Y307530D02*
D03*
X286189D02*
D03*
X259250Y225750D02*
D03*
X229250Y225750D02*
D03*
D23*
X303440Y254748D02*
D03*
X295060D02*
D03*
D24*
X282750Y244750D02*
D03*
X315750D02*
D03*
X274258Y215992D02*
D03*
Y225992D02*
D03*
X144018Y128249D02*
D03*
Y138249D02*
D03*
X279654Y148162D02*
D03*
Y158162D02*
D03*
D25*
X282750Y254750D02*
D03*
X315750D02*
D03*
D26*
X294629Y282638D02*
D03*
X286249D02*
D03*
D27*
X225250Y331750D02*
D03*
X235250Y331750D02*
D03*
X249250Y225750D02*
D03*
X239250Y225750D02*
D03*
D28*
X235250Y320750D02*
D03*
X225250D02*
D03*
D29*
X192750Y331500D02*
D03*
X202750D02*
D03*
D30*
X101500Y128250D02*
D03*
Y138250D02*
D03*
X116006Y128250D02*
D03*
Y138250D02*
D03*
X130511Y138250D02*
D03*
Y128250D02*
D03*
X176750Y78500D02*
D03*
Y88500D02*
D03*
D31*
X259680Y243106D02*
D03*
X255680D02*
D03*
X251680D02*
D03*
X247680D02*
D03*
X243680D02*
D03*
X239680D02*
D03*
X235680D02*
D03*
X231680D02*
D03*
X227680D02*
D03*
X223680D02*
D03*
X219680D02*
D03*
X215680D02*
D03*
X211680D02*
D03*
X207680D02*
D03*
Y310106D02*
D03*
X211680D02*
D03*
X215680D02*
D03*
X219680D02*
D03*
X223680D02*
D03*
X227680D02*
D03*
X231680D02*
D03*
X235680D02*
D03*
X239680D02*
D03*
X243680D02*
D03*
X247680D02*
D03*
X251680D02*
D03*
X255680D02*
D03*
X259680D02*
D03*
D32*
X200180Y250606D02*
D03*
Y254606D02*
D03*
Y258606D02*
D03*
Y262606D02*
D03*
Y266606D02*
D03*
Y270606D02*
D03*
Y274606D02*
D03*
Y278606D02*
D03*
Y282606D02*
D03*
Y286606D02*
D03*
Y290606D02*
D03*
Y294606D02*
D03*
Y298606D02*
D03*
Y302606D02*
D03*
X267180D02*
D03*
Y298606D02*
D03*
Y294606D02*
D03*
Y290606D02*
D03*
Y286606D02*
D03*
Y282606D02*
D03*
Y278606D02*
D03*
Y274606D02*
D03*
Y270606D02*
D03*
Y266606D02*
D03*
Y262606D02*
D03*
Y258606D02*
D03*
Y254606D02*
D03*
Y250606D02*
D03*
D33*
X233682Y276608D02*
D03*
D34*
X287330Y321500D02*
D03*
X300670D02*
D03*
D35*
X299720Y164666D02*
D03*
Y142166D02*
D03*
D36*
X250312Y175916D02*
D03*
Y130916D02*
D03*
X170312D02*
D03*
Y175916D02*
D03*
D37*
X21181Y94358D02*
D03*
X27681D02*
D03*
X34181D02*
D03*
Y112758D02*
D03*
X27681D02*
D03*
X21181D02*
D03*
D38*
X26250Y74000D02*
D03*
X59250D02*
D03*
D39*
X48895Y110568D02*
D03*
Y96668D02*
D03*
X65466Y110328D02*
D03*
Y96428D02*
D03*
D70*
X235250Y350000D02*
G03*
X228750Y356500I-6500J0D01*
G01*
X228750Y348378D02*
G03*
X225250Y344878I0J-3500D01*
G01*
X144018Y128249D02*
X151213D01*
X153879Y130916D01*
X172812D02*
X180146Y138250D01*
X240478D01*
X247812Y130916D01*
X250312D01*
X153879D02*
X172812D01*
X250312D02*
X251500Y132104D01*
X130511Y128250D02*
X144017D01*
X144018Y128249D01*
X192552Y317302D02*
X202734D01*
X207680Y312356D01*
X251500Y132104D02*
Y141750D01*
X207680Y310106D02*
Y312356D01*
X235250Y331750D02*
Y350000D01*
X228750Y356500D02*
X228750D01*
X225250Y331750D02*
Y344878D01*
X228750Y348378D02*
Y348500D01*
X225250Y320250D02*
Y331750D01*
X225250Y331750D02*
X225250Y331750D01*
X231192Y310594D02*
X231680Y310106D01*
X231192Y310594D02*
Y314308D01*
X225250Y320250D02*
X231192Y314308D01*
X235465Y310321D02*
X235680Y310106D01*
X235465Y310321D02*
Y320535D01*
X235250Y331750D02*
X235250Y331750D01*
Y320750D02*
Y331750D01*
Y320750D02*
X235465Y320535D01*
X281375Y178054D02*
Y223462D01*
X274266Y225984D02*
X278854D01*
X281375Y223462D01*
X274258Y225992D02*
X274266Y225984D01*
X101500Y158166D02*
X104250Y160916D01*
Y249500D02*
X125420Y270670D01*
X104250Y160916D02*
Y249500D01*
X101500Y158000D02*
Y158166D01*
X113250Y246000D02*
X133856Y266606D01*
X114500Y158250D02*
Y159074D01*
X113250Y160324D02*
X114500Y159074D01*
X113250Y160324D02*
Y246000D01*
X181384Y262118D02*
X199692D01*
X131750Y212484D02*
X181384Y262118D01*
X131750Y192000D02*
Y212484D01*
X247680Y227320D02*
Y243106D01*
X248500Y90750D02*
X289000D01*
X271250Y167929D02*
X281375Y178054D01*
X230500Y233250D02*
Y234074D01*
X231680Y235254D01*
Y242388D01*
X222500Y233500D02*
X227192Y238192D01*
Y242618D02*
X227680Y243106D01*
X227192Y238192D02*
Y242618D01*
X211250Y163000D02*
X235000D01*
X200180Y174070D02*
Y250606D01*
Y174070D02*
X211250Y163000D01*
X227380Y90750D02*
X248500D01*
X271250Y113500D02*
Y167929D01*
X248500Y90750D02*
X271250Y113500D01*
X267180Y266606D02*
X267668Y267094D01*
X271292D01*
X274743Y270545D01*
Y270989D01*
X125420Y270670D02*
X200116D01*
X133856Y266606D02*
X200180D01*
X44895Y110568D02*
Y130395D01*
X95500Y181000D01*
X199692Y262118D02*
X200116Y262542D01*
X214910Y322500D02*
X223192Y314218D01*
X202750Y331000D02*
X211250Y322500D01*
X214910D01*
X223192Y312844D02*
Y314218D01*
Y312844D02*
X223680Y312356D01*
Y310106D02*
Y312356D01*
X202750Y331000D02*
Y331500D01*
X270550Y229496D02*
Y229496D01*
X259680Y243106D02*
X260168Y242618D01*
Y239878D02*
X270550Y229496D01*
X260168Y239878D02*
Y242618D01*
X270550Y229496D02*
X272288Y227758D01*
X243616Y230116D02*
Y243042D01*
X239250Y225750D02*
X243616Y230116D01*
X233000Y195000D02*
X234250D01*
X243750Y204500D01*
X239250Y225750D02*
X243750Y221250D01*
Y204500D02*
Y221250D01*
X247680Y227320D02*
X249250Y225750D01*
X227060Y91070D02*
X227380Y90750D01*
X193560Y91070D02*
X227060D01*
X176750Y88500D02*
X190990D01*
X193560Y91070D01*
D71*
X329000Y232383D02*
D03*
Y254750D02*
D03*
D72*
X215500Y145500D02*
X220750D01*
X187250D02*
X215500D01*
X182250D02*
X187250D01*
D73*
X267180Y254606D02*
X267193Y254619D01*
X282750Y254750D02*
X282751Y254749D01*
X295059D01*
X295060Y254748D01*
X267193Y254619D02*
X282131D01*
X282750Y254000D01*
D74*
X228750Y348500D02*
D03*
Y356500D02*
D03*
X131572Y93916D02*
D03*
Y85916D02*
D03*
D75*
X100000Y25000D02*
D03*
X25000D02*
D03*
D76*
X125000D02*
D03*
X50000D02*
D03*
D77*
X235500Y24502D02*
D03*
X337100D02*
D03*
X311700D02*
D03*
X286300D02*
D03*
X260900D02*
D03*
D78*
X362500D02*
D03*
D79*
X30400Y177700D02*
D03*
X29700Y345300D02*
D03*
X416700Y345200D02*
D03*
Y35200D02*
D03*
D80*
X184500Y101000D02*
D03*
X154250Y261000D02*
D03*
X168000Y260500D02*
D03*
Y279750D02*
D03*
X265725Y175750D02*
D03*
X235250Y184750D02*
D03*
X222250Y200250D02*
D03*
X267287Y200037D02*
D03*
Y207893D02*
D03*
X223500Y211000D02*
D03*
X229662Y220412D02*
D03*
X282787Y240037D02*
D03*
X274203Y234973D02*
D03*
X315750Y239750D02*
D03*
X278611Y248250D02*
D03*
X311500Y247500D02*
D03*
X303438D02*
D03*
X295375D02*
D03*
X287313D02*
D03*
X290500Y328750D02*
D03*
X280250Y319500D02*
D03*
X286875Y261750D02*
D03*
X294937D02*
D03*
X303000D02*
D03*
X311063D02*
D03*
X319125D02*
D03*
X319250Y270000D02*
D03*
X301000D02*
D03*
X281250Y307500D02*
D03*
Y295000D02*
D03*
X319450Y340220D02*
D03*
Y325220D02*
D03*
Y310220D02*
D03*
Y295220D02*
D03*
Y280220D02*
D03*
Y355220D02*
D03*
X381000Y19125D02*
D03*
Y32000D02*
D03*
Y44875D02*
D03*
X381000Y57750D02*
D03*
X320000Y58000D02*
D03*
X336000Y57750D02*
D03*
X351000D02*
D03*
X366000D02*
D03*
X381000Y6250D02*
D03*
X366000D02*
D03*
X291000D02*
D03*
X276000D02*
D03*
X351000D02*
D03*
X336000D02*
D03*
X321000D02*
D03*
X306000D02*
D03*
X201000D02*
D03*
X186000D02*
D03*
X261000D02*
D03*
X246000D02*
D03*
X231000D02*
D03*
X216000D02*
D03*
X111000D02*
D03*
X96000D02*
D03*
X171000D02*
D03*
X156000D02*
D03*
X141000D02*
D03*
X126000D02*
D03*
X6750Y6750D02*
D03*
X21000Y6250D02*
D03*
X36000D02*
D03*
X51000D02*
D03*
X66000D02*
D03*
X81000D02*
D03*
X6500Y68750D02*
D03*
Y53750D02*
D03*
Y38750D02*
D03*
Y23750D02*
D03*
Y143750D02*
D03*
Y128750D02*
D03*
Y113750D02*
D03*
Y98750D02*
D03*
Y83750D02*
D03*
Y218750D02*
D03*
Y203750D02*
D03*
Y188750D02*
D03*
Y173750D02*
D03*
Y158750D02*
D03*
Y293750D02*
D03*
Y278750D02*
D03*
Y263750D02*
D03*
Y248750D02*
D03*
Y233750D02*
D03*
Y368750D02*
D03*
Y353750D02*
D03*
Y338750D02*
D03*
Y323750D02*
D03*
Y308750D02*
D03*
X21500Y383750D02*
D03*
X6500D02*
D03*
X94250D02*
D03*
X79250D02*
D03*
X64250D02*
D03*
X49250D02*
D03*
X34250D02*
D03*
X169250D02*
D03*
X154250D02*
D03*
X139250D02*
D03*
X124250D02*
D03*
X109250D02*
D03*
X244250D02*
D03*
X229250D02*
D03*
X214250D02*
D03*
X199250D02*
D03*
X184250D02*
D03*
X319250D02*
D03*
X304250D02*
D03*
X289250D02*
D03*
X274250D02*
D03*
X259250D02*
D03*
X349450Y40220D02*
D03*
Y25220D02*
D03*
X319450Y370220D02*
D03*
Y280220D02*
D03*
Y235220D02*
D03*
Y220220D02*
D03*
Y205220D02*
D03*
Y190220D02*
D03*
Y175220D02*
D03*
Y160220D02*
D03*
Y145220D02*
D03*
Y130220D02*
D03*
Y115220D02*
D03*
Y100220D02*
D03*
Y85220D02*
D03*
Y70220D02*
D03*
X304450Y370220D02*
D03*
Y235220D02*
D03*
Y220220D02*
D03*
Y205220D02*
D03*
Y190220D02*
D03*
X289450Y370220D02*
D03*
Y355220D02*
D03*
Y340220D02*
D03*
Y115220D02*
D03*
Y100220D02*
D03*
Y70220D02*
D03*
Y55220D02*
D03*
X274450Y370220D02*
D03*
Y355220D02*
D03*
Y340220D02*
D03*
Y310220D02*
D03*
Y40220D02*
D03*
X259450Y370220D02*
D03*
Y355220D02*
D03*
Y340220D02*
D03*
X244450Y370220D02*
D03*
Y355220D02*
D03*
Y115220D02*
D03*
Y100220D02*
D03*
Y85220D02*
D03*
Y70220D02*
D03*
Y55220D02*
D03*
X229450Y370220D02*
D03*
Y115220D02*
D03*
Y55220D02*
D03*
X214450Y370220D02*
D03*
Y355220D02*
D03*
Y220220D02*
D03*
Y205220D02*
D03*
Y100220D02*
D03*
Y85220D02*
D03*
Y70220D02*
D03*
Y55220D02*
D03*
Y40220D02*
D03*
Y25220D02*
D03*
X199450Y370220D02*
D03*
Y355220D02*
D03*
Y55220D02*
D03*
Y40220D02*
D03*
Y25220D02*
D03*
X184450Y370220D02*
D03*
Y355220D02*
D03*
Y325220D02*
D03*
Y220220D02*
D03*
Y55220D02*
D03*
Y40220D02*
D03*
Y25220D02*
D03*
X169450Y370220D02*
D03*
Y355220D02*
D03*
Y325220D02*
D03*
Y310220D02*
D03*
Y235220D02*
D03*
Y220220D02*
D03*
Y100220D02*
D03*
Y85220D02*
D03*
Y70220D02*
D03*
Y55220D02*
D03*
Y40220D02*
D03*
Y25220D02*
D03*
X154450Y370220D02*
D03*
Y355220D02*
D03*
Y325220D02*
D03*
Y310220D02*
D03*
Y295220D02*
D03*
Y280220D02*
D03*
Y250220D02*
D03*
Y220220D02*
D03*
Y115220D02*
D03*
Y100220D02*
D03*
Y85220D02*
D03*
Y70220D02*
D03*
Y55220D02*
D03*
Y40220D02*
D03*
Y25220D02*
D03*
X139450Y370220D02*
D03*
Y355220D02*
D03*
Y340220D02*
D03*
Y310220D02*
D03*
Y295220D02*
D03*
Y205220D02*
D03*
Y190220D02*
D03*
Y70220D02*
D03*
X124450Y355220D02*
D03*
Y340220D02*
D03*
Y325220D02*
D03*
Y295220D02*
D03*
Y205220D02*
D03*
Y85220D02*
D03*
X94450Y295220D02*
D03*
Y160220D02*
D03*
Y145220D02*
D03*
Y115220D02*
D03*
X79450Y295220D02*
D03*
Y280220D02*
D03*
Y265220D02*
D03*
Y250220D02*
D03*
Y235220D02*
D03*
Y220220D02*
D03*
Y25220D02*
D03*
X64450Y355220D02*
D03*
Y340220D02*
D03*
Y325220D02*
D03*
Y310220D02*
D03*
Y295220D02*
D03*
Y280220D02*
D03*
Y265220D02*
D03*
Y250220D02*
D03*
Y235220D02*
D03*
Y220220D02*
D03*
X49450Y370220D02*
D03*
Y355220D02*
D03*
Y325220D02*
D03*
Y310220D02*
D03*
Y295220D02*
D03*
Y280220D02*
D03*
Y265220D02*
D03*
Y250220D02*
D03*
Y235220D02*
D03*
Y220220D02*
D03*
Y205220D02*
D03*
Y190220D02*
D03*
X34450Y370220D02*
D03*
Y310220D02*
D03*
Y295220D02*
D03*
Y280220D02*
D03*
Y265220D02*
D03*
Y250220D02*
D03*
Y235220D02*
D03*
Y220220D02*
D03*
Y205220D02*
D03*
Y145220D02*
D03*
Y130220D02*
D03*
X19450Y370220D02*
D03*
Y325220D02*
D03*
Y310220D02*
D03*
Y295220D02*
D03*
Y280220D02*
D03*
Y265220D02*
D03*
Y250220D02*
D03*
Y235220D02*
D03*
Y220220D02*
D03*
Y205220D02*
D03*
Y145220D02*
D03*
Y130220D02*
D03*
X192552Y317302D02*
D03*
X251500Y141750D02*
D03*
X298250Y327750D02*
D03*
X308410D02*
D03*
X298250Y348070D02*
D03*
X308410Y358230D02*
D03*
X298250D02*
D03*
X308410Y337910D02*
D03*
X298250D02*
D03*
X308410Y348070D02*
D03*
X125730Y367500D02*
D03*
X115570D02*
D03*
X64770D02*
D03*
X74930D02*
D03*
X108753Y128250D02*
D03*
X131750Y192000D02*
D03*
X212010Y235511D02*
D03*
X237500Y234250D02*
D03*
X253250Y234500D02*
D03*
X289000Y90750D02*
D03*
X176750Y73500D02*
D03*
X152432Y139358D02*
D03*
X69432Y207358D02*
D03*
X130432Y143108D02*
D03*
X274250Y211000D02*
D03*
X299750Y177000D02*
D03*
X215500Y336750D02*
D03*
X245250D02*
D03*
X144000Y143250D02*
D03*
X190410Y254160D02*
D03*
X180250Y244000D02*
D03*
Y254160D02*
D03*
X190410Y244000D02*
D03*
Y288160D02*
D03*
X180250Y278000D02*
D03*
Y288160D02*
D03*
X190410Y278000D02*
D03*
X267750Y245000D02*
D03*
X230500Y233250D02*
D03*
X222500Y233500D02*
D03*
X235000Y163000D02*
D03*
X286689Y148162D02*
D03*
X274743Y270989D02*
D03*
X169000Y299000D02*
D03*
X275500Y286750D02*
D03*
X95500Y181000D02*
D03*
X101500Y158000D02*
D03*
X114500Y158250D02*
D03*
X188000Y331500D02*
D03*
X211680Y316597D02*
D03*
X243669Y317669D02*
D03*
X264250Y225750D02*
D03*
X215500Y145500D02*
D03*
X220750D02*
D03*
X182250D02*
D03*
X187250D02*
D03*
X168180Y115000D02*
D03*
X178340D02*
D03*
X188500D02*
D03*
X198660Y125160D02*
D03*
X188500D02*
D03*
X198660Y115000D02*
D03*
X166680Y206570D02*
D03*
X156520Y196410D02*
D03*
Y206570D02*
D03*
X166680Y196410D02*
D03*
X187000D02*
D03*
X176840Y206570D02*
D03*
X187000D02*
D03*
X176840Y196410D02*
D03*
X85090Y347180D02*
D03*
X95250D02*
D03*
X85090Y367500D02*
D03*
X105410D02*
D03*
Y357340D02*
D03*
X95250D02*
D03*
X85090D02*
D03*
X95250Y367500D02*
D03*
X42340Y47750D02*
D03*
X52500Y57910D02*
D03*
X42340D02*
D03*
X62660D02*
D03*
Y47750D02*
D03*
Y37590D02*
D03*
X52500D02*
D03*
X42340D02*
D03*
X52500Y47750D02*
D03*
D81*
X247652Y276608D02*
D03*
X219712Y290578D02*
D03*
X247652D02*
D03*
X219712Y276608D02*
D03*
X247652Y262638D02*
D03*
X219712D02*
D03*
X233682Y290578D02*
D03*
Y276608D02*
D03*
Y262638D02*
D03*
M02*
