G04*
G04 #@! TF.GenerationSoftware,Altium Limited,Altium Designer,20.2.6 (244)*
G04*
G04 Layer_Physical_Order=3*
G04 Layer_Color=16440176*
%FSLAX44Y44*%
%MOMM*%
G71*
G04*
G04 #@! TF.SameCoordinates,7CDA323B-E038-41B1-B74F-359B52FF9F59*
G04*
G04*
G04 #@! TF.FilePolarity,Positive*
G04*
G01*
G75*
%ADD77C,1.5000*%
%ADD80C,0.4570*%
G36*
X322432Y385844D02*
X321996Y386496D01*
X320736Y387338D01*
X319250Y387634D01*
X317764Y387338D01*
X316504Y386496D01*
X315662Y385236D01*
X315366Y383750D01*
X315662Y382264D01*
X316504Y381004D01*
X317764Y380162D01*
X319250Y379866D01*
X320736Y380162D01*
X321996Y381004D01*
X322432Y381656D01*
Y372613D01*
X322196Y372966D01*
X320936Y373808D01*
X319450Y374103D01*
X317963Y373808D01*
X316703Y372966D01*
X315861Y371706D01*
X315566Y370220D01*
X315861Y368733D01*
X316703Y367474D01*
X317963Y366632D01*
X319450Y366336D01*
X320936Y366632D01*
X322196Y367474D01*
X322432Y367827D01*
Y357613D01*
X322196Y357966D01*
X320936Y358808D01*
X319450Y359103D01*
X317963Y358808D01*
X316703Y357966D01*
X315861Y356706D01*
X315566Y355220D01*
X315861Y353733D01*
X316703Y352474D01*
X317963Y351632D01*
X319450Y351336D01*
X320936Y351632D01*
X322196Y352474D01*
X322432Y352827D01*
Y342613D01*
X322196Y342966D01*
X320936Y343808D01*
X319450Y344103D01*
X317963Y343808D01*
X316703Y342966D01*
X315861Y341706D01*
X315566Y340220D01*
X315861Y338733D01*
X316703Y337474D01*
X317963Y336632D01*
X319450Y336336D01*
X320936Y336632D01*
X322196Y337474D01*
X322432Y337827D01*
Y327613D01*
X322196Y327966D01*
X320936Y328808D01*
X319450Y329103D01*
X317963Y328808D01*
X316703Y327966D01*
X315861Y326706D01*
X315566Y325220D01*
X315861Y323733D01*
X316703Y322474D01*
X317963Y321632D01*
X319450Y321336D01*
X320936Y321632D01*
X322196Y322474D01*
X322432Y322827D01*
Y312613D01*
X322196Y312966D01*
X320936Y313808D01*
X319450Y314103D01*
X317963Y313808D01*
X316703Y312966D01*
X315861Y311706D01*
X315566Y310220D01*
X315861Y308734D01*
X316703Y307474D01*
X317963Y306632D01*
X319450Y306336D01*
X320936Y306632D01*
X322196Y307474D01*
X322432Y307827D01*
Y297613D01*
X322196Y297966D01*
X320936Y298808D01*
X319450Y299103D01*
X317963Y298808D01*
X316703Y297966D01*
X315861Y296706D01*
X315566Y295220D01*
X315861Y293734D01*
X316703Y292474D01*
X317963Y291632D01*
X319450Y291336D01*
X320936Y291632D01*
X322196Y292474D01*
X322432Y292827D01*
Y282613D01*
X322196Y282966D01*
X320936Y283808D01*
X319450Y284103D01*
X317963Y283808D01*
X316703Y282966D01*
X315861Y281706D01*
X315566Y280220D01*
X315861Y278734D01*
X316703Y277474D01*
X317963Y276632D01*
X319450Y276336D01*
X320936Y276632D01*
X322196Y277474D01*
X322432Y277827D01*
Y272094D01*
X321996Y272746D01*
X320736Y273588D01*
X319250Y273884D01*
X317764Y273588D01*
X316504Y272746D01*
X315662Y271486D01*
X315366Y270000D01*
X315662Y268514D01*
X316504Y267254D01*
X317764Y266412D01*
X319250Y266116D01*
X320736Y266412D01*
X321996Y267254D01*
X322432Y267906D01*
Y263657D01*
X321871Y264496D01*
X320611Y265338D01*
X319125Y265634D01*
X317639Y265338D01*
X316379Y264496D01*
X315537Y263236D01*
X315241Y261750D01*
X315537Y260264D01*
X316379Y259004D01*
X317639Y258162D01*
X319125Y257866D01*
X320611Y258162D01*
X321871Y259004D01*
X322432Y259843D01*
Y237613D01*
X322196Y237966D01*
X320936Y238808D01*
X319503Y239093D01*
X319634Y239750D01*
X319338Y241236D01*
X318496Y242496D01*
X317236Y243338D01*
X315750Y243634D01*
X314264Y243338D01*
X313004Y242496D01*
X312162Y241236D01*
X311866Y239750D01*
X312162Y238264D01*
X313004Y237004D01*
X314264Y236162D01*
X315697Y235877D01*
X315566Y235220D01*
X315861Y233734D01*
X316703Y232474D01*
X317963Y231632D01*
X319450Y231336D01*
X320936Y231632D01*
X322196Y232474D01*
X322432Y232827D01*
Y222613D01*
X322196Y222966D01*
X320936Y223808D01*
X319450Y224103D01*
X317963Y223808D01*
X316703Y222966D01*
X315861Y221706D01*
X315566Y220220D01*
X315861Y218734D01*
X316703Y217474D01*
X317963Y216632D01*
X319450Y216336D01*
X320936Y216632D01*
X322196Y217474D01*
X322432Y217827D01*
Y207613D01*
X322196Y207966D01*
X320936Y208808D01*
X319450Y209103D01*
X317963Y208808D01*
X316703Y207966D01*
X315861Y206706D01*
X315566Y205220D01*
X315861Y203734D01*
X316703Y202474D01*
X317963Y201632D01*
X319450Y201336D01*
X320936Y201632D01*
X322196Y202474D01*
X322432Y202827D01*
Y192613D01*
X322196Y192966D01*
X320936Y193808D01*
X319450Y194103D01*
X317963Y193808D01*
X316703Y192966D01*
X315861Y191706D01*
X315566Y190220D01*
X315861Y188734D01*
X316703Y187474D01*
X317963Y186632D01*
X319450Y186336D01*
X320936Y186632D01*
X322196Y187474D01*
X322432Y187827D01*
Y177613D01*
X322196Y177966D01*
X320936Y178808D01*
X319450Y179103D01*
X317963Y178808D01*
X316703Y177966D01*
X315861Y176706D01*
X315566Y175220D01*
X315861Y173734D01*
X316703Y172474D01*
X317963Y171632D01*
X319450Y171336D01*
X320936Y171632D01*
X322196Y172474D01*
X322432Y172827D01*
Y162613D01*
X322196Y162966D01*
X320936Y163808D01*
X319450Y164103D01*
X317963Y163808D01*
X316703Y162966D01*
X315861Y161706D01*
X315566Y160220D01*
X315861Y158734D01*
X316703Y157474D01*
X317963Y156632D01*
X319450Y156336D01*
X320936Y156632D01*
X322196Y157474D01*
X322432Y157827D01*
Y147613D01*
X322196Y147966D01*
X320936Y148808D01*
X319450Y149103D01*
X317963Y148808D01*
X316703Y147966D01*
X315861Y146706D01*
X315566Y145220D01*
X315861Y143734D01*
X316703Y142474D01*
X317963Y141632D01*
X319450Y141336D01*
X320936Y141632D01*
X322196Y142474D01*
X322432Y142827D01*
Y132613D01*
X322196Y132966D01*
X320936Y133808D01*
X319450Y134103D01*
X317963Y133808D01*
X316703Y132966D01*
X315861Y131706D01*
X315566Y130220D01*
X315861Y128734D01*
X316703Y127474D01*
X317963Y126632D01*
X319450Y126336D01*
X320936Y126632D01*
X322196Y127474D01*
X322432Y127827D01*
Y117613D01*
X322196Y117966D01*
X320936Y118808D01*
X319450Y119103D01*
X317963Y118808D01*
X316703Y117966D01*
X315861Y116706D01*
X315566Y115220D01*
X315861Y113734D01*
X316703Y112474D01*
X317963Y111632D01*
X319450Y111336D01*
X320936Y111632D01*
X322196Y112474D01*
X322432Y112827D01*
Y102613D01*
X322196Y102966D01*
X320936Y103808D01*
X319450Y104103D01*
X317963Y103808D01*
X316703Y102966D01*
X315861Y101706D01*
X315566Y100220D01*
X315861Y98734D01*
X316703Y97474D01*
X317963Y96632D01*
X319450Y96336D01*
X320936Y96632D01*
X322196Y97474D01*
X322432Y97827D01*
Y87613D01*
X322196Y87966D01*
X320936Y88808D01*
X319450Y89103D01*
X317963Y88808D01*
X316703Y87966D01*
X315861Y86706D01*
X315566Y85220D01*
X315861Y83734D01*
X316703Y82474D01*
X317963Y81632D01*
X319450Y81336D01*
X320936Y81632D01*
X322196Y82474D01*
X322432Y82827D01*
Y72613D01*
X322196Y72966D01*
X320936Y73808D01*
X319450Y74103D01*
X317963Y73808D01*
X316703Y72966D01*
X315861Y71706D01*
X315566Y70220D01*
X315861Y68734D01*
X316703Y67474D01*
X317963Y66632D01*
X319450Y66336D01*
X320936Y66632D01*
X322196Y67474D01*
X322432Y67827D01*
Y61608D01*
X335873D01*
X334514Y61338D01*
X333254Y60496D01*
X332412Y59236D01*
X332116Y57750D01*
X332412Y56264D01*
X333254Y55004D01*
X334514Y54162D01*
X336000Y53866D01*
X337486Y54162D01*
X338746Y55004D01*
X339588Y56264D01*
X339884Y57750D01*
X339588Y59236D01*
X338746Y60496D01*
X337486Y61338D01*
X336127Y61608D01*
X350873D01*
X349514Y61338D01*
X348254Y60496D01*
X347412Y59236D01*
X347116Y57750D01*
X347412Y56264D01*
X348254Y55004D01*
X349514Y54162D01*
X351000Y53866D01*
X352486Y54162D01*
X353746Y55004D01*
X354588Y56264D01*
X354884Y57750D01*
X354588Y59236D01*
X353746Y60496D01*
X352486Y61338D01*
X351127Y61608D01*
X365873D01*
X364514Y61338D01*
X363254Y60496D01*
X362412Y59236D01*
X362116Y57750D01*
X362412Y56264D01*
X363254Y55004D01*
X364514Y54162D01*
X366000Y53866D01*
X367486Y54162D01*
X368746Y55004D01*
X369588Y56264D01*
X369884Y57750D01*
X369588Y59236D01*
X368746Y60496D01*
X367486Y61338D01*
X366127Y61608D01*
X380874D01*
X379514Y61338D01*
X378254Y60496D01*
X377412Y59236D01*
X377116Y57750D01*
X377412Y56264D01*
X378254Y55004D01*
X379514Y54162D01*
X381000Y53866D01*
X382486Y54162D01*
X383746Y55004D01*
X384588Y56264D01*
X384884Y57750D01*
X384588Y59236D01*
X383746Y60496D01*
X382486Y61338D01*
X381126Y61608D01*
X385500D01*
Y2590D01*
X382122D01*
X382486Y2662D01*
X383746Y3504D01*
X384588Y4764D01*
X384883Y6250D01*
X384588Y7736D01*
X383746Y8996D01*
X382486Y9838D01*
X381000Y10134D01*
X379514Y9838D01*
X378254Y8996D01*
X377412Y7736D01*
X377116Y6250D01*
X377412Y4764D01*
X378254Y3504D01*
X379514Y2662D01*
X379878Y2590D01*
X367122D01*
X367486Y2662D01*
X368746Y3504D01*
X369588Y4764D01*
X369883Y6250D01*
X369588Y7736D01*
X368746Y8996D01*
X367486Y9838D01*
X366000Y10134D01*
X364514Y9838D01*
X363254Y8996D01*
X362412Y7736D01*
X362116Y6250D01*
X362412Y4764D01*
X363254Y3504D01*
X364514Y2662D01*
X364878Y2590D01*
X352122D01*
X352486Y2662D01*
X353746Y3504D01*
X354588Y4764D01*
X354883Y6250D01*
X354588Y7736D01*
X353746Y8996D01*
X352486Y9838D01*
X351000Y10134D01*
X349514Y9838D01*
X348254Y8996D01*
X347412Y7736D01*
X347116Y6250D01*
X347412Y4764D01*
X348254Y3504D01*
X349514Y2662D01*
X349878Y2590D01*
X337122D01*
X337486Y2662D01*
X338746Y3504D01*
X339588Y4764D01*
X339883Y6250D01*
X339588Y7736D01*
X338746Y8996D01*
X337486Y9838D01*
X336000Y10134D01*
X334514Y9838D01*
X333254Y8996D01*
X332412Y7736D01*
X332116Y6250D01*
X332412Y4764D01*
X333254Y3504D01*
X334514Y2662D01*
X334878Y2590D01*
X322122D01*
X322486Y2662D01*
X323746Y3504D01*
X324588Y4764D01*
X324883Y6250D01*
X324588Y7736D01*
X323746Y8996D01*
X322486Y9838D01*
X321000Y10134D01*
X319514Y9838D01*
X318254Y8996D01*
X317412Y7736D01*
X317116Y6250D01*
X317412Y4764D01*
X318254Y3504D01*
X319514Y2662D01*
X319878Y2590D01*
X307122D01*
X307486Y2662D01*
X308746Y3504D01*
X309588Y4764D01*
X309883Y6250D01*
X309588Y7736D01*
X308746Y8996D01*
X307486Y9838D01*
X306000Y10134D01*
X304514Y9838D01*
X303254Y8996D01*
X302412Y7736D01*
X302116Y6250D01*
X302412Y4764D01*
X303254Y3504D01*
X304514Y2662D01*
X304878Y2590D01*
X292122D01*
X292486Y2662D01*
X293746Y3504D01*
X294588Y4764D01*
X294883Y6250D01*
X294588Y7736D01*
X293746Y8996D01*
X292486Y9838D01*
X291000Y10134D01*
X289514Y9838D01*
X288254Y8996D01*
X287412Y7736D01*
X287116Y6250D01*
X287412Y4764D01*
X288254Y3504D01*
X289514Y2662D01*
X289878Y2590D01*
X277122D01*
X277486Y2662D01*
X278746Y3504D01*
X279588Y4764D01*
X279883Y6250D01*
X279588Y7736D01*
X278746Y8996D01*
X277486Y9838D01*
X276000Y10134D01*
X274514Y9838D01*
X273254Y8996D01*
X272412Y7736D01*
X272116Y6250D01*
X272412Y4764D01*
X273254Y3504D01*
X274514Y2662D01*
X274878Y2590D01*
X262122D01*
X262486Y2662D01*
X263746Y3504D01*
X264588Y4764D01*
X264883Y6250D01*
X264588Y7736D01*
X263746Y8996D01*
X262486Y9838D01*
X261000Y10134D01*
X259514Y9838D01*
X258254Y8996D01*
X257412Y7736D01*
X257116Y6250D01*
X257412Y4764D01*
X258254Y3504D01*
X259514Y2662D01*
X259878Y2590D01*
X247122D01*
X247486Y2662D01*
X248746Y3504D01*
X249588Y4764D01*
X249883Y6250D01*
X249588Y7736D01*
X248746Y8996D01*
X247486Y9838D01*
X246000Y10134D01*
X244514Y9838D01*
X243254Y8996D01*
X242412Y7736D01*
X242116Y6250D01*
X242412Y4764D01*
X243254Y3504D01*
X244514Y2662D01*
X244878Y2590D01*
X232122D01*
X232486Y2662D01*
X233746Y3504D01*
X234588Y4764D01*
X234883Y6250D01*
X234588Y7736D01*
X233746Y8996D01*
X232486Y9838D01*
X231000Y10134D01*
X229514Y9838D01*
X228254Y8996D01*
X227412Y7736D01*
X227116Y6250D01*
X227412Y4764D01*
X228254Y3504D01*
X229514Y2662D01*
X229878Y2590D01*
X217122D01*
X217486Y2662D01*
X218746Y3504D01*
X219588Y4764D01*
X219883Y6250D01*
X219588Y7736D01*
X218746Y8996D01*
X217486Y9838D01*
X216000Y10134D01*
X214514Y9838D01*
X213254Y8996D01*
X212412Y7736D01*
X212116Y6250D01*
X212412Y4764D01*
X213254Y3504D01*
X214514Y2662D01*
X214878Y2590D01*
X202122D01*
X202486Y2662D01*
X203746Y3504D01*
X204588Y4764D01*
X204883Y6250D01*
X204588Y7736D01*
X203746Y8996D01*
X202486Y9838D01*
X201000Y10134D01*
X199514Y9838D01*
X198254Y8996D01*
X197412Y7736D01*
X197116Y6250D01*
X197412Y4764D01*
X198254Y3504D01*
X199514Y2662D01*
X199878Y2590D01*
X187122D01*
X187486Y2662D01*
X188746Y3504D01*
X189588Y4764D01*
X189883Y6250D01*
X189588Y7736D01*
X188746Y8996D01*
X187486Y9838D01*
X186000Y10134D01*
X184514Y9838D01*
X183254Y8996D01*
X182412Y7736D01*
X182116Y6250D01*
X182412Y4764D01*
X183254Y3504D01*
X184514Y2662D01*
X184878Y2590D01*
X172122D01*
X172486Y2662D01*
X173746Y3504D01*
X174588Y4764D01*
X174883Y6250D01*
X174588Y7736D01*
X173746Y8996D01*
X172486Y9838D01*
X171000Y10134D01*
X169514Y9838D01*
X168254Y8996D01*
X167412Y7736D01*
X167116Y6250D01*
X167412Y4764D01*
X168254Y3504D01*
X169514Y2662D01*
X169878Y2590D01*
X157122D01*
X157486Y2662D01*
X158746Y3504D01*
X159588Y4764D01*
X159884Y6250D01*
X159588Y7736D01*
X158746Y8996D01*
X157486Y9838D01*
X156000Y10134D01*
X154514Y9838D01*
X153254Y8996D01*
X152412Y7736D01*
X152116Y6250D01*
X152412Y4764D01*
X153254Y3504D01*
X154514Y2662D01*
X154878Y2590D01*
X142122D01*
X142486Y2662D01*
X143746Y3504D01*
X144588Y4764D01*
X144884Y6250D01*
X144588Y7736D01*
X143746Y8996D01*
X142486Y9838D01*
X141000Y10134D01*
X139514Y9838D01*
X138254Y8996D01*
X137412Y7736D01*
X137116Y6250D01*
X137412Y4764D01*
X138254Y3504D01*
X139514Y2662D01*
X139878Y2590D01*
X127122D01*
X127486Y2662D01*
X128746Y3504D01*
X129588Y4764D01*
X129884Y6250D01*
X129588Y7736D01*
X128746Y8996D01*
X127486Y9838D01*
X126000Y10134D01*
X124514Y9838D01*
X123254Y8996D01*
X122412Y7736D01*
X122116Y6250D01*
X122412Y4764D01*
X123254Y3504D01*
X124514Y2662D01*
X124878Y2590D01*
X112122D01*
X112486Y2662D01*
X113746Y3504D01*
X114588Y4764D01*
X114884Y6250D01*
X114588Y7736D01*
X113746Y8996D01*
X112486Y9838D01*
X111000Y10134D01*
X109514Y9838D01*
X108254Y8996D01*
X107412Y7736D01*
X107116Y6250D01*
X107412Y4764D01*
X108254Y3504D01*
X109514Y2662D01*
X109878Y2590D01*
X97122D01*
X97486Y2662D01*
X98746Y3504D01*
X99588Y4764D01*
X99884Y6250D01*
X99588Y7736D01*
X98746Y8996D01*
X97486Y9838D01*
X96000Y10134D01*
X94514Y9838D01*
X93254Y8996D01*
X92412Y7736D01*
X92116Y6250D01*
X92412Y4764D01*
X93254Y3504D01*
X94514Y2662D01*
X94878Y2590D01*
X82122D01*
X82486Y2662D01*
X83746Y3504D01*
X84588Y4764D01*
X84884Y6250D01*
X84588Y7736D01*
X83746Y8996D01*
X82486Y9838D01*
X81000Y10134D01*
X79514Y9838D01*
X78254Y8996D01*
X77412Y7736D01*
X77116Y6250D01*
X77412Y4764D01*
X78254Y3504D01*
X79514Y2662D01*
X79878Y2590D01*
X67122D01*
X67486Y2662D01*
X68746Y3504D01*
X69588Y4764D01*
X69884Y6250D01*
X69588Y7736D01*
X68746Y8996D01*
X67486Y9838D01*
X66000Y10134D01*
X64514Y9838D01*
X63254Y8996D01*
X62412Y7736D01*
X62116Y6250D01*
X62412Y4764D01*
X63254Y3504D01*
X64514Y2662D01*
X64878Y2590D01*
X52122D01*
X52486Y2662D01*
X53746Y3504D01*
X54588Y4764D01*
X54884Y6250D01*
X54588Y7736D01*
X53746Y8996D01*
X52486Y9838D01*
X51000Y10134D01*
X49514Y9838D01*
X48254Y8996D01*
X47412Y7736D01*
X47116Y6250D01*
X47412Y4764D01*
X48254Y3504D01*
X49514Y2662D01*
X49878Y2590D01*
X37122D01*
X37486Y2662D01*
X38746Y3504D01*
X39588Y4764D01*
X39884Y6250D01*
X39588Y7736D01*
X38746Y8996D01*
X37486Y9838D01*
X36000Y10134D01*
X34514Y9838D01*
X33254Y8996D01*
X32412Y7736D01*
X32116Y6250D01*
X32412Y4764D01*
X33254Y3504D01*
X34514Y2662D01*
X34878Y2590D01*
X22122D01*
X22486Y2662D01*
X23746Y3504D01*
X24588Y4764D01*
X24884Y6250D01*
X24588Y7736D01*
X23746Y8996D01*
X22486Y9838D01*
X21000Y10134D01*
X19514Y9838D01*
X18254Y8996D01*
X17412Y7736D01*
X17116Y6250D01*
X17412Y4764D01*
X18254Y3504D01*
X19514Y2662D01*
X19878Y2590D01*
X2590D01*
Y387710D01*
X322432D01*
Y385844D01*
D02*
G37*
%LPC*%
G36*
X304250Y387634D02*
X302764Y387338D01*
X301504Y386496D01*
X300662Y385236D01*
X300366Y383750D01*
X300662Y382264D01*
X301504Y381004D01*
X302764Y380162D01*
X304250Y379866D01*
X305736Y380162D01*
X306996Y381004D01*
X307838Y382264D01*
X308134Y383750D01*
X307838Y385236D01*
X306996Y386496D01*
X305736Y387338D01*
X304250Y387634D01*
D02*
G37*
G36*
X289250D02*
X287764Y387338D01*
X286504Y386496D01*
X285662Y385236D01*
X285366Y383750D01*
X285662Y382264D01*
X286504Y381004D01*
X287764Y380162D01*
X289250Y379866D01*
X290736Y380162D01*
X291996Y381004D01*
X292838Y382264D01*
X293134Y383750D01*
X292838Y385236D01*
X291996Y386496D01*
X290736Y387338D01*
X289250Y387634D01*
D02*
G37*
G36*
X274250D02*
X272764Y387338D01*
X271504Y386496D01*
X270662Y385236D01*
X270366Y383750D01*
X270662Y382264D01*
X271504Y381004D01*
X272764Y380162D01*
X274250Y379866D01*
X275736Y380162D01*
X276996Y381004D01*
X277838Y382264D01*
X278134Y383750D01*
X277838Y385236D01*
X276996Y386496D01*
X275736Y387338D01*
X274250Y387634D01*
D02*
G37*
G36*
X259250D02*
X257764Y387338D01*
X256504Y386496D01*
X255662Y385236D01*
X255366Y383750D01*
X255662Y382264D01*
X256504Y381004D01*
X257764Y380162D01*
X259250Y379866D01*
X260736Y380162D01*
X261996Y381004D01*
X262838Y382264D01*
X263134Y383750D01*
X262838Y385236D01*
X261996Y386496D01*
X260736Y387338D01*
X259250Y387634D01*
D02*
G37*
G36*
X244250D02*
X242764Y387338D01*
X241504Y386496D01*
X240662Y385236D01*
X240366Y383750D01*
X240662Y382264D01*
X241504Y381004D01*
X242764Y380162D01*
X244250Y379866D01*
X245736Y380162D01*
X246996Y381004D01*
X247838Y382264D01*
X248134Y383750D01*
X247838Y385236D01*
X246996Y386496D01*
X245736Y387338D01*
X244250Y387634D01*
D02*
G37*
G36*
X229250D02*
X227764Y387338D01*
X226504Y386496D01*
X225662Y385236D01*
X225366Y383750D01*
X225662Y382264D01*
X226504Y381004D01*
X227764Y380162D01*
X229250Y379866D01*
X230736Y380162D01*
X231996Y381004D01*
X232838Y382264D01*
X233134Y383750D01*
X232838Y385236D01*
X231996Y386496D01*
X230736Y387338D01*
X229250Y387634D01*
D02*
G37*
G36*
X214250D02*
X212764Y387338D01*
X211504Y386496D01*
X210662Y385236D01*
X210366Y383750D01*
X210662Y382264D01*
X211504Y381004D01*
X212764Y380162D01*
X214250Y379866D01*
X215736Y380162D01*
X216996Y381004D01*
X217838Y382264D01*
X218134Y383750D01*
X217838Y385236D01*
X216996Y386496D01*
X215736Y387338D01*
X214250Y387634D01*
D02*
G37*
G36*
X199250D02*
X197764Y387338D01*
X196504Y386496D01*
X195662Y385236D01*
X195366Y383750D01*
X195662Y382264D01*
X196504Y381004D01*
X197764Y380162D01*
X199250Y379866D01*
X200736Y380162D01*
X201996Y381004D01*
X202838Y382264D01*
X203134Y383750D01*
X202838Y385236D01*
X201996Y386496D01*
X200736Y387338D01*
X199250Y387634D01*
D02*
G37*
G36*
X184250D02*
X182764Y387338D01*
X181504Y386496D01*
X180662Y385236D01*
X180366Y383750D01*
X180662Y382264D01*
X181504Y381004D01*
X182764Y380162D01*
X184250Y379866D01*
X185736Y380162D01*
X186996Y381004D01*
X187838Y382264D01*
X188134Y383750D01*
X187838Y385236D01*
X186996Y386496D01*
X185736Y387338D01*
X184250Y387634D01*
D02*
G37*
G36*
X169250D02*
X167764Y387338D01*
X166504Y386496D01*
X165662Y385236D01*
X165366Y383750D01*
X165662Y382264D01*
X166504Y381004D01*
X167764Y380162D01*
X169250Y379866D01*
X170736Y380162D01*
X171996Y381004D01*
X172838Y382264D01*
X173134Y383750D01*
X172838Y385236D01*
X171996Y386496D01*
X170736Y387338D01*
X169250Y387634D01*
D02*
G37*
G36*
X154250D02*
X152764Y387338D01*
X151504Y386496D01*
X150662Y385236D01*
X150366Y383750D01*
X150662Y382264D01*
X151504Y381004D01*
X152764Y380162D01*
X154250Y379866D01*
X155736Y380162D01*
X156996Y381004D01*
X157838Y382264D01*
X158134Y383750D01*
X157838Y385236D01*
X156996Y386496D01*
X155736Y387338D01*
X154250Y387634D01*
D02*
G37*
G36*
X139250D02*
X137764Y387338D01*
X136504Y386496D01*
X135662Y385236D01*
X135366Y383750D01*
X135662Y382264D01*
X136504Y381004D01*
X137764Y380162D01*
X139250Y379866D01*
X140736Y380162D01*
X141996Y381004D01*
X142838Y382264D01*
X143134Y383750D01*
X142838Y385236D01*
X141996Y386496D01*
X140736Y387338D01*
X139250Y387634D01*
D02*
G37*
G36*
X124250D02*
X122764Y387338D01*
X121504Y386496D01*
X120662Y385236D01*
X120366Y383750D01*
X120662Y382264D01*
X121504Y381004D01*
X122764Y380162D01*
X124250Y379866D01*
X125736Y380162D01*
X126996Y381004D01*
X127838Y382264D01*
X128134Y383750D01*
X127838Y385236D01*
X126996Y386496D01*
X125736Y387338D01*
X124250Y387634D01*
D02*
G37*
G36*
X109250D02*
X107764Y387338D01*
X106504Y386496D01*
X105662Y385236D01*
X105366Y383750D01*
X105662Y382264D01*
X106504Y381004D01*
X107764Y380162D01*
X109250Y379866D01*
X110736Y380162D01*
X111996Y381004D01*
X112838Y382264D01*
X113134Y383750D01*
X112838Y385236D01*
X111996Y386496D01*
X110736Y387338D01*
X109250Y387634D01*
D02*
G37*
G36*
X94250D02*
X92764Y387338D01*
X91504Y386496D01*
X90662Y385236D01*
X90366Y383750D01*
X90662Y382264D01*
X91504Y381004D01*
X92764Y380162D01*
X94250Y379866D01*
X95736Y380162D01*
X96996Y381004D01*
X97838Y382264D01*
X98134Y383750D01*
X97838Y385236D01*
X96996Y386496D01*
X95736Y387338D01*
X94250Y387634D01*
D02*
G37*
G36*
X79250D02*
X77764Y387338D01*
X76504Y386496D01*
X75662Y385236D01*
X75367Y383750D01*
X75662Y382264D01*
X76504Y381004D01*
X77764Y380162D01*
X79250Y379866D01*
X80736Y380162D01*
X81996Y381004D01*
X82838Y382264D01*
X83134Y383750D01*
X82838Y385236D01*
X81996Y386496D01*
X80736Y387338D01*
X79250Y387634D01*
D02*
G37*
G36*
X64250D02*
X62764Y387338D01*
X61504Y386496D01*
X60662Y385236D01*
X60367Y383750D01*
X60662Y382264D01*
X61504Y381004D01*
X62764Y380162D01*
X64250Y379866D01*
X65736Y380162D01*
X66996Y381004D01*
X67838Y382264D01*
X68134Y383750D01*
X67838Y385236D01*
X66996Y386496D01*
X65736Y387338D01*
X64250Y387634D01*
D02*
G37*
G36*
X49250D02*
X47764Y387338D01*
X46504Y386496D01*
X45662Y385236D01*
X45367Y383750D01*
X45662Y382264D01*
X46504Y381004D01*
X47764Y380162D01*
X49250Y379866D01*
X50736Y380162D01*
X51996Y381004D01*
X52838Y382264D01*
X53134Y383750D01*
X52838Y385236D01*
X51996Y386496D01*
X50736Y387338D01*
X49250Y387634D01*
D02*
G37*
G36*
X34250D02*
X32764Y387338D01*
X31504Y386496D01*
X30662Y385236D01*
X30366Y383750D01*
X30662Y382264D01*
X31504Y381004D01*
X32764Y380162D01*
X34250Y379866D01*
X35736Y380162D01*
X36996Y381004D01*
X37838Y382264D01*
X38134Y383750D01*
X37838Y385236D01*
X36996Y386496D01*
X35736Y387338D01*
X34250Y387634D01*
D02*
G37*
G36*
X21500D02*
X20014Y387338D01*
X18754Y386496D01*
X17912Y385236D01*
X17616Y383750D01*
X17912Y382264D01*
X18754Y381004D01*
X20014Y380162D01*
X21500Y379866D01*
X22986Y380162D01*
X24246Y381004D01*
X25088Y382264D01*
X25384Y383750D01*
X25088Y385236D01*
X24246Y386496D01*
X22986Y387338D01*
X21500Y387634D01*
D02*
G37*
G36*
X6500D02*
X5014Y387338D01*
X3754Y386496D01*
X2912Y385236D01*
X2616Y383750D01*
X2912Y382264D01*
X3754Y381004D01*
X5014Y380162D01*
X6500Y379866D01*
X7986Y380162D01*
X9246Y381004D01*
X10088Y382264D01*
X10384Y383750D01*
X10088Y385236D01*
X9246Y386496D01*
X7986Y387338D01*
X6500Y387634D01*
D02*
G37*
G36*
X304450Y374103D02*
X302963Y373808D01*
X301703Y372966D01*
X300861Y371706D01*
X300566Y370220D01*
X300861Y368733D01*
X301703Y367474D01*
X302963Y366632D01*
X304450Y366336D01*
X305936Y366632D01*
X307196Y367474D01*
X308037Y368733D01*
X308333Y370220D01*
X308037Y371706D01*
X307196Y372966D01*
X305936Y373808D01*
X304450Y374103D01*
D02*
G37*
G36*
X289450D02*
X287963Y373808D01*
X286703Y372966D01*
X285861Y371706D01*
X285566Y370220D01*
X285861Y368733D01*
X286703Y367474D01*
X287963Y366632D01*
X289450Y366336D01*
X290936Y366632D01*
X292196Y367474D01*
X293037Y368733D01*
X293333Y370220D01*
X293037Y371706D01*
X292196Y372966D01*
X290936Y373808D01*
X289450Y374103D01*
D02*
G37*
G36*
X274450D02*
X272963Y373808D01*
X271703Y372966D01*
X270861Y371706D01*
X270566Y370220D01*
X270861Y368733D01*
X271703Y367474D01*
X272963Y366632D01*
X274450Y366336D01*
X275936Y366632D01*
X277196Y367474D01*
X278037Y368733D01*
X278333Y370220D01*
X278037Y371706D01*
X277196Y372966D01*
X275936Y373808D01*
X274450Y374103D01*
D02*
G37*
G36*
X259450D02*
X257963Y373808D01*
X256703Y372966D01*
X255861Y371706D01*
X255566Y370220D01*
X255861Y368733D01*
X256703Y367474D01*
X257963Y366632D01*
X259450Y366336D01*
X260936Y366632D01*
X262196Y367474D01*
X263037Y368733D01*
X263333Y370220D01*
X263037Y371706D01*
X262196Y372966D01*
X260936Y373808D01*
X259450Y374103D01*
D02*
G37*
G36*
X244450D02*
X242963Y373808D01*
X241703Y372966D01*
X240861Y371706D01*
X240566Y370220D01*
X240861Y368733D01*
X241703Y367474D01*
X242963Y366632D01*
X244450Y366336D01*
X245936Y366632D01*
X247196Y367474D01*
X248037Y368733D01*
X248333Y370220D01*
X248037Y371706D01*
X247196Y372966D01*
X245936Y373808D01*
X244450Y374103D01*
D02*
G37*
G36*
X229450D02*
X227963Y373808D01*
X226703Y372966D01*
X225861Y371706D01*
X225566Y370220D01*
X225861Y368733D01*
X226703Y367474D01*
X227963Y366632D01*
X229450Y366336D01*
X230936Y366632D01*
X232196Y367474D01*
X233037Y368733D01*
X233333Y370220D01*
X233037Y371706D01*
X232196Y372966D01*
X230936Y373808D01*
X229450Y374103D01*
D02*
G37*
G36*
X214450D02*
X212963Y373808D01*
X211703Y372966D01*
X210861Y371706D01*
X210566Y370220D01*
X210861Y368733D01*
X211703Y367474D01*
X212963Y366632D01*
X214450Y366336D01*
X215936Y366632D01*
X217196Y367474D01*
X218037Y368733D01*
X218333Y370220D01*
X218037Y371706D01*
X217196Y372966D01*
X215936Y373808D01*
X214450Y374103D01*
D02*
G37*
G36*
X199450D02*
X197963Y373808D01*
X196703Y372966D01*
X195861Y371706D01*
X195566Y370220D01*
X195861Y368733D01*
X196703Y367474D01*
X197963Y366632D01*
X199450Y366336D01*
X200936Y366632D01*
X202196Y367474D01*
X203037Y368733D01*
X203333Y370220D01*
X203037Y371706D01*
X202196Y372966D01*
X200936Y373808D01*
X199450Y374103D01*
D02*
G37*
G36*
X184450D02*
X182963Y373808D01*
X181703Y372966D01*
X180861Y371706D01*
X180566Y370220D01*
X180861Y368733D01*
X181703Y367474D01*
X182963Y366632D01*
X184450Y366336D01*
X185936Y366632D01*
X187196Y367474D01*
X188037Y368733D01*
X188333Y370220D01*
X188037Y371706D01*
X187196Y372966D01*
X185936Y373808D01*
X184450Y374103D01*
D02*
G37*
G36*
X169450D02*
X167963Y373808D01*
X166703Y372966D01*
X165861Y371706D01*
X165566Y370220D01*
X165861Y368733D01*
X166703Y367474D01*
X167963Y366632D01*
X169450Y366336D01*
X170936Y366632D01*
X172196Y367474D01*
X173037Y368733D01*
X173333Y370220D01*
X173037Y371706D01*
X172196Y372966D01*
X170936Y373808D01*
X169450Y374103D01*
D02*
G37*
G36*
X154450D02*
X152963Y373808D01*
X151703Y372966D01*
X150862Y371706D01*
X150566Y370220D01*
X150862Y368733D01*
X151703Y367474D01*
X152963Y366632D01*
X154450Y366336D01*
X155936Y366632D01*
X157196Y367474D01*
X158038Y368733D01*
X158333Y370220D01*
X158038Y371706D01*
X157196Y372966D01*
X155936Y373808D01*
X154450Y374103D01*
D02*
G37*
G36*
X139450D02*
X137963Y373808D01*
X136703Y372966D01*
X135862Y371706D01*
X135566Y370220D01*
X135862Y368733D01*
X136703Y367474D01*
X137963Y366632D01*
X139450Y366336D01*
X140936Y366632D01*
X142196Y367474D01*
X143038Y368733D01*
X143333Y370220D01*
X143038Y371706D01*
X142196Y372966D01*
X140936Y373808D01*
X139450Y374103D01*
D02*
G37*
G36*
X49450D02*
X47963Y373808D01*
X46703Y372966D01*
X45862Y371706D01*
X45566Y370220D01*
X45862Y368733D01*
X46703Y367474D01*
X47963Y366632D01*
X49450Y366336D01*
X50936Y366632D01*
X52196Y367474D01*
X53038Y368733D01*
X53333Y370220D01*
X53038Y371706D01*
X52196Y372966D01*
X50936Y373808D01*
X49450Y374103D01*
D02*
G37*
G36*
X34450D02*
X32963Y373808D01*
X31703Y372966D01*
X30862Y371706D01*
X30566Y370220D01*
X30862Y368733D01*
X31703Y367474D01*
X32963Y366632D01*
X34450Y366336D01*
X35936Y366632D01*
X37196Y367474D01*
X38038Y368733D01*
X38333Y370220D01*
X38038Y371706D01*
X37196Y372966D01*
X35936Y373808D01*
X34450Y374103D01*
D02*
G37*
G36*
X19450D02*
X17963Y373808D01*
X16703Y372966D01*
X15862Y371706D01*
X15566Y370220D01*
X15862Y368733D01*
X16703Y367474D01*
X17963Y366632D01*
X19450Y366336D01*
X20936Y366632D01*
X22196Y367474D01*
X23038Y368733D01*
X23333Y370220D01*
X23038Y371706D01*
X22196Y372966D01*
X20936Y373808D01*
X19450Y374103D01*
D02*
G37*
G36*
X6500Y372634D02*
X5014Y372338D01*
X3754Y371496D01*
X2912Y370236D01*
X2616Y368750D01*
X2912Y367264D01*
X3754Y366004D01*
X5014Y365162D01*
X6500Y364866D01*
X7986Y365162D01*
X9246Y366004D01*
X10088Y367264D01*
X10384Y368750D01*
X10088Y370236D01*
X9246Y371496D01*
X7986Y372338D01*
X6500Y372634D01*
D02*
G37*
G36*
X289450Y359103D02*
X287963Y358808D01*
X286703Y357966D01*
X285861Y356706D01*
X285566Y355220D01*
X285861Y353733D01*
X286703Y352474D01*
X287963Y351632D01*
X289450Y351336D01*
X290936Y351632D01*
X292196Y352474D01*
X293037Y353733D01*
X293333Y355220D01*
X293037Y356706D01*
X292196Y357966D01*
X290936Y358808D01*
X289450Y359103D01*
D02*
G37*
G36*
X274450D02*
X272963Y358808D01*
X271703Y357966D01*
X270861Y356706D01*
X270566Y355220D01*
X270861Y353733D01*
X271703Y352474D01*
X272963Y351632D01*
X274450Y351336D01*
X275936Y351632D01*
X277196Y352474D01*
X278037Y353733D01*
X278333Y355220D01*
X278037Y356706D01*
X277196Y357966D01*
X275936Y358808D01*
X274450Y359103D01*
D02*
G37*
G36*
X259450D02*
X257963Y358808D01*
X256703Y357966D01*
X255861Y356706D01*
X255566Y355220D01*
X255861Y353733D01*
X256703Y352474D01*
X257963Y351632D01*
X259450Y351336D01*
X260936Y351632D01*
X262196Y352474D01*
X263037Y353733D01*
X263333Y355220D01*
X263037Y356706D01*
X262196Y357966D01*
X260936Y358808D01*
X259450Y359103D01*
D02*
G37*
G36*
X244450D02*
X242963Y358808D01*
X241703Y357966D01*
X240861Y356706D01*
X240566Y355220D01*
X240861Y353733D01*
X241703Y352474D01*
X242963Y351632D01*
X244450Y351336D01*
X245936Y351632D01*
X247196Y352474D01*
X248037Y353733D01*
X248333Y355220D01*
X248037Y356706D01*
X247196Y357966D01*
X245936Y358808D01*
X244450Y359103D01*
D02*
G37*
G36*
X214450D02*
X212963Y358808D01*
X211703Y357966D01*
X210861Y356706D01*
X210566Y355220D01*
X210861Y353733D01*
X211703Y352474D01*
X212963Y351632D01*
X214450Y351336D01*
X215936Y351632D01*
X217196Y352474D01*
X218037Y353733D01*
X218333Y355220D01*
X218037Y356706D01*
X217196Y357966D01*
X215936Y358808D01*
X214450Y359103D01*
D02*
G37*
G36*
X199450D02*
X197963Y358808D01*
X196703Y357966D01*
X195861Y356706D01*
X195566Y355220D01*
X195861Y353733D01*
X196703Y352474D01*
X197963Y351632D01*
X199450Y351336D01*
X200936Y351632D01*
X202196Y352474D01*
X203037Y353733D01*
X203333Y355220D01*
X203037Y356706D01*
X202196Y357966D01*
X200936Y358808D01*
X199450Y359103D01*
D02*
G37*
G36*
X184450D02*
X182963Y358808D01*
X181703Y357966D01*
X180861Y356706D01*
X180566Y355220D01*
X180861Y353733D01*
X181703Y352474D01*
X182963Y351632D01*
X184450Y351336D01*
X185936Y351632D01*
X187196Y352474D01*
X188037Y353733D01*
X188333Y355220D01*
X188037Y356706D01*
X187196Y357966D01*
X185936Y358808D01*
X184450Y359103D01*
D02*
G37*
G36*
X169450D02*
X167963Y358808D01*
X166703Y357966D01*
X165861Y356706D01*
X165566Y355220D01*
X165861Y353733D01*
X166703Y352474D01*
X167963Y351632D01*
X169450Y351336D01*
X170936Y351632D01*
X172196Y352474D01*
X173037Y353733D01*
X173333Y355220D01*
X173037Y356706D01*
X172196Y357966D01*
X170936Y358808D01*
X169450Y359103D01*
D02*
G37*
G36*
X154450D02*
X152963Y358808D01*
X151703Y357966D01*
X150862Y356706D01*
X150566Y355220D01*
X150862Y353733D01*
X151703Y352474D01*
X152963Y351632D01*
X154450Y351336D01*
X155936Y351632D01*
X157196Y352474D01*
X158038Y353733D01*
X158333Y355220D01*
X158038Y356706D01*
X157196Y357966D01*
X155936Y358808D01*
X154450Y359103D01*
D02*
G37*
G36*
X139450D02*
X137963Y358808D01*
X136703Y357966D01*
X135862Y356706D01*
X135566Y355220D01*
X135862Y353733D01*
X136703Y352474D01*
X137963Y351632D01*
X139450Y351336D01*
X140936Y351632D01*
X142196Y352474D01*
X143038Y353733D01*
X143333Y355220D01*
X143038Y356706D01*
X142196Y357966D01*
X140936Y358808D01*
X139450Y359103D01*
D02*
G37*
G36*
X124450D02*
X122963Y358808D01*
X121703Y357966D01*
X120862Y356706D01*
X120566Y355220D01*
X120862Y353733D01*
X121703Y352474D01*
X122963Y351632D01*
X124450Y351336D01*
X125936Y351632D01*
X127196Y352474D01*
X128038Y353733D01*
X128333Y355220D01*
X128038Y356706D01*
X127196Y357966D01*
X125936Y358808D01*
X124450Y359103D01*
D02*
G37*
G36*
X64450D02*
X62963Y358808D01*
X61703Y357966D01*
X60862Y356706D01*
X60566Y355220D01*
X60862Y353733D01*
X61703Y352474D01*
X62963Y351632D01*
X64450Y351336D01*
X65936Y351632D01*
X67196Y352474D01*
X68038Y353733D01*
X68333Y355220D01*
X68038Y356706D01*
X67196Y357966D01*
X65936Y358808D01*
X64450Y359103D01*
D02*
G37*
G36*
X29700Y364671D02*
X25921Y364299D01*
X22287Y363197D01*
X18938Y361407D01*
X16002Y358998D01*
X13593Y356062D01*
X11803Y352713D01*
X10701Y349079D01*
X10329Y345300D01*
X10701Y341521D01*
X11803Y337887D01*
X13593Y334538D01*
X16002Y331602D01*
X18938Y329193D01*
X19200Y329053D01*
X17963Y328808D01*
X16703Y327966D01*
X15862Y326706D01*
X15566Y325220D01*
X15862Y323733D01*
X16703Y322474D01*
X17963Y321632D01*
X19450Y321336D01*
X20936Y321632D01*
X22196Y322474D01*
X23038Y323733D01*
X23333Y325220D01*
X23038Y326706D01*
X22644Y327295D01*
X25921Y326301D01*
X29700Y325929D01*
X33479Y326301D01*
X37113Y327403D01*
X40462Y329193D01*
X43398Y331602D01*
X45807Y334538D01*
X47597Y337887D01*
X48699Y341521D01*
X49071Y345300D01*
X48699Y349079D01*
X47915Y351664D01*
X47963Y351632D01*
X49450Y351336D01*
X50936Y351632D01*
X52196Y352474D01*
X53038Y353733D01*
X53333Y355220D01*
X53038Y356706D01*
X52196Y357966D01*
X50936Y358808D01*
X49450Y359103D01*
X47963Y358808D01*
X46703Y357966D01*
X45862Y356706D01*
X45748Y356134D01*
X43398Y358998D01*
X40462Y361407D01*
X37113Y363197D01*
X33479Y364299D01*
X29700Y364671D01*
D02*
G37*
G36*
X6500Y357634D02*
X5014Y357338D01*
X3754Y356496D01*
X2912Y355236D01*
X2616Y353750D01*
X2912Y352264D01*
X3754Y351004D01*
X5014Y350162D01*
X6500Y349866D01*
X7986Y350162D01*
X9246Y351004D01*
X10088Y352264D01*
X10384Y353750D01*
X10088Y355236D01*
X9246Y356496D01*
X7986Y357338D01*
X6500Y357634D01*
D02*
G37*
G36*
X228750Y361117D02*
X226983Y360765D01*
X225485Y359765D01*
X224485Y358267D01*
X224133Y356500D01*
X224485Y354733D01*
X225485Y353236D01*
X226586Y352500D01*
X225485Y351764D01*
X224485Y350267D01*
X224133Y348500D01*
X224485Y346733D01*
X225485Y345235D01*
X226983Y344235D01*
X228750Y343883D01*
X230517Y344235D01*
X232015Y345235D01*
X233015Y346733D01*
X233367Y348500D01*
X233015Y350267D01*
X232015Y351764D01*
X230914Y352500D01*
X232015Y353236D01*
X233015Y354733D01*
X233367Y356500D01*
X233015Y358267D01*
X232015Y359765D01*
X230517Y360765D01*
X228750Y361117D01*
D02*
G37*
G36*
X289450Y344103D02*
X287963Y343808D01*
X286703Y342966D01*
X285861Y341706D01*
X285566Y340220D01*
X285861Y338733D01*
X286703Y337474D01*
X287963Y336632D01*
X289450Y336336D01*
X290936Y336632D01*
X292196Y337474D01*
X293037Y338733D01*
X293333Y340220D01*
X293037Y341706D01*
X292196Y342966D01*
X290936Y343808D01*
X289450Y344103D01*
D02*
G37*
G36*
X274450D02*
X272963Y343808D01*
X271703Y342966D01*
X270861Y341706D01*
X270566Y340220D01*
X270861Y338733D01*
X271703Y337474D01*
X272963Y336632D01*
X274450Y336336D01*
X275936Y336632D01*
X277196Y337474D01*
X278037Y338733D01*
X278333Y340220D01*
X278037Y341706D01*
X277196Y342966D01*
X275936Y343808D01*
X274450Y344103D01*
D02*
G37*
G36*
X259450D02*
X257963Y343808D01*
X256703Y342966D01*
X255861Y341706D01*
X255566Y340220D01*
X255861Y338733D01*
X256703Y337474D01*
X257963Y336632D01*
X259450Y336336D01*
X260936Y336632D01*
X262196Y337474D01*
X263037Y338733D01*
X263333Y340220D01*
X263037Y341706D01*
X262196Y342966D01*
X260936Y343808D01*
X259450Y344103D01*
D02*
G37*
G36*
X139450D02*
X137963Y343808D01*
X136703Y342966D01*
X135862Y341706D01*
X135566Y340220D01*
X135862Y338733D01*
X136703Y337474D01*
X137963Y336632D01*
X139450Y336336D01*
X140936Y336632D01*
X142196Y337474D01*
X143038Y338733D01*
X143333Y340220D01*
X143038Y341706D01*
X142196Y342966D01*
X140936Y343808D01*
X139450Y344103D01*
D02*
G37*
G36*
X124450D02*
X122963Y343808D01*
X121703Y342966D01*
X120862Y341706D01*
X120566Y340220D01*
X120862Y338733D01*
X121703Y337474D01*
X122963Y336632D01*
X124450Y336336D01*
X125936Y336632D01*
X127196Y337474D01*
X128038Y338733D01*
X128333Y340220D01*
X128038Y341706D01*
X127196Y342966D01*
X125936Y343808D01*
X124450Y344103D01*
D02*
G37*
G36*
X64450D02*
X62963Y343808D01*
X61703Y342966D01*
X60862Y341706D01*
X60566Y340220D01*
X60862Y338733D01*
X61703Y337474D01*
X62963Y336632D01*
X64450Y336336D01*
X65936Y336632D01*
X67196Y337474D01*
X68038Y338733D01*
X68333Y340220D01*
X68038Y341706D01*
X67196Y342966D01*
X65936Y343808D01*
X64450Y344103D01*
D02*
G37*
G36*
X6500Y342634D02*
X5014Y342338D01*
X3754Y341496D01*
X2912Y340236D01*
X2616Y338750D01*
X2912Y337264D01*
X3754Y336004D01*
X5014Y335162D01*
X6500Y334866D01*
X7986Y335162D01*
X9246Y336004D01*
X10088Y337264D01*
X10384Y338750D01*
X10088Y340236D01*
X9246Y341496D01*
X7986Y342338D01*
X6500Y342634D01*
D02*
G37*
G36*
X245250Y340634D02*
X243764Y340338D01*
X242504Y339496D01*
X241662Y338236D01*
X241366Y336750D01*
X241662Y335264D01*
X242504Y334004D01*
X243764Y333162D01*
X245250Y332866D01*
X246736Y333162D01*
X247996Y334004D01*
X248838Y335264D01*
X249134Y336750D01*
X248838Y338236D01*
X247996Y339496D01*
X246736Y340338D01*
X245250Y340634D01*
D02*
G37*
G36*
X215500D02*
X214014Y340338D01*
X212754Y339496D01*
X211912Y338236D01*
X211616Y336750D01*
X211912Y335264D01*
X212754Y334004D01*
X214014Y333162D01*
X215500Y332866D01*
X216986Y333162D01*
X218246Y334004D01*
X219088Y335264D01*
X219384Y336750D01*
X219088Y338236D01*
X218246Y339496D01*
X216986Y340338D01*
X215500Y340634D01*
D02*
G37*
G36*
X290500Y332634D02*
X289014Y332338D01*
X287754Y331496D01*
X286912Y330236D01*
X286616Y328750D01*
X286912Y327264D01*
X287754Y326004D01*
X289014Y325162D01*
X290500Y324866D01*
X291986Y325162D01*
X293246Y326004D01*
X294088Y327264D01*
X294384Y328750D01*
X294088Y330236D01*
X293246Y331496D01*
X291986Y332338D01*
X290500Y332634D01*
D02*
G37*
G36*
X184450Y329103D02*
X182963Y328808D01*
X181703Y327966D01*
X180861Y326706D01*
X180566Y325220D01*
X180861Y323733D01*
X181703Y322474D01*
X182963Y321632D01*
X184450Y321336D01*
X185936Y321632D01*
X187196Y322474D01*
X188037Y323733D01*
X188333Y325220D01*
X188037Y326706D01*
X187196Y327966D01*
X185936Y328808D01*
X184450Y329103D01*
D02*
G37*
G36*
X169450D02*
X167963Y328808D01*
X166703Y327966D01*
X165861Y326706D01*
X165566Y325220D01*
X165861Y323733D01*
X166703Y322474D01*
X167963Y321632D01*
X169450Y321336D01*
X170936Y321632D01*
X172196Y322474D01*
X173037Y323733D01*
X173333Y325220D01*
X173037Y326706D01*
X172196Y327966D01*
X170936Y328808D01*
X169450Y329103D01*
D02*
G37*
G36*
X154450D02*
X152963Y328808D01*
X151703Y327966D01*
X150862Y326706D01*
X150566Y325220D01*
X150862Y323733D01*
X151703Y322474D01*
X152963Y321632D01*
X154450Y321336D01*
X155936Y321632D01*
X157196Y322474D01*
X158038Y323733D01*
X158333Y325220D01*
X158038Y326706D01*
X157196Y327966D01*
X155936Y328808D01*
X154450Y329103D01*
D02*
G37*
G36*
X124450D02*
X122963Y328808D01*
X121703Y327966D01*
X120862Y326706D01*
X120566Y325220D01*
X120862Y323733D01*
X121703Y322474D01*
X122963Y321632D01*
X124450Y321336D01*
X125936Y321632D01*
X127196Y322474D01*
X128038Y323733D01*
X128333Y325220D01*
X128038Y326706D01*
X127196Y327966D01*
X125936Y328808D01*
X124450Y329103D01*
D02*
G37*
G36*
X64450D02*
X62963Y328808D01*
X61703Y327966D01*
X60862Y326706D01*
X60566Y325220D01*
X60862Y323733D01*
X61703Y322474D01*
X62963Y321632D01*
X64450Y321336D01*
X65936Y321632D01*
X67196Y322474D01*
X68038Y323733D01*
X68333Y325220D01*
X68038Y326706D01*
X67196Y327966D01*
X65936Y328808D01*
X64450Y329103D01*
D02*
G37*
G36*
X49450D02*
X47963Y328808D01*
X46703Y327966D01*
X45862Y326706D01*
X45566Y325220D01*
X45862Y323733D01*
X46703Y322474D01*
X47963Y321632D01*
X49450Y321336D01*
X50936Y321632D01*
X52196Y322474D01*
X53038Y323733D01*
X53333Y325220D01*
X53038Y326706D01*
X52196Y327966D01*
X50936Y328808D01*
X49450Y329103D01*
D02*
G37*
G36*
X6500Y327634D02*
X5014Y327338D01*
X3754Y326496D01*
X2912Y325236D01*
X2616Y323750D01*
X2912Y322264D01*
X3754Y321004D01*
X5014Y320162D01*
X6500Y319866D01*
X7986Y320162D01*
X9246Y321004D01*
X10088Y322264D01*
X10384Y323750D01*
X10088Y325236D01*
X9246Y326496D01*
X7986Y327338D01*
X6500Y327634D01*
D02*
G37*
G36*
X280250Y323384D02*
X278764Y323088D01*
X277504Y322246D01*
X276662Y320986D01*
X276366Y319500D01*
X276662Y318014D01*
X277504Y316754D01*
X278764Y315912D01*
X280250Y315616D01*
X281736Y315912D01*
X282996Y316754D01*
X283838Y318014D01*
X284134Y319500D01*
X283838Y320986D01*
X282996Y322246D01*
X281736Y323088D01*
X280250Y323384D01*
D02*
G37*
G36*
X192552Y321186D02*
X191066Y320890D01*
X189806Y320048D01*
X188964Y318788D01*
X188668Y317302D01*
X188964Y315816D01*
X189806Y314556D01*
X191066Y313714D01*
X192552Y313418D01*
X194038Y313714D01*
X195298Y314556D01*
X196140Y315816D01*
X196436Y317302D01*
X196140Y318788D01*
X195298Y320048D01*
X194038Y320890D01*
X192552Y321186D01*
D02*
G37*
G36*
X169450Y314103D02*
X167963Y313808D01*
X166703Y312966D01*
X165861Y311706D01*
X165566Y310220D01*
X165861Y308734D01*
X166703Y307474D01*
X167963Y306632D01*
X169450Y306336D01*
X170936Y306632D01*
X172196Y307474D01*
X173037Y308734D01*
X173333Y310220D01*
X173037Y311706D01*
X172196Y312966D01*
X170936Y313808D01*
X169450Y314103D01*
D02*
G37*
G36*
X154450D02*
X152963Y313808D01*
X151703Y312966D01*
X150862Y311706D01*
X150566Y310220D01*
X150862Y308734D01*
X151703Y307474D01*
X152963Y306632D01*
X154450Y306336D01*
X155936Y306632D01*
X157196Y307474D01*
X158038Y308734D01*
X158333Y310220D01*
X158038Y311706D01*
X157196Y312966D01*
X155936Y313808D01*
X154450Y314103D01*
D02*
G37*
G36*
X139450D02*
X137963Y313808D01*
X136703Y312966D01*
X135862Y311706D01*
X135566Y310220D01*
X135862Y308734D01*
X136703Y307474D01*
X137963Y306632D01*
X139450Y306336D01*
X140936Y306632D01*
X142196Y307474D01*
X143038Y308734D01*
X143333Y310220D01*
X143038Y311706D01*
X142196Y312966D01*
X140936Y313808D01*
X139450Y314103D01*
D02*
G37*
G36*
X64450D02*
X62963Y313808D01*
X61703Y312966D01*
X60862Y311706D01*
X60566Y310220D01*
X60862Y308734D01*
X61703Y307474D01*
X62963Y306632D01*
X64450Y306336D01*
X65936Y306632D01*
X67196Y307474D01*
X68038Y308734D01*
X68333Y310220D01*
X68038Y311706D01*
X67196Y312966D01*
X65936Y313808D01*
X64450Y314103D01*
D02*
G37*
G36*
X49450D02*
X47963Y313808D01*
X46703Y312966D01*
X45862Y311706D01*
X45566Y310220D01*
X45862Y308734D01*
X46703Y307474D01*
X47963Y306632D01*
X49450Y306336D01*
X50936Y306632D01*
X52196Y307474D01*
X53038Y308734D01*
X53333Y310220D01*
X53038Y311706D01*
X52196Y312966D01*
X50936Y313808D01*
X49450Y314103D01*
D02*
G37*
G36*
X34450D02*
X32963Y313808D01*
X31703Y312966D01*
X30862Y311706D01*
X30566Y310220D01*
X30862Y308734D01*
X31703Y307474D01*
X32963Y306632D01*
X34450Y306336D01*
X35936Y306632D01*
X37196Y307474D01*
X38038Y308734D01*
X38333Y310220D01*
X38038Y311706D01*
X37196Y312966D01*
X35936Y313808D01*
X34450Y314103D01*
D02*
G37*
G36*
X19450D02*
X17963Y313808D01*
X16703Y312966D01*
X15862Y311706D01*
X15566Y310220D01*
X15862Y308734D01*
X16703Y307474D01*
X17963Y306632D01*
X19450Y306336D01*
X20936Y306632D01*
X22196Y307474D01*
X23038Y308734D01*
X23333Y310220D01*
X23038Y311706D01*
X22196Y312966D01*
X20936Y313808D01*
X19450Y314103D01*
D02*
G37*
G36*
X6500Y312634D02*
X5014Y312338D01*
X3754Y311496D01*
X2912Y310236D01*
X2616Y308750D01*
X2912Y307264D01*
X3754Y306004D01*
X5014Y305162D01*
X6500Y304866D01*
X7986Y305162D01*
X9246Y306004D01*
X10088Y307264D01*
X10384Y308750D01*
X10088Y310236D01*
X9246Y311496D01*
X7986Y312338D01*
X6500Y312634D01*
D02*
G37*
G36*
X274450Y314103D02*
X272963Y313808D01*
X271703Y312966D01*
X270861Y311706D01*
X270566Y310220D01*
X270861Y308734D01*
X271703Y307474D01*
X272963Y306632D01*
X274450Y306336D01*
X275936Y306632D01*
X277196Y307474D01*
X277431Y307826D01*
X277366Y307500D01*
X277662Y306014D01*
X278504Y304754D01*
X279764Y303912D01*
X281250Y303616D01*
X282736Y303912D01*
X283996Y304754D01*
X284838Y306014D01*
X285134Y307500D01*
X284838Y308986D01*
X283996Y310246D01*
X282736Y311088D01*
X281250Y311384D01*
X279764Y311088D01*
X278504Y310246D01*
X278268Y309893D01*
X278333Y310220D01*
X278037Y311706D01*
X277196Y312966D01*
X275936Y313808D01*
X274450Y314103D01*
D02*
G37*
G36*
X169000Y302884D02*
X167514Y302588D01*
X166254Y301746D01*
X165412Y300486D01*
X165116Y299000D01*
X165412Y297514D01*
X166254Y296254D01*
X167514Y295412D01*
X169000Y295116D01*
X170486Y295412D01*
X171746Y296254D01*
X172588Y297514D01*
X172884Y299000D01*
X172588Y300486D01*
X171746Y301746D01*
X170486Y302588D01*
X169000Y302884D01*
D02*
G37*
G36*
X154450Y299103D02*
X152963Y298808D01*
X151703Y297966D01*
X150862Y296706D01*
X150566Y295220D01*
X150862Y293734D01*
X151703Y292474D01*
X152963Y291632D01*
X154450Y291336D01*
X155936Y291632D01*
X157196Y292474D01*
X158038Y293734D01*
X158333Y295220D01*
X158038Y296706D01*
X157196Y297966D01*
X155936Y298808D01*
X154450Y299103D01*
D02*
G37*
G36*
X139450D02*
X137963Y298808D01*
X136703Y297966D01*
X135862Y296706D01*
X135566Y295220D01*
X135862Y293734D01*
X136703Y292474D01*
X137963Y291632D01*
X139450Y291336D01*
X140936Y291632D01*
X142196Y292474D01*
X143038Y293734D01*
X143333Y295220D01*
X143038Y296706D01*
X142196Y297966D01*
X140936Y298808D01*
X139450Y299103D01*
D02*
G37*
G36*
X124450D02*
X122963Y298808D01*
X121703Y297966D01*
X120862Y296706D01*
X120566Y295220D01*
X120862Y293734D01*
X121703Y292474D01*
X122963Y291632D01*
X124450Y291336D01*
X125936Y291632D01*
X127196Y292474D01*
X128038Y293734D01*
X128333Y295220D01*
X128038Y296706D01*
X127196Y297966D01*
X125936Y298808D01*
X124450Y299103D01*
D02*
G37*
G36*
X94450D02*
X92963Y298808D01*
X91703Y297966D01*
X90862Y296706D01*
X90566Y295220D01*
X90862Y293734D01*
X91703Y292474D01*
X92963Y291632D01*
X94450Y291336D01*
X95936Y291632D01*
X97196Y292474D01*
X98038Y293734D01*
X98333Y295220D01*
X98038Y296706D01*
X97196Y297966D01*
X95936Y298808D01*
X94450Y299103D01*
D02*
G37*
G36*
X79450D02*
X77963Y298808D01*
X76703Y297966D01*
X75862Y296706D01*
X75566Y295220D01*
X75862Y293734D01*
X76703Y292474D01*
X77963Y291632D01*
X79450Y291336D01*
X80936Y291632D01*
X82196Y292474D01*
X83038Y293734D01*
X83333Y295220D01*
X83038Y296706D01*
X82196Y297966D01*
X80936Y298808D01*
X79450Y299103D01*
D02*
G37*
G36*
X64450D02*
X62963Y298808D01*
X61703Y297966D01*
X60862Y296706D01*
X60566Y295220D01*
X60862Y293734D01*
X61703Y292474D01*
X62963Y291632D01*
X64450Y291336D01*
X65936Y291632D01*
X67196Y292474D01*
X68038Y293734D01*
X68333Y295220D01*
X68038Y296706D01*
X67196Y297966D01*
X65936Y298808D01*
X64450Y299103D01*
D02*
G37*
G36*
X49450D02*
X47963Y298808D01*
X46703Y297966D01*
X45862Y296706D01*
X45566Y295220D01*
X45862Y293734D01*
X46703Y292474D01*
X47963Y291632D01*
X49450Y291336D01*
X50936Y291632D01*
X52196Y292474D01*
X53038Y293734D01*
X53333Y295220D01*
X53038Y296706D01*
X52196Y297966D01*
X50936Y298808D01*
X49450Y299103D01*
D02*
G37*
G36*
X34450D02*
X32963Y298808D01*
X31703Y297966D01*
X30862Y296706D01*
X30566Y295220D01*
X30862Y293734D01*
X31703Y292474D01*
X32963Y291632D01*
X34450Y291336D01*
X35936Y291632D01*
X37196Y292474D01*
X38038Y293734D01*
X38333Y295220D01*
X38038Y296706D01*
X37196Y297966D01*
X35936Y298808D01*
X34450Y299103D01*
D02*
G37*
G36*
X19450D02*
X17963Y298808D01*
X16703Y297966D01*
X15862Y296706D01*
X15566Y295220D01*
X15862Y293734D01*
X16703Y292474D01*
X17963Y291632D01*
X19450Y291336D01*
X20936Y291632D01*
X22196Y292474D01*
X23038Y293734D01*
X23333Y295220D01*
X23038Y296706D01*
X22196Y297966D01*
X20936Y298808D01*
X19450Y299103D01*
D02*
G37*
G36*
X281250Y298884D02*
X279764Y298588D01*
X278504Y297746D01*
X277662Y296486D01*
X277366Y295000D01*
X277662Y293514D01*
X278504Y292254D01*
X279764Y291412D01*
X281250Y291116D01*
X282736Y291412D01*
X283996Y292254D01*
X284838Y293514D01*
X285134Y295000D01*
X284838Y296486D01*
X283996Y297746D01*
X282736Y298588D01*
X281250Y298884D01*
D02*
G37*
G36*
X6500Y297634D02*
X5014Y297338D01*
X3754Y296496D01*
X2912Y295236D01*
X2616Y293750D01*
X2912Y292264D01*
X3754Y291004D01*
X5014Y290162D01*
X6500Y289866D01*
X7986Y290162D01*
X9246Y291004D01*
X10088Y292264D01*
X10384Y293750D01*
X10088Y295236D01*
X9246Y296496D01*
X7986Y297338D01*
X6500Y297634D01*
D02*
G37*
G36*
X247652Y295701D02*
X245691Y295311D01*
X244030Y294200D01*
X242919Y292539D01*
X242529Y290578D01*
X242919Y288618D01*
X244030Y286956D01*
X245691Y285846D01*
X247652Y285456D01*
X249612Y285846D01*
X251274Y286956D01*
X252384Y288618D01*
X252774Y290578D01*
X252384Y292539D01*
X251274Y294200D01*
X249612Y295311D01*
X247652Y295701D01*
D02*
G37*
G36*
X233682D02*
X231721Y295311D01*
X230060Y294200D01*
X228949Y292539D01*
X228559Y290578D01*
X228949Y288618D01*
X230060Y286956D01*
X231721Y285846D01*
X233682Y285456D01*
X235642Y285846D01*
X237304Y286956D01*
X238414Y288618D01*
X238804Y290578D01*
X238414Y292539D01*
X237304Y294200D01*
X235642Y295311D01*
X233682Y295701D01*
D02*
G37*
G36*
X219712D02*
X217751Y295311D01*
X216089Y294200D01*
X214979Y292539D01*
X214589Y290578D01*
X214979Y288618D01*
X216089Y286956D01*
X217751Y285846D01*
X219712Y285456D01*
X221672Y285846D01*
X223334Y286956D01*
X224444Y288618D01*
X224834Y290578D01*
X224444Y292539D01*
X223334Y294200D01*
X221672Y295311D01*
X219712Y295701D01*
D02*
G37*
G36*
X275500Y290634D02*
X274014Y290338D01*
X272754Y289496D01*
X271912Y288236D01*
X271616Y286750D01*
X271912Y285264D01*
X272754Y284004D01*
X274014Y283162D01*
X275500Y282866D01*
X276986Y283162D01*
X278246Y284004D01*
X279088Y285264D01*
X279384Y286750D01*
X279088Y288236D01*
X278246Y289496D01*
X276986Y290338D01*
X275500Y290634D01*
D02*
G37*
G36*
X154450Y284103D02*
X152963Y283808D01*
X151703Y282966D01*
X150862Y281706D01*
X150566Y280220D01*
X150862Y278734D01*
X151703Y277474D01*
X152963Y276632D01*
X154450Y276336D01*
X155936Y276632D01*
X157196Y277474D01*
X158038Y278734D01*
X158333Y280220D01*
X158038Y281706D01*
X157196Y282966D01*
X155936Y283808D01*
X154450Y284103D01*
D02*
G37*
G36*
X79450D02*
X77963Y283808D01*
X76703Y282966D01*
X75862Y281706D01*
X75566Y280220D01*
X75862Y278734D01*
X76703Y277474D01*
X77963Y276632D01*
X79450Y276336D01*
X80936Y276632D01*
X82196Y277474D01*
X83038Y278734D01*
X83333Y280220D01*
X83038Y281706D01*
X82196Y282966D01*
X80936Y283808D01*
X79450Y284103D01*
D02*
G37*
G36*
X64450D02*
X62963Y283808D01*
X61703Y282966D01*
X60862Y281706D01*
X60566Y280220D01*
X60862Y278734D01*
X61703Y277474D01*
X62963Y276632D01*
X64450Y276336D01*
X65936Y276632D01*
X67196Y277474D01*
X68038Y278734D01*
X68333Y280220D01*
X68038Y281706D01*
X67196Y282966D01*
X65936Y283808D01*
X64450Y284103D01*
D02*
G37*
G36*
X49450D02*
X47963Y283808D01*
X46703Y282966D01*
X45862Y281706D01*
X45566Y280220D01*
X45862Y278734D01*
X46703Y277474D01*
X47963Y276632D01*
X49450Y276336D01*
X50936Y276632D01*
X52196Y277474D01*
X53038Y278734D01*
X53333Y280220D01*
X53038Y281706D01*
X52196Y282966D01*
X50936Y283808D01*
X49450Y284103D01*
D02*
G37*
G36*
X34450D02*
X32963Y283808D01*
X31703Y282966D01*
X30862Y281706D01*
X30566Y280220D01*
X30862Y278734D01*
X31703Y277474D01*
X32963Y276632D01*
X34450Y276336D01*
X35936Y276632D01*
X37196Y277474D01*
X38038Y278734D01*
X38333Y280220D01*
X38038Y281706D01*
X37196Y282966D01*
X35936Y283808D01*
X34450Y284103D01*
D02*
G37*
G36*
X19450D02*
X17963Y283808D01*
X16703Y282966D01*
X15862Y281706D01*
X15566Y280220D01*
X15862Y278734D01*
X16703Y277474D01*
X17963Y276632D01*
X19450Y276336D01*
X20936Y276632D01*
X22196Y277474D01*
X23038Y278734D01*
X23333Y280220D01*
X23038Y281706D01*
X22196Y282966D01*
X20936Y283808D01*
X19450Y284103D01*
D02*
G37*
G36*
X168000Y283634D02*
X166514Y283338D01*
X165254Y282496D01*
X164412Y281236D01*
X164116Y279750D01*
X164412Y278264D01*
X165254Y277004D01*
X166514Y276162D01*
X168000Y275866D01*
X169486Y276162D01*
X170746Y277004D01*
X171588Y278264D01*
X171884Y279750D01*
X171588Y281236D01*
X170746Y282496D01*
X169486Y283338D01*
X168000Y283634D01*
D02*
G37*
G36*
X6500Y282634D02*
X5014Y282338D01*
X3754Y281496D01*
X2912Y280236D01*
X2616Y278750D01*
X2912Y277264D01*
X3754Y276004D01*
X5014Y275162D01*
X6500Y274866D01*
X7986Y275162D01*
X9246Y276004D01*
X10088Y277264D01*
X10384Y278750D01*
X10088Y280236D01*
X9246Y281496D01*
X7986Y282338D01*
X6500Y282634D01*
D02*
G37*
G36*
X247652Y281731D02*
X245691Y281341D01*
X244030Y280231D01*
X242919Y278569D01*
X242529Y276608D01*
X242919Y274648D01*
X244030Y272986D01*
X245691Y271876D01*
X247652Y271486D01*
X249612Y271876D01*
X251274Y272986D01*
X252384Y274648D01*
X252774Y276608D01*
X252384Y278569D01*
X251274Y280231D01*
X249612Y281341D01*
X247652Y281731D01*
D02*
G37*
G36*
X233682D02*
X231721Y281341D01*
X230060Y280231D01*
X228949Y278569D01*
X228559Y276608D01*
X228949Y274648D01*
X230060Y272986D01*
X231721Y271876D01*
X233682Y271486D01*
X235642Y271876D01*
X237304Y272986D01*
X238414Y274648D01*
X238804Y276608D01*
X238414Y278569D01*
X237304Y280231D01*
X235642Y281341D01*
X233682Y281731D01*
D02*
G37*
G36*
X219712D02*
X217751Y281341D01*
X216089Y280231D01*
X214979Y278569D01*
X214589Y276608D01*
X214979Y274648D01*
X216089Y272986D01*
X217751Y271876D01*
X219712Y271486D01*
X221672Y271876D01*
X223334Y272986D01*
X224444Y274648D01*
X224834Y276608D01*
X224444Y278569D01*
X223334Y280231D01*
X221672Y281341D01*
X219712Y281731D01*
D02*
G37*
G36*
X274743Y274872D02*
X273257Y274577D01*
X271997Y273735D01*
X271155Y272475D01*
X270859Y270989D01*
X271155Y269503D01*
X271997Y268243D01*
X273257Y267401D01*
X274743Y267105D01*
X276229Y267401D01*
X277489Y268243D01*
X278331Y269503D01*
X278627Y270989D01*
X278331Y272475D01*
X277489Y273735D01*
X276229Y274577D01*
X274743Y274872D01*
D02*
G37*
G36*
X301000Y273884D02*
X299514Y273588D01*
X298254Y272746D01*
X297412Y271486D01*
X297116Y270000D01*
X297412Y268514D01*
X298254Y267254D01*
X299514Y266412D01*
X301000Y266116D01*
X302486Y266412D01*
X303746Y267254D01*
X304588Y268514D01*
X304884Y270000D01*
X304588Y271486D01*
X303746Y272746D01*
X302486Y273588D01*
X301000Y273884D01*
D02*
G37*
G36*
X79450Y269103D02*
X77963Y268808D01*
X76703Y267966D01*
X75862Y266706D01*
X75566Y265220D01*
X75862Y263734D01*
X76703Y262474D01*
X77963Y261632D01*
X79450Y261336D01*
X80936Y261632D01*
X82196Y262474D01*
X83038Y263734D01*
X83333Y265220D01*
X83038Y266706D01*
X82196Y267966D01*
X80936Y268808D01*
X79450Y269103D01*
D02*
G37*
G36*
X64450D02*
X62963Y268808D01*
X61703Y267966D01*
X60862Y266706D01*
X60566Y265220D01*
X60862Y263734D01*
X61703Y262474D01*
X62963Y261632D01*
X64450Y261336D01*
X65936Y261632D01*
X67196Y262474D01*
X68038Y263734D01*
X68333Y265220D01*
X68038Y266706D01*
X67196Y267966D01*
X65936Y268808D01*
X64450Y269103D01*
D02*
G37*
G36*
X49450D02*
X47963Y268808D01*
X46703Y267966D01*
X45862Y266706D01*
X45566Y265220D01*
X45862Y263734D01*
X46703Y262474D01*
X47963Y261632D01*
X49450Y261336D01*
X50936Y261632D01*
X52196Y262474D01*
X53038Y263734D01*
X53333Y265220D01*
X53038Y266706D01*
X52196Y267966D01*
X50936Y268808D01*
X49450Y269103D01*
D02*
G37*
G36*
X34450D02*
X32963Y268808D01*
X31703Y267966D01*
X30862Y266706D01*
X30566Y265220D01*
X30862Y263734D01*
X31703Y262474D01*
X32963Y261632D01*
X34450Y261336D01*
X35936Y261632D01*
X37196Y262474D01*
X38038Y263734D01*
X38333Y265220D01*
X38038Y266706D01*
X37196Y267966D01*
X35936Y268808D01*
X34450Y269103D01*
D02*
G37*
G36*
X19450D02*
X17963Y268808D01*
X16703Y267966D01*
X15862Y266706D01*
X15566Y265220D01*
X15862Y263734D01*
X16703Y262474D01*
X17963Y261632D01*
X19450Y261336D01*
X20936Y261632D01*
X22196Y262474D01*
X23038Y263734D01*
X23333Y265220D01*
X23038Y266706D01*
X22196Y267966D01*
X20936Y268808D01*
X19450Y269103D01*
D02*
G37*
G36*
X6500Y267634D02*
X5014Y267338D01*
X3754Y266496D01*
X2912Y265236D01*
X2616Y263750D01*
X2912Y262264D01*
X3754Y261004D01*
X5014Y260162D01*
X6500Y259866D01*
X7986Y260162D01*
X9246Y261004D01*
X10088Y262264D01*
X10384Y263750D01*
X10088Y265236D01*
X9246Y266496D01*
X7986Y267338D01*
X6500Y267634D01*
D02*
G37*
G36*
X311063Y265634D02*
X309576Y265338D01*
X308316Y264496D01*
X307474Y263236D01*
X307179Y261750D01*
X307474Y260264D01*
X308316Y259004D01*
X309576Y258162D01*
X311063Y257866D01*
X312549Y258162D01*
X313809Y259004D01*
X314650Y260264D01*
X314946Y261750D01*
X314650Y263236D01*
X313809Y264496D01*
X312549Y265338D01*
X311063Y265634D01*
D02*
G37*
G36*
X303000D02*
X301514Y265338D01*
X300254Y264496D01*
X299412Y263236D01*
X299116Y261750D01*
X299412Y260264D01*
X300254Y259004D01*
X301514Y258162D01*
X303000Y257866D01*
X304486Y258162D01*
X305746Y259004D01*
X306588Y260264D01*
X306884Y261750D01*
X306588Y263236D01*
X305746Y264496D01*
X304486Y265338D01*
X303000Y265634D01*
D02*
G37*
G36*
X294937D02*
X293451Y265338D01*
X292191Y264496D01*
X291350Y263236D01*
X291054Y261750D01*
X291350Y260264D01*
X292191Y259004D01*
X293451Y258162D01*
X294937Y257866D01*
X296424Y258162D01*
X297684Y259004D01*
X298526Y260264D01*
X298821Y261750D01*
X298526Y263236D01*
X297684Y264496D01*
X296424Y265338D01*
X294937Y265634D01*
D02*
G37*
G36*
X286875D02*
X285389Y265338D01*
X284129Y264496D01*
X283287Y263236D01*
X282991Y261750D01*
X283287Y260264D01*
X284129Y259004D01*
X285389Y258162D01*
X286875Y257866D01*
X288361Y258162D01*
X289621Y259004D01*
X290463Y260264D01*
X290759Y261750D01*
X290463Y263236D01*
X289621Y264496D01*
X288361Y265338D01*
X286875Y265634D01*
D02*
G37*
G36*
X247652Y267761D02*
X245691Y267371D01*
X244030Y266261D01*
X242919Y264599D01*
X242529Y262638D01*
X242919Y260678D01*
X244030Y259016D01*
X245691Y257906D01*
X247652Y257516D01*
X249612Y257906D01*
X251274Y259016D01*
X252384Y260678D01*
X252774Y262638D01*
X252384Y264599D01*
X251274Y266261D01*
X249612Y267371D01*
X247652Y267761D01*
D02*
G37*
G36*
X233682D02*
X231721Y267371D01*
X230060Y266261D01*
X228949Y264599D01*
X228559Y262638D01*
X228949Y260678D01*
X230060Y259016D01*
X231721Y257906D01*
X233682Y257516D01*
X235642Y257906D01*
X237304Y259016D01*
X238414Y260678D01*
X238804Y262638D01*
X238414Y264599D01*
X237304Y266261D01*
X235642Y267371D01*
X233682Y267761D01*
D02*
G37*
G36*
X219712D02*
X217751Y267371D01*
X216089Y266261D01*
X214979Y264599D01*
X214589Y262638D01*
X214979Y260678D01*
X216089Y259016D01*
X217751Y257906D01*
X219712Y257516D01*
X221672Y257906D01*
X223334Y259016D01*
X224444Y260678D01*
X224834Y262638D01*
X224444Y264599D01*
X223334Y266261D01*
X221672Y267371D01*
X219712Y267761D01*
D02*
G37*
G36*
X154250Y264884D02*
X152764Y264588D01*
X151504Y263746D01*
X150662Y262486D01*
X150366Y261000D01*
X150662Y259514D01*
X151504Y258254D01*
X152764Y257412D01*
X154250Y257116D01*
X155736Y257412D01*
X156996Y258254D01*
X157838Y259514D01*
X158134Y261000D01*
X157838Y262486D01*
X156996Y263746D01*
X155736Y264588D01*
X154250Y264884D01*
D02*
G37*
G36*
X168000Y264384D02*
X166514Y264088D01*
X165254Y263246D01*
X164412Y261986D01*
X164116Y260500D01*
X164412Y259014D01*
X165254Y257754D01*
X166514Y256912D01*
X168000Y256616D01*
X169486Y256912D01*
X170746Y257754D01*
X171588Y259014D01*
X171884Y260500D01*
X171588Y261986D01*
X170746Y263246D01*
X169486Y264088D01*
X168000Y264384D01*
D02*
G37*
G36*
X154450Y254103D02*
X152963Y253808D01*
X151703Y252966D01*
X150862Y251706D01*
X150566Y250220D01*
X150862Y248734D01*
X151703Y247474D01*
X152963Y246632D01*
X154450Y246336D01*
X155936Y246632D01*
X157196Y247474D01*
X158038Y248734D01*
X158333Y250220D01*
X158038Y251706D01*
X157196Y252966D01*
X155936Y253808D01*
X154450Y254103D01*
D02*
G37*
G36*
X79450D02*
X77963Y253808D01*
X76703Y252966D01*
X75862Y251706D01*
X75566Y250220D01*
X75862Y248734D01*
X76703Y247474D01*
X77963Y246632D01*
X79450Y246336D01*
X80936Y246632D01*
X82196Y247474D01*
X83038Y248734D01*
X83333Y250220D01*
X83038Y251706D01*
X82196Y252966D01*
X80936Y253808D01*
X79450Y254103D01*
D02*
G37*
G36*
X64450D02*
X62963Y253808D01*
X61703Y252966D01*
X60862Y251706D01*
X60566Y250220D01*
X60862Y248734D01*
X61703Y247474D01*
X62963Y246632D01*
X64450Y246336D01*
X65936Y246632D01*
X67196Y247474D01*
X68038Y248734D01*
X68333Y250220D01*
X68038Y251706D01*
X67196Y252966D01*
X65936Y253808D01*
X64450Y254103D01*
D02*
G37*
G36*
X49450D02*
X47963Y253808D01*
X46703Y252966D01*
X45862Y251706D01*
X45566Y250220D01*
X45862Y248734D01*
X46703Y247474D01*
X47963Y246632D01*
X49450Y246336D01*
X50936Y246632D01*
X52196Y247474D01*
X53038Y248734D01*
X53333Y250220D01*
X53038Y251706D01*
X52196Y252966D01*
X50936Y253808D01*
X49450Y254103D01*
D02*
G37*
G36*
X34450D02*
X32963Y253808D01*
X31703Y252966D01*
X30862Y251706D01*
X30566Y250220D01*
X30862Y248734D01*
X31703Y247474D01*
X32963Y246632D01*
X34450Y246336D01*
X35936Y246632D01*
X37196Y247474D01*
X38038Y248734D01*
X38333Y250220D01*
X38038Y251706D01*
X37196Y252966D01*
X35936Y253808D01*
X34450Y254103D01*
D02*
G37*
G36*
X19450D02*
X17963Y253808D01*
X16703Y252966D01*
X15862Y251706D01*
X15566Y250220D01*
X15862Y248734D01*
X16703Y247474D01*
X17963Y246632D01*
X19450Y246336D01*
X20936Y246632D01*
X22196Y247474D01*
X23038Y248734D01*
X23333Y250220D01*
X23038Y251706D01*
X22196Y252966D01*
X20936Y253808D01*
X19450Y254103D01*
D02*
G37*
G36*
X6500Y252634D02*
X5014Y252338D01*
X3754Y251496D01*
X2912Y250236D01*
X2616Y248750D01*
X2912Y247264D01*
X3754Y246004D01*
X5014Y245162D01*
X6500Y244866D01*
X7986Y245162D01*
X9246Y246004D01*
X10088Y247264D01*
X10384Y248750D01*
X10088Y250236D01*
X9246Y251496D01*
X7986Y252338D01*
X6500Y252634D01*
D02*
G37*
G36*
X278611Y252134D02*
X277125Y251838D01*
X275865Y250996D01*
X275023Y249736D01*
X274727Y248250D01*
X275023Y246764D01*
X275865Y245504D01*
X277125Y244662D01*
X278611Y244366D01*
X280097Y244662D01*
X281357Y245504D01*
X282199Y246764D01*
X282495Y248250D01*
X282199Y249736D01*
X281357Y250996D01*
X280097Y251838D01*
X278611Y252134D01*
D02*
G37*
G36*
X311500Y251384D02*
X310014Y251088D01*
X308754Y250246D01*
X307912Y248986D01*
X307616Y247500D01*
X307912Y246014D01*
X308754Y244754D01*
X310014Y243912D01*
X311500Y243616D01*
X312986Y243912D01*
X314246Y244754D01*
X315088Y246014D01*
X315384Y247500D01*
X315088Y248986D01*
X314246Y250246D01*
X312986Y251088D01*
X311500Y251384D01*
D02*
G37*
G36*
X303438D02*
X301951Y251088D01*
X300691Y250246D01*
X299849Y248986D01*
X299554Y247500D01*
X299849Y246014D01*
X300691Y244754D01*
X301951Y243912D01*
X303438Y243616D01*
X304924Y243912D01*
X306184Y244754D01*
X307026Y246014D01*
X307321Y247500D01*
X307026Y248986D01*
X306184Y250246D01*
X304924Y251088D01*
X303438Y251384D01*
D02*
G37*
G36*
X295375D02*
X293889Y251088D01*
X292629Y250246D01*
X291787Y248986D01*
X291491Y247500D01*
X291787Y246014D01*
X292629Y244754D01*
X293889Y243912D01*
X295375Y243616D01*
X296861Y243912D01*
X298121Y244754D01*
X298963Y246014D01*
X299259Y247500D01*
X298963Y248986D01*
X298121Y250246D01*
X296861Y251088D01*
X295375Y251384D01*
D02*
G37*
G36*
X287313D02*
X285826Y251088D01*
X284566Y250246D01*
X283725Y248986D01*
X283429Y247500D01*
X283725Y246014D01*
X284566Y244754D01*
X285826Y243912D01*
X287313Y243616D01*
X288799Y243912D01*
X290059Y244754D01*
X290900Y246014D01*
X291196Y247500D01*
X290900Y248986D01*
X290059Y250246D01*
X288799Y251088D01*
X287313Y251384D01*
D02*
G37*
G36*
X282787Y243920D02*
X281301Y243625D01*
X280041Y242783D01*
X279199Y241523D01*
X278903Y240037D01*
X279199Y238551D01*
X280041Y237291D01*
X281301Y236449D01*
X282787Y236153D01*
X284273Y236449D01*
X285533Y237291D01*
X286375Y238551D01*
X286670Y240037D01*
X286375Y241523D01*
X285533Y242783D01*
X284273Y243625D01*
X282787Y243920D01*
D02*
G37*
G36*
X304450Y239103D02*
X302963Y238808D01*
X301703Y237966D01*
X300861Y236706D01*
X300566Y235220D01*
X300861Y233734D01*
X301703Y232474D01*
X302963Y231632D01*
X304450Y231336D01*
X305936Y231632D01*
X307196Y232474D01*
X308037Y233734D01*
X308333Y235220D01*
X308037Y236706D01*
X307196Y237966D01*
X305936Y238808D01*
X304450Y239103D01*
D02*
G37*
G36*
X169450D02*
X167963Y238808D01*
X166703Y237966D01*
X165861Y236706D01*
X165566Y235220D01*
X165861Y233734D01*
X166703Y232474D01*
X167963Y231632D01*
X169450Y231336D01*
X170936Y231632D01*
X172196Y232474D01*
X173037Y233734D01*
X173333Y235220D01*
X173037Y236706D01*
X172196Y237966D01*
X170936Y238808D01*
X169450Y239103D01*
D02*
G37*
G36*
X79450D02*
X77963Y238808D01*
X76703Y237966D01*
X75862Y236706D01*
X75566Y235220D01*
X75862Y233734D01*
X76703Y232474D01*
X77963Y231632D01*
X79450Y231336D01*
X80936Y231632D01*
X82196Y232474D01*
X83038Y233734D01*
X83333Y235220D01*
X83038Y236706D01*
X82196Y237966D01*
X80936Y238808D01*
X79450Y239103D01*
D02*
G37*
G36*
X64450D02*
X62963Y238808D01*
X61703Y237966D01*
X60862Y236706D01*
X60566Y235220D01*
X60862Y233734D01*
X61703Y232474D01*
X62963Y231632D01*
X64450Y231336D01*
X65936Y231632D01*
X67196Y232474D01*
X68038Y233734D01*
X68333Y235220D01*
X68038Y236706D01*
X67196Y237966D01*
X65936Y238808D01*
X64450Y239103D01*
D02*
G37*
G36*
X49450D02*
X47963Y238808D01*
X46703Y237966D01*
X45862Y236706D01*
X45566Y235220D01*
X45862Y233734D01*
X46703Y232474D01*
X47963Y231632D01*
X49450Y231336D01*
X50936Y231632D01*
X52196Y232474D01*
X53038Y233734D01*
X53333Y235220D01*
X53038Y236706D01*
X52196Y237966D01*
X50936Y238808D01*
X49450Y239103D01*
D02*
G37*
G36*
X34450D02*
X32963Y238808D01*
X31703Y237966D01*
X30862Y236706D01*
X30566Y235220D01*
X30862Y233734D01*
X31703Y232474D01*
X32963Y231632D01*
X34450Y231336D01*
X35936Y231632D01*
X37196Y232474D01*
X38038Y233734D01*
X38333Y235220D01*
X38038Y236706D01*
X37196Y237966D01*
X35936Y238808D01*
X34450Y239103D01*
D02*
G37*
G36*
X19450D02*
X17963Y238808D01*
X16703Y237966D01*
X15862Y236706D01*
X15566Y235220D01*
X15862Y233734D01*
X16703Y232474D01*
X17963Y231632D01*
X19450Y231336D01*
X20936Y231632D01*
X22196Y232474D01*
X23038Y233734D01*
X23333Y235220D01*
X23038Y236706D01*
X22196Y237966D01*
X20936Y238808D01*
X19450Y239103D01*
D02*
G37*
G36*
X274203Y238857D02*
X272717Y238561D01*
X271457Y237719D01*
X270615Y236460D01*
X270319Y234973D01*
X270615Y233487D01*
X271457Y232227D01*
X272717Y231385D01*
X274203Y231090D01*
X275689Y231385D01*
X276949Y232227D01*
X277791Y233487D01*
X278087Y234973D01*
X277791Y236460D01*
X276949Y237719D01*
X275689Y238561D01*
X274203Y238857D01*
D02*
G37*
G36*
X6500Y237634D02*
X5014Y237338D01*
X3754Y236496D01*
X2912Y235236D01*
X2616Y233750D01*
X2912Y232264D01*
X3754Y231004D01*
X5014Y230162D01*
X6500Y229866D01*
X7986Y230162D01*
X9246Y231004D01*
X10088Y232264D01*
X10384Y233750D01*
X10088Y235236D01*
X9246Y236496D01*
X7986Y237338D01*
X6500Y237634D01*
D02*
G37*
G36*
X222500Y237384D02*
X221014Y237088D01*
X219754Y236246D01*
X218912Y234986D01*
X218616Y233500D01*
X218912Y232014D01*
X219754Y230754D01*
X221014Y229912D01*
X222500Y229616D01*
X223986Y229912D01*
X225246Y230754D01*
X226088Y232014D01*
X226384Y233500D01*
X226088Y234986D01*
X225246Y236246D01*
X223986Y237088D01*
X222500Y237384D01*
D02*
G37*
G36*
X230500Y237134D02*
X229014Y236838D01*
X227754Y235996D01*
X226912Y234736D01*
X226616Y233250D01*
X226912Y231764D01*
X227754Y230504D01*
X229014Y229662D01*
X230500Y229366D01*
X231986Y229662D01*
X233246Y230504D01*
X234088Y231764D01*
X234384Y233250D01*
X234088Y234736D01*
X233246Y235996D01*
X231986Y236838D01*
X230500Y237134D01*
D02*
G37*
G36*
X264250Y229634D02*
X262764Y229338D01*
X261504Y228496D01*
X260662Y227236D01*
X260366Y225750D01*
X260662Y224264D01*
X261504Y223004D01*
X262764Y222162D01*
X264250Y221866D01*
X265736Y222162D01*
X266996Y223004D01*
X267838Y224264D01*
X268134Y225750D01*
X267838Y227236D01*
X266996Y228496D01*
X265736Y229338D01*
X264250Y229634D01*
D02*
G37*
G36*
X229662Y224295D02*
X228176Y224000D01*
X226916Y223158D01*
X226074Y221898D01*
X225778Y220412D01*
X226074Y218926D01*
X226916Y217666D01*
X228176Y216824D01*
X229662Y216528D01*
X231148Y216824D01*
X232408Y217666D01*
X233250Y218926D01*
X233545Y220412D01*
X233250Y221898D01*
X232408Y223158D01*
X231148Y224000D01*
X229662Y224295D01*
D02*
G37*
G36*
X304450Y224103D02*
X302963Y223808D01*
X301703Y222966D01*
X300861Y221706D01*
X300566Y220220D01*
X300861Y218734D01*
X301703Y217474D01*
X302963Y216632D01*
X304450Y216336D01*
X305936Y216632D01*
X307196Y217474D01*
X308037Y218734D01*
X308333Y220220D01*
X308037Y221706D01*
X307196Y222966D01*
X305936Y223808D01*
X304450Y224103D01*
D02*
G37*
G36*
X214450D02*
X212963Y223808D01*
X211703Y222966D01*
X210861Y221706D01*
X210566Y220220D01*
X210861Y218734D01*
X211703Y217474D01*
X212963Y216632D01*
X214450Y216336D01*
X215936Y216632D01*
X217196Y217474D01*
X218037Y218734D01*
X218333Y220220D01*
X218037Y221706D01*
X217196Y222966D01*
X215936Y223808D01*
X214450Y224103D01*
D02*
G37*
G36*
X184450D02*
X182963Y223808D01*
X181703Y222966D01*
X180861Y221706D01*
X180566Y220220D01*
X180861Y218734D01*
X181703Y217474D01*
X182963Y216632D01*
X184450Y216336D01*
X185936Y216632D01*
X187196Y217474D01*
X188037Y218734D01*
X188333Y220220D01*
X188037Y221706D01*
X187196Y222966D01*
X185936Y223808D01*
X184450Y224103D01*
D02*
G37*
G36*
X169450D02*
X167963Y223808D01*
X166703Y222966D01*
X165861Y221706D01*
X165566Y220220D01*
X165861Y218734D01*
X166703Y217474D01*
X167963Y216632D01*
X169450Y216336D01*
X170936Y216632D01*
X172196Y217474D01*
X173037Y218734D01*
X173333Y220220D01*
X173037Y221706D01*
X172196Y222966D01*
X170936Y223808D01*
X169450Y224103D01*
D02*
G37*
G36*
X154450D02*
X152963Y223808D01*
X151703Y222966D01*
X150862Y221706D01*
X150566Y220220D01*
X150862Y218734D01*
X151703Y217474D01*
X152963Y216632D01*
X154450Y216336D01*
X155936Y216632D01*
X157196Y217474D01*
X158038Y218734D01*
X158333Y220220D01*
X158038Y221706D01*
X157196Y222966D01*
X155936Y223808D01*
X154450Y224103D01*
D02*
G37*
G36*
X79450D02*
X77963Y223808D01*
X76703Y222966D01*
X75862Y221706D01*
X75566Y220220D01*
X75862Y218734D01*
X76703Y217474D01*
X77963Y216632D01*
X79450Y216336D01*
X80936Y216632D01*
X82196Y217474D01*
X83038Y218734D01*
X83333Y220220D01*
X83038Y221706D01*
X82196Y222966D01*
X80936Y223808D01*
X79450Y224103D01*
D02*
G37*
G36*
X64450D02*
X62963Y223808D01*
X61703Y222966D01*
X60862Y221706D01*
X60566Y220220D01*
X60862Y218734D01*
X61703Y217474D01*
X62963Y216632D01*
X64450Y216336D01*
X65936Y216632D01*
X67196Y217474D01*
X68038Y218734D01*
X68333Y220220D01*
X68038Y221706D01*
X67196Y222966D01*
X65936Y223808D01*
X64450Y224103D01*
D02*
G37*
G36*
X49450D02*
X47963Y223808D01*
X46703Y222966D01*
X45862Y221706D01*
X45566Y220220D01*
X45862Y218734D01*
X46703Y217474D01*
X47963Y216632D01*
X49450Y216336D01*
X50936Y216632D01*
X52196Y217474D01*
X53038Y218734D01*
X53333Y220220D01*
X53038Y221706D01*
X52196Y222966D01*
X50936Y223808D01*
X49450Y224103D01*
D02*
G37*
G36*
X34450D02*
X32963Y223808D01*
X31703Y222966D01*
X30862Y221706D01*
X30566Y220220D01*
X30862Y218734D01*
X31703Y217474D01*
X32963Y216632D01*
X34450Y216336D01*
X35936Y216632D01*
X37196Y217474D01*
X38038Y218734D01*
X38333Y220220D01*
X38038Y221706D01*
X37196Y222966D01*
X35936Y223808D01*
X34450Y224103D01*
D02*
G37*
G36*
X19450D02*
X17963Y223808D01*
X16703Y222966D01*
X15862Y221706D01*
X15566Y220220D01*
X15862Y218734D01*
X16703Y217474D01*
X17963Y216632D01*
X19450Y216336D01*
X20936Y216632D01*
X22196Y217474D01*
X23038Y218734D01*
X23333Y220220D01*
X23038Y221706D01*
X22196Y222966D01*
X20936Y223808D01*
X19450Y224103D01*
D02*
G37*
G36*
X6500Y222634D02*
X5014Y222338D01*
X3754Y221496D01*
X2912Y220236D01*
X2616Y218750D01*
X2912Y217264D01*
X3754Y216004D01*
X5014Y215162D01*
X6500Y214866D01*
X7986Y215162D01*
X9246Y216004D01*
X10088Y217264D01*
X10384Y218750D01*
X10088Y220236D01*
X9246Y221496D01*
X7986Y222338D01*
X6500Y222634D01*
D02*
G37*
G36*
X274250Y214884D02*
X272764Y214588D01*
X271504Y213746D01*
X270662Y212486D01*
X270366Y211000D01*
X270610Y209776D01*
X270033Y210639D01*
X268773Y211481D01*
X267287Y211777D01*
X265801Y211481D01*
X264541Y210639D01*
X263699Y209380D01*
X263403Y207893D01*
X263699Y206407D01*
X264541Y205147D01*
X265801Y204305D01*
X267287Y204010D01*
X268773Y204305D01*
X270033Y205147D01*
X270875Y206407D01*
X271170Y207893D01*
X270927Y209117D01*
X271504Y208254D01*
X272764Y207412D01*
X274250Y207116D01*
X275736Y207412D01*
X276996Y208254D01*
X277838Y209514D01*
X278134Y211000D01*
X277838Y212486D01*
X276996Y213746D01*
X275736Y214588D01*
X274250Y214884D01*
D02*
G37*
G36*
X223500D02*
X222014Y214588D01*
X220754Y213746D01*
X219912Y212486D01*
X219616Y211000D01*
X219912Y209514D01*
X220754Y208254D01*
X222014Y207412D01*
X223500Y207116D01*
X224986Y207412D01*
X226246Y208254D01*
X227088Y209514D01*
X227384Y211000D01*
X227088Y212486D01*
X226246Y213746D01*
X224986Y214588D01*
X223500Y214884D01*
D02*
G37*
G36*
X69432Y211242D02*
X67945Y210946D01*
X66686Y210105D01*
X65844Y208845D01*
X65548Y207358D01*
X65844Y205872D01*
X66686Y204612D01*
X67945Y203771D01*
X69432Y203475D01*
X70918Y203771D01*
X72178Y204612D01*
X73020Y205872D01*
X73315Y207358D01*
X73020Y208845D01*
X72178Y210105D01*
X70918Y210946D01*
X69432Y211242D01*
D02*
G37*
G36*
X304450Y209103D02*
X302963Y208808D01*
X301703Y207966D01*
X300861Y206706D01*
X300566Y205220D01*
X300861Y203734D01*
X301703Y202474D01*
X302963Y201632D01*
X304450Y201336D01*
X305936Y201632D01*
X307196Y202474D01*
X308037Y203734D01*
X308333Y205220D01*
X308037Y206706D01*
X307196Y207966D01*
X305936Y208808D01*
X304450Y209103D01*
D02*
G37*
G36*
X214450D02*
X212963Y208808D01*
X211703Y207966D01*
X210861Y206706D01*
X210566Y205220D01*
X210861Y203734D01*
X211703Y202474D01*
X212963Y201632D01*
X214450Y201336D01*
X215936Y201632D01*
X217196Y202474D01*
X218037Y203734D01*
X218333Y205220D01*
X218037Y206706D01*
X217196Y207966D01*
X215936Y208808D01*
X214450Y209103D01*
D02*
G37*
G36*
X139450D02*
X137963Y208808D01*
X136703Y207966D01*
X135862Y206706D01*
X135566Y205220D01*
X135862Y203734D01*
X136703Y202474D01*
X137963Y201632D01*
X139450Y201336D01*
X140936Y201632D01*
X142196Y202474D01*
X143038Y203734D01*
X143333Y205220D01*
X143038Y206706D01*
X142196Y207966D01*
X140936Y208808D01*
X139450Y209103D01*
D02*
G37*
G36*
X124450D02*
X122963Y208808D01*
X121703Y207966D01*
X120862Y206706D01*
X120566Y205220D01*
X120862Y203734D01*
X121703Y202474D01*
X122963Y201632D01*
X124450Y201336D01*
X125936Y201632D01*
X127196Y202474D01*
X128038Y203734D01*
X128333Y205220D01*
X128038Y206706D01*
X127196Y207966D01*
X125936Y208808D01*
X124450Y209103D01*
D02*
G37*
G36*
X49450D02*
X47963Y208808D01*
X46703Y207966D01*
X45862Y206706D01*
X45566Y205220D01*
X45862Y203734D01*
X46703Y202474D01*
X47963Y201632D01*
X49450Y201336D01*
X50936Y201632D01*
X52196Y202474D01*
X53038Y203734D01*
X53333Y205220D01*
X53038Y206706D01*
X52196Y207966D01*
X50936Y208808D01*
X49450Y209103D01*
D02*
G37*
G36*
X34450D02*
X32963Y208808D01*
X31703Y207966D01*
X30862Y206706D01*
X30566Y205220D01*
X30862Y203734D01*
X31703Y202474D01*
X32963Y201632D01*
X34450Y201336D01*
X35936Y201632D01*
X37196Y202474D01*
X38038Y203734D01*
X38333Y205220D01*
X38038Y206706D01*
X37196Y207966D01*
X35936Y208808D01*
X34450Y209103D01*
D02*
G37*
G36*
X19450D02*
X17963Y208808D01*
X16703Y207966D01*
X15862Y206706D01*
X15566Y205220D01*
X15862Y203734D01*
X16703Y202474D01*
X17963Y201632D01*
X19450Y201336D01*
X20936Y201632D01*
X22196Y202474D01*
X23038Y203734D01*
X23333Y205220D01*
X23038Y206706D01*
X22196Y207966D01*
X20936Y208808D01*
X19450Y209103D01*
D02*
G37*
G36*
X6500Y207634D02*
X5014Y207338D01*
X3754Y206496D01*
X2912Y205236D01*
X2616Y203750D01*
X2912Y202264D01*
X3754Y201004D01*
X5014Y200162D01*
X6500Y199867D01*
X7986Y200162D01*
X9246Y201004D01*
X10088Y202264D01*
X10384Y203750D01*
X10088Y205236D01*
X9246Y206496D01*
X7986Y207338D01*
X6500Y207634D01*
D02*
G37*
G36*
X222250Y204134D02*
X220764Y203838D01*
X219504Y202996D01*
X218662Y201736D01*
X218366Y200250D01*
X218662Y198764D01*
X219504Y197504D01*
X220764Y196662D01*
X222250Y196366D01*
X223736Y196662D01*
X224996Y197504D01*
X225838Y198764D01*
X226134Y200250D01*
X225838Y201736D01*
X224996Y202996D01*
X223736Y203838D01*
X222250Y204134D01*
D02*
G37*
G36*
X267287Y203920D02*
X265801Y203625D01*
X264541Y202783D01*
X263699Y201523D01*
X263403Y200037D01*
X263699Y198551D01*
X264541Y197291D01*
X265801Y196449D01*
X267287Y196153D01*
X268773Y196449D01*
X270033Y197291D01*
X270875Y198551D01*
X271170Y200037D01*
X270875Y201523D01*
X270033Y202783D01*
X268773Y203625D01*
X267287Y203920D01*
D02*
G37*
G36*
X131750Y195884D02*
X130264Y195588D01*
X129004Y194746D01*
X128162Y193486D01*
X127866Y192000D01*
X128162Y190514D01*
X129004Y189254D01*
X130264Y188412D01*
X131750Y188116D01*
X133236Y188412D01*
X134496Y189254D01*
X135338Y190514D01*
X135634Y192000D01*
X135338Y193486D01*
X134496Y194746D01*
X133236Y195588D01*
X131750Y195884D01*
D02*
G37*
G36*
X304450Y194103D02*
X302963Y193808D01*
X301703Y192966D01*
X300861Y191706D01*
X300566Y190220D01*
X300861Y188734D01*
X301703Y187474D01*
X302963Y186632D01*
X304450Y186336D01*
X305936Y186632D01*
X307196Y187474D01*
X308037Y188734D01*
X308333Y190220D01*
X308037Y191706D01*
X307196Y192966D01*
X305936Y193808D01*
X304450Y194103D01*
D02*
G37*
G36*
X139450D02*
X137963Y193808D01*
X136703Y192966D01*
X135862Y191706D01*
X135566Y190220D01*
X135862Y188734D01*
X136703Y187474D01*
X137963Y186632D01*
X139450Y186336D01*
X140936Y186632D01*
X142196Y187474D01*
X143038Y188734D01*
X143333Y190220D01*
X143038Y191706D01*
X142196Y192966D01*
X140936Y193808D01*
X139450Y194103D01*
D02*
G37*
G36*
X30400Y197071D02*
X26621Y196699D01*
X22987Y195597D01*
X19638Y193807D01*
X16702Y191398D01*
X14293Y188462D01*
X12503Y185113D01*
X11401Y181479D01*
X11029Y177700D01*
X11401Y173921D01*
X12503Y170287D01*
X14293Y166938D01*
X16702Y164002D01*
X19638Y161593D01*
X22987Y159803D01*
X26621Y158701D01*
X30400Y158329D01*
X34179Y158701D01*
X37813Y159803D01*
X41162Y161593D01*
X44097Y164002D01*
X46507Y166938D01*
X48297Y170287D01*
X49399Y173921D01*
X49771Y177700D01*
X49399Y181479D01*
X48297Y185113D01*
X47219Y187129D01*
X47963Y186632D01*
X49450Y186336D01*
X50936Y186632D01*
X52196Y187474D01*
X53038Y188734D01*
X53333Y190220D01*
X53038Y191706D01*
X52196Y192966D01*
X50936Y193808D01*
X49450Y194103D01*
X47963Y193808D01*
X46703Y192966D01*
X45862Y191706D01*
X45566Y190220D01*
X45726Y189413D01*
X44097Y191398D01*
X41162Y193807D01*
X37813Y195597D01*
X34179Y196699D01*
X30400Y197071D01*
D02*
G37*
G36*
X6500Y192634D02*
X5014Y192338D01*
X3754Y191496D01*
X2912Y190236D01*
X2616Y188750D01*
X2912Y187264D01*
X3754Y186004D01*
X5014Y185162D01*
X6500Y184867D01*
X7986Y185162D01*
X9246Y186004D01*
X10088Y187264D01*
X10384Y188750D01*
X10088Y190236D01*
X9246Y191496D01*
X7986Y192338D01*
X6500Y192634D01*
D02*
G37*
G36*
X235250Y188634D02*
X233764Y188338D01*
X232504Y187496D01*
X231662Y186236D01*
X231366Y184750D01*
X231662Y183264D01*
X232504Y182004D01*
X233764Y181162D01*
X235250Y180866D01*
X236736Y181162D01*
X237996Y182004D01*
X238838Y183264D01*
X239134Y184750D01*
X238838Y186236D01*
X237996Y187496D01*
X236736Y188338D01*
X235250Y188634D01*
D02*
G37*
G36*
X95500Y184884D02*
X94014Y184588D01*
X92754Y183746D01*
X91912Y182486D01*
X91616Y181000D01*
X91912Y179514D01*
X92754Y178254D01*
X94014Y177412D01*
X95500Y177116D01*
X96986Y177412D01*
X98246Y178254D01*
X99088Y179514D01*
X99384Y181000D01*
X99088Y182486D01*
X98246Y183746D01*
X96986Y184588D01*
X95500Y184884D01*
D02*
G37*
G36*
X299750Y180884D02*
X298264Y180588D01*
X297004Y179746D01*
X296162Y178486D01*
X295866Y177000D01*
X296162Y175514D01*
X297004Y174254D01*
X298264Y173412D01*
X299750Y173116D01*
X301236Y173412D01*
X302496Y174254D01*
X303338Y175514D01*
X303634Y177000D01*
X303338Y178486D01*
X302496Y179746D01*
X301236Y180588D01*
X299750Y180884D01*
D02*
G37*
G36*
X265725Y179634D02*
X264239Y179338D01*
X262979Y178496D01*
X262137Y177236D01*
X261841Y175750D01*
X262137Y174264D01*
X262979Y173004D01*
X264239Y172162D01*
X265725Y171866D01*
X267211Y172162D01*
X268471Y173004D01*
X269313Y174264D01*
X269609Y175750D01*
X269313Y177236D01*
X268471Y178496D01*
X267211Y179338D01*
X265725Y179634D01*
D02*
G37*
G36*
X6500Y177634D02*
X5014Y177338D01*
X3754Y176496D01*
X2912Y175236D01*
X2616Y173750D01*
X2912Y172264D01*
X3754Y171004D01*
X5014Y170162D01*
X6500Y169867D01*
X7986Y170162D01*
X9246Y171004D01*
X10088Y172264D01*
X10384Y173750D01*
X10088Y175236D01*
X9246Y176496D01*
X7986Y177338D01*
X6500Y177634D01*
D02*
G37*
G36*
X235000Y166884D02*
X233514Y166588D01*
X232254Y165746D01*
X231412Y164486D01*
X231116Y163000D01*
X231412Y161514D01*
X232254Y160254D01*
X233514Y159412D01*
X235000Y159116D01*
X236486Y159412D01*
X237746Y160254D01*
X238588Y161514D01*
X238884Y163000D01*
X238588Y164486D01*
X237746Y165746D01*
X236486Y166588D01*
X235000Y166884D01*
D02*
G37*
G36*
X6500Y162634D02*
X5014Y162338D01*
X3754Y161496D01*
X2912Y160236D01*
X2616Y158750D01*
X2912Y157264D01*
X3754Y156004D01*
X5014Y155162D01*
X6500Y154867D01*
X7986Y155162D01*
X9246Y156004D01*
X10088Y157264D01*
X10384Y158750D01*
X10088Y160236D01*
X9246Y161496D01*
X7986Y162338D01*
X6500Y162634D01*
D02*
G37*
G36*
X114500Y162134D02*
X113014Y161838D01*
X111754Y160996D01*
X110912Y159736D01*
X110616Y158250D01*
X110912Y156764D01*
X111754Y155504D01*
X113014Y154662D01*
X114500Y154366D01*
X115986Y154662D01*
X117246Y155504D01*
X118088Y156764D01*
X118384Y158250D01*
X118088Y159736D01*
X117246Y160996D01*
X115986Y161838D01*
X114500Y162134D01*
D02*
G37*
G36*
X94450Y164103D02*
X92963Y163808D01*
X91703Y162966D01*
X90862Y161706D01*
X90566Y160220D01*
X90862Y158734D01*
X91703Y157474D01*
X92963Y156632D01*
X94450Y156336D01*
X95936Y156632D01*
X97196Y157474D01*
X97646Y158147D01*
X97616Y158000D01*
X97912Y156514D01*
X98754Y155254D01*
X100014Y154412D01*
X101500Y154116D01*
X102986Y154412D01*
X104246Y155254D01*
X105088Y156514D01*
X105384Y158000D01*
X105088Y159486D01*
X104246Y160746D01*
X102986Y161588D01*
X101500Y161884D01*
X100014Y161588D01*
X98754Y160746D01*
X98304Y160073D01*
X98333Y160220D01*
X98038Y161706D01*
X97196Y162966D01*
X95936Y163808D01*
X94450Y164103D01*
D02*
G37*
G36*
X187250Y149384D02*
X185764Y149088D01*
X184750Y148411D01*
X183736Y149088D01*
X182250Y149384D01*
X180764Y149088D01*
X179504Y148246D01*
X178662Y146986D01*
X178366Y145500D01*
X178662Y144014D01*
X179504Y142754D01*
X180764Y141912D01*
X182250Y141616D01*
X183736Y141912D01*
X184750Y142589D01*
X185764Y141912D01*
X187250Y141616D01*
X188736Y141912D01*
X189996Y142754D01*
X190838Y144014D01*
X191134Y145500D01*
X190838Y146986D01*
X189996Y148246D01*
X188736Y149088D01*
X187250Y149384D01*
D02*
G37*
G36*
X220750D02*
X219264Y149088D01*
X218125Y148327D01*
X216986Y149088D01*
X215500Y149384D01*
X214014Y149088D01*
X212754Y148246D01*
X211912Y146986D01*
X211616Y145500D01*
X211912Y144014D01*
X212754Y142754D01*
X214014Y141912D01*
X215500Y141616D01*
X216986Y141912D01*
X218125Y142673D01*
X219264Y141912D01*
X220750Y141616D01*
X222236Y141912D01*
X223496Y142754D01*
X224338Y144014D01*
X224634Y145500D01*
X224338Y146986D01*
X223496Y148246D01*
X222236Y149088D01*
X220750Y149384D01*
D02*
G37*
G36*
X286689Y152046D02*
X285203Y151750D01*
X283943Y150908D01*
X283101Y149648D01*
X282805Y148162D01*
X283101Y146676D01*
X283943Y145416D01*
X285203Y144574D01*
X286689Y144278D01*
X288175Y144574D01*
X289435Y145416D01*
X290277Y146676D01*
X290573Y148162D01*
X290277Y149648D01*
X289435Y150908D01*
X288175Y151750D01*
X286689Y152046D01*
D02*
G37*
G36*
X94450Y149103D02*
X92963Y148808D01*
X91703Y147966D01*
X90862Y146706D01*
X90566Y145220D01*
X90862Y143734D01*
X91703Y142474D01*
X92963Y141632D01*
X94450Y141336D01*
X95936Y141632D01*
X97196Y142474D01*
X98038Y143734D01*
X98333Y145220D01*
X98038Y146706D01*
X97196Y147966D01*
X95936Y148808D01*
X94450Y149103D01*
D02*
G37*
G36*
X34450D02*
X32963Y148808D01*
X31703Y147966D01*
X30862Y146706D01*
X30566Y145220D01*
X30862Y143734D01*
X31703Y142474D01*
X32963Y141632D01*
X34450Y141336D01*
X35936Y141632D01*
X37196Y142474D01*
X38038Y143734D01*
X38333Y145220D01*
X38038Y146706D01*
X37196Y147966D01*
X35936Y148808D01*
X34450Y149103D01*
D02*
G37*
G36*
X19450D02*
X17963Y148808D01*
X16703Y147966D01*
X15862Y146706D01*
X15566Y145220D01*
X15862Y143734D01*
X16703Y142474D01*
X17963Y141632D01*
X19450Y141336D01*
X20936Y141632D01*
X22196Y142474D01*
X23038Y143734D01*
X23333Y145220D01*
X23038Y146706D01*
X22196Y147966D01*
X20936Y148808D01*
X19450Y149103D01*
D02*
G37*
G36*
X6500Y147634D02*
X5014Y147338D01*
X3754Y146496D01*
X2912Y145236D01*
X2616Y143750D01*
X2912Y142264D01*
X3754Y141004D01*
X5014Y140162D01*
X6500Y139867D01*
X7986Y140162D01*
X9246Y141004D01*
X10088Y142264D01*
X10384Y143750D01*
X10088Y145236D01*
X9246Y146496D01*
X7986Y147338D01*
X6500Y147634D01*
D02*
G37*
G36*
X144000Y147134D02*
X142514Y146838D01*
X141254Y145996D01*
X140412Y144736D01*
X140116Y143250D01*
X140412Y141764D01*
X141254Y140504D01*
X142514Y139662D01*
X144000Y139366D01*
X145486Y139662D01*
X146746Y140504D01*
X147588Y141764D01*
X147884Y143250D01*
X147588Y144736D01*
X146746Y145996D01*
X145486Y146838D01*
X144000Y147134D01*
D02*
G37*
G36*
X251500Y145634D02*
X250014Y145338D01*
X248754Y144496D01*
X247912Y143236D01*
X247616Y141750D01*
X247912Y140264D01*
X248754Y139004D01*
X250014Y138162D01*
X251500Y137866D01*
X252986Y138162D01*
X254246Y139004D01*
X255088Y140264D01*
X255384Y141750D01*
X255088Y143236D01*
X254246Y144496D01*
X252986Y145338D01*
X251500Y145634D01*
D02*
G37*
G36*
X152432Y143242D02*
X150945Y142946D01*
X149685Y142105D01*
X148844Y140845D01*
X148548Y139358D01*
X148844Y137872D01*
X149685Y136612D01*
X150945Y135771D01*
X152432Y135475D01*
X153918Y135771D01*
X155178Y136612D01*
X156020Y137872D01*
X156315Y139358D01*
X156020Y140845D01*
X155178Y142105D01*
X153918Y142946D01*
X152432Y143242D01*
D02*
G37*
G36*
X34450Y134103D02*
X32963Y133808D01*
X31703Y132966D01*
X30862Y131706D01*
X30566Y130220D01*
X30862Y128734D01*
X31703Y127474D01*
X32963Y126632D01*
X34450Y126336D01*
X35936Y126632D01*
X37196Y127474D01*
X38038Y128734D01*
X38333Y130220D01*
X38038Y131706D01*
X37196Y132966D01*
X35936Y133808D01*
X34450Y134103D01*
D02*
G37*
G36*
X19450D02*
X17963Y133808D01*
X16703Y132966D01*
X15862Y131706D01*
X15566Y130220D01*
X15862Y128734D01*
X16703Y127474D01*
X17963Y126632D01*
X19450Y126336D01*
X20936Y126632D01*
X22196Y127474D01*
X23038Y128734D01*
X23333Y130220D01*
X23038Y131706D01*
X22196Y132966D01*
X20936Y133808D01*
X19450Y134103D01*
D02*
G37*
G36*
X6500Y132634D02*
X5014Y132338D01*
X3754Y131496D01*
X2912Y130236D01*
X2616Y128750D01*
X2912Y127264D01*
X3754Y126004D01*
X5014Y125162D01*
X6500Y124867D01*
X7986Y125162D01*
X9246Y126004D01*
X10088Y127264D01*
X10384Y128750D01*
X10088Y130236D01*
X9246Y131496D01*
X7986Y132338D01*
X6500Y132634D01*
D02*
G37*
G36*
X289450Y119103D02*
X287963Y118808D01*
X286703Y117966D01*
X285861Y116706D01*
X285566Y115220D01*
X285861Y113734D01*
X286703Y112474D01*
X287963Y111632D01*
X289450Y111336D01*
X290936Y111632D01*
X292196Y112474D01*
X293037Y113734D01*
X293333Y115220D01*
X293037Y116706D01*
X292196Y117966D01*
X290936Y118808D01*
X289450Y119103D01*
D02*
G37*
G36*
X244450D02*
X242963Y118808D01*
X241703Y117966D01*
X240861Y116706D01*
X240566Y115220D01*
X240861Y113734D01*
X241703Y112474D01*
X242963Y111632D01*
X244450Y111336D01*
X245936Y111632D01*
X247196Y112474D01*
X248037Y113734D01*
X248333Y115220D01*
X248037Y116706D01*
X247196Y117966D01*
X245936Y118808D01*
X244450Y119103D01*
D02*
G37*
G36*
X229450D02*
X227963Y118808D01*
X226703Y117966D01*
X225861Y116706D01*
X225566Y115220D01*
X225861Y113734D01*
X226703Y112474D01*
X227963Y111632D01*
X229450Y111336D01*
X230936Y111632D01*
X232196Y112474D01*
X233037Y113734D01*
X233333Y115220D01*
X233037Y116706D01*
X232196Y117966D01*
X230936Y118808D01*
X229450Y119103D01*
D02*
G37*
G36*
X154450D02*
X152963Y118808D01*
X151703Y117966D01*
X150862Y116706D01*
X150566Y115220D01*
X150862Y113734D01*
X151703Y112474D01*
X152963Y111632D01*
X154450Y111336D01*
X155936Y111632D01*
X157196Y112474D01*
X158038Y113734D01*
X158333Y115220D01*
X158038Y116706D01*
X157196Y117966D01*
X155936Y118808D01*
X154450Y119103D01*
D02*
G37*
G36*
X94450D02*
X92963Y118808D01*
X91703Y117966D01*
X90862Y116706D01*
X90566Y115220D01*
X90862Y113734D01*
X91703Y112474D01*
X92963Y111632D01*
X94450Y111336D01*
X95936Y111632D01*
X97196Y112474D01*
X98038Y113734D01*
X98333Y115220D01*
X98038Y116706D01*
X97196Y117966D01*
X95936Y118808D01*
X94450Y119103D01*
D02*
G37*
G36*
X6500Y117634D02*
X5014Y117338D01*
X3754Y116496D01*
X2912Y115236D01*
X2616Y113750D01*
X2912Y112264D01*
X3754Y111004D01*
X5014Y110162D01*
X6500Y109867D01*
X7986Y110162D01*
X9246Y111004D01*
X10088Y112264D01*
X10384Y113750D01*
X10088Y115236D01*
X9246Y116496D01*
X7986Y117338D01*
X6500Y117634D01*
D02*
G37*
G36*
X184500Y104884D02*
X183014Y104588D01*
X181754Y103746D01*
X180912Y102486D01*
X180616Y101000D01*
X180912Y99514D01*
X181754Y98254D01*
X183014Y97412D01*
X184500Y97116D01*
X185986Y97412D01*
X187246Y98254D01*
X188088Y99514D01*
X188384Y101000D01*
X188088Y102486D01*
X187246Y103746D01*
X185986Y104588D01*
X184500Y104884D01*
D02*
G37*
G36*
X289450Y104103D02*
X287963Y103808D01*
X286703Y102966D01*
X285861Y101706D01*
X285566Y100220D01*
X285861Y98734D01*
X286703Y97474D01*
X287963Y96632D01*
X289450Y96336D01*
X290936Y96632D01*
X292196Y97474D01*
X293037Y98734D01*
X293333Y100220D01*
X293037Y101706D01*
X292196Y102966D01*
X290936Y103808D01*
X289450Y104103D01*
D02*
G37*
G36*
X244450D02*
X242963Y103808D01*
X241703Y102966D01*
X240861Y101706D01*
X240566Y100220D01*
X240861Y98734D01*
X241703Y97474D01*
X242963Y96632D01*
X244450Y96336D01*
X245936Y96632D01*
X247196Y97474D01*
X248037Y98734D01*
X248333Y100220D01*
X248037Y101706D01*
X247196Y102966D01*
X245936Y103808D01*
X244450Y104103D01*
D02*
G37*
G36*
X214450D02*
X212963Y103808D01*
X211703Y102966D01*
X210861Y101706D01*
X210566Y100220D01*
X210861Y98734D01*
X211703Y97474D01*
X212963Y96632D01*
X214450Y96336D01*
X215936Y96632D01*
X217196Y97474D01*
X218037Y98734D01*
X218333Y100220D01*
X218037Y101706D01*
X217196Y102966D01*
X215936Y103808D01*
X214450Y104103D01*
D02*
G37*
G36*
X169450D02*
X167963Y103808D01*
X166703Y102966D01*
X165861Y101706D01*
X165566Y100220D01*
X165861Y98734D01*
X166703Y97474D01*
X167963Y96632D01*
X169450Y96336D01*
X170936Y96632D01*
X172196Y97474D01*
X173037Y98734D01*
X173333Y100220D01*
X173037Y101706D01*
X172196Y102966D01*
X170936Y103808D01*
X169450Y104103D01*
D02*
G37*
G36*
X154450D02*
X152963Y103808D01*
X151703Y102966D01*
X150862Y101706D01*
X150566Y100220D01*
X150862Y98734D01*
X151703Y97474D01*
X152963Y96632D01*
X154450Y96336D01*
X155936Y96632D01*
X157196Y97474D01*
X158038Y98734D01*
X158333Y100220D01*
X158038Y101706D01*
X157196Y102966D01*
X155936Y103808D01*
X154450Y104103D01*
D02*
G37*
G36*
X6500Y102634D02*
X5014Y102338D01*
X3754Y101496D01*
X2912Y100236D01*
X2616Y98750D01*
X2912Y97264D01*
X3754Y96004D01*
X5014Y95162D01*
X6500Y94867D01*
X7986Y95162D01*
X9246Y96004D01*
X10088Y97264D01*
X10384Y98750D01*
X10088Y100236D01*
X9246Y101496D01*
X7986Y102338D01*
X6500Y102634D01*
D02*
G37*
G36*
X131572Y98533D02*
X129805Y98181D01*
X128308Y97181D01*
X127307Y95683D01*
X126955Y93916D01*
X127307Y92149D01*
X128308Y90652D01*
X129408Y89916D01*
X128308Y89180D01*
X127346Y87741D01*
X127196Y87966D01*
X125936Y88808D01*
X124450Y89103D01*
X122963Y88808D01*
X121703Y87966D01*
X120862Y86706D01*
X120566Y85220D01*
X120862Y83734D01*
X121703Y82474D01*
X122963Y81632D01*
X124450Y81336D01*
X125936Y81632D01*
X127196Y82474D01*
X127811Y83395D01*
X128308Y82652D01*
X129805Y81651D01*
X131572Y81299D01*
X133339Y81651D01*
X134837Y82652D01*
X135837Y84149D01*
X136189Y85916D01*
X135837Y87683D01*
X134837Y89180D01*
X133736Y89916D01*
X134837Y90652D01*
X135837Y92149D01*
X136189Y93916D01*
X135837Y95683D01*
X134837Y97181D01*
X133339Y98181D01*
X131572Y98533D01*
D02*
G37*
G36*
X289000Y94634D02*
X287514Y94338D01*
X286254Y93496D01*
X285412Y92236D01*
X285116Y90750D01*
X285412Y89264D01*
X286254Y88004D01*
X287514Y87162D01*
X289000Y86866D01*
X290486Y87162D01*
X291746Y88004D01*
X292588Y89264D01*
X292884Y90750D01*
X292588Y92236D01*
X291746Y93496D01*
X290486Y94338D01*
X289000Y94634D01*
D02*
G37*
G36*
X244450Y89103D02*
X242963Y88808D01*
X241703Y87966D01*
X240861Y86706D01*
X240566Y85220D01*
X240861Y83734D01*
X241703Y82474D01*
X242963Y81632D01*
X244450Y81336D01*
X245936Y81632D01*
X247196Y82474D01*
X248037Y83734D01*
X248333Y85220D01*
X248037Y86706D01*
X247196Y87966D01*
X245936Y88808D01*
X244450Y89103D01*
D02*
G37*
G36*
X214450D02*
X212963Y88808D01*
X211703Y87966D01*
X210861Y86706D01*
X210566Y85220D01*
X210861Y83734D01*
X211703Y82474D01*
X212963Y81632D01*
X214450Y81336D01*
X215936Y81632D01*
X217196Y82474D01*
X218037Y83734D01*
X218333Y85220D01*
X218037Y86706D01*
X217196Y87966D01*
X215936Y88808D01*
X214450Y89103D01*
D02*
G37*
G36*
X169450D02*
X167963Y88808D01*
X166703Y87966D01*
X165861Y86706D01*
X165566Y85220D01*
X165861Y83734D01*
X166703Y82474D01*
X167963Y81632D01*
X169450Y81336D01*
X170936Y81632D01*
X172196Y82474D01*
X173037Y83734D01*
X173333Y85220D01*
X173037Y86706D01*
X172196Y87966D01*
X170936Y88808D01*
X169450Y89103D01*
D02*
G37*
G36*
X154450D02*
X152963Y88808D01*
X151703Y87966D01*
X150862Y86706D01*
X150566Y85220D01*
X150862Y83734D01*
X151703Y82474D01*
X152963Y81632D01*
X154450Y81336D01*
X155936Y81632D01*
X157196Y82474D01*
X158038Y83734D01*
X158333Y85220D01*
X158038Y86706D01*
X157196Y87966D01*
X155936Y88808D01*
X154450Y89103D01*
D02*
G37*
G36*
X6500Y87634D02*
X5014Y87338D01*
X3754Y86496D01*
X2912Y85236D01*
X2616Y83750D01*
X2912Y82264D01*
X3754Y81004D01*
X5014Y80162D01*
X6500Y79866D01*
X7986Y80162D01*
X9246Y81004D01*
X10088Y82264D01*
X10384Y83750D01*
X10088Y85236D01*
X9246Y86496D01*
X7986Y87338D01*
X6500Y87634D01*
D02*
G37*
G36*
X289450Y74103D02*
X287963Y73808D01*
X286703Y72966D01*
X285861Y71706D01*
X285566Y70220D01*
X285861Y68734D01*
X286703Y67474D01*
X287963Y66632D01*
X289450Y66336D01*
X290936Y66632D01*
X292196Y67474D01*
X293037Y68734D01*
X293333Y70220D01*
X293037Y71706D01*
X292196Y72966D01*
X290936Y73808D01*
X289450Y74103D01*
D02*
G37*
G36*
X244450D02*
X242963Y73808D01*
X241703Y72966D01*
X240861Y71706D01*
X240566Y70220D01*
X240861Y68734D01*
X241703Y67474D01*
X242963Y66632D01*
X244450Y66336D01*
X245936Y66632D01*
X247196Y67474D01*
X248037Y68734D01*
X248333Y70220D01*
X248037Y71706D01*
X247196Y72966D01*
X245936Y73808D01*
X244450Y74103D01*
D02*
G37*
G36*
X214450D02*
X212963Y73808D01*
X211703Y72966D01*
X210861Y71706D01*
X210566Y70220D01*
X210861Y68734D01*
X211703Y67474D01*
X212963Y66632D01*
X214450Y66336D01*
X215936Y66632D01*
X217196Y67474D01*
X218037Y68734D01*
X218333Y70220D01*
X218037Y71706D01*
X217196Y72966D01*
X215936Y73808D01*
X214450Y74103D01*
D02*
G37*
G36*
X169450D02*
X167963Y73808D01*
X166703Y72966D01*
X165861Y71706D01*
X165566Y70220D01*
X165861Y68734D01*
X166703Y67474D01*
X167963Y66632D01*
X169450Y66336D01*
X170936Y66632D01*
X172196Y67474D01*
X173037Y68734D01*
X173333Y70220D01*
X173037Y71706D01*
X172196Y72966D01*
X170936Y73808D01*
X169450Y74103D01*
D02*
G37*
G36*
X154450D02*
X152963Y73808D01*
X151703Y72966D01*
X150862Y71706D01*
X150566Y70220D01*
X150862Y68734D01*
X151703Y67474D01*
X152963Y66632D01*
X154450Y66336D01*
X155936Y66632D01*
X157196Y67474D01*
X158038Y68734D01*
X158333Y70220D01*
X158038Y71706D01*
X157196Y72966D01*
X155936Y73808D01*
X154450Y74103D01*
D02*
G37*
G36*
X139450D02*
X137963Y73808D01*
X136703Y72966D01*
X135862Y71706D01*
X135566Y70220D01*
X135862Y68734D01*
X136703Y67474D01*
X137963Y66632D01*
X139450Y66336D01*
X140936Y66632D01*
X142196Y67474D01*
X143038Y68734D01*
X143333Y70220D01*
X143038Y71706D01*
X142196Y72966D01*
X140936Y73808D01*
X139450Y74103D01*
D02*
G37*
G36*
X6500Y72634D02*
X5014Y72338D01*
X3754Y71496D01*
X2912Y70236D01*
X2616Y68750D01*
X2912Y67264D01*
X3754Y66004D01*
X5014Y65162D01*
X6500Y64866D01*
X7986Y65162D01*
X9246Y66004D01*
X10088Y67264D01*
X10384Y68750D01*
X10088Y70236D01*
X9246Y71496D01*
X7986Y72338D01*
X6500Y72634D01*
D02*
G37*
G36*
X320000Y61884D02*
X318514Y61588D01*
X317254Y60746D01*
X316412Y59486D01*
X316116Y58000D01*
X316412Y56514D01*
X317254Y55254D01*
X318514Y54412D01*
X320000Y54116D01*
X321486Y54412D01*
X322746Y55254D01*
X323588Y56514D01*
X323884Y58000D01*
X323588Y59486D01*
X322746Y60746D01*
X321486Y61588D01*
X320000Y61884D01*
D02*
G37*
G36*
X62660Y61794D02*
X61174Y61498D01*
X59914Y60656D01*
X59072Y59396D01*
X58776Y57910D01*
X59072Y56424D01*
X59914Y55164D01*
X61174Y54322D01*
X62660Y54026D01*
X64146Y54322D01*
X65406Y55164D01*
X66248Y56424D01*
X66544Y57910D01*
X66248Y59396D01*
X65406Y60656D01*
X64146Y61498D01*
X62660Y61794D01*
D02*
G37*
G36*
X52500D02*
X51014Y61498D01*
X49754Y60656D01*
X48912Y59396D01*
X48616Y57910D01*
X48912Y56424D01*
X49754Y55164D01*
X51014Y54322D01*
X52500Y54026D01*
X53986Y54322D01*
X55246Y55164D01*
X56088Y56424D01*
X56384Y57910D01*
X56088Y59396D01*
X55246Y60656D01*
X53986Y61498D01*
X52500Y61794D01*
D02*
G37*
G36*
X42340D02*
X40854Y61498D01*
X39594Y60656D01*
X38752Y59396D01*
X38456Y57910D01*
X38752Y56424D01*
X39594Y55164D01*
X40854Y54322D01*
X42340Y54026D01*
X43826Y54322D01*
X45086Y55164D01*
X45928Y56424D01*
X46224Y57910D01*
X45928Y59396D01*
X45086Y60656D01*
X43826Y61498D01*
X42340Y61794D01*
D02*
G37*
G36*
X289450Y59103D02*
X287963Y58808D01*
X286703Y57966D01*
X285861Y56706D01*
X285566Y55220D01*
X285861Y53734D01*
X286703Y52474D01*
X287963Y51632D01*
X289450Y51336D01*
X290936Y51632D01*
X292196Y52474D01*
X293037Y53734D01*
X293333Y55220D01*
X293037Y56706D01*
X292196Y57966D01*
X290936Y58808D01*
X289450Y59103D01*
D02*
G37*
G36*
X244450D02*
X242963Y58808D01*
X241703Y57966D01*
X240861Y56706D01*
X240566Y55220D01*
X240861Y53734D01*
X241703Y52474D01*
X242963Y51632D01*
X244450Y51336D01*
X245936Y51632D01*
X247196Y52474D01*
X248037Y53734D01*
X248333Y55220D01*
X248037Y56706D01*
X247196Y57966D01*
X245936Y58808D01*
X244450Y59103D01*
D02*
G37*
G36*
X229450D02*
X227963Y58808D01*
X226703Y57966D01*
X225861Y56706D01*
X225566Y55220D01*
X225861Y53734D01*
X226703Y52474D01*
X227963Y51632D01*
X229450Y51336D01*
X230936Y51632D01*
X232196Y52474D01*
X233037Y53734D01*
X233333Y55220D01*
X233037Y56706D01*
X232196Y57966D01*
X230936Y58808D01*
X229450Y59103D01*
D02*
G37*
G36*
X214450D02*
X212963Y58808D01*
X211703Y57966D01*
X210861Y56706D01*
X210566Y55220D01*
X210861Y53734D01*
X211703Y52474D01*
X212963Y51632D01*
X214450Y51336D01*
X215936Y51632D01*
X217196Y52474D01*
X218037Y53734D01*
X218333Y55220D01*
X218037Y56706D01*
X217196Y57966D01*
X215936Y58808D01*
X214450Y59103D01*
D02*
G37*
G36*
X199450D02*
X197963Y58808D01*
X196703Y57966D01*
X195861Y56706D01*
X195566Y55220D01*
X195861Y53734D01*
X196703Y52474D01*
X197963Y51632D01*
X199450Y51336D01*
X200936Y51632D01*
X202196Y52474D01*
X203037Y53734D01*
X203333Y55220D01*
X203037Y56706D01*
X202196Y57966D01*
X200936Y58808D01*
X199450Y59103D01*
D02*
G37*
G36*
X184450D02*
X182963Y58808D01*
X181703Y57966D01*
X180861Y56706D01*
X180566Y55220D01*
X180861Y53734D01*
X181703Y52474D01*
X182963Y51632D01*
X184450Y51336D01*
X185936Y51632D01*
X187196Y52474D01*
X188037Y53734D01*
X188333Y55220D01*
X188037Y56706D01*
X187196Y57966D01*
X185936Y58808D01*
X184450Y59103D01*
D02*
G37*
G36*
X169450D02*
X167963Y58808D01*
X166703Y57966D01*
X165861Y56706D01*
X165566Y55220D01*
X165861Y53734D01*
X166703Y52474D01*
X167963Y51632D01*
X169450Y51336D01*
X170936Y51632D01*
X172196Y52474D01*
X173037Y53734D01*
X173333Y55220D01*
X173037Y56706D01*
X172196Y57966D01*
X170936Y58808D01*
X169450Y59103D01*
D02*
G37*
G36*
X154450D02*
X152963Y58808D01*
X151703Y57966D01*
X150862Y56706D01*
X150566Y55220D01*
X150862Y53734D01*
X151703Y52474D01*
X152963Y51632D01*
X154450Y51336D01*
X155936Y51632D01*
X157196Y52474D01*
X158038Y53734D01*
X158333Y55220D01*
X158038Y56706D01*
X157196Y57966D01*
X155936Y58808D01*
X154450Y59103D01*
D02*
G37*
G36*
X6500Y57634D02*
X5014Y57338D01*
X3754Y56496D01*
X2912Y55236D01*
X2616Y53750D01*
X2912Y52264D01*
X3754Y51004D01*
X5014Y50162D01*
X6500Y49866D01*
X7986Y50162D01*
X9246Y51004D01*
X10088Y52264D01*
X10384Y53750D01*
X10088Y55236D01*
X9246Y56496D01*
X7986Y57338D01*
X6500Y57634D01*
D02*
G37*
G36*
X62660Y51634D02*
X61174Y51338D01*
X59914Y50496D01*
X59072Y49236D01*
X58776Y47750D01*
X59072Y46264D01*
X59914Y45004D01*
X61174Y44162D01*
X62660Y43866D01*
X64146Y44162D01*
X65406Y45004D01*
X66248Y46264D01*
X66544Y47750D01*
X66248Y49236D01*
X65406Y50496D01*
X64146Y51338D01*
X62660Y51634D01*
D02*
G37*
G36*
X52500D02*
X51014Y51338D01*
X49754Y50496D01*
X48912Y49236D01*
X48616Y47750D01*
X48912Y46264D01*
X49754Y45004D01*
X51014Y44162D01*
X52500Y43866D01*
X53986Y44162D01*
X55246Y45004D01*
X56088Y46264D01*
X56384Y47750D01*
X56088Y49236D01*
X55246Y50496D01*
X53986Y51338D01*
X52500Y51634D01*
D02*
G37*
G36*
X42340D02*
X40854Y51338D01*
X39594Y50496D01*
X38752Y49236D01*
X38456Y47750D01*
X38752Y46264D01*
X39594Y45004D01*
X40854Y44162D01*
X42340Y43866D01*
X43826Y44162D01*
X45086Y45004D01*
X45928Y46264D01*
X46224Y47750D01*
X45928Y49236D01*
X45086Y50496D01*
X43826Y51338D01*
X42340Y51634D01*
D02*
G37*
G36*
X381000Y48759D02*
X379514Y48463D01*
X378254Y47621D01*
X377412Y46361D01*
X377116Y44875D01*
X377412Y43389D01*
X378254Y42129D01*
X379514Y41287D01*
X381000Y40991D01*
X382486Y41287D01*
X383746Y42129D01*
X384588Y43389D01*
X384883Y44875D01*
X384588Y46361D01*
X383746Y47621D01*
X382486Y48463D01*
X381000Y48759D01*
D02*
G37*
G36*
X349450Y44103D02*
X347963Y43808D01*
X346703Y42966D01*
X345862Y41706D01*
X345566Y40220D01*
X345862Y38734D01*
X346703Y37474D01*
X347963Y36632D01*
X349450Y36336D01*
X350936Y36632D01*
X352196Y37474D01*
X353037Y38734D01*
X353333Y40220D01*
X353037Y41706D01*
X352196Y42966D01*
X350936Y43808D01*
X349450Y44103D01*
D02*
G37*
G36*
X274450D02*
X272963Y43808D01*
X271703Y42966D01*
X270861Y41706D01*
X270566Y40220D01*
X270861Y38734D01*
X271703Y37474D01*
X272963Y36632D01*
X274450Y36336D01*
X275936Y36632D01*
X277196Y37474D01*
X278037Y38734D01*
X278333Y40220D01*
X278037Y41706D01*
X277196Y42966D01*
X275936Y43808D01*
X274450Y44103D01*
D02*
G37*
G36*
X214450D02*
X212963Y43808D01*
X211703Y42966D01*
X210861Y41706D01*
X210566Y40220D01*
X210861Y38734D01*
X211703Y37474D01*
X212963Y36632D01*
X214450Y36336D01*
X215936Y36632D01*
X217196Y37474D01*
X218037Y38734D01*
X218333Y40220D01*
X218037Y41706D01*
X217196Y42966D01*
X215936Y43808D01*
X214450Y44103D01*
D02*
G37*
G36*
X199450D02*
X197963Y43808D01*
X196703Y42966D01*
X195861Y41706D01*
X195566Y40220D01*
X195861Y38734D01*
X196703Y37474D01*
X197963Y36632D01*
X199450Y36336D01*
X200936Y36632D01*
X202196Y37474D01*
X203037Y38734D01*
X203333Y40220D01*
X203037Y41706D01*
X202196Y42966D01*
X200936Y43808D01*
X199450Y44103D01*
D02*
G37*
G36*
X184450D02*
X182963Y43808D01*
X181703Y42966D01*
X180861Y41706D01*
X180566Y40220D01*
X180861Y38734D01*
X181703Y37474D01*
X182963Y36632D01*
X184450Y36336D01*
X185936Y36632D01*
X187196Y37474D01*
X188037Y38734D01*
X188333Y40220D01*
X188037Y41706D01*
X187196Y42966D01*
X185936Y43808D01*
X184450Y44103D01*
D02*
G37*
G36*
X169450D02*
X167963Y43808D01*
X166703Y42966D01*
X165861Y41706D01*
X165566Y40220D01*
X165861Y38734D01*
X166703Y37474D01*
X167963Y36632D01*
X169450Y36336D01*
X170936Y36632D01*
X172196Y37474D01*
X173037Y38734D01*
X173333Y40220D01*
X173037Y41706D01*
X172196Y42966D01*
X170936Y43808D01*
X169450Y44103D01*
D02*
G37*
G36*
X154450D02*
X152963Y43808D01*
X151703Y42966D01*
X150862Y41706D01*
X150566Y40220D01*
X150862Y38734D01*
X151703Y37474D01*
X152963Y36632D01*
X154450Y36336D01*
X155936Y36632D01*
X157196Y37474D01*
X158038Y38734D01*
X158333Y40220D01*
X158038Y41706D01*
X157196Y42966D01*
X155936Y43808D01*
X154450Y44103D01*
D02*
G37*
G36*
X6500Y42634D02*
X5014Y42338D01*
X3754Y41496D01*
X2912Y40236D01*
X2616Y38750D01*
X2912Y37264D01*
X3754Y36004D01*
X5014Y35162D01*
X6500Y34866D01*
X7986Y35162D01*
X9246Y36004D01*
X10088Y37264D01*
X10384Y38750D01*
X10088Y40236D01*
X9246Y41496D01*
X7986Y42338D01*
X6500Y42634D01*
D02*
G37*
G36*
X62660Y41474D02*
X61174Y41178D01*
X59914Y40336D01*
X59072Y39076D01*
X58776Y37590D01*
X59072Y36104D01*
X59914Y34844D01*
X61174Y34002D01*
X62660Y33706D01*
X64146Y34002D01*
X65406Y34844D01*
X66248Y36104D01*
X66544Y37590D01*
X66248Y39076D01*
X65406Y40336D01*
X64146Y41178D01*
X62660Y41474D01*
D02*
G37*
G36*
X52500D02*
X51014Y41178D01*
X49754Y40336D01*
X48912Y39076D01*
X48616Y37590D01*
X48912Y36104D01*
X49754Y34844D01*
X51014Y34002D01*
X52500Y33706D01*
X53986Y34002D01*
X55246Y34844D01*
X56088Y36104D01*
X56384Y37590D01*
X56088Y39076D01*
X55246Y40336D01*
X53986Y41178D01*
X52500Y41474D01*
D02*
G37*
G36*
X42340D02*
X40854Y41178D01*
X39594Y40336D01*
X38752Y39076D01*
X38456Y37590D01*
X38752Y36104D01*
X39594Y34844D01*
X40854Y34002D01*
X42340Y33706D01*
X43826Y34002D01*
X45086Y34844D01*
X45928Y36104D01*
X46224Y37590D01*
X45928Y39076D01*
X45086Y40336D01*
X43826Y41178D01*
X42340Y41474D01*
D02*
G37*
G36*
X381000Y35884D02*
X379514Y35588D01*
X378254Y34746D01*
X377412Y33486D01*
X377116Y32000D01*
X377412Y30514D01*
X378254Y29254D01*
X379514Y28412D01*
X381000Y28116D01*
X382486Y28412D01*
X383746Y29254D01*
X384588Y30514D01*
X384883Y32000D01*
X384588Y33486D01*
X383746Y34746D01*
X382486Y35588D01*
X381000Y35884D01*
D02*
G37*
G36*
X214450Y29103D02*
X212963Y28808D01*
X211703Y27966D01*
X210861Y26706D01*
X210566Y25220D01*
X210861Y23734D01*
X211703Y22474D01*
X212963Y21632D01*
X214450Y21336D01*
X215936Y21632D01*
X217196Y22474D01*
X218037Y23734D01*
X218333Y25220D01*
X218037Y26706D01*
X217196Y27966D01*
X215936Y28808D01*
X214450Y29103D01*
D02*
G37*
G36*
X199450D02*
X197963Y28808D01*
X196703Y27966D01*
X195861Y26706D01*
X195566Y25220D01*
X195861Y23734D01*
X196703Y22474D01*
X197963Y21632D01*
X199450Y21336D01*
X200936Y21632D01*
X202196Y22474D01*
X203037Y23734D01*
X203333Y25220D01*
X203037Y26706D01*
X202196Y27966D01*
X200936Y28808D01*
X199450Y29103D01*
D02*
G37*
G36*
X184450D02*
X182963Y28808D01*
X181703Y27966D01*
X180861Y26706D01*
X180566Y25220D01*
X180861Y23734D01*
X181703Y22474D01*
X182963Y21632D01*
X184450Y21336D01*
X185936Y21632D01*
X187196Y22474D01*
X188037Y23734D01*
X188333Y25220D01*
X188037Y26706D01*
X187196Y27966D01*
X185936Y28808D01*
X184450Y29103D01*
D02*
G37*
G36*
X169450D02*
X167963Y28808D01*
X166703Y27966D01*
X165861Y26706D01*
X165566Y25220D01*
X165861Y23734D01*
X166703Y22474D01*
X167963Y21632D01*
X169450Y21336D01*
X170936Y21632D01*
X172196Y22474D01*
X173037Y23734D01*
X173333Y25220D01*
X173037Y26706D01*
X172196Y27966D01*
X170936Y28808D01*
X169450Y29103D01*
D02*
G37*
G36*
X154450D02*
X152963Y28808D01*
X151703Y27966D01*
X150862Y26706D01*
X150566Y25220D01*
X150862Y23734D01*
X151703Y22474D01*
X152963Y21632D01*
X154450Y21336D01*
X155936Y21632D01*
X157196Y22474D01*
X158038Y23734D01*
X158333Y25220D01*
X158038Y26706D01*
X157196Y27966D01*
X155936Y28808D01*
X154450Y29103D01*
D02*
G37*
G36*
X79450D02*
X77963Y28808D01*
X76703Y27966D01*
X75862Y26706D01*
X75566Y25220D01*
X75862Y23734D01*
X76703Y22474D01*
X77963Y21632D01*
X79450Y21336D01*
X80936Y21632D01*
X82196Y22474D01*
X83038Y23734D01*
X83333Y25220D01*
X83038Y26706D01*
X82196Y27966D01*
X80936Y28808D01*
X79450Y29103D01*
D02*
G37*
G36*
X6500Y27634D02*
X5014Y27338D01*
X3754Y26496D01*
X2912Y25236D01*
X2616Y23750D01*
X2912Y22264D01*
X3754Y21004D01*
X5014Y20162D01*
X6500Y19866D01*
X7986Y20162D01*
X9246Y21004D01*
X10088Y22264D01*
X10384Y23750D01*
X10088Y25236D01*
X9246Y26496D01*
X7986Y27338D01*
X6500Y27634D01*
D02*
G37*
G36*
X132778Y32778D02*
X117222D01*
Y17222D01*
X132778D01*
Y32778D01*
D02*
G37*
G36*
X57778D02*
X42222D01*
Y17222D01*
X57778D01*
Y32778D01*
D02*
G37*
G36*
X100000Y32845D02*
X97970Y32578D01*
X96077Y31794D01*
X94453Y30547D01*
X93206Y28923D01*
X92422Y27030D01*
X92155Y25000D01*
X92422Y22970D01*
X93206Y21077D01*
X94453Y19453D01*
X96077Y18206D01*
X97970Y17422D01*
X100000Y17155D01*
X102030Y17422D01*
X103923Y18206D01*
X105547Y19453D01*
X106794Y21077D01*
X107578Y22970D01*
X107845Y25000D01*
X107578Y27030D01*
X106794Y28923D01*
X105547Y30547D01*
X103923Y31794D01*
X102030Y32578D01*
X100000Y32845D01*
D02*
G37*
G36*
X25000D02*
X22970Y32578D01*
X21077Y31794D01*
X19453Y30547D01*
X18206Y28923D01*
X17422Y27030D01*
X17155Y25000D01*
X17422Y22970D01*
X18206Y21077D01*
X19453Y19453D01*
X21077Y18206D01*
X22970Y17422D01*
X25000Y17155D01*
X27030Y17422D01*
X28923Y18206D01*
X30547Y19453D01*
X31794Y21077D01*
X32578Y22970D01*
X32845Y25000D01*
X32578Y27030D01*
X31794Y28923D01*
X30547Y30547D01*
X28923Y31794D01*
X27030Y32578D01*
X25000Y32845D01*
D02*
G37*
G36*
X381000Y23009D02*
X379514Y22713D01*
X378254Y21871D01*
X377412Y20611D01*
X377116Y19125D01*
X377412Y17639D01*
X378254Y16379D01*
X379514Y15537D01*
X381000Y15241D01*
X382486Y15537D01*
X383746Y16379D01*
X384588Y17639D01*
X384883Y19125D01*
X384588Y20611D01*
X383746Y21871D01*
X382486Y22713D01*
X381000Y23009D01*
D02*
G37*
G36*
X337100Y33860D02*
X334678Y33541D01*
X332421Y32606D01*
X330483Y31119D01*
X328996Y29181D01*
X328061Y26924D01*
X327742Y24502D01*
X328061Y22080D01*
X328996Y19823D01*
X330483Y17885D01*
X332421Y16398D01*
X334678Y15463D01*
X337100Y15144D01*
X339522Y15463D01*
X341779Y16398D01*
X343717Y17885D01*
X345204Y19823D01*
X346139Y22080D01*
X346275Y23114D01*
X346703Y22474D01*
X347963Y21632D01*
X349450Y21336D01*
X350936Y21632D01*
X352196Y22474D01*
X353037Y23734D01*
X353222Y24661D01*
Y15224D01*
X371778D01*
Y33780D01*
X353222D01*
Y25778D01*
X353037Y26706D01*
X352196Y27966D01*
X350936Y28808D01*
X349450Y29103D01*
X347963Y28808D01*
X346703Y27966D01*
X346089Y27046D01*
X345204Y29181D01*
X343717Y31119D01*
X341779Y32606D01*
X339522Y33541D01*
X337100Y33860D01*
D02*
G37*
G36*
X311700D02*
X309278Y33541D01*
X307021Y32606D01*
X305083Y31119D01*
X303596Y29181D01*
X302661Y26924D01*
X302342Y24502D01*
X302661Y22080D01*
X303596Y19823D01*
X305083Y17885D01*
X307021Y16398D01*
X309278Y15463D01*
X311700Y15144D01*
X314122Y15463D01*
X316379Y16398D01*
X318317Y17885D01*
X319804Y19823D01*
X320739Y22080D01*
X321058Y24502D01*
X320739Y26924D01*
X319804Y29181D01*
X318317Y31119D01*
X316379Y32606D01*
X314122Y33541D01*
X311700Y33860D01*
D02*
G37*
G36*
X286300D02*
X283878Y33541D01*
X281621Y32606D01*
X279683Y31119D01*
X278196Y29181D01*
X277261Y26924D01*
X276942Y24502D01*
X277261Y22080D01*
X278196Y19823D01*
X279683Y17885D01*
X281621Y16398D01*
X283878Y15463D01*
X286300Y15144D01*
X288722Y15463D01*
X290979Y16398D01*
X292917Y17885D01*
X294404Y19823D01*
X295339Y22080D01*
X295658Y24502D01*
X295339Y26924D01*
X294404Y29181D01*
X292917Y31119D01*
X290979Y32606D01*
X288722Y33541D01*
X286300Y33860D01*
D02*
G37*
G36*
X260900D02*
X258478Y33541D01*
X256221Y32606D01*
X254283Y31119D01*
X252796Y29181D01*
X251861Y26924D01*
X251542Y24502D01*
X251861Y22080D01*
X252796Y19823D01*
X254283Y17885D01*
X256221Y16398D01*
X258478Y15463D01*
X260900Y15144D01*
X263322Y15463D01*
X265579Y16398D01*
X267517Y17885D01*
X269004Y19823D01*
X269939Y22080D01*
X270258Y24502D01*
X269939Y26924D01*
X269004Y29181D01*
X267517Y31119D01*
X265579Y32606D01*
X263322Y33541D01*
X260900Y33860D01*
D02*
G37*
G36*
X6750Y10634D02*
X5264Y10338D01*
X4004Y9496D01*
X3162Y8236D01*
X2866Y6750D01*
X3162Y5264D01*
X4004Y4004D01*
X5264Y3162D01*
X6750Y2866D01*
X8236Y3162D01*
X9496Y4004D01*
X10338Y5264D01*
X10634Y6750D01*
X10338Y8236D01*
X9496Y9496D01*
X8236Y10338D01*
X6750Y10634D01*
D02*
G37*
%LPD*%
D77*
X235500Y24502D02*
D03*
D80*
X298250Y327750D02*
D03*
X308410D02*
D03*
X298250Y348070D02*
D03*
X308410Y358230D02*
D03*
X298250D02*
D03*
X308410Y337910D02*
D03*
X298250D02*
D03*
X308410Y348070D02*
D03*
X125730Y367500D02*
D03*
X115570D02*
D03*
X64770D02*
D03*
X74930D02*
D03*
X108753Y128250D02*
D03*
X212010Y235511D02*
D03*
X237500Y234250D02*
D03*
X253250Y234500D02*
D03*
X176750Y73500D02*
D03*
X130432Y143108D02*
D03*
X190410Y254160D02*
D03*
X180250Y244000D02*
D03*
Y254160D02*
D03*
X190410Y244000D02*
D03*
Y288160D02*
D03*
X180250Y278000D02*
D03*
Y288160D02*
D03*
X190410Y278000D02*
D03*
X267750Y245000D02*
D03*
X188000Y331500D02*
D03*
X211680Y316597D02*
D03*
X243669Y317669D02*
D03*
X168180Y115000D02*
D03*
X178340D02*
D03*
X188500D02*
D03*
X198660Y125160D02*
D03*
X188500D02*
D03*
X198660Y115000D02*
D03*
X166680Y206570D02*
D03*
X156520Y196410D02*
D03*
Y206570D02*
D03*
X166680Y196410D02*
D03*
X187000D02*
D03*
X176840Y206570D02*
D03*
X187000D02*
D03*
X176840Y196410D02*
D03*
X85090Y347180D02*
D03*
X95250D02*
D03*
X85090Y367500D02*
D03*
X105410D02*
D03*
Y357340D02*
D03*
X95250D02*
D03*
X85090D02*
D03*
X95250Y367500D02*
D03*
M02*
