M48
;Layer_Color=9474304
;FILE_FORMAT=4:4
METRIC,LZ
;TYPE=PLATED
T1F00S00C0.2000
T2F00S00C0.3500
T3F00S00C0.5000
T4F00S00C0.9000
T5F00S00C1.0000
T6F00S00C2.0000
%
T01
X0006675Y0000675
X00081Y0000625
X00096
X00111
X00126
X00141
X00156
X00171
X00186
X00201
X0019945Y0007022
X0018445Y0008522
X00168753Y0012825
X0015445Y0011522
X0009445Y0013022
X0007945
X000665Y0012875
Y0011375
Y0009875
Y0008375
Y0006875
Y0005375
Y0003875
Y0002375
X0010234Y0003759
Y0004775
Y0005791
X001125
X0012266
Y0004775
Y0003759
X001125
Y0004775
X0013945Y0002522
X0021445
X0022945
X0024445
X0025945
X0027445
Y0004022
Y0005522
X0028945
X0030445
Y0007022
Y0008522
Y0010022
Y0011522
X0028945
X0027445Y0010022
Y0008522
Y0007022
X0025945Y0005522
Y0004022
X0024445
Y0005522
X0022945
Y0007022
X0023675Y000735
X0022945Y0008522
Y0010022
X0021445
Y0011522
X0022818Y00115
X0023834
X002485
Y0012516
X0025866
Y00115
X002445Y00101
X0021445Y0008522
Y0007022
Y0005522
Y0004022
X0022945
X00231Y0000625
X00246
X00261
X00276
X00291
X00306
X00321
X00336
X00351
X00366
X00381
X00396
X00411
X00426
X00441
Y00019125
Y00032
Y00044875
X00441Y0005775
X00426Y0005775
X00411
X00396
X0038Y00058
X0037945Y0007022
Y0008522
Y0010022
Y0011522
Y0013022
X0034945Y0011522
Y0010022
X00349Y0009075
X0034945Y0007022
Y0005522
X0033445Y0004022
X0040945
Y0002522
X0052Y0002375
Y0003875
Y0005375
Y0006875
Y0008375
Y0009875
Y0011375
Y0012875
X0053295Y0013022
X0054795
X0055584Y0005791
Y0004775
Y0003759
X00566
X0057616
Y0004775
Y0005791
X00566
Y0004775
X005645Y0000625
X005495
X005345
X0052025Y0000675
X005795Y0000625
X005945
X0059295Y0002522
X00216Y0000625
X00212432Y00139358
X003115Y0014175
X0060795Y0011522
X00622253Y0012825
X00665932Y00139358
X0066795Y0011522
X0068168Y00115
X0069184
X00702
Y0012516
X0071216
Y00115
X00698Y00101
X0068295Y0010022
Y0008522
Y0007022
X0069025Y000735
X0068295Y0005522
X0069795
X0071295
X0072795
X0074295
X0075795
Y0007022
Y0008522
Y0010022
Y0011522
X0074295
X0072795Y0010022
Y0008522
Y0007022
Y0004022
Y0002522
X0071295
Y0004022
X0069795
Y0002522
X0068295
Y0004022
X0066795
Y0005522
Y0007022
Y0008522
Y0010022
X0065295Y0007022
X00637949Y0008522
X006395Y0000625
X006245
X006095
X006545
X006695
X006845
X006995
X007145
X007295
X007445
X007595
X007745
X007895
X008045
X008195
X008345
X008495
X008645
X008795
X008945
Y00019125
Y00032
Y00044875
X008945Y0005775
X008795Y0005775
X008645
X008495
X008335Y00058
X0083295Y0007022
Y0008522
Y0010022
Y0011522
Y0013022
X0080295Y0011522
Y0010022
X008025Y0009075
X0080295Y0007022
Y0005522
X0078795Y0004022
X0086295
Y0002522
X009735Y0002375
Y0003875
Y0005375
Y0006875
Y0008375
Y0009875
Y0011375
Y0012875
X0098645Y0013022
X00988Y0000625
X0097375Y0000675
X0066795Y0002522
X00765Y0014175
X0100145Y0013022
X0106145Y0011522
X01075753Y0012825
X01119432Y00139358
X0112145Y0011522
X0113518Y00115
X0114534
X011555
Y0012516
X0116566
Y00115
X011515Y00101
X0113645Y0010022
Y0008522
Y0007022
X0114375Y000735
X0113645Y0005522
X0115145
X0116645
X0118145
X0119645
X0121145
Y0007022
Y0008522
Y0010022
Y0011522
X0119645
X0118145Y0010022
Y0008522
Y0007022
Y0004022
Y0002522
X0116645
Y0004022
X0115145
Y0002522
X0113645
Y0004022
X0112145
Y0005522
Y0007022
Y0008522
Y0010022
X0110645Y0007022
X0109145Y0008522
X01093Y0000625
X01078
X01063
X01048
X01033
X01018
X01003
X0100934Y0003759
Y0004775
Y0005791
X010195
X0102966
Y0004775
Y0003759
X010195
Y0004775
X0104645Y0002522
X0112145
X01123Y0000625
X01138
X01153
X01168
X01183
X01198
X01213
X01228
X01243
X01258
X01273
X01288
X01303
X01318
X01333
X01348
Y00019125
Y00032
Y00044875
X01348Y0005775
X01333Y0005775
X01318
X01303
X01287Y00058
X01286449Y0007022
Y0008522
Y0010022
Y0011522
Y0013022
X0125645Y0011522
Y0010022
X01256Y0009075
X0125645Y0007022
Y0005522
X0124145Y0004022
X01316449
Y0002522
X012185Y0014175
X01108Y0000625
X0142725Y0000675
X014415Y0000625
X014565
X014715
X014865
X015015
X015165
X015315
X015465
X015615
X015765
X015915
X016065
X016215
X016365
X016515
X016665
X016815
X016965
X017115
X017265
X017415
X017565
X017715
X017865
X01769949Y0002522
Y0004022
X017715Y0005775
X017565
X017405Y00058
X01739949Y0007022
Y0008522
Y0010022
Y0011522
Y0013022
X01709949Y0011522
Y0010022
X017095Y0009075
X01709949Y0007022
Y0005522
X01694949Y0004022
X01664949Y0005522
Y0007022
Y0008522
Y0010022
Y0011522
X01649949
X01634949Y0010022
Y0008522
Y0007022
Y0005522
X01649949
X01634949Y0004022
Y0002522
X01619949
Y0004022
Y0005522
X01604949
Y0004022
Y0002522
X0158995
Y0004022
Y0005522
Y0007022
X0159725Y000735
X0158995Y0008522
Y0010022
X0157495
Y0011522
X0158868Y00115
X0159884
X01609
Y0012516
X0161916
Y00115
X01605Y00101
X0157495Y0008522
Y0007022
Y0005522
Y0004022
Y0002522
X0155995Y0007022
X0154495Y0008522
X01529253Y0012825
X0151495Y0011522
X0145495Y0013022
X0143995
X01427Y0012875
Y0011375
Y0009875
Y0008375
Y0006875
Y0005375
Y0003875
Y0002375
X0146284Y0003759
Y0004775
Y0005791
X01473
X0148316
Y0004775
Y0003759
X01473
Y0004775
X0149995Y0002522
X01572932Y00139358
X01672Y0014175
X017865Y0005775
X018015Y0005775
X018015Y00044875
Y00032
Y00019125
Y0000625
Y0039805
Y00410925
Y004238
Y00436675
X018015Y0044955
X017865Y0044955
X017715
X017565
X017405Y004498
X01739949Y0046202
Y0047702
Y0049202
Y0050702
Y0052202
Y0053702
X01709949Y0050702
Y0049202
X017095Y0048255
X01709949Y0046202
Y0044702
X01694949Y0043202
X016965Y0039805
X017115
X017265
X017415
X017565
X017715
X017865
X01769949Y0041702
Y0043202
X0173975Y0038375
X01739949Y0037022
Y0035522
X0172891Y0035823
X0171875
Y0034807
Y0033791
Y0032775
X01711Y0032875
X01709949Y0034022
Y0035522
Y0037022
X0170975Y0038375
X0172475
X01724949Y0037022
X0172891Y0034807
Y0033791
Y0032775
X01739949Y0032522
Y0034022
Y0031022
Y0029522
Y0028022
X0173975Y0027
X01739625Y0026175
X01731562
X017235
X01715437
X01707375
X01707813Y002475
X01715875
X01723938
X01732
X0173625Y0023975
X01739949Y0023522
Y0022022
Y0020522
Y0019022
Y0017522
Y0016022
Y0014522
X01707189Y00148162
X0172025Y00177
X01724949Y0019022
Y0020522
Y0022022
Y0023522
X01703287Y00240037
X01699111Y0024825
X0168825Y00245
X01694703Y00234973
X0168475Y0022575
X0167375Y002345
X01658Y0023425
X01651Y0023325
X01643Y002335
X0163251Y00235511
X01634949Y0022022
Y0020522
X0164275Y0020025
X01644Y00211
X01650162Y00220412
X0165575Y0018475
X016555Y00163
X0164125Y001455
X01636
X0160775
X0160275
X015645Y0014325
X01550932Y00143108
X01535Y0015825
X01522Y00158
X0151495Y0016022
Y0014522
X01516Y00181
X0155225Y00192
X0155995Y0019022
Y0020522
X0154495
X0157702Y0020657
X0158718
Y0019641
X0157702
X0159734
X016075
Y0020657
X0159734
X0158995Y0022022
X01604949
X0160075Y00244
Y0025416
X0161091
Y00244
X0158995Y0023522
X015885Y002605
X0157475Y00261
X0157495Y0025022
Y0028022
X015885Y0027975
X0160075Y00278
Y0028816
X0161091
Y00278
X01613052Y00317302
X01604949Y0032522
X016085Y003315
X0158995Y0032522
Y0031022
X015895Y00299
X0157495Y0029522
Y0031022
Y0032522
Y0035522
X0158995
X01604949
X01619949
X01634949
Y0037022
X0163475Y0038375
X0164975
X01649949Y0037022
X01664949
X0166475Y0038375
X0167975
X01679949Y0037022
X01694949
X0169475Y0038375
X016815Y0039805
X016665
X016515
X016365
X016215
X016065
X015915
X015765
X015615
X015465
X015315
X015165
X015015
X014865
X014715
X014565
X014415
X0142725Y0039855
X01427Y0038375
Y0036875
X0143995Y0037022
X0145495
X0145475Y0038375
X01442
X0146975
X0146995Y0037022
Y0035522
X0148495
X0148527Y003675
X0149543
X0150559
Y0035734
Y0034718
X0151575
Y0035734
X0152591
Y003675
X0153607
X0154623
X0154495Y0035522
X0155995
Y0037022
X0155975Y0038375
X0157475
X0157495Y0037022
X0158995
X0158975Y0038375
X0160475
X01604949Y0037022
X01619949
X0161975Y0038375
X01619949Y0041702
X01634949
Y0043202
Y0044702
X01649949
X01664949
Y0046202
Y0047702
Y0049202
Y0050702
X01649949
X01634949Y0049202
Y0047702
Y0046202
X01619949Y0044702
Y0043202
X01604949
Y0044702
X0158995
Y0046202
X0159725Y004653
X0158995Y0047702
Y0049202
X0157495
Y0050702
X0158868Y005068
X0159884
X01609
Y0051696
X0161916
Y005068
X01605Y004928
X0157495Y0047702
Y0046202
Y0044702
Y0043202
X0158995
Y0041702
X01604949
X0157495
X0155995Y0046202
X0154495Y0047702
X01529253Y0052005
X0151495Y0050702
Y0053702
X01550932Y00534908
X015645Y0053505
X01572932Y00531158
X0160275Y005373
X0160775
X01636
X0164125
X01672Y0053355
X01664949Y0035522
X01679949
X01694949
Y0034022
X01679949
X0166575Y0033675
X01664169Y00317669
X0163218Y00316597
X01636Y0033675
X0155995Y0034022
X0154495
Y0032522
X0155995Y0031022
Y0029522
X0154495
X0151495
X0149995
Y0028022
Y0026522
Y0025022
Y0023522
Y0022022
X0148495
Y0023522
Y0025022
Y0026522
Y0028022
Y0029522
Y0031022
Y0032522
Y0034022
X0146995Y0032522
Y0031022
Y0029522
Y0028022
Y0026522
Y0025022
Y0023522
Y0022022
Y0020522
Y0019022
X0145495Y0020522
Y0022022
Y0023522
Y0025022
Y0026522
Y0028022
Y0029522
Y0031022
X0143995
X01427Y0030875
Y0029375
X0143995Y0029522
Y0028022
X01427Y0027875
Y0026375
X0143995Y0026522
Y0025022
X01427Y0024875
Y0023375
X0143995Y0023522
Y0022022
X01427Y0021875
Y0020375
X0143995Y0020522
X01427Y0018875
Y0017375
Y0015875
Y0014375
X0143995Y0014522
X0145495
X01489932Y00207358
X0157495Y0022022
X01687787Y00207893
Y00200037
X0169475Y00211
X01686225Y0017575
X01695243Y00270989
X01696Y0028675
X0170175Y00295
Y003075
X01694949Y0031022
X0170075Y003195
X017215Y0027
X0154475Y0038375
X0152975
X0151475
X0149975
X0148475
X0148316Y0042939
Y0043955
Y0044971
X01473
X0146284
Y0043955
Y0042939
X01473
Y0043955
X0149995Y0041702
X0151575Y003675
X01427Y0035375
Y0033875
Y0032375
X0143995Y0032522
X01427Y0041555
Y0043055
Y0044555
Y0046055
Y0047555
Y0049055
Y0050555
Y0052055
X0143995Y0052202
X0145495
Y0053702
X0143995
X01427Y0053555
X01286449Y0053702
Y0052202
Y0050702
Y0049202
Y0047702
Y0046202
X01287Y004498
X01303Y0044955
X01318
X01333
X01348Y0044955
X01348Y00436675
Y004238
Y00410925
Y0039805
X01333
X01318
X01303
X01288
X01273
X01258
X01243
X01228
X01213
X01198
X01183
X01168
X01153
X01138
X01123
X01108
X01093
X01078
X01063
X01048
X01033
X01018
X01003
X0100125Y0038375
X0100145Y0037022
X0101645
X0101625Y0038375
X0103125
X0104625
X0106125
X0107625
X0109125
X0110625
X0110645Y0037022
X0112145
X0112125Y0038375
X0113625
X0113645Y0037022
X0115145
X0115125Y0038375
X0116625
X0116645Y0037022
X0118145
X0118125Y0038375
X0119625
X0119645Y0037022
X0121145
X0121125Y0038375
X0122625
X0122645Y0037022
X0124145
X0124125Y0038375
X0125625
X0125645Y0037022
X0127145
X0127125Y0038375
X0128625
X01286449Y0037022
Y0035522
X0127541Y0035823
X0126525
Y0034807
Y0033791
Y0032775
X012575Y0032875
X0125645Y0034022
Y0035522
X0124145
Y0034022
X0122645
Y0035522
X0121145
X0121225Y0033675
X01210669Y00317669
X0117868Y00316597
X01159552Y00317302
X0115145Y0032522
X01155Y003315
X0113645Y0032522
Y0031022
X01136Y00299
X0112145Y0029522
Y0031022
Y0032522
Y0035522
X0113645
X0115145
X0116645
X0118145
X011825Y0033675
X0115741Y0028816
X0114725
Y00278
X0115741
Y0025416
X0114725
Y00244
X0115741
X0115145Y0022022
X0113645
Y0023522
X01135Y002605
X0112125Y00261
X0112145Y0025022
Y0028022
X01135Y0027975
X0110645Y0029522
Y0031022
Y0034022
Y0035522
X0109145
X0109273Y003675
X0108257
X0107241
Y0035734
X0106225
Y0034718
X0105209
Y0035734
Y003675
X0104193
X0103177
X0103145Y0035522
Y0034022
Y0032522
Y0031022
Y0029522
X0104645
X0106145
X0109145
Y0032522
Y0034022
X0106225Y003675
X0101645Y0035522
Y0032522
Y0031022
Y0029522
Y0028022
X0103145
X0104645
Y0026522
Y0025022
Y0023522
Y0022022
X0103145
Y0023522
Y0025022
Y0026522
X0101645
Y0025022
Y0023522
Y0022022
Y0020522
Y0019022
X0100145Y0020522
Y0022022
Y0023522
Y0025022
Y0026522
Y0028022
Y0029522
Y0031022
X0100934Y0042939
Y0043955
Y0044971
X010195
X0102966
Y0043955
Y0042939
X010195
Y0043955
X0104645Y0041702
X0112145
X0113645
X0115145
X0116645
X0118145
Y0043202
Y0044702
X0119645
X0121145
Y0046202
Y0047702
Y0049202
Y0050702
X0119645
X0118145Y0049202
Y0047702
Y0046202
X0116645Y0044702
Y0043202
X0115145
Y0044702
X0113645
Y0046202
X0114375Y004653
X0113645Y0047702
Y0049202
X0112145
Y0050702
X0113518Y005068
X0114534
X011555
Y0051696
X0116566
Y005068
X011515Y004928
X0112145Y0047702
Y0046202
Y0044702
Y0043202
X0113645
X0110645Y0046202
X0109145Y0047702
X01075753Y0052005
X0106145Y0050702
Y0053702
X01097432Y00534908
X01111Y0053505
X01119432Y00531158
X0114925Y005373
X0115425
X011825
X0118775
X012185Y0053355
X0125645Y0050702
Y0049202
X01256Y0048255
X0125645Y0046202
Y0044702
X0124145Y0043202
X01316449
Y0041702
X01286449Y0034022
X0127541Y0033791
Y0032775
X01286449Y0032522
Y0031022
Y0029522
Y0028022
X0128625Y0027
X01286125Y0026175
X01278063
X0127
X01261937
X01253875
X01254313Y002475
X01262375
X01270437
X012785
X0128275Y0023975
X01286449Y0023522
Y0022022
Y0020522
Y0019022
Y0017522
Y0016022
Y0014522
X01253689Y00148162
X0126675Y00177
X0127145Y0019022
Y0020522
Y0022022
Y0023522
X01249787Y00240037
X01245611Y0024825
X0123475Y00245
X01241203Y00234973
X0123125Y0022575
X0122025Y002345
X012045Y0023425
X011975Y0023325
X011895Y002335
X0117901Y00235511
X0118145Y0022022
Y0020522
X0118925Y0020025
X011905Y00211
X01196662Y00220412
X0120225Y0018475
X01202Y00163
X0118775Y001455
X011825
X0115425
X0114925
X01111Y0014325
X01097432Y00143108
X010815Y0015825
X010685Y00158
X0106145Y0016022
Y0014522
X010625Y00181
X0109875Y00192
X0110645Y0019022
Y0020522
X0109145
X0112352Y0020657
X0113368
Y0019641
X0112352
X0114384
X01154
Y0020657
X0114384
X0112145Y0022022
X01036432Y00207358
X0100145Y0014522
X01232725Y0017575
X01234287Y00200037
Y00207893
X0124125Y00211
X01241743Y00270989
X012425Y0028675
X0124825Y00295
Y003075
X0124145Y0031022
X0124725Y003195
X0127541Y0034807
X01268Y0027
X0100145Y0052202
Y0053702
X0098645
X009735Y0053555
Y0052055
X0098645Y0052202
X009735Y0050555
Y0049055
Y0047555
Y0046055
Y0044555
Y0043055
Y0041555
X0097375Y0039855
X00988Y0039805
X009885Y0038375
X009735
Y0036875
X0098645Y0037022
X009735Y0035375
Y0033875
Y0032375
X0098645Y0032522
Y0031022
X009735Y0030875
Y0029375
X0098645Y0029522
Y0028022
X009735Y0027875
Y0026375
X0098645Y0026522
Y0025022
X009735Y0024875
Y0023375
X0098645Y0023522
Y0022022
X009735Y0021875
Y0020375
X0098645Y0020522
X009735Y0018875
Y0017375
Y0015875
Y0014375
X0098645Y0014522
X0083295
Y0016022
Y0017522
Y0019022
Y0020522
Y0022022
Y0023522
X0082925Y0023975
X00825Y002475
X00816937
X00808875
X00800813
X00792111Y0024825
X00796287Y00240037
X00787703Y00234973
X0078125Y00245
X0077775Y0022575
X0076675Y002345
X00751Y0023425
X00744Y0023325
X00736Y002335
X0072551Y00235511
X0072795Y0022022
Y0020522
X0073575Y0020025
X00737Y00211
X00743162Y00220412
X0074875Y0018475
X007485Y00163
X0073425Y001455
X00729
X0070075
X0069575
X006575Y0014325
X00643932Y00143108
X00628Y0015825
X00615Y00158
X0060795Y0016022
Y0014522
X00609Y00181
X0064525Y00192
X0065295Y0019022
Y0020522
X00637949
X0067002Y0020657
X0068018
Y0019641
X0067002
X0069034
X007005
Y0020657
X0069034
X0068295Y0022022
X0069795
X0069375Y00244
Y0025416
X0070391
Y00244
X0068295Y0023522
X006815Y002605
X0066775Y00261
X0066795Y0025022
Y0028022
X006815Y0027975
X0069375Y00278
Y0028816
X0070391
Y00278
X00706052Y00317302
X0069795Y0032522
X007015Y003315
X0068295Y0032522
Y0031022
X006825Y00299
X0066795Y0029522
Y0031022
Y0032522
Y0035522
X0068295
X0069795
X0071295
X0072795
Y0037022
X0072775Y0038375
X0074275
X0074295Y0037022
X0075795
X0075775Y0038375
X0077275
X0077295Y0037022
X0078795
X0078775Y0038375
X0080275
X0080295Y0037022
X0081795
X0081775Y0038375
X0083275
X0083295Y0037022
Y0035522
X0082191Y0035823
X0081175
Y0034807
Y0033791
Y0032775
X00804Y0032875
X0080295Y0034022
Y0035522
X0078795
Y0034022
X0077295
Y0035522
X0075795
X0075875Y0033675
X00757169Y00317669
X0072518Y00316597
X00729Y0033675
X0071295Y0037022
X0071275Y0038375
X0069775
X0069795Y0037022
X0068295
X0068275Y0038375
X0066775
X0066795Y0037022
X0065295
X0065275Y0038375
X0063775
X0062275
X0060775
X006095Y0039805
X006245
X006395
X006545
X006695
X006845
X006995
X007145
X007295
X007445
X007595
X007745
X007895
X008045
X008195
X008345
X008495
X008645
X008795
X008945
Y00410925
Y004238
Y00436675
X008945Y0044955
X008795Y0044955
X008645
X008495
X008335Y004498
X0083295Y0046202
Y0047702
Y0049202
Y0050702
Y0052202
Y0053702
X0080295Y0050702
Y0049202
X008025Y0048255
X0080295Y0046202
Y0044702
X0078795Y0043202
X0075795Y0044702
Y0046202
Y0047702
Y0049202
Y0050702
X0074295
X0072795Y0049202
Y0047702
Y0046202
Y0044702
X0074295
X0072795Y0043202
Y0041702
X0071295
Y0043202
Y0044702
X0069795
Y0043202
Y0041702
X0068295
Y0043202
Y0044702
Y0046202
X0069025Y004653
X0068295Y0047702
Y0049202
X0066795
Y0050702
X0068168Y005068
X0069184
X00702
Y0051696
X0071216
Y005068
X00698Y004928
X0066795Y0047702
Y0046202
Y0044702
Y0043202
Y0041702
X0065295Y0046202
X00637949Y0047702
X00622253Y0052005
X0060795Y0050702
Y0053702
X00643932Y00534908
X006575Y0053505
X00665932Y00531158
X0069575Y005373
X0070075
X00729
X0073425
X00765Y0053355
X0086295Y0043202
Y0041702
X0083295Y0034022
X0082191Y0033791
Y0032775
X0083295Y0032522
Y0031022
Y0029522
Y0028022
X0083275Y0027
X00832625Y0026175
X00824563
X008165
X00808438
X00800375
X00788243Y00270989
X00789Y0028675
X0079475Y00295
Y003075
X0078795Y0031022
X0079375Y003195
X0082191Y0034807
X008145Y0027
X0081795Y0023522
Y0022022
Y0020522
Y0019022
X0081325Y00177
X00779225Y0017575
X00780787Y00200037
Y00207893
X0078775Y00211
X00800189Y00148162
X0066795Y0022022
X0065295Y0029522
Y0031022
Y0034022
Y0035522
X00637949
X0063923Y003675
X0062907
X0061891
Y0035734
X0060875
Y0034718
Y003675
X00637949Y0034022
Y0032522
Y0029522
X0060795
X0059295
Y0028022
Y0026522
Y0025022
Y0023522
Y0022022
X0057795
Y0023522
Y0025022
Y0026522
Y0028022
Y0029522
Y0031022
Y0032522
Y0034022
Y0035522
X0057827Y003675
X0058843
X0059859
Y0035734
Y0034718
X0059275Y0038375
X0057775
X0056275
X0056295Y0037022
Y0035522
Y0032522
Y0031022
Y0029522
Y0028022
Y0026522
Y0025022
Y0023522
Y0022022
Y0020522
Y0019022
X0054795Y0020522
Y0022022
Y0023522
Y0025022
Y0026522
Y0028022
Y0029522
Y0031022
X0053295
X0052Y0030875
Y0029375
X0053295Y0029522
Y0028022
X0052Y0027875
Y0026375
X0053295Y0026522
Y0025022
X0052Y0024875
Y0023375
X0053295Y0023522
Y0022022
X0052Y0021875
Y0020375
X0053295Y0020522
X0052Y0018875
Y0017375
Y0015875
Y0014375
X0053295Y0014522
X0054795
X00582932Y00207358
X0053295Y0032522
X0052Y0032375
Y0033875
Y0035375
Y0036875
X0053295Y0037022
X0054795
X0054775Y0038375
X00535
X005345Y0039805
X0052025Y0039855
X0052Y0038375
Y0041555
Y0043055
Y0044555
Y0046055
Y0047555
Y0049055
Y0050555
Y0052055
X0053295Y0052202
X0054795
Y0053702
X0053295
X0052Y0053555
X0055584Y0044971
Y0043955
Y0042939
X00566
X0057616
Y0043955
Y0044971
X00566
Y0043955
X005645Y0039805
X005495
X005795
X005945
X0059295Y0041702
X00441Y00410925
Y004238
Y00436675
X00441Y0044955
X00426Y0044955
X00411
X00396
X0038Y004498
X0037945Y0046202
Y0047702
Y0049202
Y0050702
Y0052202
Y0053702
X0034945Y0050702
Y0049202
X00349Y0048255
X0034945Y0046202
Y0044702
X0033445Y0043202
X00336Y0039805
X00351
X00366
X00381
X00396
X00411
X00426
X00441
X0040945Y0041702
Y0043202
X0037925Y0038375
X0037945Y0037022
Y0035522
X0036841Y0035823
X0035825
Y0034807
Y0033791
Y0032775
X003505Y0032875
X0034945Y0034022
Y0035522
Y0037022
X0034925Y0038375
X0036425
X0036445Y0037022
X0036841Y0034807
Y0033791
Y0032775
X0037945Y0032522
Y0034022
Y0031022
Y0029522
Y0028022
X0037925Y0027
X00379125Y0026175
X00371063
X00363
X00354938
X00346875
X00347313Y002475
X00355375
X00363438
X003715
X0037575Y0023975
X0037945Y0023522
Y0022022
Y0020522
Y0019022
Y0017522
Y0016022
Y0014522
X00346689Y00148162
X0035975Y00177
X0036445Y0019022
Y0020522
Y0022022
Y0023522
X00342787Y00240037
X00338611Y0024825
X0032775Y00245
X00334203Y00234973
X0032425Y0022575
X0031325Y002345
X002975Y0023425
X002905Y0023325
X002825Y002335
X0027201Y00235511
X0027445Y0022022
Y0020522
X0028225Y0020025
X002835Y00211
X00289662Y00220412
X0029525Y0018475
X00295Y00163
X0028075Y001455
X002755
X0024725
X0024225
X00204Y0014325
X0021652Y0019641
Y0020657
X0022668
Y0019641
X0023684
X00247
Y0020657
X0023684
X0022945Y0022022
X0024445
X0024025Y00244
Y0025416
X0025041
Y00244
X0022945Y0023522
X00228Y002605
X0021425Y00261
X0021445Y0025022
Y0028022
X00228Y0027975
X0024025Y00278
Y0028816
X0025041
Y00278
X00252552Y00317302
X0024445Y0032522
X00248Y003315
X0022945Y0032522
Y0031022
X00229Y00299
X0021445Y0029522
Y0031022
Y0032522
Y0035522
X0022945
X0024445
X0025945
X0027445
Y0037022
X0027425Y0038375
X0028925
X0028945Y0037022
X0030445
X0030425Y0038375
X0031925
X0031945Y0037022
X0033445
X0033425Y0038375
X00321Y0039805
X00306
X00291
X00276
X00261
X00246
X00231
X00216
X0021425Y0038375
X0021445Y0037022
X0022945
X0022925Y0038375
X0024425
X0024445Y0037022
X0025945
X0025925Y0038375
X0025945Y0041702
X0027445
Y0043202
Y0044702
X0028945
X0030445
Y0046202
Y0047702
Y0049202
Y0050702
X0028945
X0027445Y0049202
Y0047702
Y0046202
X0025945Y0044702
Y0043202
X0024445
Y0044702
X0022945
Y0046202
X0023675Y004653
X0022945Y0047702
Y0049202
X0021445
Y0050702
X0022818Y005068
X0023834
X002485
Y0051696
X0025866
Y005068
X002445Y004928
X0021445Y0047702
Y0046202
Y0044702
Y0043202
X0022945
Y0041702
X0024445
X0021445
X00212432Y00531158
X00204Y0053505
X0024225Y005373
X0024725
X002755
X0028075
X003115Y0053355
X0030445Y0035522
X0031945
X0033445
Y0034022
X0031945
X0030525Y0033675
X00303669Y00317669
X0027168Y00316597
X002755Y0033675
X0034025Y003195
X0034125Y003075
X0033445Y0031022
X0034125Y00295
X003355Y0028675
X00334743Y00270989
X00361Y0027
X0033425Y00211
X00327287Y00207893
Y00200037
X00325725Y0017575
X0021445Y0022022
X0019945Y0020522
Y0019022
X0019175Y00192
X0018445Y0020522
X001555Y00181
X0015445Y0016022
X001615Y00158
X001745Y0015825
X00190432Y00143108
X0015445Y0014522
X0009445
X0007945
X000665Y0014375
Y0015875
Y0017375
Y0018875
Y0020375
X0007945Y0020522
X0009445
X0010945
Y0022022
X0012445
X0013945
Y0023522
Y0025022
Y0026522
Y0028022
Y0029522
X0015445
X0018445
X0019945
Y0031022
Y0034022
Y0035522
Y0037022
X0019925Y0038375
X0018425
X0016925
X0015425
X0013925
X0012425
X0010925
X0010945Y0037022
Y0035522
X0012445
X0012477Y003675
X0013493
X0014509
Y0035734
Y0034718
X0015525
Y0035734
X0016541
Y003675
X0017557
X0018573
X0018445Y0035522
Y0034022
Y0032522
X0012445
Y0034022
Y0031022
Y0029522
Y0028022
Y0026522
Y0025022
Y0023522
X0010945
Y0025022
Y0026522
Y0028022
Y0029522
Y0031022
Y0032522
X0009445Y0031022
Y0029522
Y0028022
Y0026522
Y0025022
Y0023522
Y0022022
X0007945
X000665Y0021875
Y0023375
X0007945Y0023522
Y0025022
X000665Y0024875
Y0026375
X0007945Y0026522
Y0028022
X000665Y0027875
Y0029375
X0007945Y0029522
Y0031022
X000665Y0030875
Y0032375
X0007945Y0032522
X000665Y0033875
Y0035375
Y0036875
X0007945Y0037022
X0009445
X0009425Y0038375
X000815
X00081Y0039805
X0006675Y0039855
X000665Y0038375
Y0041555
Y0043055
Y0044555
Y0046055
Y0047555
Y0049055
Y0050555
Y0052055
X0007945Y0052202
X0009445
Y0053702
X0007945
X000665Y0053555
X0015445Y0053702
Y0050702
X00168753Y0052005
X00190432Y00534908
X0018445Y0047702
X0019945Y0046202
X00201Y0039805
X00186
X00171
X00156
X00141
X00126
X00111
X00096
X0010234Y0042939
Y0043955
Y0044971
X001125
X0012266
Y0043955
Y0042939
X001125
Y0043955
X0013945Y0041702
X0015525Y003675
X00129432Y00207358
X0010945Y0019022
Y0058202
Y0059702
Y0061202
X0012445
X0013945
Y0062702
Y0064202
Y0065702
Y0067202
Y0068702
X0015445
X0018445
X0019945
Y0070202
Y0073202
Y0074702
Y0076202
X0019925Y0077555
X0018425
X0016925
X0015425
X0013925
X0012425
X0010925
X0010945Y0076202
Y0074702
X0012445
X0012477Y007593
X0013493
X0014509
Y0074914
Y0073898
X0015525
Y0074914
X0016541
Y007593
X0017557
X0018573
X0018445Y0074702
Y0073202
Y0071702
X0012445
Y0073202
Y0070202
Y0068702
Y0067202
Y0065702
Y0064202
Y0062702
X0010945
Y0064202
Y0065702
Y0067202
Y0068702
Y0070202
Y0071702
X0009445Y0070202
Y0068702
Y0067202
Y0065702
Y0064202
Y0062702
Y0061202
Y0059702
X0007945
X000665Y0059555
Y0061055
X0007945Y0061202
Y0062702
X000665Y0062555
Y0064055
X0007945Y0064202
Y0065702
X000665Y0065555
Y0067055
X0007945Y0067202
Y0068702
X000665Y0068555
Y0070055
X0007945Y0070202
Y0071702
X000665Y0071555
Y0073055
Y0074555
Y0076055
X0007945Y0076202
X0009445
X0009425Y0077555
X000815
X00081Y0078985
X0006675Y0079035
X000665Y0077555
Y0080735
Y0082235
Y0083735
Y0085235
Y0086735
Y0088235
Y0089735
Y0091235
X0007945Y0091382
X0009445
Y0092882
X0007945
X000665Y0092735
X0015445Y0092882
Y0089882
X00168753Y0091185
X00190432Y00926708
X0018445Y0086882
X0019945Y0085382
X00201Y0078985
X00186
X00171
X00156
X00141
X00126
X00111
X00096
X0010234Y0082119
Y0083135
Y0084151
X001125
X0012266
Y0083135
Y0082119
X001125
Y0083135
X0013945Y0080882
X0015525Y007593
X00129432Y00599158
X001555Y005728
X0015445Y0055202
X001615Y005498
X001745Y0055005
X0019175Y005838
X0019945Y0058202
Y0059702
X0018445
X000665Y0058055
Y0056555
Y0055055
X0021652Y0058821
Y0059837
X0022668
Y0058821
X0023684
X00247
Y0059837
X0023684
X0022945Y0061202
X0024445
X0024025Y006358
Y0064596
X0025041
Y006358
X0022945Y0062702
X00228Y006523
X0021425Y006528
X0021445Y0064202
Y0067202
X00228Y0067155
X0024025Y006698
Y0067996
X0025041
Y006698
X00252552Y00709102
X0024445Y0071702
X00248Y007233
X0022945Y0071702
Y0070202
X00229Y006908
X0021445Y0068702
Y0070202
Y0071702
Y0074702
X0022945
X0024445
X0025945
X0027445
Y0076202
X0027425Y0077555
X0028925
X0028945Y0076202
X0030445
X0030425Y0077555
X0031925
X0031945Y0076202
X0033445
X0033425Y0077555
X0034925
X0034945Y0076202
X0036445
X0036425Y0077555
X0037925
X0037945Y0076202
Y0074702
X0036841Y0075003
X0035825
Y0073987
Y0072971
Y0071955
X003505Y0072055
X0034945Y0073202
Y0074702
X0033445
Y0073202
X0031945
Y0074702
X0030445
X0030525Y0072855
X00303669Y00709469
X0027168Y00708397
X002755Y0072855
X0025945Y0076202
X0025925Y0077555
X0024425
X0024445Y0076202
X0022945
X0022925Y0077555
X0021425
X0021445Y0076202
X00216Y0078985
X00231
X00246
X00261
X00276
X00291
X00306
X00321
X00336
X00351
X00366
X00381
X00396
X00411
X00426
X00441
Y00802725
Y008156
Y00828475
X00441Y0084135
X00426Y0084135
X00411
X00396
X0038Y008416
X0037945Y0085382
Y0086882
Y0088382
Y0089882
Y0091382
Y0092882
X00346689Y00931762
X0034945Y0089882
Y0088382
X00349Y0087435
X0034945Y0085382
Y0083882
X0033445Y0082382
X0030445Y0083882
Y0085382
Y0086882
Y0088382
Y0089882
X0028945
X0027445Y0088382
Y0086882
Y0085382
Y0083882
X0028945
X0027445Y0082382
Y0080882
X0025945
Y0082382
Y0083882
X0024445
Y0082382
Y0080882
X0022945
Y0082382
Y0083882
Y0085382
X0023675Y008571
X0022945Y0086882
Y0088382
X0021445
Y0089882
X0022818Y008986
X0023834
X002485
Y0090876
X0025866
Y008986
X002445Y008846
X0021445Y0086882
Y0085382
Y0083882
Y0082382
Y0080882
X00212432Y00922959
X00204Y0092685
X0024225Y009291
X0024725
X002755
X0028075
X003115Y0092535
X0040945Y0082382
Y0080882
X0037945Y0073202
X0036841Y0072971
Y0071955
X0037945Y0071702
Y0070202
Y0068702
Y0067202
X0037925Y006618
X00379125Y0065355
X00371063
X00363
X00354938
X00346875
X00347313Y006393
X00355375
X00363438
X003715
X0037575Y0063155
X0037945Y0062702
Y0061202
Y0059702
Y0058202
Y0056702
Y0055202
X0035975Y005688
X0036445Y0058202
Y0059702
Y0061202
Y0062702
X00342787Y00631837
X00338611Y0064005
X0032775Y006368
X00334203Y00626773
X0032425Y0061755
X0031325Y006263
X002975Y0062605
X002905Y0062505
X002825Y006253
X0027201Y00627312
X0027445Y0061202
Y0059702
X0028225Y0059205
X002835Y006028
X00289662Y00612212
X0029525Y0057655
X00295Y005548
X00325725Y0056755
X00327287Y00591837
Y00599693
X0033425Y006028
X00334743Y00662789
X003355Y0067855
X0034125Y006868
Y006993
X0033445Y0070202
X0034025Y007113
X0036841Y0073987
X00361Y006618
X00346689Y00539962
X0052Y0055055
Y0056555
Y0058055
Y0059555
X0053295Y0059702
X0054795
X0056295
Y0061202
X0057795
X0059295
Y0062702
Y0064202
Y0065702
Y0067202
Y0068702
X0057795
Y0070202
Y0071702
Y0073202
Y0074702
X0057827Y007593
X0058843
X0059859
Y0074914
Y0073898
X0059275Y0077555
X0057775
X0056275
X0056295Y0076202
Y0074702
Y0071702
Y0070202
Y0068702
Y0067202
X0057795
Y0065702
Y0064202
Y0062702
X0056295
Y0064202
Y0065702
X0054795
Y0067202
Y0068702
Y0070202
X0053295
X0052Y0070055
Y0068555
X0053295Y0068702
Y0067202
X0052Y0067055
Y0065555
X0053295Y0065702
Y0064202
X0052Y0064055
Y0062555
X0053295Y0062702
X0054795
Y0064202
Y0061202
X0053295
X0052Y0061055
X0056295Y0058202
X00582932Y00599158
X0053295Y0071702
X0052Y0071555
Y0073055
Y0074555
Y0076055
X0053295Y0076202
X0054795
X0054775Y0077555
X00535
X005345Y0078985
X0052025Y0079035
X0052Y0077555
Y0080735
Y0082235
Y0083735
Y0085235
Y0086735
Y0088235
Y0089735
Y0091235
X0053295Y0091382
X0054795
Y0092882
X0053295
X0052Y0092735
X0055584Y0084151
Y0083135
Y0082119
X00566
X0057616
Y0083135
Y0084151
X00566
Y0083135
X005645Y0078985
X005495
X005795
X005945
X0059295Y0080882
X0021445Y0061202
X00609Y005728
X0060795Y0055202
X00615Y005498
X00628Y0055005
X0064525Y005838
X0065295Y0058202
Y0059702
X00637949
X0067002Y0059837
X0068018
Y0058821
X0067002
X0069034
X007005
Y0059837
X0069034
X0068295Y0061202
X0069795
X0069375Y006358
Y0064596
X0070391
Y006358
X0068295Y0062702
X006815Y006523
X0066775Y006528
X0066795Y0064202
Y0067202
X006815Y0067155
X0069375Y006698
Y0067996
X0070391
Y006698
X00706052Y00709102
X0069795Y0071702
X007015Y007233
X0068295Y0071702
Y0070202
X006825Y006908
X0066795Y0068702
Y0070202
Y0071702
Y0074702
X0068295
X0069795
X0071295
X0072795
Y0076202
X0072775Y0077555
X0074275
X0074295Y0076202
X0075795
X0075775Y0077555
X0077275
X0077295Y0076202
X0078795
X0078775Y0077555
X0080275
X0080295Y0076202
X0081795
X0081775Y0077555
X0083275
X0083295Y0076202
Y0074702
X0082191Y0075003
X0081175
Y0073987
Y0072971
Y0071955
X00804Y0072055
X0080295Y0073202
Y0074702
X0078795
Y0073202
X0077295
Y0074702
X0075795
X0075875Y0072855
X00757169Y00709469
X0072518Y00708397
X00729Y0072855
X0071295Y0076202
X0071275Y0077555
X0069775
X0069795Y0076202
X0068295
X0068275Y0077555
X0066775
X0066795Y0076202
X0065295
X0065275Y0077555
X0063775
X0062275
X0060775
X006095Y0078985
X006245
X006395
X006545
X006695
X006845
X006995
X007145
X007295
X007445
X007595
X007745
X007895
X008045
X008195
X008345
X008495
X008645
X008795
X008945
Y00802725
Y008156
Y00828475
X008945Y0084135
X008795Y0084135
X008645
X008495
X008335Y008416
X0083295Y0085382
Y0086882
Y0088382
Y0089882
Y0091382
Y0092882
X00800189Y00931762
X0080295Y0089882
Y0088382
X008025Y0087435
X0080295Y0085382
Y0083882
X0078795Y0082382
X0075795Y0083882
Y0085382
Y0086882
Y0088382
Y0089882
X0074295
X0072795Y0088382
Y0086882
Y0085382
Y0083882
X0074295
X0072795Y0082382
Y0080882
X0071295
Y0082382
Y0083882
X0069795
Y0082382
Y0080882
X0068295
Y0082382
Y0083882
Y0085382
X0069025Y008571
X0068295Y0086882
Y0088382
X0066795
Y0089882
X0068168Y008986
X0069184
X00702
Y0090876
X0071216
Y008986
X00698Y008846
X0066795Y0086882
Y0085382
Y0083882
Y0082382
Y0080882
X0065295Y0085382
X00637949Y0086882
X00622253Y0091185
X0060795Y0089882
Y0092882
X00643932Y00926708
X006575Y0092685
X00665932Y00922959
X0069575Y009291
X0070075
X00729
X0073425
X00765Y0092535
X0086295Y0082382
Y0080882
X0083295Y0073202
X0082191Y0072971
Y0071955
X0083295Y0071702
Y0070202
Y0068702
Y0067202
X0083275Y006618
X00832625Y0065355
X00824563
X008165
X00808438
X00800375
X00800813Y006393
X00808875
X00816937
X00825
X0082925Y0063155
X0083295Y0062702
Y0061202
Y0059702
Y0058202
Y0056702
Y0055202
X0081325Y005688
X0081795Y0058202
Y0059702
Y0061202
Y0062702
X00796287Y00631837
X00792111Y0064005
X0078125Y006368
X00787703Y00626773
X0077775Y0061755
X0076675Y006263
X00751Y0062605
X00744Y0062505
X00736Y006253
X0072551Y00627312
X0072795Y0061202
Y0059702
X0073575Y0059205
X00737Y006028
X00743162Y00612212
X0074875Y0057655
X007485Y005548
X00779225Y0056755
X00780787Y00591837
Y00599693
X0078775Y006028
X00788243Y00662789
X00789Y0067855
X0079475Y006868
Y006993
X0078795Y0070202
X0079375Y007113
X0082191Y0073987
X008145Y006618
X00800189Y00539962
X009735Y0055055
Y0056555
Y0058055
Y0059555
X0098645Y0059702
Y0061202
X009735Y0061055
Y0062555
X0098645Y0062702
Y0064202
X009735Y0064055
Y0065555
X0098645Y0065702
Y0067202
X009735Y0067055
Y0068555
X0098645Y0068702
Y0070202
X009735Y0070055
Y0071555
X0098645Y0071702
X009735Y0073055
Y0074555
Y0076055
X0098645Y0076202
X009885Y0077555
X00988Y0078985
X0097375Y0079035
X009735Y0077555
Y0080735
Y0082235
Y0083735
Y0085235
Y0086735
Y0088235
Y0089735
Y0091235
X0098645Y0091382
Y0092882
X009735Y0092735
X0065295Y0074702
Y0073202
X00637949
Y0074702
X0063923Y007593
X0062907
X0061891
Y0074914
X0060875
Y0073898
Y007593
X00637949Y0071702
X0065295Y0070202
Y0068702
X00637949
X0060795
X0066795Y0061202
X0100145
X0101645
X0103145
X0104645
Y0062702
Y0064202
Y0065702
Y0067202
Y0068702
X0106145
X0109145
X0110645
X0112145
Y0070202
X0113645
X01136Y006908
X01135Y0067155
X0114725Y006698
Y0067996
X0115741
Y006698
Y0064596
X0114725
Y006358
X0115741
X0115145Y0061202
X0113645
Y0062702
X01135Y006523
X0112125Y006528
X0112145Y0064202
Y0067202
Y0071702
X0113645
X0115145
X01155Y007233
X01159552Y00709102
X0117868Y00708397
X011825Y0072855
X0118145Y0074702
Y0076202
X0118125Y0077555
X0119625
X0119645Y0076202
X0121145
X0121125Y0077555
X0122625
X0122645Y0076202
X0124145
X0124125Y0077555
X0125625
X0125645Y0076202
X0127145
X0127125Y0077555
X0128625
X01286449Y0076202
Y0074702
X0127541Y0075003
X0126525
Y0073987
Y0072971
Y0071955
X012575Y0072055
X0125645Y0073202
Y0074702
X0124145
Y0073202
X0122645
Y0074702
X0121145
X0121225Y0072855
X01210669Y00709469
X0124145Y0070202
X0124825Y006993
Y006868
X012425Y0067855
X01241743Y00662789
X01253875Y0065355
X01261937
X0127
X01278063
X01286125
X0128625Y006618
X01286449Y0067202
Y0068702
Y0070202
Y0071702
X0127541Y0071955
Y0072971
Y0073987
X01286449Y0073202
X01288Y0078985
X01303
X01318
X01333
X01348
Y00802725
Y008156
Y00828475
X01348Y0084135
X01333Y0084135
X01318
X01303
X01287Y008416
X01286449Y0085382
Y0086882
Y0088382
Y0089882
Y0091382
Y0092882
X01253689Y00931762
X0125645Y0089882
Y0088382
X01256Y0087435
X0125645Y0085382
Y0083882
X0124145Y0082382
X01243Y0078985
X01258
X01273
X01228
X01213
X01198
X01183
X01168
X01153
X01138
X01123
X01108
X01093
X01078
X01063
X01048
X01033
X01018
X01003
X0100125Y0077555
X0100145Y0076202
X0101645
X0101625Y0077555
X0103125
X0104625
X0106125
X0107625
X0109125
X0110625
X0110645Y0076202
X0112145
X0112125Y0077555
X0113625
X0113645Y0076202
X0115145
X0115125Y0077555
X0116625
X0116645Y0076202
Y0074702
X0115145
X0113645
X0112145
X0110645
Y0073202
X0109145
Y0074702
X0109273Y007593
X0108257
X0107241
Y0074914
X0106225
Y0073898
X0105209
Y0074914
Y007593
X0104193
X0103177
X0103145Y0074702
Y0073202
Y0071702
Y0070202
Y0068702
Y0067202
Y0065702
Y0064202
Y0062702
X0101645
Y0064202
Y0065702
Y0067202
Y0068702
Y0070202
Y0071702
Y0074702
X0106225Y007593
X0104645Y0080882
X0102966Y0082119
Y0083135
Y0084151
X010195
X0100934
Y0083135
Y0082119
X010195
Y0083135
X0100145Y0091382
Y0092882
X0106145
Y0089882
X01075753Y0091185
X01097432Y00926708
X01111Y0092685
X01119432Y00922959
X0112145Y0089882
X0113518Y008986
X0114534
X011555
Y0090876
X0116566
Y008986
X011515Y008846
X0113645Y0088382
Y0086882
Y0085382
X0114375Y008571
X0113645Y0083882
X0115145
X0116645
X0118145
X0119645
X0121145
Y0085382
Y0086882
Y0088382
Y0089882
X0119645
X0118145Y0088382
Y0086882
Y0085382
Y0082382
Y0080882
X0116645
Y0082382
X0115145
Y0080882
X0113645
Y0082382
X0112145
Y0083882
Y0085382
Y0086882
Y0088382
X0110645Y0085382
X0109145Y0086882
X0112145Y0080882
X0110645Y0070202
X0109145Y0071702
X0100145Y0070202
Y0068702
Y0067202
Y0065702
Y0064202
Y0062702
Y0059702
X0101645
Y0058202
X01036432Y00599158
X010625Y005728
X0106145Y0055202
X010685Y005498
X010815Y0055005
X0109875Y005838
X0110645Y0058202
Y0059702
X0109145
X0112352Y0059837
X0113368
Y0058821
X0112352
X0114384
X01154
Y0059837
X0114384
X0112145Y0061202
X0118145
Y0059702
X0118925Y0059205
X011905Y006028
X01196662Y00612212
X011975Y0062505
X012045Y0062605
X011895Y006253
X0117901Y00627312
X0122025Y006263
X0123125Y0061755
X01241203Y00626773
X01249787Y00631837
X01254313Y006393
X01262375
X01270437
X012785
X0128275Y0063155
X01286449Y0062702
Y0061202
Y0059702
Y0058202
Y0056702
Y0055202
X0126675Y005688
X0127145Y0058202
Y0059702
Y0061202
Y0062702
X01268Y006618
X01245611Y0064005
X0123475Y006368
X01234287Y00599693
Y00591837
X0124125Y006028
X01232725Y0056755
X0120225Y0057655
X01202Y005548
X01253689Y00539962
X0124725Y007113
X01316449Y0080882
Y0082382
X012185Y0092535
X0118775Y009291
X011825
X0115425
X0114925
X01427Y0092735
X0143995Y0092882
X0145495
Y0091382
X0143995
X01427Y0091235
Y0089735
Y0088235
Y0086735
Y0085235
Y0083735
Y0082235
Y0080735
X0142725Y0079035
X014415Y0078985
X01442Y0077555
X0145475
X0145495Y0076202
X0146995
X0146975Y0077555
X0148475
X0149975
X0151475
X0152975
X0154475
X0155975
X0155995Y0076202
X0157495
X0157475Y0077555
X0158975
X0158995Y0076202
X01604949
X0160475Y0077555
X0161975
X01619949Y0076202
X01634949
X0163475Y0077555
X0164975
X01649949Y0076202
X01664949
X0166475Y0077555
X0167975
X01679949Y0076202
X01694949
X0169475Y0077555
X0170975
X01709949Y0076202
X01724949
X0172475Y0077555
X0173975
X01739949Y0076202
Y0074702
X0172891Y0075003
X0171875
Y0073987
Y0072971
Y0071955
X01711Y0072055
X01709949Y0073202
Y0074702
X01694949
Y0073202
X01679949
Y0074702
X01664949
X0166575Y0072855
X01664169Y00709469
X0163218Y00708397
X01613052Y00709102
X01604949Y0071702
X016085Y007233
X0158995Y0071702
Y0070202
X015895Y006908
X0157495Y0068702
Y0070202
Y0071702
Y0074702
X0158995
X01604949
X01619949
X01634949
X01636Y0072855
X016365Y0078985
X016215
X016065
X015915
X015765
X015615
X015465
X015315
X015165
X015015
X014865
X014715
X014565
X0146284Y0082119
Y0083135
Y0084151
X01473
X0148316
Y0083135
Y0082119
X01473
Y0083135
X0149995Y0080882
X0149543Y007593
X0148527
X0148495Y0074702
Y0073202
Y0071702
Y0070202
Y0068702
X0149995
X0151495
X0154495
X0155995
Y0070202
Y0073202
Y0074702
X0154495
X0154623Y007593
X0153607
X0152591
Y0074914
X0151575
Y0073898
X0150559
Y0074914
Y007593
X0151575
X0154495Y0073202
Y0071702
X0157495Y0067202
X015885Y0067155
X0160075Y006698
Y0067996
X0161091
Y006698
Y0064596
X0160075
Y006358
X0161091
X01604949Y0061202
X0158995
Y0062702
X015885Y006523
X0157475Y006528
X0157495Y0064202
Y0061202
X0157702Y0059837
X0158718
Y0058821
X0157702
X0159734
X016075
Y0059837
X0159734
X0155995Y0059702
Y0058202
X0155225Y005838
X0154495Y0059702
X01516Y005728
X0151495Y0055202
X01522Y005498
X01535Y0055005
X01489932Y00599158
X0148495Y0061202
X0149995
Y0062702
Y0064202
Y0065702
Y0067202
X0148495
Y0065702
Y0064202
Y0062702
X0146995
Y0064202
Y0065702
Y0067202
Y0068702
Y0070202
Y0071702
Y0074702
X01427Y0074555
Y0076055
X0143995Y0076202
X01427Y0077555
Y0073055
Y0071555
X0143995Y0071702
Y0070202
X01427Y0070055
Y0068555
X0143995Y0068702
X0145495
Y0070202
Y0067202
Y0065702
Y0064202
Y0062702
Y0061202
X0146995
Y0059702
Y0058202
X0145495Y0059702
X0143995
X01427Y0059555
Y0061055
X0143995Y0061202
Y0062702
X01427Y0062555
Y0064055
X0143995Y0064202
Y0065702
X01427Y0065555
Y0067055
X0143995Y0067202
X01427Y0058055
Y0056555
Y0055055
X016555Y005548
X0165575Y0057655
X0164275Y0059205
X01644Y006028
X01634949Y0059702
Y0061202
X01650162Y00612212
X01651Y0062505
X01658Y0062605
X01643Y006253
X0163251Y00627312
X0167375Y006263
X0168475Y0061755
X01694703Y00626773
X01703287Y00631837
X01707813Y006393
X01715875
X01723938
X01732
X0173625Y0063155
X01739949Y0062702
Y0061202
Y0059702
Y0058202
Y0056702
Y0055202
X0172025Y005688
X01724949Y0058202
Y0059702
Y0061202
Y0062702
X017235Y0065355
X01715437
X01707375
X01695243Y00662789
X01696Y0067855
X0170175Y006868
Y006993
X01694949Y0070202
X0170075Y007113
X0172891Y0071955
Y0072971
Y0073987
X01739949Y0073202
Y0071702
Y0070202
Y0068702
Y0067202
X0173975Y006618
X01739625Y0065355
X01731562
X017215Y006618
X01699111Y0064005
X0168825Y006368
X01687787Y00599693
Y00591837
X0169475Y006028
X01686225Y0056755
X01707189Y00539962
X017115Y0078985
X016965
X016815
X016665
X016515
X01634949Y0080882
Y0082382
Y0083882
X01649949
X01664949
Y0085382
Y0086882
Y0088382
Y0089882
X01649949
X01634949Y0088382
Y0086882
Y0085382
X01619949Y0083882
Y0082382
Y0080882
X01604949
Y0082382
Y0083882
X0158995
Y0085382
X0159725Y008571
X0158995Y0086882
Y0088382
X0157495
Y0089882
X0158868Y008986
X0159884
X01609
Y0090876
X0161916
Y008986
X01605Y008846
X0157495Y0086882
Y0085382
Y0083882
Y0082382
X0158995
Y0080882
X0157495
X0155995Y0085382
X0154495Y0086882
X01529253Y0091185
X0151495Y0089882
Y0092882
X01550932Y00926708
X015645Y0092685
X01572932Y00922959
X0160275Y009291
X0160775
X01636
X0164125
X01672Y0092535
X01707189Y00931762
X01739949Y0092882
Y0091382
Y0089882
Y0088382
Y0086882
Y0085382
X017405Y008416
X017565Y0084135
X017715
X017865
X01769949Y0082382
Y0080882
X017715Y0078985
X017865
X017565
X017415
X017265
X01709949Y0083882
Y0085382
X017095Y0087435
X01709949Y0088382
Y0089882
X01694949Y0082382
X018015Y00828475
Y008156
Y00802725
Y0078985
X018015Y0084135
X018015Y0118165
Y01194525
Y012074
Y01220275
X018015Y0123315
X017865Y0123315
X017715
X017565
X017405Y012334
X01739949Y0124562
Y0126062
Y0127562
Y0129062
Y0130562
Y0132062
X01707189Y01323562
X01709949Y0129062
Y0127562
X017095Y0126615
X01709949Y0124562
Y0123062
X01694949Y0121562
X016965Y0118165
X017115
X017265
X017415
X017565
X017715
X017865
X01769949Y0120062
Y0121562
X0173975Y0116735
X01739949Y0115382
Y0113882
X0172891Y0114183
X0171875
Y0113167
Y0112151
Y0111135
X01711Y0111235
X01709949Y0112382
Y0113882
Y0115382
X0170975Y0116735
X0172475
X01724949Y0115382
X0172891Y0113167
Y0112151
Y0111135
X01739949Y0110882
Y0112382
Y0109382
Y0107882
Y0106382
X0173975Y010536
X01739625Y0104535
X01731562
X017235
X01715437
X01707375
X01707813Y010311
X01715875
X01723938
X01732
X0173625Y0102335
X01739949Y0101882
Y0100382
Y0098882
Y0097382
Y0095882
Y0094382
X0172025Y009606
X01724949Y0097382
Y0098882
Y0100382
Y0101882
X01703287Y01023637
X01699111Y0103185
X0168825Y010286
X01694703Y01018573
X0168475Y0100935
X0167375Y010181
X01658Y0101785
X01651Y0101685
X01643Y010171
X0163251Y01019111
X01634949Y0100382
Y0098882
X0164275Y0098385
X01644Y009946
X01650162Y01004012
X0165575Y0096835
X016555Y009466
X01686225Y0095935
X01687787Y00983637
Y00991493
X0169475Y009946
X01695243Y01054589
X01696Y0107035
X0170175Y010786
Y010911
X01694949Y0109382
X0170075Y011031
X01694949Y0112382
Y0113882
Y0115382
X0169475Y0116735
X0167975
X01679949Y0115382
Y0113882
Y0112382
X0166575Y0112035
X01664949Y0113882
Y0115382
X0166475Y0116735
X0164975
X01649949Y0115382
X01634949
X0163475Y0116735
X0161975
X01619949Y0115382
Y0113882
X01634949
X01636Y0112035
X0163218Y01100197
X01613052Y01100902
X01604949Y0110882
X016085Y011151
X0158995Y0110882
Y0109382
X015895Y010826
X0157495Y0107882
Y0109382
Y0110882
Y0113882
X0158995
X01604949
Y0115382
X0160475Y0116735
X0158975
X0158995Y0115382
X0157495
X0157475Y0116735
X0155975
X0155995Y0115382
Y0113882
Y0112382
X0154495
Y0113882
X0154623Y011511
X0153607
X0152591
Y0114094
X0151575
Y0113078
X0150559
Y0114094
Y011511
X0149543
X0148527
X0148495Y0113882
Y0112382
Y0110882
Y0109382
Y0107882
X0149995
X0151495
X0154495
X0155995
Y0109382
X0154495Y0110882
X0154475Y0116735
X0152975
X0151475
X0149975
X0148475
X0146975
X0146995Y0115382
Y0113882
Y0110882
Y0109382
Y0107882
Y0106382
X0148495
X0149995
Y0104882
Y0103382
Y0101882
Y0100382
X0148495
Y0101882
Y0103382
Y0104882
X0146995
Y0103382
Y0101882
Y0100382
Y0098882
Y0097382
X0145495Y0098882
Y0100382
Y0101882
Y0103382
Y0104882
Y0106382
Y0107882
Y0109382
X0143995
X01427Y0109235
Y0107735
X0143995Y0107882
Y0106382
X01427Y0106235
Y0104735
X0143995Y0104882
Y0103382
X01427Y0103235
Y0101735
X0143995Y0101882
Y0100382
X01427Y0100235
Y0098735
X0143995Y0098882
X01427Y0097235
Y0095735
Y0094235
X0151495Y0094382
X01522Y009416
X01535Y0094185
X01516Y009646
X0155225Y009756
X0155995Y0097382
Y0098882
X0154495
X0157702Y0099017
X0158718
Y0098001
X0157702
X0159734
X016075
Y0099017
X0159734
X0158995Y0100382
X01604949
X0160075Y010276
Y0103776
X0161091
Y010276
X0158995Y0101882
X015885Y010441
X0157475Y010446
X0157495Y0103382
Y0106382
X015885Y0106335
X0160075Y010616
Y0107176
X0161091
Y010616
X01664169Y01101269
X016665Y0118165
X016815
X016515
X016365
X016215
X016065
X015915
X015765
X015615
X015465
X015315
X015165
X015015
X014865
X014715
X014565
X014415
X0142725Y0118215
X01427Y0116735
Y0115235
X0143995Y0115382
X0145495
X0145475Y0116735
X01442
X01427Y0113735
Y0112235
Y0110735
X0143995Y0110882
X01427Y0119915
Y0121415
Y0122915
Y0124415
Y0125915
Y0127415
Y0128915
Y0130415
X0143995Y0130562
X0145495
Y0132062
X0143995
X01427Y0131915
X0151495Y0132062
X01522Y013334
X01529253Y0130365
X0151495Y0129062
X0157495
X0158868Y012904
X0159884
X01609
Y0130056
X0161916
Y012904
X01605Y012764
X0158995Y0127562
Y0126062
Y0124562
X0159725Y012489
X0158995Y0123062
X01604949
X01619949
X01634949
X01649949
X01664949
Y0124562
Y0126062
Y0127562
Y0129062
X01649949
X01634949Y0127562
Y0126062
Y0124562
Y0121562
Y0120062
X01619949
Y0121562
X01604949
Y0120062
X0158995
Y0121562
X0157495
Y0123062
Y0124562
Y0126062
Y0127562
X01572932Y01314758
X015645Y0131865
X01550932Y01318508
X0160275Y013209
X0160775
X01636
X0164125
X01672Y0131715
X0155995Y0124562
X0154495Y0126062
X0148316Y0123331
X01473
X0146284
Y0122315
Y0121299
X01473
X0148316
Y0122315
X01473
X0149995Y0120062
X0151575Y011511
X0157495Y0120062
Y0100382
X01489932Y00990958
X017215Y010536
X0128625
X01286125Y0104535
X01278063
X0127
X01261937
X01253875
X01254313Y010311
X01262375
X01270437
X012785
X0128275Y0102335
X01286449Y0101882
Y0100382
Y0098882
Y0097382
Y0095882
Y0094382
X0126675Y009606
X0127145Y0097382
Y0098882
Y0100382
Y0101882
X01249787Y01023637
X01245611Y0103185
X0123475Y010286
X01241203Y01018573
X0123125Y0100935
X0122025Y010181
X012045Y0101785
X011975Y0101685
X011895Y010171
X0117901Y01019111
X0118145Y0100382
Y0098882
X0118925Y0098385
X011905Y009946
X01196662Y01004012
X0120225Y0096835
X01202Y009466
X01232725Y0095935
X01234287Y00983637
Y00991493
X0124125Y009946
X01241743Y01054589
X012425Y0107035
X0124825Y010786
Y010911
X0124145Y0109382
X0124725Y011031
X012575Y0111235
X0126525Y0111135
X0127541
Y0112151
X0126525
Y0113167
Y0114183
X0127541
Y0113167
X01286449Y0113882
Y0112382
Y0110882
Y0109382
Y0107882
Y0106382
X01268Y010536
X0125645Y0112382
Y0113882
Y0115382
X0125625Y0116735
X0127125
X0127145Y0115382
X01286449
X0128625Y0116735
X01288Y0118165
X01303
X01318
X01333
X01348
Y01194525
Y012074
Y01220275
X01348Y0123315
X01333Y0123315
X01318
X01303
X01287Y012334
X01286449Y0124562
Y0126062
Y0127562
Y0129062
Y0130562
Y0132062
X01253689Y01323562
X0125645Y0129062
Y0127562
X01256Y0126615
X0125645Y0124562
Y0123062
X0124145Y0121562
X01243Y0118165
X01258
X01273
X01228
X01213
X01198
X01183
X01168
X01153
X01138
X01123
X01108
X01093
X01078
X01063
X01048
X01033
X01018
X01003
X0100125Y0116735
X0100145Y0115382
X0101645
X0101625Y0116735
X0103125
X0104625
X0106125
X0107625
X0109125
X0110625
X0110645Y0115382
X0112145
X0112125Y0116735
X0113625
X0113645Y0115382
X0115145
X0115125Y0116735
X0116625
X0116645Y0115382
X0118145
X0118125Y0116735
X0119625
X0119645Y0115382
X0121145
X0121125Y0116735
X0122625
X0122645Y0115382
X0124145
X0124125Y0116735
X0124145Y0113882
Y0112382
X0122645
Y0113882
X0121145
X0121225Y0112035
X01210669Y01101269
X0117868Y01100197
X01159552Y01100902
X0115145Y0110882
X01155Y011151
X0113645Y0110882
Y0109382
X01136Y010826
X0112145Y0107882
Y0109382
Y0110882
Y0113882
X0113645
X0115145
X0116645
X0118145
X011825Y0112035
X0115741Y0107176
X0114725
Y010616
X0115741
Y0103776
X0114725
Y010276
X0115741
X0115145Y0100382
X0113645
Y0101882
X01135Y010441
X0112125Y010446
X0112145Y0103382
Y0106382
X01135Y0106335
X0110645Y0107882
Y0109382
Y0112382
Y0113882
X0109145
X0109273Y011511
X0108257
X0107241
Y0114094
X0106225
Y0113078
X0105209
Y0114094
Y011511
X0104193
X0103177
X0103145Y0113882
Y0112382
Y0110882
Y0109382
Y0107882
X0104645
X0106145
X0109145
Y0110882
Y0112382
X0106225Y011511
X0101645Y0113882
Y0110882
Y0109382
Y0107882
Y0106382
X0103145
X0104645
Y0104882
Y0103382
Y0101882
Y0100382
X0103145
Y0101882
Y0103382
Y0104882
X0101645
Y0103382
Y0101882
Y0100382
Y0098882
Y0097382
X0100145Y0098882
Y0100382
Y0101882
Y0103382
Y0104882
Y0106382
Y0107882
Y0109382
X0100934Y0121299
Y0122315
Y0123331
X010195
X0102966
Y0122315
Y0121299
X010195
Y0122315
X0104645Y0120062
X0112145
X0113645
X0115145
X0116645
X0118145
Y0121562
Y0123062
X0119645
X0121145
Y0124562
Y0126062
Y0127562
Y0129062
X0119645
X0118145Y0127562
Y0126062
Y0124562
X0116645Y0123062
Y0121562
X0115145
Y0123062
X0113645
Y0124562
X0114375Y012489
X0113645Y0126062
Y0127562
X0112145
Y0129062
X0113518Y012904
X0114534
X011555
Y0130056
X0116566
Y012904
X011515Y012764
X0112145Y0126062
Y0124562
Y0123062
Y0121562
X0113645
X0110645Y0124562
X0109145Y0126062
X01075753Y0130365
X0106145Y0129062
Y0132062
X010685Y013334
X01097432Y01318508
X01111Y0131865
X01119432Y01314758
X0114925Y013209
X0115425
X011825
X0118775
X012185Y0131715
X01316449Y0121562
Y0120062
X01154Y0099017
Y0098001
X0114384
X0113368
Y0099017
X0112352
Y0098001
X0110645Y0097382
X0109875Y009756
X0109145Y0098882
X0110645
X0112145Y0100382
X0114384Y0099017
X010625Y009646
X0106145Y0094382
X010685Y009416
X010815Y0094185
X01036432Y00990958
X0100145Y0130562
Y0132062
X0098645
X009735Y0131915
Y0130415
X0098645Y0130562
X009735Y0128915
Y0127415
Y0125915
Y0124415
Y0122915
Y0121415
Y0119915
X0097375Y0118215
X00988Y0118165
X009885Y0116735
X009735
Y0115235
X0098645Y0115382
X009735Y0113735
Y0112235
Y0110735
X0098645Y0110882
Y0109382
X009735Y0109235
Y0107735
X0098645Y0107882
Y0106382
X009735Y0106235
Y0104735
X0098645Y0104882
Y0103382
X009735Y0103235
Y0101735
X0098645Y0101882
Y0100382
X009735Y0100235
Y0098735
X0098645Y0098882
X009735Y0097235
Y0095735
Y0094235
X0083295Y0094382
Y0095882
Y0097382
Y0098882
Y0100382
Y0101882
X0082925Y0102335
X00825Y010311
X00816937
X00808875
X00800813
X00792111Y0103185
X00796287Y01023637
X00787703Y01018573
X0078125Y010286
X0077775Y0100935
X0076675Y010181
X00751Y0101785
X00744Y0101685
X00736Y010171
X0072551Y01019111
X0072795Y0100382
Y0098882
X0073575Y0098385
X00737Y009946
X00743162Y01004012
X0074875Y0096835
X007485Y009466
X00779225Y0095935
X00780787Y00983637
Y00991493
X0078775Y009946
X0081795Y0098882
Y0100382
Y0101882
X008165Y0104535
X00808438
X00800375
X00788243Y01054589
X00789Y0107035
X0079475Y010786
Y010911
X0078795Y0109382
X0079375Y011031
X00804Y0111235
X0081175Y0111135
X0082191
Y0112151
X0081175
Y0113167
Y0114183
X0082191
Y0113167
X0083295Y0113882
Y0112382
Y0110882
Y0109382
Y0107882
Y0106382
X0083275Y010536
X00832625Y0104535
X00824563
X008145Y010536
X0080295Y0112382
Y0113882
Y0115382
X0080275Y0116735
X0081775
X0081795Y0115382
X0083295
X0083275Y0116735
X008345Y0118165
X008495
X008645
X008795
X008945
Y01194525
Y012074
Y01220275
X008945Y0123315
X008795Y0123315
X008645
X008495
X008335Y012334
X0083295Y0124562
Y0126062
Y0127562
Y0129062
Y0130562
Y0132062
X00800189Y01323562
X0080295Y0129062
Y0127562
X008025Y0126615
X0080295Y0124562
Y0123062
X0078795Y0121562
X007895Y0118165
X008045
X008195
X007745
X007595
X007445
X007295
X007145
X006995
X006845
X006695
X006545
X006395
X006245
X006095
X0060775Y0116735
X0062275
X0063775
X0065275
X0065295Y0115382
X0066795
X0066775Y0116735
X0068275
X0068295Y0115382
X0069795
X0069775Y0116735
X0071275
X0071295Y0115382
X0072795
X0072775Y0116735
X0074275
X0074295Y0115382
X0075795
X0075775Y0116735
X0077275
X0077295Y0115382
X0078795
X0078775Y0116735
X0078795Y0113882
Y0112382
X0077295
Y0113882
X0075795
X0075875Y0112035
X00757169Y01101269
X0072518Y01100197
X00706052Y01100902
X0069795Y0110882
X007015Y011151
X0068295Y0110882
Y0109382
X006825Y010826
X0066795Y0107882
Y0109382
Y0110882
Y0113882
X0068295
X0069795
X0071295
X0072795
X00729Y0112035
X0070391Y0107176
X0069375
Y010616
X0070391
Y0103776
X0069375
Y010276
X0070391
X0069795Y0100382
X0068295
Y0101882
X006815Y010441
X0066775Y010446
X0066795Y0103382
Y0106382
X006815Y0106335
X0065295Y0107882
Y0109382
Y0112382
Y0113882
X00637949
X0063923Y011511
X0062907
X0061891
Y0114094
X0060875
Y0113078
Y011511
X00637949Y0112382
Y0110882
Y0107882
X0060795
X00609Y009646
X0060795Y0094382
X00615Y009416
X00628Y0094185
X0064525Y009756
X0065295Y0097382
Y0098882
X00637949
X0067002Y0099017
X0068018
Y0098001
X0067002
X0069034
X007005
Y0099017
X0069034
X0066795Y0100382
X0081795Y0097382
X0081325Y009606
X0086295Y0120062
Y0121562
X0075795Y0123062
Y0124562
Y0126062
Y0127562
Y0129062
X0074295
X0072795Y0127562
Y0126062
Y0124562
Y0123062
X0074295
X0072795Y0121562
Y0120062
X0071295
Y0121562
Y0123062
X0069795
Y0121562
Y0120062
X0068295
Y0121562
Y0123062
Y0124562
X0069025Y012489
X0068295Y0126062
Y0127562
X0066795
Y0129062
X0068168Y012904
X0069184
X00702
Y0130056
X0071216
Y012904
X00698Y012764
X0066795Y0126062
Y0124562
Y0123062
Y0121562
Y0120062
X0065295Y0124562
X00637949Y0126062
X00622253Y0130365
X0060795Y0129062
Y0132062
X00615Y013334
X00643932Y01318508
X006575Y0131865
X00665932Y01314758
X0069575Y013209
X0070075
X00729
X0073425
X00765Y0131715
X0054795Y0132062
Y0130562
X0053295
X0052Y0130415
Y0131915
X0053295Y0132062
X0052Y0128915
Y0127415
Y0125915
Y0124415
Y0122915
Y0121415
Y0119915
X0052025Y0118215
X005345Y0118165
X00535Y0116735
X0054775
X0054795Y0115382
X0056295
X0056275Y0116735
X0057775
X0059275
X005945Y0118165
X005795
X005645
X005495
X0055584Y0121299
Y0122315
Y0123331
X00566
X0057616
Y0122315
Y0121299
X00566
Y0122315
X0059295Y0120062
X0058843Y011511
X0057827
X0057795Y0113882
Y0112382
Y0110882
Y0109382
Y0107882
X0059295
Y0106382
Y0104882
Y0103382
Y0101882
Y0100382
X0057795
Y0101882
Y0103382
Y0104882
Y0106382
X0056295
Y0107882
Y0109382
Y0110882
Y0113882
X0059859Y0114094
Y0113078
Y011511
X0053295Y0115382
X0052Y0115235
Y0113735
Y0112235
Y0110735
X0053295Y0110882
Y0109382
X0052Y0109235
Y0107735
X0053295Y0107882
X0054795
Y0109382
Y0106382
Y0104882
X0056295
Y0103382
Y0101882
Y0100382
Y0098882
Y0097382
X0054795Y0098882
Y0100382
Y0101882
Y0103382
X0053295
X0052Y0103235
Y0104735
X0053295Y0104882
Y0106382
X0052Y0106235
Y0101735
X0053295Y0101882
Y0100382
X0052Y0100235
Y0098735
X0053295Y0098882
X0052Y0097235
Y0095735
Y0094235
X00582932Y00990958
X0037945Y0098882
Y0100382
Y0101882
X0037575Y0102335
X003715Y010311
X00363438
X00355375
X00347313
X00338611Y0103185
X00342787Y01023637
X00334203Y01018573
X0032775Y010286
X0032425Y0100935
X0031325Y010181
X002975Y0101785
X002905Y0101685
X002825Y010171
X0027201Y01019111
X0027445Y0100382
Y0098882
X0028225Y0098385
X002835Y009946
X00289662Y01004012
X0029525Y0096835
X00295Y009466
X00325725Y0095935
X00327287Y00983637
Y00991493
X0033425Y009946
X0036445Y0098882
Y0100382
Y0101882
X00363Y0104535
X00354938
X00346875
X00334743Y01054589
X003355Y0107035
X0034125Y010786
Y010911
X0033445Y0109382
X0034025Y011031
X003505Y0111235
X0035825Y0111135
X0036841
Y0112151
X0035825
Y0113167
Y0114183
X0036841
Y0113167
X0037945Y0113882
Y0112382
Y0110882
Y0109382
Y0107882
Y0106382
X0037925Y010536
X00379125Y0104535
X00371063
X00361Y010536
X0034945Y0112382
Y0113882
Y0115382
X0034925Y0116735
X0036425
X0036445Y0115382
X0037945
X0037925Y0116735
X00381Y0118165
X00396
X00411
X00426
X00441
Y01194525
Y012074
Y01220275
X00441Y0123315
X00426Y0123315
X00411
X00396
X0038Y012334
X0037945Y0124562
Y0126062
Y0127562
Y0129062
Y0130562
Y0132062
X00346689Y01323562
X0034945Y0129062
Y0127562
X00349Y0126615
X0034945Y0124562
Y0123062
X0033445Y0121562
X00336Y0118165
X00351
X00366
X00321
X00306
X00291
X00276
X00261
X00246
X00231
X00216
X0021425Y0116735
X0021445Y0115382
X0022945
X0022925Y0116735
X0024425
X0024445Y0115382
X0025945
X0025925Y0116735
X0027425
X0027445Y0115382
X0028945
X0028925Y0116735
X0030425
X0030445Y0115382
X0031945
X0031925Y0116735
X0033425
X0033445Y0115382
Y0113882
Y0112382
X0031945
Y0113882
X0030445
X0030525Y0112035
X00303669Y01101269
X0027168Y01100197
X00252552Y01100902
X0024445Y0110882
X00248Y011151
X0022945Y0110882
Y0109382
X00229Y010826
X0021445Y0107882
Y0109382
Y0110882
Y0113882
X0022945
X0024445
X0025945
X0027445
X002755Y0112035
X0025041Y0107176
X0024025
Y010616
X0025041
Y0103776
X0024025
Y010276
X0025041
X0024445Y0100382
X0022945
Y0101882
X00228Y010441
X0021425Y010446
X0021445Y0103382
Y0106382
X00228Y0106335
X0021445Y0100382
X0021652Y0099017
X0022668
Y0098001
X0021652
X0023684
X00247
Y0099017
X0023684
X0036445Y0097382
X0037945
Y0095882
Y0094382
X0035975Y009606
X0040945Y0120062
Y0121562
X0030445Y0123062
Y0124562
Y0126062
Y0127562
Y0129062
X0028945
X0027445Y0127562
Y0126062
Y0124562
Y0123062
X0028945
X0027445Y0121562
Y0120062
X0025945
Y0121562
Y0123062
X0024445
Y0121562
Y0120062
X0022945
Y0121562
Y0123062
Y0124562
X0023675Y012489
X0022945Y0126062
Y0127562
X0021445
Y0129062
X0022818Y012904
X0023834
X002485
Y0130056
X0025866
Y012904
X002445Y012764
X0021445Y0126062
Y0124562
Y0123062
Y0121562
Y0120062
X00212432Y01314758
X00204Y0131865
X0024225Y013209
X0024725
X002755
X0028075
X003115Y0131715
X0052Y0116735
X0019925
X0019945Y0115382
Y0113882
Y0112382
X0018445
Y0113882
X0018573Y011511
X0017557
X0016541
Y0114094
X0015525
Y0113078
X0014509
Y0114094
Y011511
X0013493
X0012477
X0012445Y0113882
Y0112382
Y0110882
Y0109382
Y0107882
X0013945
X0015445
X0018445
X0019945
Y0109382
X0018445Y0110882
X0018425Y0116735
X0016925
X0015425
X0013925
X0012425
X0010925
X0010945Y0115382
Y0113882
Y0110882
Y0109382
Y0107882
Y0106382
X0012445
X0013945
Y0104882
Y0103382
Y0101882
Y0100382
X0012445
Y0101882
Y0103382
Y0104882
X0010945
Y0103382
Y0101882
Y0100382
Y0098882
Y0097382
X0009445Y0098882
Y0100382
Y0101882
Y0103382
Y0104882
Y0106382
Y0107882
Y0109382
X0007945
X000665Y0109235
Y0107735
X0007945Y0107882
Y0106382
X000665Y0106235
Y0104735
X0007945Y0104882
Y0103382
X000665Y0103235
Y0101735
X0007945Y0101882
Y0100382
X000665Y0100235
Y0098735
X0007945Y0098882
X000665Y0097235
Y0095735
Y0094235
X0015445Y0094382
X001615Y009416
X001745Y0094185
X001555Y009646
X0019175Y009756
X0019945Y0097382
Y0098882
X0018445
X00129432Y00990958
X0007945Y0110882
X000665Y0110735
Y0112235
Y0113735
Y0115235
X0007945Y0115382
X0009445
X0009425Y0116735
X000815
X00081Y0118165
X0006675Y0118215
X000665Y0116735
Y0119915
Y0121415
Y0122915
Y0124415
Y0125915
Y0127415
Y0128915
Y0130415
X0007945Y0130562
X0009445
Y0132062
X0007945
X000665Y0131915
X0015445Y0132062
X001615Y013334
X00168753Y0130365
X0015445Y0129062
X0018445Y0126062
X0019945Y0124562
X00201Y0118165
X00186
X00171
X00156
X00141
X00126
X00111
X00096
X0010234Y0121299
Y0122315
Y0123331
X001125
X0012266
Y0122315
Y0121299
X001125
Y0122315
X0013945Y0120062
X0015525Y011511
X00190432Y01318508
X001745Y0133365
X0015445Y0133562
X001555Y013564
X0019175Y013674
X0019945Y0136562
Y0138062
X0018445
X00129432Y01382758
X0012445Y0139562
X0013945
Y0141062
Y0142562
Y0144062
Y0145562
Y0147062
X0015445
X0018445
X0019945
Y0148562
Y0151562
Y0153062
Y0154562
X0019925Y0155915
X0018425
X0016925
X0015425
X0013925
X0012425
X0010925
X0010945Y0154562
Y0153062
X0012445
X0012477Y015429
X0013493
X0014509
Y0153274
Y0152258
X0015525
Y0153274
X0016541
Y015429
X0017557
X0018573
X0018445Y0153062
Y0151562
Y0150062
X0012445
Y0151562
Y0148562
Y0147062
Y0145562
Y0144062
Y0142562
Y0141062
X0010945
Y0142562
Y0144062
Y0145562
Y0147062
Y0148562
Y0150062
X0009445Y0148562
Y0147062
Y0145562
Y0144062
Y0142562
Y0141062
Y0139562
X0010945
Y0138062
Y0136562
X0009445Y0138062
X0007945
X000665Y0137915
Y0139415
X0007945Y0139562
Y0141062
X000665Y0140915
Y0142415
X0007945Y0142562
Y0144062
X000665Y0143915
Y0145415
X0007945Y0145562
Y0147062
X000665Y0146915
Y0148415
X0007945Y0148562
Y0150062
X000665Y0149915
Y0151415
Y0152915
Y0154415
X0007945Y0154562
X0009445
X0009425Y0155915
X000815
X000665
X0015525Y015429
X000665Y0136415
Y0134915
Y0133415
X0021652Y0137181
Y0138197
X0022668
Y0137181
X0023684
X00247
Y0138197
X0023684
X0022945Y0139562
X0024445
X0024025Y014194
Y0142956
X0025041
Y014194
X0022945Y0141062
X00228Y014359
X0021425Y014364
X0021445Y0142562
Y0145562
X00228Y0145515
X0024025Y014534
Y0146356
X0025041
Y014534
X00252552Y01492702
X0024445Y0150062
X00248Y015069
X0022945Y0150062
Y0148562
X00229Y014744
X0021445Y0147062
Y0148562
Y0150062
Y0153062
X0022945
X0024445
X0025945
X0027445
Y0154562
X0027425Y0155915
X0028925
X0028945Y0154562
X0030445
X0030425Y0155915
X0031925
X0031945Y0154562
X0033445
X0033425Y0155915
X0034925
X0034945Y0154562
X0036445
X0036425Y0155915
X0037925
X0037945Y0154562
Y0153062
X0036841Y0153363
X0035825
Y0152347
Y0151331
Y0150315
X003505Y0150415
X0034945Y0151562
Y0153062
X0033445
Y0151562
X0031945
Y0153062
X0030445
X0030525Y0151215
X00303669Y01493069
X0027168Y01491997
X002755Y0151215
X0025945Y0154562
X0025925Y0155915
X0024425
X0024445Y0154562
X0022945
X0022925Y0155915
X0021425
X0021445Y0154562
Y0139562
X0027445
Y0138062
X0028225Y0137565
X002835Y013864
X00289662Y01395812
X002905Y0140865
X002975Y0140965
X002825Y014089
X0027201Y01410912
X0031325Y014099
X0032425Y0140115
X00334203Y01410373
X00342787Y01415437
X00347313Y014229
X00355375
X00363438
X003715
X0037575Y0141515
X0037945Y0141062
Y0139562
Y0138062
Y0136562
Y0135062
Y0133562
X0035975Y013524
X0036445Y0136562
Y0138062
Y0139562
Y0141062
X00363Y0143715
X00354938
X00346875
X00334743Y01446389
X003355Y0146215
X0034125Y014704
Y014829
X0033445Y0148562
X0034025Y014949
X0036841Y0150315
Y0151331
Y0152347
X0037945Y0151562
Y0150062
Y0148562
Y0147062
Y0145562
X0037925Y014454
X00379125Y0143715
X00371063
X00361Y014454
X00338611Y0142365
X0032775Y014204
X00327287Y01383293
Y01375437
X0033425Y013864
X00325725Y0135115
X0029525Y0136015
X00295Y013384
X0052Y0133415
Y0134915
Y0136415
Y0137915
X0053295Y0138062
X0054795
X0056295
Y0139562
X0057795
X0059295
Y0141062
Y0142562
Y0144062
Y0145562
Y0147062
X0057795
Y0148562
Y0150062
Y0151562
Y0153062
X0057827Y015429
X0058843
X0059859
Y0153274
Y0152258
X0059275Y0155915
X0057775
X0056275
X0056295Y0154562
Y0153062
Y0150062
Y0148562
Y0147062
Y0145562
X0057795
Y0144062
Y0142562
Y0141062
X0056295
Y0142562
Y0144062
X0054795
Y0145562
Y0147062
Y0148562
X0053295
X0052Y0148415
Y0146915
X0053295Y0147062
Y0145562
X0052Y0145415
Y0143915
X0053295Y0144062
Y0142562
X0052Y0142415
Y0140915
X0053295Y0141062
X0054795
Y0142562
Y0139562
X0053295
X0052Y0139415
X0056295Y0136562
X00582932Y01382758
X0053295Y0150062
X0052Y0149915
Y0151415
Y0152915
Y0154415
X0053295Y0154562
X0054795
X0054775Y0155915
X00535
X0052
X0060775
X0062275
X0063775
X0065275
X0065295Y0154562
X0066795
X0066775Y0155915
X0068275
X0068295Y0154562
X0069795
X0069775Y0155915
X0071275
X0071295Y0154562
X0072795
X0072775Y0155915
X0074275
X0074295Y0154562
X0075795
X0075775Y0155915
X0077275
X0077295Y0154562
X0078795
X0078775Y0155915
X0080275
X0080295Y0154562
X0081795
X0081775Y0155915
X0083275
X0083295Y0154562
Y0153062
X0082191Y0153363
X0081175
Y0152347
Y0151331
Y0150315
X00804Y0150415
X0080295Y0151562
Y0153062
X0078795
Y0151562
X0077295
Y0153062
X0075795
X0075875Y0151215
X00757169Y01493069
X0072518Y01491997
X00706052Y01492702
X0069795Y0150062
X007015Y015069
X0068295Y0150062
Y0148562
X006825Y014744
X0066795Y0147062
Y0148562
Y0150062
Y0153062
X0068295
X0069795
X0071295
X0072795
X00729Y0151215
X0070391Y0146356
X0069375
Y014534
X0070391
Y0142956
X0069375
Y014194
X0070391
X0069795Y0139562
X0068295
Y0141062
X006815Y014359
X0066775Y014364
X0066795Y0142562
Y0145562
X006815Y0145515
X0065295Y0147062
Y0148562
Y0151562
Y0153062
X00637949
X0063923Y015429
X0062907
X0061891
Y0153274
X0060875
Y0152258
Y015429
X00637949Y0151562
Y0150062
Y0147062
X0060795
X00609Y013564
X0060795Y0133562
X00628Y0133365
X0064525Y013674
X0065295Y0136562
Y0138062
X00637949
X0067002Y0138197
X0068018
Y0137181
X0067002
X0069034
X007005
Y0138197
X0069034
X0066795Y0139562
X0072795
Y0138062
X0073575Y0137565
X00737Y013864
X00743162Y01395812
X00744Y0140865
X00751Y0140965
X00736Y014089
X0072551Y01410912
X0076675Y014099
X0077775Y0140115
X00787703Y01410373
X00796287Y01415437
X00800813Y014229
X00808875
X00816937
X00825
X0082925Y0141515
X0083295Y0141062
Y0139562
Y0138062
Y0136562
Y0135062
Y0133562
X0081325Y013524
X0081795Y0136562
Y0138062
Y0139562
Y0141062
X008165Y0143715
X00808438
X00800375
X00788243Y01446389
X00789Y0146215
X0079475Y014704
Y014829
X0078795Y0148562
X0079375Y014949
X0082191Y0150315
Y0151331
Y0152347
X0083295Y0151562
Y0150062
Y0148562
Y0147062
Y0145562
X0083275Y014454
X00832625Y0143715
X00824563
X008145Y014454
X00792111Y0142365
X0078125Y014204
X00780787Y01383293
Y01375437
X0078775Y013864
X00779225Y0135115
X0074875Y0136015
X007485Y013384
X009735Y0133415
Y0134915
Y0136415
Y0137915
X0098645Y0138062
Y0139562
X009735Y0139415
Y0140915
X0098645Y0141062
Y0142562
X009735Y0142415
Y0143915
X0098645Y0144062
Y0145562
X009735Y0145415
Y0146915
X0098645Y0147062
Y0148562
X009735Y0148415
Y0149915
X0098645Y0150062
X009735Y0151415
Y0152915
Y0154415
X0098645Y0154562
X009885Y0155915
X009735
X0100125
X0100145Y0154562
X0101645
X0101625Y0155915
X0103125
X0104625
X0106125
X0107625
X0109125
X0110625
X0110645Y0154562
X0112145
X0112125Y0155915
X0113625
X0113645Y0154562
X0115145
X0115125Y0155915
X0116625
X0116645Y0154562
X0118145
X0118125Y0155915
X0119625
X0119645Y0154562
X0121145
X0121125Y0155915
X0122625
X0122645Y0154562
X0124145
X0124125Y0155915
X0125625
X0125645Y0154562
X0127145
X0127125Y0155915
X0128625
X01286449Y0154562
Y0153062
X0127541Y0153363
X0126525
Y0152347
Y0151331
Y0150315
X012575Y0150415
X0125645Y0151562
Y0153062
X0124145
Y0151562
X0122645
Y0153062
X0121145
X0121225Y0151215
X01210669Y01493069
X0117868Y01491997
X01159552Y01492702
X0115145Y0150062
X01155Y015069
X0113645Y0150062
Y0148562
X01136Y014744
X0112145Y0147062
Y0148562
Y0150062
Y0153062
X0113645
X0115145
X0116645
X0118145
X011825Y0151215
X0115741Y0146356
X0114725
Y014534
X0115741
Y0142956
X0114725
Y014194
X0115741
X0115145Y0139562
X0113645
Y0141062
X01135Y014359
X0112125Y014364
X0112145Y0142562
Y0145562
X01135Y0145515
X0110645Y0147062
Y0148562
Y0151562
Y0153062
X0109145
X0109273Y015429
X0108257
X0107241
Y0153274
X0106225
Y0152258
X0105209
Y0153274
Y015429
X0104193
X0103177
X0103145Y0153062
Y0151562
Y0150062
Y0148562
Y0147062
X0104645
X0106145
X0109145
Y0150062
Y0151562
X0106225Y015429
X0101645Y0153062
Y0150062
Y0148562
Y0147062
Y0145562
X0103145
X0104645
Y0144062
Y0142562
Y0141062
Y0139562
X0103145
Y0141062
Y0142562
Y0144062
X0101645
Y0142562
Y0141062
Y0139562
Y0138062
Y0136562
X0100145Y0138062
Y0139562
Y0141062
Y0142562
Y0144062
Y0145562
Y0147062
Y0148562
X01036432Y01382758
X010625Y013564
X0106145Y0133562
X010815Y0133365
X0109875Y013674
X0110645Y0136562
Y0138062
X0109145
X0112352Y0138197
X0113368
Y0137181
X0112352
X0114384
X01154
Y0138197
X0114384
X0112145Y0139562
X0118145
Y0138062
X0118925Y0137565
X011905Y013864
X01196662Y01395812
X011975Y0140865
X012045Y0140965
X011895Y014089
X0117901Y01410912
X0122025Y014099
X0123125Y0140115
X01241203Y01410373
X01249787Y01415437
X01254313Y014229
X01262375
X01270437
X012785
X0128275Y0141515
X01286449Y0141062
Y0139562
Y0138062
Y0136562
Y0135062
Y0133562
X0126675Y013524
X0127145Y0136562
Y0138062
Y0139562
Y0141062
X0127Y0143715
X01261937
X01253875
X01241743Y01446389
X012425Y0146215
X0124825Y014704
Y014829
X0124145Y0148562
X0124725Y014949
X0127541Y0150315
Y0151331
Y0152347
X01286449Y0151562
Y0150062
Y0148562
Y0147062
Y0145562
X0128625Y014454
X01286125Y0143715
X01278063
X01268Y014454
X01245611Y0142365
X0123475Y014204
X01234287Y01383293
Y01375437
X0124125Y013864
X01232725Y0135115
X0120225Y0136015
X01202Y013384
X01427Y0133415
Y0134915
Y0136415
Y0137915
X0143995Y0138062
X0145495
X0146995
Y0139562
X0148495
X0149995
Y0141062
Y0142562
Y0144062
Y0145562
Y0147062
X0151495
X0154495
X0155995
X0157495
Y0148562
X0158995
X015895Y014744
X015885Y0145515
X0160075Y014534
Y0146356
X0161091
Y014534
Y0142956
X0160075
Y014194
X0161091
X01604949Y0139562
X0158995
Y0141062
X015885Y014359
X0157475Y014364
X0157495Y0142562
Y0145562
Y0150062
X0158995
X01604949
X016085Y015069
X01613052Y01492702
X0163218Y01491997
X01636Y0151215
X01634949Y0153062
Y0154562
X0163475Y0155915
X0164975
X01649949Y0154562
X01664949
X0166475Y0155915
X0167975
X01679949Y0154562
X01694949
X0169475Y0155915
X0170975
X01709949Y0154562
X01724949
X0172475Y0155915
X0173975
X01739949Y0154562
Y0153062
X0172891Y0153363
X0171875
Y0152347
Y0151331
Y0150315
X01711Y0150415
X01709949Y0151562
Y0153062
X01694949
Y0151562
X01679949
Y0153062
X01664949
X0166575Y0151215
X01664169Y01493069
X01694949Y0148562
X0170175Y014829
Y014704
X01696Y0146215
X01695243Y01446389
X01707375Y0143715
X01715437
X017235
X01731562
X01739625
X0173975Y014454
X01739949Y0145562
Y0147062
Y0148562
Y0150062
X0172891Y0150315
Y0151331
Y0152347
X01739949Y0151562
X0170075Y014949
X017215Y014454
X01723938Y014229
X01732
X0173625Y0141515
X01739949Y0141062
Y0139562
Y0138062
Y0136562
Y0135062
Y0133562
X0172025Y013524
X01724949Y0136562
Y0138062
Y0139562
Y0141062
X01715875Y014229
X01707813
X01699111Y0142365
X01703287Y01415437
X01694703Y01410373
X0168825Y014204
X0168475Y0140115
X0167375Y014099
X01658Y0140965
X01651Y0140865
X01643Y014089
X0163251Y01410912
X01634949Y0139562
Y0138062
X0164275Y0137565
X01644Y013864
X01650162Y01395812
X0165575Y0136015
X016555Y013384
X01686225Y0135115
X01687787Y01375437
Y01383293
X0169475Y013864
X016075Y0138197
Y0137181
X0159734
X0158718
Y0138197
X0157702
Y0137181
X0155995Y0136562
X0155225Y013674
X0154495Y0138062
X0155995
X0157495Y0139562
X0159734Y0138197
X01516Y013564
X0151495Y0133562
X01535Y0133365
X01489932Y01382758
X0148495Y0141062
Y0142562
Y0144062
Y0145562
Y0147062
Y0148562
Y0150062
Y0151562
Y0153062
X0148527Y015429
X0149543
X0150559
Y0153274
Y0152258
X0151575
Y0153274
X0152591
Y015429
X0153607
X0154623
X0154495Y0153062
X0155995
X0157495
X0158995
X01604949
X01619949
Y0154562
X0161975Y0155915
X0160475
X01604949Y0154562
X0158995
X0158975Y0155915
X0157475
X0157495Y0154562
X0155995
X0155975Y0155915
X0154475
X0152975
X0151475
X0149975
X0148475
X0146975
X0146995Y0154562
Y0153062
Y0150062
Y0148562
Y0147062
Y0145562
Y0144062
Y0142562
Y0141062
X0145495
Y0142562
Y0144062
Y0145562
Y0147062
Y0148562
X0143995
X01427Y0148415
Y0146915
X0143995Y0147062
Y0145562
X01427Y0145415
Y0143915
X0143995Y0144062
Y0142562
X01427Y0142415
Y0140915
X0143995Y0141062
Y0139562
X01427Y0139415
X0145495Y0139562
X0146995Y0136562
X0143995Y0150062
X01427Y0149915
Y0151415
Y0152915
Y0154415
X0143995Y0154562
X0145495
X0145475Y0155915
X01442
X01427
X0151575Y015429
X0154495Y0151562
X0155995
Y0148562
X0154495Y0150062
T02
X00191572Y00085916
Y00093916
X00645072
Y00085916
X01098572
Y00093916
X01552072
Y00085916
X0164925Y003485
Y003565
X01552072Y00477716
Y00485716
X01098572
Y00477716
X0119575Y003565
Y003485
X0074225
Y003565
X00645072Y00477716
Y00485716
X0028875Y003565
Y003485
X00191572Y00477716
Y00485716
Y00869516
Y00877516
X0028875Y007483
Y007403
X0074225
Y007483
X00645072Y00869516
Y00877516
X01098572
Y00869516
X0119575Y007483
Y007403
X0164925
Y007483
X01552072Y00869516
Y00877516
X0164925Y011321
Y011401
X01552072Y01261316
Y01269316
X01098572
Y01261316
X0119575Y011401
Y011321
X0074225
Y011401
X00645072Y01261316
Y01269316
X0028875Y011401
Y011321
X00191572Y01261316
Y01269316
X0028875Y015239
Y015319
X0074225
Y015239
X0119575
Y015319
X0164925
Y015239
T03
X01640212Y00262638
Y00276608
Y00290578
X01654182
X01668152
Y00276608
Y00262638
X01654182
Y00276608
X01214652
Y00290578
X01200682
X01186712
Y00276608
Y00262638
X01200682
X01214652
X01200682Y00276608
X00761152
Y00290578
X00747182
X00733212
Y00276608
Y00262638
X00747182
X00761152
X00747182Y00276608
X00307652
Y00290578
X00293682
X00279712
Y00276608
Y00262638
X00293682
X00307652
X00293682Y00276608
Y00654438
X00307652
Y00668408
Y00682378
X00293682
X00279712
Y00668408
Y00654438
X00293682Y00668408
X00733212
Y00682378
X00747182
X00761152
Y00668408
Y00654438
X00747182
X00733212
X00747182Y00668408
X01186712
Y00682378
X01200682
X01214652
Y00668408
Y00654438
X01200682
X01186712
X01200682Y00668408
X01640212
Y00682378
X01654182
X01668152
Y00668408
Y00654438
X01654182
X01640212
X01654182Y00668408
Y01046238
X01668152
Y01060208
Y01074178
X01654182
X01640212
Y01060208
Y01046238
X01654182Y01060208
X01214652
Y01074178
X01200682
X01186712
Y01060208
Y01046238
X01200682
X01214652
X01200682Y01060208
X00761152
Y01074178
X00747182
X00733212
Y01060208
Y01046238
X00747182
X00761152
X00747182Y01060208
X00307652
Y01074178
X00293682
X00279712
Y01060208
Y01046238
X00293682
X00307652
X00293682Y01060208
Y01438038
X00307652
Y01452008
Y01465978
X00293682
X00279712
Y01452008
Y01438038
X00293682Y01452008
X00733212
Y01465978
X00747182
X00761152
Y01452008
Y01438038
X00747182
X00733212
X00747182Y01452008
X01186712
Y01465978
X01200682
X01214652
Y01452008
Y01438038
X01200682
X01186712
X01200682Y01452008
X01640212
Y01465978
X01654182
X01668152
Y01452008
Y01438038
X01654182
X01640212
X01654182Y01452008
T04
X00085Y00025
X0011
X0016
X00185
X005385
X005635
X006135
X006385
X00992
X01017
X01067
X01092
X014455
X014705
X015205
X015455
Y004168
X015205
X014705
X014455
X01092
X01067
X01017
X00992
X006385
X006135
X005635
X005385
X00185
X0016
X0011
X00085
Y008086
X0011
X0016
X00185
X005385
X005635
X006135
X006385
X00992
X01017
X01067
X01092
X014455
X014705
X015205
X015455
Y012004
X015205
X014705
X014455
X01092
X01067
X01017
X00992
X006385
X006135
X005635
X005385
X00185
X0016
X0011
X00085
T05
X002955Y00024502
X003209
X003463
X003717
X003971
X004225
X00749
X007744
X007998
X008252
X008506
X00876
X012025
X012279
X012533
X012787
X013041
X013295
X01656
X016814
X017068
X017322
X017576
X01783
Y00416302
X017576
X017322
X017068
X016814
X01656
X013295
X013041
X012787
X012533
X012279
X012025
X00876
X008506
X008252
X007998
X007744
X00749
X004225
X003971
X003717
X003463
X003209
X002955
Y00808102
X003209
X003463
X003717
X003971
X004225
X00749
X007744
X007998
X008252
X008506
X00876
X012025
X012279
X012533
X012787
X013041
X013295
X01656
X016814
X017068
X017322
X017576
X01783
Y01199902
X017576
X017322
X017068
X016814
X01656
X013295
X013041
X012787
X012533
X012279
X012025
X00876
X008506
X008252
X007998
X007744
X00749
X004225
X003971
X003717
X003463
X003209
X002955
T06
X004767Y000352
X009302
X013837
X018372
Y003452
Y00427
X014502Y003453
X014509Y001777
X013837Y003452
Y00427
X009967Y003453
X009974Y001777
X009302Y003452
Y00427
X004767
Y003452
X005432Y003453
X005439Y001777
X000904
X000897Y003453
X000904Y005695
X000897Y007371
X004767Y00737
X005432Y007371
X004767Y008188
X005439Y005695
X009302Y00737
Y008188
X009967Y007371
X009974Y005695
X013837Y00737
Y008188
X014502Y007371
X014509Y005695
X018372Y00737
Y008188
Y011288
Y012106
X014502Y011289
X014509Y009613
X013837Y011288
Y012106
X009967Y011289
X009974Y009613
X009302Y011288
Y012106
X004767
Y011288
X005432Y011289
X005439Y009613
X000904
X000897Y011289
X000904Y013531
X000897Y015207
X004767Y015206
X005432Y015207
X005439Y013531
X009302Y015206
X009967Y015207
X009974Y013531
X013837Y015206
X014502Y015207
X014509Y013531
X018372Y015206
M30
